
; ASM FILE music19.asm :
; 0xECAA..0xEF1F : Music 19
Music_19:       db 0
		db 1
		db 0
		db 0C0h
		dw Music_19_Channel_0
		dw Music_19_Channel_1
		dw Music_19_Channel_2
		dw Music_19_Channel_3
		dw Music_19_Channel_4
		dw Music_19_Channel_5
		dw Music_19_Channel_6
		dw Music_19_Channel_7
		dw Music_19_Channel_9
		dw Music_19_Channel_9
Music_19_Channel_0:
		  ymStereo 0C0h
		  ymInst 25
		  ymVol 0Bh
		  release 01h
		  vibrato 02Ch
		        noteL Ds2,48
		        noteL Cs3,0
		  ymSlide 07h
		        noteL Ds3,16
		  ymStopSlide
		        noteL Cs3,11
		        note  As2
		        noteL G2,10
		        noteL Ds2,26
		  length 6
		        noteL Cs2,64
		        note  C2
		  ymVol 0Bh
		        noteL As1,8
		  ymVol 08h
		        note  As1
		  ymVol 05h
		        note  As1
		        silence
		  ymVol 0Bh
		        noteL Ds2,64
		  ymVol 09h
		        noteL Cs4,8
		  ymVol 07h
		        note  Cs4
		  ymVol 05h
		        note  Cs4
		        silence
		  ymVol 09h
		        noteL Ds4,96
		  length 24
		channel_end
Music_19_Channel_1:
		  ymStereo 0C0h
		  ymInst 7
		  release 01h
		  vibrato 02Ch
		  length 96
		  ymVol 0Ch
		        noteL Ds4,20
		  ymSustain
		        noteL F4,3
		        note  G4
		        note  Gs4
		        note  As4
		  release 01h
		        noteL C5,48
		        noteL C5,16
		        noteL As4,64
		        noteL F5,8
		  ymVol 09h
		        note  F5
		  ymVol 06h
		        note  F5
		        silence
		  ymVol 0Ch
		        noteL Ds5,64
		  ymInst 16
		  ymVol 0Dh
		        noteL C6,8
		  ymVol 0Bh
		        note  C6
		  ymVol 09h
		        note  C6
		        silence
		  ymVol 0Dh
		        noteL As5,96
		  ymVol 0Bh
		        noteL As5,6
		  ymVol 09h
		        note  As5
		  length 12
		channel_end
Music_19_Channel_2:
		  ymStereo 0C0h
		  ymInst 13
		  release 04h
		  vibrato 02Ch
		  length 16
		  ymVol 0Ch
		        noteL F4,8
		        note  F4
		        note  Gs4
		        note  Gs4
		        note  C5
		        note  C5
		        noteL Cs5,10
		  release 05h
		        noteL Cs5,11
		        note  Cs5
		  release 01h
		        noteL Ds5,32
		  length 16
		  ymInst 27
		  ymVol 08h
		        note  F4
		        note  G4
		        note  Gs4
		        noteL G4,24
		        note  F4
		        noteL Ds4,16
		  ymInst 27
		  ymVol 08h
		        noteL Gs4,8
		  ymVol 06h
		        note  Gs4
		  ymVol 04h
		        note  Gs4
		        silence
		  ymVol 08h
		        noteL G4,64
		  ymInst 16
		  ymVol 0Ch
		        noteL F5,8
		  ymVol 0Ah
		        note  F5
		  ymVol 08h
		        note  F5
		        silence
		  ymVol 0Ch
		        noteL G5,96
		  ymVol 0Ah
		        noteL G5,6
		  ymVol 08h
		        note  G5
		  length 12
		channel_end
Music_19_Channel_3:
		  ymStereo 0C0h
		  ymInst 13
		  release 04h
		  vibrato 02Ch
		  length 16
		  ymVol 0Bh
		        noteL Cs4,8
		        note  Cs4
		        note  F4
		        note  F4
		        note  Gs4
		        note  Gs4
		        noteL F4,10
		  release 05h
		        noteL F4,11
		        note  F4
		  release 01h
		        noteL G4,32
		  length 24
		  shifting 020h
		  ymStereo 080h
		  ymInst 27
		  ymVol 07h
		        noteL F4,16
		        note  G4
		        note  Gs4
		        noteL G4,24
		        note  F4
		        noteL Ds4,8
		  shifting 00h
		  ymStereo 0C0h
		  ymVol 07h
		        note  F4
		  ymVol 05h
		        note  F4
		  ymVol 03h
		        note  F4
		        silence
		  ymVol 07h
		        noteL Ds4,64
		  length 8
		  shifting 020h
		  ymStereo 040h
		  ymInst 16
		  ymVol 0Bh
		        note  F5
		  ymVol 09h
		        note  F5
		  ymVol 07h
		        note  F5
		        silence
		  ymVol 0Bh
		        noteL G5,96
		  ymVol 0Ah
		        noteL G5,6
		  ymVol 08h
		        note  G5
		  length 4
		channel_end
Music_19_Channel_4:
		channel_end
Music_19_Channel_5:
		  shifting 020h
		  ymStereo 080h
		  ymInst 13
		  release 04h
		  vibrato 02Ch
		  length 24
		  ymVol 0Bh
		        noteL F4,8
		        note  F4
		        note  Gs4
		        note  Gs4
		        note  C5
		        note  C5
		        noteL Cs5,10
		  release 05h
		        noteL Cs5,11
		        note  Cs5
		  release 01h
		  ymStereo 040h
		  ymInst 7
		  ymVol 0Bh
		        noteL Ds4,20
		  ymSustain
		        noteL F4,3
		        note  G4
		        note  Gs4
		        note  As4
		  release 01h
		        noteL C5,48
		        noteL C5,16
		        noteL As4,64
		        noteL F5,8
		  ymVol 08h
		        note  F5
		  ymVol 05h
		        note  F5
		        silence
		  ymVol 0Bh
		        noteL Ds5,64
		  ymInst 16
		  ymVol 0Ch
		        noteL C6,8
		  ymVol 0Ah
		        note  C6
		  ymVol 08h
		        note  C6
		        silence
		  ymVol 0Ch
		        noteL As5,96
		  ymVol 0Ah
		        noteL As5,6
		  ymVol 08h
		        note  As5
		  length 4
		channel_end
Music_19_Channel_6:
		  psgInst 124
		  release 01h
		  vibrato 04Ch
		        psgNoteL As3,6
		        psgNote  D4
		        psgNoteL F4,5
		        psgNote  A4
		        psgNote  As4
		        psgNote  D5
		        psgNoteL D4,6
		        psgNote  F4
		        psgNoteL A4,5
		        psgNote  As4
		        psgNote  D5
		        psgNote  F5
		        psgNoteL F4,6
		        psgNote  A4
		        psgNoteL As4,5
		        psgNote  D5
		        psgNote  F5
		        psgNote  As5
		        psgNoteL C6,6
		        psgNote  G5
		        psgNoteL E5,5
		        psgNote  D5
		        psgNote  C5
		        psgNote  G4
		        psgNoteL D4,8
		        psgNote  F4
		        psgNote  As4
		        psgNote  D5
		        psgNote  As4
		        psgNote  F4
		        psgNote  D4
		        psgNote  F4
		        psgNote  C4
		        psgNote  E4
		        psgNote  A4
		        psgNote  C5
		        psgNote  A4
		        psgNote  E4
		        psgNote  C4
		        psgNote  E4
		        psgNote  As3
		        psgNote  D4
		        psgNote  G4
		        psgNote  As4
		        psgNoteL G4,64
		  psgInst 123
		        psgNoteL D5,6
		        psgNote  F5
		        psgNoteL A5,5
		        psgNote  As5
		        psgNote  D6
		        psgNote  F6
		        psgNoteL E6,96
		  length 6
		  psgInst 6
		        silence
		  psgInst 0
		  length 12
		channel_end
Music_19_Channel_7:
		  shifting 010h
		  release 01h
		  vibrato 04Ch
		  psgInst 0
		  length 5
		  psgInst 122
		        psgNoteL As3,6
		        psgNote  D4
		        psgNoteL F4,5
		        psgNote  A4
		        psgNote  As4
		        psgNote  D5
		        psgNoteL D4,6
		        psgNote  F4
		        psgNoteL A4,5
		        psgNote  As4
		        psgNote  D5
		        psgNote  F5
		        psgNoteL F4,6
		        psgNote  A4
		        psgNoteL As4,5
		        psgNote  D5
		        psgNote  F5
		        psgNote  As5
		        psgNoteL C6,6
		        psgNote  G5
		        psgNoteL E5,5
		        psgNote  D5
		        psgNote  C5
		        psgNoteL G4,8
		        psgNote  D4
		        psgNote  F4
		        psgNote  As4
		        psgNote  D5
		        psgNote  As4
		        psgNote  F4
		        psgNote  D4
		        psgNote  F4
		        psgNote  C4
		        psgNote  E4
		        psgNote  A4
		        psgNote  C5
		        psgNote  A4
		        psgNote  E4
		        psgNote  C4
		        psgNote  E4
		        psgNote  As3
		        psgNote  D4
		        psgNote  G4
		        psgNoteL E4,69
		  psgInst 121
		        psgNoteL D5,6
		        psgNote  F5
		        psgNoteL A5,5
		        psgNote  As5
		        psgNote  D6
		        psgNote  F6
		        psgNoteL E6,96
		  length 6
		  psgInst 6
		        silence
		  psgInst 0
		  length 7
		channel_end
Music_19_Channel_9:
		channel_end
