
; ASM FILE music07.asm :
; 0xBE8F..0xC52D : Music 07
Music_7:        db 0
		db 0
		db 0
		db 0CAh
		dw Music_7_Channel_0
		dw Music_7_Channel_1
		dw Music_7_Channel_2
		dw Music_7_Channel_3
		dw Music_7_Channel_4
		dw Music_7_Channel_5
		dw Music_7_Channel_6
		dw Music_7_Channel_7
		dw Music_7_Channel_9
		dw Music_7_Channel_9
Music_7_Channel_0:
		  ymStereo 0C0h
		  ymInst 3
		  ymVol 0Dh
		  release 09h
		  vibrato 02Ch
		        noteL Gs2,12
		        note  G2
		        note  Fs2
		        note  F2
		        note  E2
		        note  Ds2
		        note  D2
		  ymInst 8
		  ymVol 0Eh
		  release 01h
		        note  As1
		  ymInst 3
		  ymVol 0Dh
		  release 09h
		        note  A1
		        note  Gs2
		        note  G2
		        note  Fs2
		        note  F2
		        note  E2
		        note  D2
		  ymInst 8
		  ymVol 0Eh
		  release 01h
		        note  As1
		  ymInst 3
		  ymVol 0Dh
		  release 09h
		countedLoopStart 2
		        noteL A1,12
		        note  Gs1
		        note  Ds2
		        note  E2
		countedLoopEnd
		        noteL A2,12
		        note  Gs2
		  ymInst 3
		  ymVol 0Dh
		  release 01h
		  ymSlide 040h
		        note  Ds3
		  ymStopSlide
		  release 09h
		        note  A2
		mainLoopStart
		        noteL D2,12
		        note  E2
		        note  F2
		        note  G2
		        note  Gs2
		        note  G2
		        note  F2
		        note  E2
		mainLoopEnd
Music_7_Channel_1:
		  ymStereo 0C0h
		  ymInst 13
		  ymVol 0Ch
		  release 01h
		  vibrato 02Ch
		        noteL Gs4,6
		        note  Gs4
		        noteL A4,24
		        noteL As4,6
		  ymVol 09h
		        note  As4
		  ymVol 07h
		        note  As4
		  ymVol 05h
		        note  As4
		  ymVol 0Ch
		        note  B4
		  ymVol 09h
		        note  B4
		  ymVol 0Ch
		        note  C5
		        note  B4
		        note  C5
		  ymVol 09h
		        note  C5
		  ymVol 07h
		        note  C5
		  ymVol 05h
		        note  C5
		  ymVol 0Ch
		        note  Gs4
		        note  Gs4
		        noteL A4,12
		        noteL As4,6
		  ymVol 09h
		        note  As4
		  ymVol 07h
		        note  As4
		  ymVol 05h
		        note  As4
		  ymVol 0Ch
		        note  B4
		  ymVol 09h
		        note  B4
		  ymVol 0Ch
		        note  C5
		        note  B4
		        note  C5
		        note  Ds5
		  vibrato 020h
		        note  Gs5
		  ymVol 09h
		        note  Gs5
		  ymVol 07h
		        note  Gs5
		  vibrato 02Ch
		  ymInst 26
		  ymVol 0Ch
		        note  Gs4
		        noteL Gs4,72
		  ymVol 0Ah
		        noteL Gs4,6
		  ymVol 08h
		        note  Gs4
		  ymVol 06h
		        note  Gs4
		  ymInst 56
		  ymVol 0Bh
		        note  G5
		        noteL G5,8
		        noteL Fs5,4
		  ymVol 09h
		        note  Fs5
		  ymVol 0Bh
		        noteL F5,56
		mainLoopStart
		countedLoopStart 1
		  vibrato 020h
		  ymInst 13
		  ymVol 0Bh
		  length 24
		        note  As5
		  ymVol 09h
		        noteL As5,12
		  ymVol 07h
		        note  As5
		  ymVol 0Bh
		        noteL As5,24
		  ymVol 09h
		        noteL As5,12
		  ymVol 07h
		        note  As5
		  ymVol 0Bh
		        noteL As5,18
		  ymVol 09h
		        noteL As5,6
		  ymVol 0Bh
		        noteL As5,8
		  ymVol 09h
		        note  As5
		  ymVol 0Bh
		        note  As5
		  ymVol 09h
		        note  As5
		  ymVol 0Bh
		        note  As5
		  ymVol 09h
		        note  As5
		countedLoopEnd
		  ymInst 26
		  ymVol 0Ch
		  vibrato 02Ch
		        noteL Fs4,4
		  ymVol 09h
		        note  Fs4
		  ymVol 0Ch
		        note  Fs4
		  ymVol 09h
		        note  Fs4
		  ymVol 0Ch
		        note  Fs4
		  ymVol 09h
		        note  Fs4
		  ymVol 0Ch
		        noteL Fs4,78
		  length 6
		repeatStart
		  ymInst 27
		  ymVol 0Ah
		        noteL E4,6
		        note  E4
		        note  E4
		  ymVol 07h
		        note  E4
		  ymVol 0Ah
		        note  Gs4
		  ymVol 07h
		        note  Gs4
		  ymVol 0Ah
		        note  Gs4
		  ymVol 07h
		        note  Gs4
		  ymVol 0Ah
		        note  C5
		  ymVol 07h
		        note  C5
		  ymVol 0Ah
		        note  C5
		  ymVol 07h
		        note  C5
		  ymVol 0Ah
		        note  Ds5
		  ymVol 07h
		        note  Ds5
		repeatSection1Start
		  length 6
		  ymInst 44
		  ymVol 0Bh
		        noteL D6,26
		        noteL Cs6,8
		        note  A5
		        noteL B5,6
		        note  F6
		  release 00h
		        noteL B5,27
		        noteL As5,3
		        note  A5
		        note  Gs5
		        note  G5
		        note  Fs5
		        note  F5
		        note  E5
		  release 01h
		repeatEnd
		repeatSection2Start
		mainLoopEnd
Music_7_Channel_2:
		  ymStereo 0C0h
		  ymInst 13
		  ymVol 0Bh
		  release 01h
		  vibrato 02Ch
		        noteL Ds4,6
		        note  Ds4
		        noteL E4,24
		        noteL F4,6
		  ymVol 08h
		        note  F4
		  ymVol 06h
		        note  F4
		  ymVol 04h
		        note  F4
		  ymVol 0Bh
		        note  Fs4
		  ymVol 08h
		        note  Fs4
		  ymVol 0Bh
		        note  G4
		        note  Fs4
		        note  G4
		  ymVol 08h
		        note  G4
		  ymVol 06h
		        note  G4
		  ymVol 04h
		        note  G4
		  ymVol 0Bh
		        note  Ds4
		        note  Ds4
		        noteL E4,12
		        noteL F4,6
		  ymVol 08h
		        note  F4
		  ymVol 06h
		        note  F4
		  ymVol 04h
		        note  F4
		  ymVol 0Bh
		        note  Fs4
		  ymVol 08h
		        note  Fs4
		  ymVol 0Bh
		        note  G4
		        note  Fs4
		        note  G4
		        note  C5
		  vibrato 020h
		        note  Ds5
		  ymVol 08h
		        note  Ds5
		  ymVol 06h
		        note  Ds5
		  vibrato 02Ch
		  ymInst 26
		  ymVol 0Bh
		        note  Ds4
		        noteL Ds4,72
		  ymVol 09h
		        noteL Ds4,6
		  ymVol 07h
		        note  Ds4
		  ymVol 05h
		        note  Ds4
		  ymInst 56
		  ymVol 0Ah
		        note  Ds5
		        noteL Ds5,8
		        noteL Ds5,4
		  ymVol 08h
		        note  Ds5
		  ymVol 0Ah
		        noteL D5,56
		mainLoopStart
		countedLoopStart 1
		  vibrato 020h
		  length 72
		  ymInst 13
		  ymVol 0Ah
		        noteL A5,24
		  ymVol 08h
		        noteL A5,12
		  ymVol 06h
		        note  A5
		  ymVol 0Ah
		        noteL Gs5,18
		  ymVol 08h
		        noteL Gs5,6
		  ymVol 0Ah
		        noteL G5,8
		  ymVol 08h
		        note  G5
		  ymVol 0Ah
		        note  Fs5
		  ymVol 08h
		        note  Fs5
		  ymVol 0Ah
		        note  G5
		  ymVol 08h
		        note  G5
		countedLoopEnd
		  vibrato 02Ch
		  ymInst 26
		  ymVol 0Bh
		        noteL D4,4
		  ymVol 08h
		        note  D4
		  ymVol 0Bh
		        note  D4
		  ymVol 08h
		        note  D4
		  ymVol 0Bh
		        note  D4
		  ymVol 08h
		        note  D4
		  ymVol 0Bh
		        noteL D4,78
		  length 6
		repeatStart
		  ymInst 27
		  ymVol 09h
		        noteL Cs4,6
		  ymVol 06h
		        note  Cs4
		  ymVol 09h
		        note  Cs4
		  ymVol 06h
		        note  Cs4
		  ymVol 09h
		        note  F4
		  ymVol 06h
		        note  F4
		  ymVol 09h
		        note  F4
		  ymVol 06h
		        note  F4
		  ymVol 09h
		        note  A4
		  ymVol 06h
		        note  A4
		  ymVol 09h
		        note  A4
		  ymVol 06h
		        note  A4
		  ymVol 09h
		        note  C5
		  ymVol 06h
		        note  C5
		repeatSection1Start
		  length 12
		  ymInst 7
		  ymVol 0Bh
		  ymSustain
		        noteL E5,6
		  release 01h
		        note  F5
		  ymSustain
		        noteL As5,18
		        noteL A5,3
		  release 01h
		        note  Gs5
		        noteL Cs5,8
		  ymVol 0Ah
		        note  Cs5
		  ymVol 0Ch
		        note  Cs5
		  ymVol 09h
		        note  Cs5
		  ymVol 0Bh
		        note  Cs5
		  ymVol 08h
		        note  Cs5
		  length 12
		repeatEnd
		repeatSection2Start
		mainLoopEnd
Music_7_Channel_3:
		  ymStereo 0C0h
		  ymInst 13
		  ymVol 0Bh
		  release 01h
		  vibrato 02Ch
		        noteL C4,6
		        note  C4
		        noteL Cs4,24
		        noteL D4,6
		  ymVol 08h
		        note  D4
		  ymVol 06h
		        note  D4
		  ymVol 04h
		        note  D4
		  ymVol 0Bh
		        note  Ds4
		  ymVol 08h
		        note  Ds4
		  ymVol 0Bh
		        note  E4
		        note  Ds4
		        note  E4
		  ymVol 08h
		        note  E4
		  ymVol 06h
		        note  E4
		  ymVol 04h
		        note  E4
		  ymVol 0Bh
		        note  C4
		        note  C4
		        noteL Cs4,12
		        noteL D4,6
		  ymVol 08h
		        note  D4
		  ymVol 06h
		        note  D4
		  ymVol 04h
		        note  D4
		  ymVol 0Bh
		        note  Ds4
		  ymVol 08h
		        note  Ds4
		  ymVol 0Bh
		        note  E4
		        note  Ds4
		        note  E4
		        note  Gs4
		  vibrato 020h
		        note  C5
		  ymVol 08h
		        note  C5
		  ymVol 06h
		        note  C5
		  vibrato 02Ch
		  ymInst 26
		  ymVol 0Bh
		        note  C4
		        noteL C4,72
		  ymVol 09h
		        noteL C4,6
		  ymVol 07h
		        note  C4
		  ymVol 05h
		        note  C4
		  ymInst 56
		  ymVol 0Ah
		        note  B4
		        noteL B4,8
		        noteL B4,4
		  ymVol 08h
		        note  B4
		  ymVol 0Ah
		        noteL B4,56
		  length 192
		        silence
		        silence
		mainLoopStart
		  length 24
		  ymInst 54
		  ymVol 0Ch
		  release 01h
		        noteL Gs3,4
		        note  C4
		        note  E4
		        note  F4
		        note  As4
		        note  B4
		        noteL E4,6
		  ymVol 0Ah
		        note  E4
		  ymVol 08h
		        note  E4
		  ymVol 0Ch
		        note  Gs4
		countedLoopStart 5
		        noteL G4,3
		        note  Gs4
		countedLoopEnd
		        noteL G4,6
		  ymVol 0Ah
		        note  G4
		  ymVol 08h
		        note  G4
		  length 46
		  ymInst 44
		  ymVol 0Ch
		  release 00h
		        noteL C6,4
		        note  A5
		        note  F5
		        note  E5
		        note  Cs5
		        note  As4
		        note  A4
		        note  F4
		        note  E4
		        noteL Cs4,6
		  ymVol 0Ah
		        note  Cs4
		  ymVol 08h
		  release 01h
		        note  Cs4
		  length 20
		  ymVol 0Ch
		        noteL As5,6
		        note  A5
		        note  Ds5
		  release 00h
		        noteL Gs5,4
		        note  A5
		        noteL G5,40
		  ymVol 0Ah
		        noteL G5,6
		  ymInst 54
		  ymVol 0Ch
		  release 01h
		        note  Ds4
		        note  F4
		        note  B4
		        noteL E4,4
		        note  Gs4
		        noteL C5,52
		        noteL C5,6
		  ymVol 0Ah
		        note  C5
		  ymVol 08h
		        note  C5
		        silence
		  ymInst 7
		  ymVol 0Bh
		        note  A4
		        noteL Gs4,86
		        noteL G4,8
		        note  B4
		        noteL Ds5,4
		        note  E5
		        noteL C5,28
		        noteL B4,4
		        note  Ds5
		        note  E5
		        noteL C5,72
		  ymVol 09h
		        noteL C5,12
		  ymVol 07h
		        note  C5
		  length 96
		mainLoopEnd
Music_7_Channel_4:
		  shifting 020h
		  length 6
		  ymStereo 040h
		  ymInst 13
		  ymVol 0Bh
		  release 01h
		  vibrato 02Ch
		        note  Gs4
		        note  Gs4
		        noteL A4,24
		        noteL As4,6
		  ymVol 08h
		        note  As4
		  ymVol 06h
		        note  As4
		  ymVol 04h
		        note  As4
		  ymVol 0Bh
		        note  B4
		  ymVol 08h
		        note  B4
		  ymVol 0Bh
		        note  C5
		        note  B4
		        note  C5
		  ymVol 08h
		        note  C5
		  ymVol 06h
		        note  C5
		  ymVol 04h
		        note  C5
		  ymVol 0Bh
		        note  Gs4
		        note  Gs4
		        noteL A4,12
		        noteL As4,6
		  ymVol 08h
		        note  As4
		  ymVol 06h
		        note  As4
		  ymVol 04h
		        note  As4
		  ymVol 0Bh
		        note  B4
		  ymVol 08h
		        note  B4
		  ymVol 0Bh
		        note  C5
		        note  B4
		        note  C5
		        note  Ds5
		  vibrato 020h
		        note  Gs5
		  ymVol 08h
		        note  Gs5
		  ymVol 06h
		        note  Gs5
		  ymStereo 080h
		  vibrato 02Ch
		  ymInst 26
		  ymVol 0Bh
		        note  Gs4
		        noteL Gs4,72
		  ymVol 09h
		        noteL Gs4,6
		  ymVol 07h
		        note  Gs4
		  ymVol 05h
		        note  Gs4
		  ymStereo 040h
		  ymInst 56
		  ymVol 0Ah
		        note  G5
		        noteL G5,8
		        noteL Fs5,4
		  ymVol 08h
		        note  Fs5
		  ymVol 0Ah
		        noteL F5,50
		  ymStereo 0C0h
		  shifting 00h
		mainLoopStart
		countedLoopStart 1
		  length 24
		  vibrato 020h
		  ymInst 13
		  ymVol 0Ah
		        note  As4
		  ymVol 08h
		        noteL As4,12
		  ymVol 06h
		        note  As4
		  ymVol 0Ah
		        noteL As4,24
		  ymVol 08h
		        noteL As4,12
		  ymVol 06h
		        note  As4
		  ymVol 0Ah
		        noteL As4,18
		  ymVol 08h
		        noteL As4,6
		  ymVol 0Ah
		        noteL As4,8
		  ymVol 08h
		        note  As4
		  ymVol 0Ah
		        note  As4
		  ymVol 08h
		        note  As4
		  ymVol 0Ah
		        note  As4
		  ymVol 08h
		        note  As4
		countedLoopEnd
		  vibrato 02Ch
		  ymInst 26
		  ymVol 0Bh
		        noteL As3,4
		  ymVol 08h
		        note  As3
		  ymVol 0Bh
		        note  As3
		  ymVol 08h
		        note  As3
		  ymVol 0Bh
		        note  As3
		  ymVol 08h
		        note  As3
		  ymVol 0Bh
		        noteL As3,78
		  length 6
		repeatStart
		  ymInst 27
		  ymVol 09h
		        noteL A3,6
		  ymVol 06h
		        note  A3
		  ymVol 09h
		        note  A3
		  ymVol 06h
		        note  A4
		  ymVol 09h
		        note  Cs4
		  ymVol 06h
		        note  Cs4
		  ymVol 09h
		        note  Cs4
		  ymVol 06h
		        note  Cs4
		  ymVol 09h
		        note  F4
		  ymVol 06h
		        note  F4
		  ymVol 09h
		        note  F4
		  ymVol 06h
		        note  F4
		  ymVol 09h
		        note  Gs4
		  ymVol 06h
		        note  Gs4
		repeatSection1Start
		  length 12
		  ymStereo 080h
		  shifting 020h
		  ymInst 44
		  ymVol 0Ah
		        noteL D6,26
		        noteL Cs6,8
		        note  A5
		        noteL B5,6
		        note  F6
		  release 00h
		        noteL B5,27
		        noteL As5,3
		        note  A5
		        note  Gs5
		        note  G5
		        note  Fs5
		  release 01h
		  ymStereo 0C0h
		  shifting 00h
		repeatEnd
		repeatSection2Start
		mainLoopEnd
Music_7_Channel_5:
		  ymStereo 0C0h
		countedLoopStart 2
		        sampleL 5,12
		        sampleL 2,3
		        sample  3
		        sample  3
		        sample  4
		        sampleL 2,6
		        sample  3
		        sampleL 2,12
		countedLoopEnd
		        sampleL 5,12
		        sampleL 2,3
		        sample  3
		        sample  3
		        sample  4
		        sampleL 2,6
		        sample  4
		        sample  3
		        sample  2
		        sampleL 5,96
		        sampleL 0,72
		        sampleL 3,3
		        sample  4
		        sample  4
		        sample  4
		        sample  4
		        sample  3
		        sample  3
		        sample  3
		mainLoopStart
		        sampleL 2,12
		        sampleL 3,6
		        sample  3
		mainLoopEnd
Music_7_Channel_6:
		  psgInst 124
		  release 01h
		  vibrato 04Ch
		countedLoopStart 1
		        psgNoteL F6,6
		        psgNote  E6
		        psgNote  Ds6
		        psgNote  D6
		        psgNote  Cs6
		        psgNote  C6
		        psgNote  B5
		        psgNote  G5
		        psgNote  Fs5
		        psgNote  G5
		        psgNote  Gs5
		        psgNote  A5
		        psgNote  As5
		        psgNote  B5
		        psgNote  C6
		        psgNote  Cs6
		countedLoopEnd
		        psgNoteL F6,6
		        silence
		  psgInst 10
		        silence
		  psgInst 6
		        silence
		  psgInst 0
		  length 24
		  psgInst 11
		countedLoopStart 11
		        psgNoteL F4,4
		        psgNote  Fs4
		countedLoopEnd
		  psgInst 12
		        psgNoteL F4,6
		        psgNote  Fs4
		        psgNote  Gs4
		        psgNote  B4
		        psgNote  Cs5
		        psgNote  D5
		        psgNote  F5
		        psgNote  Gs5
		mainLoopStart
		  psgInst 13
		        psgNoteL As5,30
		        psgNoteL A5,6
		        psgNote  Gs5
		        psgNote  D5
		        psgNoteL Cs5,54
		        psgNoteL D5,6
		        psgNote  F5
		        psgNote  Gs5
		        psgNoteL B4,24
		        psgNoteL G5,6
		        psgNote  Fs5
		        psgNoteL As4,84
		        psgNoteL As4,6
		        psgNote  Fs4
		        psgNote  G4
		        psgNote  B4
		        psgNote  Cs5
		        psgNote  D5
		        psgNote  Fs5
		        psgNote  As5
		        psgNote  E6
		  length 12
		        psgNoteL Gs5,3
		        psgNote  A5
		        psgNoteL As5,72
		  length 10
		  psgInst 10
		        silence
		  psgInst 6
		        silence
		  psgInst 13
		        psgNoteL D6,6
		        psgNote  Ds6
		        psgNote  A6
		        psgNote  G6
		        psgNote  Fs6
		        psgNote  D6
		        psgNote  Cs6
		        psgNote  As5
		        psgNote  A5
		        psgNote  Fs5
		        psgNote  D5
		        psgNote  B4
		        psgNote  As4
		  psgInst 11
		countedLoopStart 9
		        psgNoteL Fs4,4
		        psgNote  G4
		countedLoopEnd
		  psgInst 13
		        psgNoteL Fs4,4
		        psgNote  F4
		        psgNote  Fs4
		        psgNote  As4
		        psgNote  D5
		        psgNote  Fs5
		        psgNote  Cs6
		        psgNote  E6
		        psgNote  C7
		  length 6
		  psgInst 10
		        silence
		  psgInst 6
		        silence
		  psgInst 0
		  length 34
		  psgInst 13
		        psgNoteL B5,4
		        psgNote  As5
		        psgNote  G5
		  psgInst 11
		countedLoopStart 8
		        psgNoteL Fs5,4
		        psgNote  G5
		countedLoopEnd
		  psgInst 13
		        psgNoteL E5,4
		        psgNote  F5
		        psgNote  Fs5
		        psgNote  G5
		        psgNote  Gs5
		        psgNote  A5
		mainLoopEnd
Music_7_Channel_7:
		  psgInst 124
		  release 01h
		  vibrato 04Ch
		countedLoopStart 1
		        psgNoteL A5,6
		        psgNote  Gs5
		        psgNote  G5
		        psgNote  Fs5
		        psgNote  F5
		        psgNote  E5
		        psgNote  Ds5
		        psgNote  B4
		        psgNote  As4
		        psgNote  B4
		        psgNote  C5
		        psgNote  Cs5
		        psgNote  D5
		        psgNote  Ds5
		        psgNote  E5
		        psgNote  F5
		countedLoopEnd
		        psgNoteL A5,6
		        silence
		  psgInst 10
		        silence
		  psgInst 6
		        silence
		  psgInst 0
		  length 38
		  shifting 020h
		  psgInst 122
		countedLoopStart 11
		        psgNoteL F4,4
		        psgNote  Fs4
		countedLoopEnd
		  psgInst 123
		        psgNoteL F4,6
		        psgNote  Fs4
		        psgNote  Gs4
		        psgNote  B4
		        psgNote  Cs5
		        psgNote  D5
		        psgNote  F5
		        psgNote  Gs5
		mainLoopStart
		  psgInst 124
		        psgNoteL As5,30
		        psgNoteL A5,6
		        psgNote  Gs5
		        psgNote  D5
		        psgNoteL Cs5,54
		        psgNoteL D5,6
		        psgNote  F5
		        psgNote  Gs5
		        psgNoteL B4,24
		        psgNoteL G5,6
		        psgNote  Fs5
		        psgNoteL As4,84
		        psgNoteL As4,6
		        psgNote  Fs4
		        psgNote  G4
		        psgNote  B4
		        psgNote  Cs5
		        psgNote  D5
		        psgNote  Fs5
		        psgNote  As5
		        psgNote  E6
		  length 12
		        psgNoteL Gs5,3
		        psgNote  A5
		        psgNoteL As5,72
		  length 10
		  psgInst 9
		        silence
		  psgInst 5
		        silence
		  psgInst 124
		        psgNoteL D6,6
		        psgNote  Ds6
		        psgNote  A6
		        psgNote  G6
		        psgNote  Fs6
		        psgNote  D6
		        psgNote  Cs6
		        psgNote  As5
		        psgNote  A5
		        psgNote  Fs5
		        psgNote  D5
		        psgNote  B4
		        psgNote  As4
		  psgInst 122
		countedLoopStart 9
		        psgNoteL Fs4,4
		        psgNote  G4
		countedLoopEnd
		  psgInst 124
		        psgNoteL Fs4,4
		        psgNote  F4
		        psgNote  Fs4
		        psgNote  As4
		        psgNote  D5
		        psgNote  Fs5
		        psgNote  Cs6
		        psgNote  E6
		        psgNote  C7
		  length 6
		  psgInst 9
		        silence
		  psgInst 5
		        silence
		  psgInst 0
		  length 34
		  psgInst 124
		        psgNoteL B5,4
		        psgNote  As5
		        psgNote  G5
		  psgInst 122
		countedLoopStart 8
		        psgNoteL Fs5,4
		        psgNote  G5
		countedLoopEnd
		  psgInst 124
		        psgNoteL E5,4
		        psgNote  F5
		        psgNote  Fs5
		        psgNote  G5
		        psgNote  Gs5
		        psgNote  A5
		mainLoopEnd
Music_7_Channel_9:
		channel_end
