
; ASM FILE music18.asm :
; 0xEAD6..0xECAA : Music 18
Music_18:       db 0
		db 0
		db 0
		db 0CCh
		dw Music_18_Channel_0
		dw Music_18_Channel_1
		dw Music_18_Channel_2
		dw Music_18_Channel_3
		dw Music_18_Channel_4
		dw Music_18_Channel_5
		dw Music_18_Channel_6
		dw Music_18_Channel_7
		dw Music_18_Channel_9
		dw Music_18_Channel_9
Music_18_Channel_0:
		  ymStereo 0C0h
		  ymInst 20
		  ymVol 0Bh
		  release 01h
		  vibrato 02Ch
		        noteL Gs3,12
		        noteL G3,6
		  ymVol 08h
		        note  G3
		  ymInst 3
		countedLoopStart 1
		  ymVol 0Dh
		        noteL E2,6
		  ymVol 09h
		        note  E2
		  ymVol 0Dh
		        note  E2
		        note  E2
		countedLoopEnd
		        noteL B2,12
		        noteL C3,6
		  ymVol 09h
		        note  C3
		  ymVol 0Dh
		        note  F2
		  ymVol 09h
		        note  F2
		  ymVol 0Dh
		        noteL A2,18
		  ymVol 09h
		        noteL A2,9
		  ymVol 06h
		        note  A2
		  ymVol 0Dh
		        noteL A1,78
		  length 12
		channel_end
Music_18_Channel_1:
		  ymStereo 0C0h
		  ymInst 20
		  ymVol 0Ch
		  release 01h
		  vibrato 02Ch
		        noteL A4,12
		        noteL As4,6
		  ymVol 09h
		        note  As4
		  ymVol 07h
		        note  As4
		  ymInst 56
		  ymVol 0Bh
		        note  Cs4
		  ymVol 08h
		        note  Cs4
		  ymVol 0Bh
		        note  F4
		  ymVol 08h
		        note  F4
		  ymVol 0Bh
		        note  A4
		  ymVol 08h
		        note  A4
		  ymVol 0Bh
		        note  Cs5
		  ymInst 20
		  ymVol 0Ch
		        noteL E4,12
		        noteL F4,6
		  ymVol 09h
		        note  F4
		  length 12
		  ymVol 0Ch
		        noteL Cs4,114
		  length 12
		channel_end
Music_18_Channel_2:
		  ymStereo 0C0h
		  ymInst 20
		  ymVol 0Bh
		  release 01h
		  vibrato 02Ch
		        noteL F4,12
		        noteL Fs4,6
		  ymVol 08h
		        note  Fs4
		  ymVol 06h
		        note  Fs4
		  ymInst 56
		  ymVol 0Ah
		        note  B3
		  ymVol 07h
		        note  B3
		  ymVol 0Ah
		        note  Ds4
		  ymVol 07h
		        note  Ds4
		  ymVol 0Ah
		        note  G4
		  ymVol 07h
		        note  G4
		  ymVol 0Ah
		        note  B4
		        note  Gs5
		        note  G5
		        note  Fs5
		        note  F5
		        note  E5
		        note  C5
		        note  Cs5
		        note  A4
		  ymVol 0Bh
		        noteL Gs4,4
		        note  C5
		        noteL E5,5
		        note  F5
		  ymVol 0Ch
		        noteL A5,6
		        noteL Gs5,78
		  length 12
		channel_end
Music_18_Channel_3:
		  ymStereo 0C0h
		  ymInst 20
		  ymVol 0Bh
		  release 01h
		  vibrato 02Ch
		        noteL B3,12
		        noteL B3,6
		  ymVol 08h
		        note  B3
		  ymVol 06h
		        note  B3
		  ymInst 56
		  ymVol 0Ah
		        note  F3
		  ymVol 07h
		        note  F3
		  ymVol 0Ah
		        note  A3
		  ymVol 07h
		        note  A3
		  ymVol 0Ah
		        note  Cs4
		  ymVol 07h
		        note  Cs4
		  ymVol 0Ah
		        note  F4
		        silence
		  ymStereo 080h
		  shifting 010h
		  ymVol 09h
		        note  Gs5
		        note  G5
		        note  Fs5
		        note  F5
		        note  E5
		        note  C5
		        note  Cs5
		        note  A4
		  ymVol 0Ah
		        noteL Gs4,4
		        note  C5
		        note  E5
		  ymStereo 0C0h
		  shifting 00h
		  ymVol 0Bh
		        noteL F5,6
		        noteL F5,78
		  length 12
		channel_end
Music_18_Channel_4:
		  ymStereo 040h
		  shifting 020h
		  length 6
		  ymInst 20
		  ymVol 0Bh
		  release 01h
		  vibrato 02Ch
		        noteL A4,12
		        noteL As4,6
		  ymVol 08h
		        note  As4
		  length 3
		  ymInst 56
		  ymVol 0Ah
		        noteL Cs4,6
		  ymVol 07h
		        note  Cs4
		  ymVol 0Ah
		        note  F4
		  ymVol 07h
		        note  F4
		  ymVol 0Ah
		        note  A4
		  ymVol 07h
		        note  A4
		  ymVol 0Ah
		        noteL Cs5,9
		  ymInst 20
		  ymVol 0Bh
		        noteL E4,12
		        noteL F4,6
		  ymVol 08h
		        note  F4
		  length 12
		  ymVol 0Bh
		        noteL Cs4,114
		  length 6
		channel_end
Music_18_Channel_5:
		  ymStereo 0C0h
		        sampleL 5,12
		        sample  5
		countedLoopStart 1
		        sampleL 2,6
		        sample  3
		        sample  3
		        sample  3
		countedLoopEnd
		        sampleL 5,12
		        sample  2
		        sample  0
		        sample  5
		  length 15
		        sampleL 4,3
		        sample  3
		        sample  2
		        sampleL 5,72
		channel_end
Music_18_Channel_6:
		  release 01h
		  vibrato 04Ch
		  psgInst 0
		  length 72
		  psgInst 13
		        psgNoteL F4,12
		        psgNoteL Fs4,6
		        silence
		  psgInst 0
		  length 12
		  psgInst 13
		        psgNoteL F4,114
		  psgInst 0
		  length 12
		channel_end
Music_18_Channel_7:
		  release 01h
		  vibrato 04Ch
		  psgInst 0
		  length 72
		  psgInst 13
		        psgNoteL D4,12
		        psgNoteL Ds4,6
		        silence
		  psgInst 0
		  length 12
		  psgInst 13
		        psgNoteL D4,114
		  psgInst 0
		  length 12
		channel_end
Music_18_Channel_9:
		channel_end
