
; ASM FILE music02.asm :
; 0x9FA9..0xA713 : Music 02
Music_2:        db 0
		db 0
		db 0
		db 0C6h
		dw Music_2_Channel_0
		dw Music_2_Channel_1
		dw Music_2_Channel_2
		dw Music_2_Channel_3
		dw Music_2_Channel_4
		dw Music_2_Channel_5
		dw Music_2_Channel_6
		dw Music_2_Channel_7
		dw Music_2_Channel_9
		dw Music_2_Channel_9
Music_2_Channel_0:
		  ymStereo 0C0h
		  ymInst 21
		  ymVol 0Ch
		  release 01h
		  vibrato 02Ch
		  release 09h
		        noteL A3,12
		        note  Gs3
		        note  G3
		  release 09h
		        note  C3
		        note  C3
		        note  C3
		        note  C3
		  release 01h
		        note  C3
		  release 09h
		        note  C3
		        note  C3
		        note  C3
		        note  C3
		        note  C3
		  release 01h
		        note  C3
		        noteL As2,36
		        noteL A2,24
		        note  Gs2
		        noteL G2,36
		  ymSustain
		        noteL Ds2,3
		        note  E2
		  release 01h
		        noteL F2,42
		  ymSlide 01Ch
		        noteL C3,24
		        noteL F3,48
		  ymStopSlide
		        noteL F2,24
		mainLoopStart
		  release 09h
		countedLoopStart 14
		        noteL Ds3,12
		countedLoopEnd
		  release 01h
		        noteL Ds3,12
		  release 09h
		countedLoopStart 6
		        noteL D3,12
		countedLoopEnd
		  release 01h
		        noteL D3,12
		        noteL G2,24
		        note  G3
		        note  F3
		        noteL D3,6
		  ymVol 08h
		        note  D3
		  ymVol 06h
		        note  D3
		  ymVol 0Ch
		        note  D3
		  ymVol 0Ch
		        note  C4
		  ymVol 08h
		        note  C4
		  ymVol 06h
		        note  C4
		  ymVol 0Ch
		        note  C4
		        noteL C3,24
		        noteL As3,6
		  ymVol 08h
		        note  As3
		  ymVol 06h
		        note  As3
		  ymVol 0Ch
		        note  As3
		        noteL As2,24
		        noteL A3,6
		  ymVol 08h
		        note  A3
		  ymVol 06h
		        note  A3
		  ymVol 0Ch
		        note  A3
		        noteL A2,24
		        noteL G3,6
		  ymVol 08h
		        note  G3
		  ymVol 06h
		        note  G3
		  ymVol 0Ch
		        note  G3
		        noteL G2,24
		        noteL F2,72
		        noteL F3,6
		  ymVol 08h
		        note  F3
		  ymVol 06h
		        note  F3
		  ymVol 0Ch
		        note  C3
		        noteL F2,48
		  ymSlide 015h
		        note  F3
		  ymStopSlide
		mainLoopEnd
Music_2_Channel_1:
		  ymStereo 0C0h
		  ymInst 20
		  release 01h
		  vibrato 02Ch
		  ymVol 0Ch
		        noteL A4,6
		  ymVol 08h
		        note  A4
		  ymVol 0Ch
		        note  As4
		  ymVol 08h
		        note  As4
		  ymVol 0Ch
		        note  C5
		  ymVol 08h
		        note  C5
		  ymInst 13
		  ymVol 0Ch
		        note  Gs4
		  ymVol 0Ah
		        note  Gs4
		  ymVol 08h
		        note  Gs4
		  ymVol 0Ch
		        note  Gs4
		        noteL As4,36
		        noteL C5,6
		  ymVol 0Ah
		        note  C5
		  ymVol 08h
		        note  C5
		  ymVol 0Ch
		        note  C5
		        noteL D5,48
		  ymInst 56
		  ymVol 0Dh
		        noteL E5,20
		  length 4
		        note  E5
		        note  D5
		        note  C5
		        noteL F5,6
		  ymVol 0Ah
		        note  F5
		  ymVol 0Dh
		        note  D5
		  ymVol 0Ah
		        note  D5
		  ymVol 0Dh
		        note  G5
		  ymVol 0Ah
		        note  G5
		  ymVol 0Dh
		        noteL G5,4
		        note  F5
		        note  E5
		        noteL A5,6
		  ymVol 0Ah
		        note  A5
		  ymVol 0Dh
		        note  F5
		  ymVol 0Ah
		        note  F5
		  ymVol 0Dh
		        note  A5
		  ymVol 0Ah
		        note  A5
		  ymVol 0Dh
		        noteL As5,48
		        noteL G5,6
		  ymVol 0Ah
		        note  G5
		  ymVol 08h
		        note  G5
		  ymVol 0Dh
		        note  A5
		        noteL F5,72
		mainLoopStart
		  ymInst 20
		  ymVol 0Ch
		        noteL As4,36
		        noteL A4,4
		        note  G4
		        note  F4
		        noteL G4,12
		        noteL Ds4,6
		  ymVol 09h
		        note  Ds4
		  ymVol 07h
		        note  Ds4
		  ymVol 05h
		        note  Ds4
		  ymVol 0Ch
		        noteL As4,12
		        noteL C5,6
		  ymVol 09h
		        note  C5
		  ymVol 07h
		        note  C5
		  ymVol 0Ch
		        note  F4
		        noteL F4,48
		        noteL C5,18
		  ymVol 09h
		        noteL C5,6
		  ymVol 0Ch
		        noteL C5,36
		        noteL As4,4
		        note  A4
		        note  G4
		        noteL A4,12
		        note  As4
		        noteL C5,6
		  ymVol 09h
		        note  C5
		  ymVol 07h
		        note  C5
		  ymVol 0Ch
		        note  F5
		        noteL D5,60
		  ymInst 7
		  ymVol 0Ch
		        noteL B4,12
		        note  C5
		        note  D5
		        noteL Ds5,30
		  ymVol 09h
		        noteL Ds5,6
		  ymVol 0Ch
		        noteL Ds5,4
		        note  D5
		        note  C5
		        noteL F5,12
		        noteL D5,6
		  ymVol 09h
		        note  D5
		  ymVol 07h
		        note  D5
		  ymVol 05h
		        note  D5
		  ymVol 0Ch
		        note  Ds5
		        note  F5
		        noteL G5,30
		  ymVol 09h
		        noteL G5,6
		  ymVol 0Ch
		        noteL G5,4
		        note  F5
		        note  E5
		        noteL A5,12
		        note  Fs5
		        noteL G5,6
		  ymVol 09h
		        note  G5
		  ymVol 07h
		        note  G5
		  ymVol 0Ch
		        note  A5
		        noteL As5,30
		  ymVol 09h
		        noteL As5,6
		  ymVol 0Ch
		        note  A4
		        note  As4
		        note  D5
		        note  Ds5
		        note  G5
		        note  A5
		        note  As5
		  ymVol 09h
		        note  As5
		  ymVol 07h
		        note  As5
		  ymVol 0Ch
		        note  C6
		        noteL C6,96
		mainLoopEnd
Music_2_Channel_2:
		  ymStereo 0C0h
		  ymInst 13
		  ymVol 0Bh
		  release 01h
		  vibrato 02Ch
		        noteL Cs4,6
		        note  A3
		        note  D4
		        note  As3
		        note  E4
		        note  C4
		        note  F4
		  ymVol 09h
		        note  F4
		  ymVol 07h
		        note  F4
		  ymVol 0Bh
		        note  F4
		        noteL G4,12
		  release 03h
		  ymInst 27
		  ymVol 0Bh
		        noteL Ds4,6
		  ymVol 0Ah
		        note  Ds4
		        noteL Ds4,12
		  release 01h
		  ymInst 13
		  ymVol 0Bh
		        noteL A4,6
		  ymVol 09h
		        note  A4
		  ymVol 07h
		        note  A4
		  ymVol 0Bh
		        note  A4
		        noteL B4,12
		  release 03h
		  ymInst 27
		  ymVol 0Bh
		        noteL G4,6
		  ymVol 09h
		        note  G4
		  ymVol 0Bh
		        note  A4
		  ymVol 09h
		        note  A4
		  ymVol 0Bh
		        note  B4
		  ymVol 09h
		        note  B4
		  release 01h
		  ymInst 13
		  ymVol 0Bh
		        noteL C4,36
		        noteL D4,6
		  ymVol 08h
		        note  D4
		  ymVol 0Bh
		        note  As3
		  ymVol 08h
		        note  As3
		  ymVol 0Bh
		        noteL E4,24
		        noteL F4,6
		  ymVol 08h
		        note  F4
		  ymVol 0Bh
		        note  D4
		  ymVol 08h
		        note  D4
		  ymVol 0Bh
		        note  E4
		        note  F4
		        noteL G4,48
		        noteL Ds4,6
		  ymVol 08h
		        note  Ds4
		  ymVol 06h
		        note  Ds4
		  ymVol 0Bh
		        note  Ds4
		        note  A3
		  ymVol 08h
		        note  A3
		  ymInst 16
		  ymVol 0Bh
		  release 00h
		        noteL F5,4
		        note  G5
		        note  A5
		        note  As5
		        note  C6
		        note  D6
		        note  Ds6
		        note  F6
		        note  G6
		        note  F6
		        note  G6
		        note  F6
		        note  G6
		        noteL F6,8
		  release 01h
		mainLoopStart
		  shifting 00h
		  ymStereo 0C0h
		  length 12
		  ymInst 3
		  ymVol 0Bh
		        noteL G3,6
		        note  G3
		        noteL G3,24
		        noteL As3,12
		        noteL As3,6
		  ymVol 08h
		        note  As3
		  ymVol 06h
		        note  As3
		        silence
		  ymVol 0Bh
		        note  Ds4
		  ymVol 08h
		        note  Ds4
		  ymVol 0Bh
		        note  A3
		  ymVol 08h
		        note  A3
		  ymVol 06h
		        note  A3
		  ymVol 0Bh
		        note  A3
		        noteL A3,48
		        noteL A3,24
		  ymVol 08h
		        noteL A3,6
		  ymVol 06h
		        note  A3
		  ymVol 0Bh
		        note  F4
		        note  F4
		        noteL F4,24
		        note  F4
		        noteL F4,6
		  ymVol 08h
		        note  F4
		  ymVol 06h
		        note  F4
		  ymVol 0Bh
		        note  F4
		        noteL B3,96
		        noteL G3,6
		  ymVol 08h
		        note  G3
		  ymVol 06h
		        note  G3
		  shifting 020h
		  ymStereo 080h
		  ymInst 27
		  ymVol 09h
		        noteL G3,12
		        note  F3
		        note  Ds3
		        noteL F3,16
		        note  As3
		        note  D4
		        noteL E4,18
		        note  D4
		        noteL C4,12
		        noteL A3,48
		  length 24
		        note  As3
		        note  Ds4
		        note  G4
		        noteL As4,48
		        noteL A4,42
		mainLoopEnd
Music_2_Channel_3:
		  ymStereo 0C0h
		  ymInst 13
		  ymVol 0Bh
		  release 01h
		  vibrato 02Ch
		        noteL E3,6
		        note  Cs3
		        note  F3
		        note  D3
		        note  G3
		        note  E3
		        note  Cs4
		  ymVol 09h
		        note  Cs4
		  ymVol 07h
		        note  Cs4
		  ymVol 0Bh
		        note  Cs4
		        noteL Ds4,12
		  release 03h
		  ymInst 27
		  ymVol 0Bh
		        noteL G3,6
		  ymVol 0Ah
		        note  G3
		        noteL G3,12
		  release 01h
		  ymInst 13
		  ymVol 0Bh
		        noteL F4,6
		  ymVol 09h
		        note  F4
		  ymVol 07h
		        note  F4
		  ymVol 0Bh
		        note  F4
		        noteL G4,12
		  release 03h
		  ymInst 27
		  ymVol 0Bh
		        noteL B3,6
		  ymVol 09h
		        note  B3
		  ymVol 0Bh
		        note  C4
		  ymVol 09h
		        note  C4
		  ymVol 0Bh
		        note  D4
		  ymVol 09h
		        note  D4
		  release 01h
		  ymInst 19
		  ymVol 0Ah
		        note  C4
		        note  B3
		        note  C4
		        note  E4
		        noteL C5,4
		        note  B4
		        note  A4
		        noteL As4,6
		        note  G4
		        note  F4
		        note  D4
		        note  E4
		        note  G4
		        noteL E5,4
		        note  D5
		        note  C5
		        noteL D5,6
		        note  A4
		        note  E4
		        note  F4
		        note  A4
		        note  F4
		  ymInst 62
		  ymVol 0Eh
		        noteL B2,72
		        noteL B2,40
		  release 00h
		  ymVol 09h
		        noteL B2,4
		        note  B2
		  ymVol 0Ah
		        note  B2
		        note  B2
		  ymVol 0Bh
		        note  B2
		  ymVol 0Ch
		        note  B2
		  ymVol 0Dh
		        note  B2
		  ymVol 0Eh
		        note  B2
		  ymInst 61
		  ymVol 0Eh
		        noteL B2,48
		  release 01h
		mainLoopStart
		  ymInst 3
		  ymVol 0Bh
		        noteL Ds3,12
		        noteL G3,6
		  ymVol 08h
		        note  G3
		  ymVol 06h
		        note  G3
		        silence
		  ymVol 0Bh
		        note  G3
		  ymVol 08h
		        note  G3
		  ymVol 0Bh
		        note  F4
		  ymVol 08h
		        note  F4
		  ymVol 06h
		        note  F4
		  ymVol 0Bh
		        note  C4
		        noteL C4,24
		  ymInst 44
		  ymVol 0Ch
		        noteL C6,6
		  ymVol 09h
		        note  C6
		  ymVol 07h
		        note  C6
		  ymVol 0Ch
		        note  F5
		  ymSustain
		        noteL F5,24
		  ymVol 09h
		        noteL F5,6
		  release 01h
		  ymVol 07h
		        note  F5
		  ymInst 3
		  ymVol 0Bh
		        note  A3
		        note  A3
		        noteL A3,24
		        note  D4
		        noteL A3,6
		  ymVol 08h
		        note  A3
		  ymVol 06h
		        note  A3
		  ymVol 0Bh
		        note  A3
		  ymInst 44
		  ymVol 0Ch
		        noteL G5,12
		        note  A5
		        noteL B5,6
		  ymVol 09h
		        note  B5
		  ymVol 07h
		        note  B5
		  ymVol 0Ch
		        note  D6
		  release 00h
		        noteL G6,4
		        note  A6
		        note  G6
		        note  A6
		        note  G6
		        note  A6
		  release 01h
		        noteL G6,24
		  ymVol 09h
		        noteL G6,6
		  ymVol 07h
		        note  G6
		  ymInst 27
		  ymVol 0Ah
		        noteL G3,12
		        note  F3
		        note  Ds3
		        noteL F3,16
		        note  As3
		        note  D4
		        noteL E4,18
		        note  D4
		        noteL C4,12
		        noteL A3,48
		  length 24
		        note  As3
		        note  Ds4
		        note  G4
		        noteL As4,48
		        note  A4
		  ymInst 3
		  ymVol 0Bh
		  length 12
		        noteL Ds3,6
		        note  Ds3
		        noteL Ds3,24
		mainLoopEnd
Music_2_Channel_4:
		  length 6
		  shifting 020h
		  ymStereo 040h
		  ymInst 20
		  release 01h
		  vibrato 02Ch
		  ymVol 0Bh
		        note  A4
		  ymVol 08h
		        note  A4
		  ymVol 0Bh
		        note  As4
		  ymVol 08h
		        note  As4
		  ymVol 0Bh
		        note  C5
		  ymVol 08h
		        note  C5
		  ymStereo 080h
		  ymInst 13
		  ymVol 0Bh
		        note  Gs4
		  ymVol 09h
		        note  Gs4
		  ymVol 07h
		        note  Gs4
		  ymVol 0Bh
		        note  Gs4
		        noteL As4,36
		        noteL C5,6
		  ymVol 09h
		        note  C5
		  ymVol 07h
		        note  C5
		  ymVol 0Bh
		        note  C5
		        noteL D5,48
		  ymStereo 040h
		  ymInst 56
		  ymVol 0Ch
		        noteL E5,20
		  length 4
		        note  E5
		        note  D5
		        note  C5
		        noteL F5,6
		  ymVol 09h
		        note  F5
		  ymVol 0Ch
		        note  D5
		  ymVol 09h
		        note  D5
		  ymVol 0Ch
		        note  G5
		  ymVol 09h
		        note  G5
		  ymVol 0Ch
		        noteL G5,4
		        note  F5
		        note  E5
		        noteL A5,6
		  ymVol 09h
		        note  A5
		  ymVol 0Ch
		        note  F5
		  ymVol 09h
		        note  F5
		  ymVol 0Ch
		        note  A5
		  ymVol 09h
		        note  A5
		  ymVol 0Ch
		        noteL As5,48
		        noteL G5,6
		  ymVol 09h
		        note  G5
		  ymVol 07h
		        note  G5
		  ymVol 0Ch
		        note  A5
		        noteL F5,12
		  ymStereo 080h
		  ymInst 16
		  ymVol 0Ah
		  release 00h
		        noteL F5,4
		        note  G5
		        note  A5
		        note  As5
		        note  C6
		        note  D6
		        note  Ds6
		        note  F6
		        note  G6
		        note  F6
		        note  G6
		        note  F6
		        note  G6
		        noteL F6,8
		  release 01h
		mainLoopStart
		  ymStereo 040h
		  ymInst 20
		  ymVol 0Bh
		        noteL As4,36
		        noteL A4,4
		        note  G4
		        note  F4
		        noteL G4,12
		        noteL Ds4,6
		  ymVol 08h
		        note  Ds4
		  ymVol 06h
		        note  Ds4
		  ymVol 04h
		        note  Ds4
		  ymVol 0Bh
		        noteL As4,12
		        noteL C5,6
		  ymVol 08h
		        note  C5
		  ymVol 06h
		        note  C5
		  ymVol 0Bh
		        note  F4
		        noteL F4,24
		  ymStereo 080h
		  ymInst 44
		  ymVol 0Bh
		        noteL C6,6
		  ymVol 08h
		        note  C6
		  ymVol 06h
		        note  C6
		  ymVol 0Bh
		        note  F5
		        noteL F5,24
		  ymStereo 040h
		  ymInst 20
		  ymVol 0Bh
		        noteL C5,36
		        noteL As4,4
		        note  A4
		        note  G4
		        noteL A4,12
		        note  As4
		        noteL C5,6
		  ymVol 08h
		        note  C5
		  ymVol 06h
		        note  C5
		  ymVol 0Bh
		        note  F5
		  ymStereo 080h
		  ymInst 44
		  ymVol 0Bh
		        noteL G5,12
		        note  A5
		        noteL B5,6
		  ymVol 08h
		        note  B5
		  ymVol 06h
		        note  B5
		  ymVol 0Bh
		        note  D6
		  release 00h
		        noteL G6,4
		        note  A6
		        note  G6
		  release 01h
		  ymStereo 040h
		  ymInst 7
		  ymVol 0Bh
		        noteL B4,12
		        note  C5
		        note  D5
		        noteL Ds5,30
		  ymVol 08h
		        noteL Ds5,6
		  ymVol 0Bh
		        noteL Ds5,4
		        note  D5
		        note  C5
		        noteL F5,12
		        noteL D5,6
		  ymVol 08h
		        note  D5
		  ymVol 06h
		        note  D5
		  ymVol 04h
		        note  D5
		  ymVol 0Bh
		        note  Ds5
		        note  F5
		        noteL G5,30
		  ymVol 08h
		        noteL G5,6
		  ymVol 0Bh
		        noteL G5,4
		        note  F5
		        note  E5
		        noteL A5,12
		        note  Fs5
		        noteL G5,6
		  ymVol 08h
		        note  G5
		  ymVol 06h
		        note  G5
		  ymVol 0Bh
		        note  A5
		        noteL As5,30
		  ymVol 08h
		        noteL As5,6
		  ymVol 0Bh
		        note  A4
		        note  As4
		        note  D5
		        note  Ds5
		        note  G5
		        note  A5
		        note  As5
		  ymVol 08h
		        note  As5
		  ymVol 06h
		        note  As5
		  ymVol 0Bh
		        note  C6
		        noteL C6,96
		mainLoopEnd
Music_2_Channel_5:
		  ymStereo 0C0h
		        sampleL 5,12
		        sample  5
		        sample  5
		repeatStart
		        sampleL 5,12
		        sampleL 5,4
		        sample  3
		        sample  3
		repeatSection1Start
		        sampleL 2,6
		        sampleL 3,12
		        sampleL 3,6
		        sampleL 2,12
		repeatEnd
		repeatSection2Start
		        sampleL 2,12
		        sample  3
		        sampleL 2,6
		        sample  3
		        sampleL 2,12
		        sampleL 2,6
		        sample  3
		        sample  3
		        sample  3
		        sampleL 2,12
		        sample  0
		        sample  2
		        sampleL 2,6
		        sample  3
		        sampleL 2,12
		        sample  0
		        sampleL 2,6
		        sample  2
		        sample  2
		        sample  2
		        sampleL 0,72
		        sampleL 0,48
		        sampleL 4,3
		        sample  4
		        sample  4
		        sample  4
		        sample  3
		        sample  3
		        sample  3
		        sample  3
		mainLoopStart
		countedLoopStart 1
		        sampleL 2,12
		        sampleL 2,4
		        sample  3
		        sample  3
		        sampleL 2,12
		        sample  3
		        sampleL 5,18
		        sampleL 3,6
		        sample  2
		        sample  3
		        sampleL 2,12
		        sample  2
		        sampleL 2,4
		        sample  3
		        sample  3
		        sampleL 2,12
		        sample  3
		        sampleL 5,18
		        sampleL 3,5
		        sampleL 4,1
		        sampleL 2,6
		        sample  3
		        sample  3
		        sample  3
		countedLoopEnd
		countedLoopStart 3
		        sampleL 2,12
		        sampleL 2,4
		        sample  3
		        sample  3
		        sampleL 5,24
		countedLoopEnd
		        sampleL 5,24
		        sample  1
		        sample  0
		        sampleL 5,18
		        sampleL 3,6
		        sampleL 5,72
		        sampleL 4,3
		        sample  4
		        sample  4
		        sample  4
		        sample  3
		        sample  3
		        sample  3
		        sample  3
		mainLoopEnd
Music_2_Channel_6:
		  release 01h
		  vibrato 04Ch
		  psgInst 12
		  release 07h
		        psgNoteL Fs5,12
		        psgNote  G5
		        psgNote  A5
		  release 01h
		  psgInst 125
		        psgNoteL D4,6
		        psgNote  As3
		        psgNote  D4
		        psgNote  As3
		        psgNote  E4
		        psgNote  C4
		        psgNote  E4
		        psgNote  C4
		        psgNote  E4
		        psgNote  C4
		        psgNote  Fs4
		        psgNote  D4
		        psgNote  Fs4
		        psgNote  D4
		        psgNote  Gs4
		        psgNote  E4
		        psgNote  E5
		        psgNote  Gs4
		        psgNote  Fs5
		        psgNote  A4
		        psgNote  Gs5
		        psgNote  B4
		        psgNote  A4
		        psgNote  Fs4
		        psgNote  Cs4
		        psgNote  Fs4
		        psgNote  A4
		        psgNote  Fs4
		        psgNote  B4
		        psgNote  G4
		        psgNote  D4
		        psgNote  G4
		        psgNote  Cs5
		        psgNote  A4
		        psgNote  E4
		        psgNote  A4
		        psgNote  D5
		        psgNote  B4
		        psgNote  Fs4
		        psgNote  B4
		        psgNote  D5
		        psgNote  B4
		        psgNote  E5
		        psgNote  Ds5
		        psgNote  E5
		        psgNote  G5
		        psgNoteL C6,24
		        psgNoteL C6,4
		        psgNote  B5
		        psgNote  A5
		        psgNote  G5
		        psgNote  Fs5
		        psgNote  E5
		countedLoopStart 1
		        psgNoteL Fs5,6
		        psgNote  F5
		        psgNote  Fs5
		        psgNote  A5
		countedLoopEnd
		        psgNoteL Fs5,24
		mainLoopStart
		  psgInst 28
		countedLoopStart 7
		        psgNoteL E5,12
		countedLoopEnd
		countedLoopStart 5
		        psgNoteL Fs5,12
		countedLoopEnd
		        psgNoteL Fs5,18
		        psgNoteL Fs5,6
		countedLoopStart 7
		        psgNoteL Fs5,12
		countedLoopEnd
		        psgNoteL Gs5,12
		        psgNote  Gs5
		        psgNote  Gs5
		        psgNote  Gs5
		        psgNote  E5
		        psgNote  E5
		        psgNoteL B4,18
		        psgNoteL B4,6
		  psgInst 125
		        psgNoteL A6,48
		        psgNote  B6
		        psgNote  Cs7
		        psgNote  Ds7
		        psgNoteL E7,96
		  psgInst 13
		countedLoopStart 3
		        psgNoteL D7,6
		        psgNote  C7
		        psgNote  D7
		        psgNote  A6
		countedLoopEnd
		mainLoopEnd
Music_2_Channel_7:
		  release 01h
		  vibrato 04Ch
		  psgInst 12
		  release 07h
		        psgNoteL As4,12
		        psgNote  B4
		        psgNote  Cs5
		  length 9
		  release 01h
		  shifting 010h
		  psgInst 123
		        psgNoteL D4,6
		        psgNote  As3
		        psgNote  D4
		        psgNote  As3
		        psgNote  E4
		        psgNote  C4
		        psgNote  E4
		        psgNote  C4
		        psgNote  E4
		        psgNote  C4
		        psgNote  Fs4
		        psgNote  D4
		        psgNote  Fs4
		        psgNote  D4
		        psgNote  Gs4
		        psgNote  E4
		        psgNote  E5
		        psgNote  Gs4
		        psgNote  Fs5
		        psgNote  A4
		        psgNote  Gs5
		        psgNote  B4
		        psgNote  A4
		        psgNote  Fs4
		        psgNote  Cs4
		        psgNote  Fs4
		        psgNote  A4
		        psgNote  Fs4
		        psgNote  B4
		        psgNote  G4
		        psgNote  D4
		        psgNote  G4
		        psgNote  Cs5
		        psgNote  A4
		        psgNote  E4
		        psgNote  A4
		        psgNote  D5
		        psgNote  B4
		        psgNote  Fs4
		        psgNote  B4
		        psgNote  D5
		        psgNote  B4
		        psgNote  E5
		        psgNote  Ds5
		        psgNote  E5
		        psgNote  G5
		        psgNoteL C6,24
		        psgNoteL C6,4
		        psgNote  B5
		        psgNote  A5
		        psgNote  G5
		        psgNote  Fs5
		        psgNote  E5
		countedLoopStart 1
		        psgNoteL Fs5,6
		        psgNote  F5
		        psgNote  Fs5
		        psgNote  A5
		countedLoopEnd
		        psgNoteL Fs5,15
		mainLoopStart
		  shifting 00h
		  psgInst 28
		countedLoopStart 7
		        psgNoteL C5,12
		countedLoopEnd
		countedLoopStart 5
		        psgNoteL D5,12
		countedLoopEnd
		        psgNoteL D5,18
		        psgNoteL D5,6
		countedLoopStart 7
		        psgNoteL D5,12
		countedLoopEnd
		        psgNoteL E5,12
		        psgNote  E5
		        psgNote  E5
		        psgNote  E5
		        psgNote  Gs4
		        psgNote  Gs4
		        psgNoteL Gs4,18
		        psgNote  Gs4
		  shifting 010h
		  psgInst 123
		        psgNoteL A6,48
		        psgNote  B6
		        psgNote  Cs7
		        psgNote  Ds7
		        psgNoteL E7,93
		  psgInst 11
		countedLoopStart 2
		        psgNoteL D7,6
		        psgNote  C7
		        psgNote  D7
		        psgNote  A6
		countedLoopEnd
		        psgNoteL D7,6
		        psgNote  C7
		        psgNoteL D7,3
		mainLoopEnd
Music_2_Channel_9:
		channel_end
