
; ASM FILE music16.asm :
; 0xE4FA..0xE832 : Music 16
Music_16:       db 0
		db 1
		db 0
		db 0D1h
		dw Music_16_Channel_0
		dw Music_16_Channel_1
		dw Music_16_Channel_2
		dw Music_16_Channel_3
		dw Music_16_Channel_4
		dw Music_16_Channel_5
		dw Music_16_Channel_9
		dw Music_16_Channel_9
		dw Music_16_Channel_9
		dw Music_16_Channel_9
Music_16_Channel_0:
		  ymStereo 0C0h
		  release 01h
		  vibrato 02Ch
		  ymInst 25
		  ymVol 0Ch
		mainLoopStart
		        noteL A2,192
		        note  E2
		        note  D2
		        noteL Gs2,96
		        note  E2
		        noteL A2,192
		        note  E2
		        note  B2
		        noteL E2,96
		        noteL E3,36
		        note  B2
		        noteL E2,24
		        noteL As2,192
		        note  A2
		        note  G2
		        note  F2
		        note  As2
		        note  A2
		        noteL D2,96
		        note  F2
		        note  E2
		        note  As2
		mainLoopEnd
Music_16_Channel_1:
		  ymStereo 0C0h
		  release 01h
		  length 48
		mainLoopStart
		  vibrato 02Ch
		  ymInst 7
		  ymVol 0Bh
		        noteL B4,48
		        note  A4
		        note  E5
		        note  D5
		        noteL C5,24
		        note  B4
		        noteL A4,72
		        noteL G4,12
		        note  A4
		        noteL B4,24
		        note  G4
		        noteL E4,96
		        noteL D4,24
		  ymSustain
		        noteL G4,216
		  vibrato 020h
		  ymVol 09h
		        noteL G4,12
		  ymVol 07h
		        note  G4
		  ymVol 05h
		        note  G4
		  ymVol 03h
		  release 01h
		        note  G4
		  vibrato 02Ch
		  ymVol 0Bh
		        noteL B4,48
		        note  A4
		        note  G5
		        note  Fs5
		        noteL E5,24
		        note  D5
		        noteL E5,72
		        noteL D5,12
		        note  E5
		        noteL F5,24
		        note  E5
		  ymSustain
		        noteL D5,72
		  vibrato 020h
		  ymVol 09h
		        noteL D5,12
		  ymVol 07h
		  release 01h
		        note  D5
		  vibrato 02Ch
		  ymVol 0Bh
		        noteL B4,24
		  ymSustain
		        noteL E5,192
		  vibrato 020h
		  ymVol 09h
		        noteL E5,12
		  release 01h
		  ymVol 07h
		        note  E5
		  vibrato 02Ch
		  ymInst 26
		  ymVol 0Dh
		repeatStart
		        noteL A4,24
		        note  As4
		        note  D5
		        note  F5
		        noteL A5,96
		        noteL B4,24
		        note  C5
		        note  E5
		        note  G5
		        noteL B5,96
		        noteL D5,24
		        note  E5
		        note  F5
		        note  A5
		        noteL E6,32
		        note  D6
		repeatSection1Start
		        noteL C6,32
		        noteL B5,78
		        noteL As5,6
		        note  A5
		        note  Gs5
		        noteL G5,96
		repeatEnd
		repeatSection2Start
		  ymSustain
		        noteL G6,224
		  vibrato 020h
		  ymVol 0Bh
		        noteL G6,12
		  ymVol 09h
		        note  G6
		  ymVol 07h
		        note  G6
		  ymVol 05h
		  release 01h
		        note  G6
		mainLoopEnd
Music_16_Channel_2:
		  ymStereo 0C0h
		  release 01h
		  vibrato 02Ch
		mainLoopStart
		  length 48
		  ymInst 25
		  ymVol 0Bh
		        note  A3
		        noteL C4,96
		  length 48
		        note  E3
		        noteL G3,96
		  length 48
		        note  D3
		        noteL F3,96
		  length 48
		        noteL G3,50
		        noteL D4,94
		  length 48
		        note  A3
		        noteL C4,96
		  length 48
		        note  E3
		        noteL Gs3,96
		  length 72
		        noteL B3,24
		        noteL F4,96
		  length 48
		        noteL A3,50
		        noteL Gs3,94
		        noteL D4,96
		        noteL F4,32
		        note  E4
		        note  D4
		        noteL C4,96
		        noteL E4,32
		        note  D4
		        note  C4
		        noteL As3,96
		        noteL D4,48
		        note  G4
		        noteL E4,128
		  ymInst 5
		  ymVol 0Ch
		        noteL E4,32
		        note  A3
		  ymInst 25
		  ymVol 0Bh
		        noteL D4,96
		        noteL F4,32
		        note  E4
		        note  D4
		        noteL C4,96
		        noteL E4,32
		        note  D4
		        note  C4
		        noteL A3,98
		        noteL D4,94
		        noteL D4,64
		  ymInst 5
		  ymVol 0Ch
		        noteL D4,34
		        noteL D4,94
		mainLoopEnd
Music_16_Channel_3:
		  ymStereo 0C0h
		  release 01h
		  vibrato 02Ch
		  ymInst 25
		mainLoopStart
		  length 24
		  ymVol 0Bh
		        noteL E3,48
		        noteL B3,120
		  length 24
		        noteL B2,48
		        noteL Fs3,120
		  length 24
		        noteL A2,48
		        noteL E3,120
		  length 24
		        noteL Ds3,48
		        noteL As3,24
		        noteL B3,48
		        note  E3
		  length 24
		        noteL E3,48
		        noteL B3,120
		  length 24
		        noteL B2,48
		        noteL Fs3,120
		  length 24
		        note  F3
		        noteL A3,144
		  length 24
		        noteL B2,48
		        noteL B3,120
		        noteL F3,96
		        noteL D4,32
		        note  C4
		        note  As3
		        noteL E3,96
		        noteL C4,32
		        note  B3
		        note  A3
		        noteL D3,96
		        note  As3
		        noteL A3,112
		  ymInst 5
		  ymVol 0Ch
		        noteL A4,32
		        note  C4
		        noteL E3,16
		  ymInst 25
		  ymVol 0Bh
		        noteL F3,96
		        noteL D4,32
		        note  C4
		        note  As3
		        noteL E3,96
		        noteL C4,32
		        note  B3
		        note  A3
		        noteL F3,96
		        noteL A3,48
		        noteL A4,50
		        noteL B3,46
		  ymInst 5
		  ymVol 0Ch
		        noteL G4,32
		        noteL B3,16
		  ymInst 25
		  ymVol 0Bh
		        noteL Gs3,96
		mainLoopEnd
Music_16_Channel_4:
		  shifting 020h
		  ymStereo 040h
		  release 01h
		  vibrato 02Ch
		  length 18
		  ymInst 25
		  ymVol 0Ah
		mainLoopStart
		        noteL A2,24
		        note  E3
		        note  A3
		        note  B3
		        noteL C4,96
		        noteL E2,24
		        note  B2
		        note  E3
		        note  Fs3
		        noteL G3,96
		        noteL D2,24
		        note  A2
		        note  D3
		        note  E3
		        noteL F3,96
		        noteL Gs2,24
		        note  Ds3
		        note  G3
		        noteL As3,26
		        noteL D4,46
		        noteL E3,48
		        noteL A2,24
		        note  E3
		        note  A3
		        note  B3
		        noteL C4,96
		        noteL E2,24
		        note  B2
		        note  E3
		        note  Fs3
		        noteL Gs3,96
		        noteL B2,24
		        note  F3
		        note  A3
		        note  B3
		        noteL F4,96
		        noteL E2,24
		        note  B2
		        note  A3
		        noteL B3,26
		        noteL Gs3,34
		        noteL B2,36
		        noteL E2,24
		        noteL D4,96
		        noteL F4,32
		        note  E4
		        note  D4
		        noteL C4,96
		        noteL E4,32
		        note  D4
		        note  C4
		        noteL As3,96
		        noteL D4,48
		        note  G4
		        noteL E4,112
		  ymInst 5
		  ymVol 0Bh
		        noteL A4,16
		        note  E4
		        note  C4
		        note  A3
		        note  E3
		  ymInst 25
		  ymVol 0Ah
		        noteL D4,96
		        noteL F4,32
		        note  E4
		        note  D4
		        noteL C4,96
		        noteL E4,32
		        note  D4
		        note  C4
		        noteL A3,98
		        noteL D4,46
		        noteL A4,96
		  ymInst 5
		  ymVol 0Bh
		        noteL G4,16
		        note  D4
		        noteL B3,18
		  ymInst 25
		  ymVol 0Ah
		        noteL D4,94
		mainLoopEnd
Music_16_Channel_5:
		  length 18
		  shifting 020h
		  ymStereo 080h
		  release 01h
		  length 48
		mainLoopStart
		  vibrato 02Ch
		  ymInst 7
		  ymVol 0Ah
		        noteL B4,48
		        note  A4
		        note  E5
		        note  D5
		        noteL C5,24
		        note  B4
		        noteL A4,72
		        noteL G4,12
		        note  A4
		        noteL B4,24
		        note  G4
		        noteL E4,96
		        noteL D4,24
		  ymSustain
		        noteL G4,216
		  vibrato 020h
		  ymVol 08h
		        noteL G4,12
		  ymVol 06h
		        note  G4
		  ymVol 04h
		        note  G4
		  ymVol 02h
		  release 01h
		        note  G4
		  vibrato 02Ch
		  ymVol 0Ah
		        noteL B4,48
		        note  A4
		        note  G5
		        note  Fs5
		        noteL E5,24
		        note  D5
		        noteL E5,72
		        noteL D5,12
		        note  E5
		        noteL F5,24
		        note  E5
		  ymSustain
		        noteL D5,72
		  vibrato 020h
		  ymVol 08h
		        noteL D5,12
		  ymVol 06h
		  release 01h
		        note  D5
		  vibrato 02Ch
		  ymVol 0Ah
		        noteL B4,24
		  ymSustain
		        noteL E5,192
		  vibrato 020h
		  ymVol 08h
		        noteL E5,12
		  release 01h
		  ymVol 06h
		        note  E5
		  vibrato 02Ch
		  ymInst 26
		  ymVol 0Ch
		repeatStart
		        noteL A4,24
		        note  As4
		        note  D5
		        note  F5
		        noteL A5,96
		        noteL B4,24
		        note  C5
		        note  E5
		        note  G5
		        noteL B5,96
		        noteL D5,24
		        note  E5
		        note  F5
		        note  A5
		        noteL E6,32
		        note  D6
		repeatSection1Start
		        noteL C6,32
		        noteL B5,78
		        noteL As5,6
		        note  A5
		        note  Gs5
		        noteL G5,96
		repeatEnd
		repeatSection2Start
		  ymSustain
		        noteL G6,224
		  vibrato 020h
		  ymVol 0Ah
		        noteL G6,12
		  ymVol 08h
		        note  G6
		  ymVol 06h
		        note  G6
		  ymVol 04h
		  release 01h
		        note  G6
		mainLoopEnd
Music_16_Channel_9:
		channel_end
