
; ASM FILE music13.asm :
; 0xDA71..0xDF62 : Music 13 and 14 combined for optimization
Music_14:       db 0
		db 1
		db 0
		db 0CFh
		dw Music_14_Channel_0
		dw Music_14_Channel_1
		dw Music_14_Channel_2
		dw Music_14_Channel_3
		dw Music_14_Channel_4
		dw Music_14_Channel_5
		dw Music_14_Channel_6
		dw Music_14_Channel_7
		dw Music_14_Channel_9
		dw Music_14_Channel_9
Music_13:       db 0
		db 1
		db 0
		db 0CFh
		dw Music_14_Channel_0
		dw Music_14_Channel_1
		dw Music_14_Channel_2
		dw Music_14_Channel_3
		dw Music_14_Channel_4
		dw Music_14_Channel_5
		dw Music_14_Channel_9
		dw Music_14_Channel_9
		dw Music_14_Channel_9
		dw Music_14_Channel_9
Music_14_Channel_0:
		  ymStereo 0C0h
		  ymInst 5
		  ymVol 0Ch
		  release 01h
		  vibrato 02Ch
		mainLoopStart
		        noteL F2,192
		        note  F2
		        note  C2
		        note  C2
		        note  F2
		        note  F2
		        note  E2
		        noteL E2,144
		        noteL E2,48
		        noteL D2,168
		        noteL D2,12
		        note  C2
		        noteL As1,192
		        note  A1
		        note  Gs2
		        note  G2
		        note  Fs2
		        note  G2
		        noteL G2,153
		        noteL G2,73
		mainLoopEnd
Music_14_Channel_1:
		  ymStereo 0C0h
		  ymInst 5
		  release 01h
		  vibrato 02Ch
		  length 24
		mainLoopStart
		  ymVol 0Bh
		        noteL C3,192
		        note  C3
		        note  G2
		        note  G2
		        note  C3
		        note  C3
		        note  B2
		        note  B2
		        note  A2
		        note  Gs2
		        note  A2
		        note  F3
		        note  E3
		        note  E3
		        note  D3
		        noteL D3,226
		mainLoopEnd
Music_14_Channel_2:
		  ymStereo 0C0h
		  ymInst 6
		  ymVol 0Ch
		  release 01h
		  vibrato 02Ch
		mainLoopStart
		countedLoopStart 1
		        noteL B4,12
		        note  C4
		        note  E4
		        note  B4
		        note  A4
		        note  C4
		        note  E4
		        note  A4
		        note  Gs4
		        note  C4
		        note  E4
		        note  Gs4
		        note  A4
		        note  C4
		        note  E4
		        note  A4
		countedLoopEnd
		countedLoopStart 1
		        noteL B4,12
		        note  D4
		        note  E4
		        note  B4
		        note  A4
		        note  D4
		        note  E4
		        note  A4
		        note  G4
		        note  D4
		        note  E4
		        note  G4
		        note  A4
		        note  D4
		        note  E4
		        note  A4
		countedLoopEnd
		countedLoopStart 1
		        noteL B4,12
		        note  C4
		        note  E4
		        note  B4
		        note  A4
		        note  C4
		        note  E4
		        note  A4
		        note  Gs4
		        note  C4
		        note  E4
		        note  Gs4
		        note  A4
		        note  C4
		        note  E4
		        note  A4
		countedLoopEnd
		        noteL B4,12
		        note  D4
		        note  E4
		        note  B4
		        note  A4
		        note  D4
		        note  E4
		        note  A4
		        note  G4
		        note  D4
		        note  E4
		        note  G4
		        note  A4
		        note  D4
		        note  E4
		        note  A4
		        note  B4
		        note  D4
		        note  E4
		        note  B4
		        note  A4
		        note  D4
		        note  E4
		        note  A4
		        note  B4
		        note  D4
		        note  C5
		        note  D4
		        note  D5
		        note  D4
		        note  E5
		        note  D4
		        note  E5
		        note  F4
		        note  A4
		        note  E5
		        note  D5
		        note  F4
		        note  A4
		        note  D5
		        note  Cs5
		        note  F4
		        note  A4
		        note  Cs5
		        note  D5
		        note  F4
		        note  A4
		        note  D5
		        note  E5
		        note  F4
		        note  Gs4
		        note  E5
		        note  D5
		        note  F4
		        note  Gs4
		        note  D5
		        note  C5
		        note  F4
		        note  Gs4
		        note  C5
		        note  D5
		        note  F4
		        note  Gs4
		        note  D5
		        note  D5
		        note  E4
		        note  G4
		        note  D5
		        note  C5
		        note  E4
		        note  G4
		        note  C5
		        note  B4
		        note  E4
		        note  G4
		        note  B4
		        note  C5
		        note  E4
		        note  G4
		        note  C5
		        note  D5
		        note  F4
		        note  Gs4
		        note  D5
		        note  C5
		        note  F4
		        note  Gs4
		        note  C5
		        note  B4
		        note  F4
		        note  Gs4
		        note  B4
		        note  C5
		        note  F4
		        note  Gs4
		        note  C5
		        note  D5
		        note  E4
		        note  G4
		        note  D5
		        note  C5
		        note  E4
		        note  G4
		        note  C5
		        note  B4
		        note  E4
		        note  G4
		        note  B4
		        note  C5
		        note  E4
		        note  G4
		        note  C5
		        note  E5
		        note  E4
		        note  A4
		        note  E5
		        note  D5
		        note  E4
		        note  A4
		        note  D5
		        note  C5
		        note  E4
		        note  A4
		        note  C5
		        note  D5
		        note  E4
		        note  A4
		        note  D5
		        note  C5
		        note  D4
		        note  F4
		        note  C5
		        note  B4
		        note  D4
		        note  F4
		        note  B4
		        note  A4
		        note  D4
		        note  F4
		        note  A4
		        note  B4
		        note  D4
		        note  F4
		        note  B4
		        note  A4
		        note  B3
		        note  D4
		        noteL A4,13
		        noteL G4,12
		        note  B3
		        noteL D4,13
		        note  G4
		        note  Fs4
		        note  B3
		        noteL D4,14
		        note  Fs4
		        noteL G4,15
		        noteL B3,16
		        noteL D4,18
		        noteL G4,24
		mainLoopEnd
Music_14_Channel_3:
		  ymStereo 080h
		  shifting 010h
		  length 15
		  ymInst 6
		  ymVol 0Bh
		  release 01h
		  vibrato 02Ch
		mainLoopStart
		countedLoopStart 1
		        noteL B4,12
		        note  C4
		        note  E4
		        note  B4
		        note  A4
		        note  C4
		        note  E4
		        note  A4
		        note  Gs4
		        note  C4
		        note  E4
		        note  Gs4
		        note  A4
		        note  C4
		        note  E4
		        note  A4
		countedLoopEnd
		countedLoopStart 1
		        noteL B4,12
		        note  D4
		        note  E4
		        note  B4
		        note  A4
		        note  D4
		        note  E4
		        note  A4
		        note  G4
		        note  D4
		        note  E4
		        note  G4
		        note  A4
		        note  D4
		        note  E4
		        note  A4
		countedLoopEnd
		countedLoopStart 1
		        noteL B4,12
		        note  C4
		        note  E4
		        note  B4
		        note  A4
		        note  C4
		        note  E4
		        note  A4
		        note  Gs4
		        note  C4
		        note  E4
		        note  Gs4
		        note  A4
		        note  C4
		        note  E4
		        note  A4
		countedLoopEnd
		        noteL B4,12
		        note  D4
		        note  E4
		        note  B4
		        note  A4
		        note  D4
		        note  E4
		        note  A4
		        note  G4
		        note  D4
		        note  E4
		        note  G4
		        note  A4
		        note  D4
		        note  E4
		        note  A4
		        note  B4
		        note  D4
		        note  E4
		        note  B4
		        note  A4
		        note  D4
		        note  E4
		        note  A4
		        note  B4
		        note  D4
		        note  C5
		        note  D4
		        note  D5
		        note  D4
		        note  E5
		        note  D4
		        note  E5
		        note  F4
		        note  A4
		        note  E5
		        note  D5
		        note  F4
		        note  A4
		        note  D5
		        note  Cs5
		        note  F4
		        note  A4
		        note  Cs5
		        note  D5
		        note  F4
		        note  A4
		        note  D5
		        note  E5
		        note  F4
		        note  Gs4
		        note  E5
		        note  D5
		        note  F4
		        note  Gs4
		        note  D5
		        note  C5
		        note  F4
		        note  Gs4
		        note  C5
		        note  D5
		        note  F4
		        note  Gs4
		        note  D5
		        note  D5
		        note  E4
		        note  G4
		        note  D5
		        note  C5
		        note  E4
		        note  G4
		        note  C5
		        note  B4
		        note  E4
		        note  G4
		        note  B4
		        note  C5
		        note  E4
		        note  G4
		        note  C5
		        note  D5
		        note  F4
		        note  Gs4
		        note  D5
		        note  C5
		        note  F4
		        note  Gs4
		        note  C5
		        note  B4
		        note  F4
		        note  Gs4
		        note  B4
		        note  C5
		        note  F4
		        note  Gs4
		        note  C5
		        note  D5
		        note  E4
		        note  G4
		        note  D5
		        note  C5
		        note  E4
		        note  G4
		        note  C5
		        note  B4
		        note  E4
		        note  G4
		        note  B4
		        note  C5
		        note  E4
		        note  G4
		        note  C5
		        note  E5
		        note  E4
		        note  A4
		        note  E5
		        note  D5
		        note  E4
		        note  A4
		        note  D5
		        note  C5
		        note  E4
		        note  A4
		        note  C5
		        note  D5
		        note  E4
		        note  A4
		        note  D5
		        note  C5
		        note  D4
		        note  F4
		        note  C5
		        note  B4
		        note  D4
		        note  F4
		        note  B4
		        note  A4
		        note  D4
		        note  F4
		        note  A4
		        note  B4
		        note  D4
		        note  F4
		        note  B4
		        note  A4
		        note  B3
		        note  D4
		        noteL A4,13
		        noteL G4,12
		        note  B3
		        noteL D4,13
		        note  G4
		        note  Fs4
		        note  B3
		        noteL D4,14
		        note  Fs4
		        noteL G4,15
		        noteL B3,16
		        noteL D4,18
		        noteL G4,24
		mainLoopEnd
Music_14_Channel_4:
		  ymStereo 040h
		  shifting 020h
		  length 30
		  ymInst 6
		  ymVol 0Ah
		  release 01h
		  vibrato 02Ch
		mainLoopStart
		countedLoopStart 1
		        noteL B4,12
		        note  C4
		        note  E4
		        note  B4
		        note  A4
		        note  C4
		        note  E4
		        note  A4
		        note  Gs4
		        note  C4
		        note  E4
		        note  Gs4
		        note  A4
		        note  C4
		        note  E4
		        note  A4
		countedLoopEnd
		countedLoopStart 1
		        noteL B4,12
		        note  D4
		        note  E4
		        note  B4
		        note  A4
		        note  D4
		        note  E4
		        note  A4
		        note  G4
		        note  D4
		        note  E4
		        note  G4
		        note  A4
		        note  D4
		        note  E4
		        note  A4
		countedLoopEnd
		countedLoopStart 1
		        noteL B4,12
		        note  C4
		        note  E4
		        note  B4
		        note  A4
		        note  C4
		        note  E4
		        note  A4
		        note  Gs4
		        note  C4
		        note  E4
		        note  Gs4
		        note  A4
		        note  C4
		        note  E4
		        note  A4
		countedLoopEnd
		        noteL B4,12
		        note  D4
		        note  E4
		        note  B4
		        note  A4
		        note  D4
		        note  E4
		        note  A4
		        note  G4
		        note  D4
		        note  E4
		        note  G4
		        note  A4
		        note  D4
		        note  E4
		        note  A4
		        note  B4
		        note  D4
		        note  E4
		        note  B4
		        note  A4
		        noteL D4,6
		  ymStereo 0C0h
		  shifting 00h
		  ymVol 0Ch
		        noteL G4,24
		        note  A4
		        note  B4
		        note  G4
		        noteL C5,30
		  ymStereo 040h
		  shifting 020h
		  ymVol 0Ah
		        noteL E5,12
		        note  F4
		        note  A4
		        note  E5
		        note  D5
		        note  F4
		        note  A4
		        note  D5
		        note  Cs5
		        note  F4
		        note  A4
		        note  Cs5
		        note  D5
		        noteL F4,6
		  ymStereo 0C0h
		  shifting 00h
		  ymVol 0Ch
		        noteL C5,30
		  ymStereo 040h
		  shifting 020h
		  ymVol 0Ah
		        noteL E5,12
		        note  F4
		        note  Gs4
		        note  E5
		        note  D5
		        note  F4
		        note  Gs4
		        note  D5
		        note  C5
		        note  F4
		        note  Gs4
		        note  C5
		        note  D5
		        noteL F4,6
		  ymStereo 0C0h
		  shifting 00h
		  ymVol 0Ch
		        noteL B4,30
		  ymStereo 040h
		  shifting 020h
		  ymVol 0Ah
		        noteL D5,12
		        note  E4
		        note  G4
		        note  D5
		        note  C5
		        note  E4
		        note  G4
		        note  C5
		        note  B4
		        note  E4
		        note  G4
		        note  B4
		        note  C5
		        note  E4
		        note  G4
		        note  C5
		        note  D5
		        note  F4
		        note  Gs4
		        note  D5
		        note  C5
		        note  F4
		        note  Gs4
		        note  C5
		        note  B4
		        note  F4
		        note  Gs4
		        note  B4
		        note  C5
		        note  F4
		        note  Gs4
		        note  C5
		        note  D5
		        note  E4
		        note  G4
		        note  D5
		        note  C5
		        note  E4
		        note  G4
		        note  C5
		        note  B4
		        note  E4
		        note  G4
		        note  B4
		        note  C5
		        note  E4
		        note  G4
		        note  C5
		        note  E5
		        note  E4
		        note  A4
		        note  E5
		        note  D5
		        note  E4
		        note  A4
		        note  D5
		        note  C5
		        note  E4
		        note  A4
		        note  C5
		        note  D5
		        note  E4
		        note  A4
		        note  D5
		        note  C5
		        note  D4
		        note  F4
		        note  C5
		        note  B4
		        note  D4
		        note  F4
		        note  B4
		        note  A4
		        note  D4
		        note  F4
		        note  A4
		        note  B4
		        note  D4
		        note  F4
		        note  B4
		        note  A4
		        note  B3
		        note  D4
		        noteL A4,13
		        noteL G4,12
		        note  B3
		        noteL D4,13
		        note  G4
		        note  Fs4
		        note  B3
		        noteL D4,14
		        note  Fs4
		        noteL G4,15
		        noteL B3,16
		        noteL D4,18
		        noteL G4,24
		mainLoopEnd
Music_14_Channel_5:
		  ymStereo 0C0h
		  ymInst 5
		  release 01h
		  vibrato 02Ch
		  length 48
		mainLoopStart
		  ymVol 0Ah
		        noteL A3,192
		        note  A3
		        note  E3
		        note  E3
		        note  A3
		        note  A3
		        note  G3
		        note  G3
		        note  F3
		        note  F3
		        note  G3
		        note  D4
		        note  C4
		        note  A3
		        noteL G3,193
		        noteL G3,225
		mainLoopEnd
Music_14_Channel_6:
		  release 01h
		  vibrato 04Ch
		  psgInst 0
		mainLoopStart
		  length 24
		  psgInst 124
		        psgNote  Cs6
		        psgNote  D6
		        psgNoteL E6,22
		        psgNoteL B5,3
		        psgNoteL C6,4
		        psgNoteL Cs6,34
		        psgNoteL B5,33
		        psgNoteL A5,24
		        psgNoteL Cs6,144
		        psgNoteL A5,48
		        psgNoteL B5,72
		        psgNoteL Cs6,24
		  release 080h
		        psgNoteL E5,96
		  vibrato 040h
		  release 01h
		        psgNoteL E5,192
		  length 24
		  vibrato 04Ch
		        psgNote  Cs6
		        psgNote  D6
		        psgNoteL E6,23
		        psgNoteL E6,38
		        psgNoteL Fs6,37
		        psgNoteL Cs6,22
		        psgNoteL A5,26
		        psgNoteL Fs5,92
		        psgNoteL C6,4
		        psgNoteL Cs6,22
		        psgNoteL Fs6,24
		        psgNoteL E6,181
		  length 18
		        psgNoteL E6,6
		        psgNote  Ds6
		        psgNoteL D6,5
		        psgNoteL Cs6,172
		  length 20
		        psgNoteL E6,3
		        psgNoteL F6,4
		        psgNoteL Fs6,103
		  length 10
		        psgNoteL C6,2
		        psgNoteL Cs6,34
		        psgNoteL B5,12
		        psgNote  Cs6
		        psgNote  D6
		        psgNoteL A5,13
		        psgNote  B5
		        psgNoteL E6,118
		        psgNoteL D6,72
		        psgNoteL Cs6,24
		        psgNote  C6
		        psgNote  Cs6
		        psgNote  D6
		        psgNote  Cs6
		        psgNoteL Gs6,36
		        psgNoteL Fs6,12
		        psgNoteL B5,144
		        psgNoteL C6,48
		        psgNoteL Cs6,60
		  length 12
		        psgNoteL Gs5,24
		        psgNoteL A5,36
		        psgNote  B5
		        psgNoteL Cs6,24
		        psgNoteL Gs6,37
		        psgNoteL Fs6,33
		        psgNoteL Gs6,4
		        psgNoteL A6,60
		  length 10
		        psgNoteL Cs6,24
		        psgNoteL Fs6,134
		  length 10
		        psgNoteL Fs5,22
		        psgNoteL G5,4
		        psgNoteL Gs5,22
		        psgNoteL Cs6,177
		        psgNoteL B5,73
		mainLoopEnd
Music_14_Channel_7:
		  shifting 010h
		  psgInst 0
		  length 12
		  release 01h
		  vibrato 04Ch
		mainLoopStart
		  length 24
		  psgInst 122
		        psgNote  Cs6
		        psgNote  D6
		        psgNoteL E6,22
		        psgNoteL B5,3
		        psgNoteL C6,4
		        psgNoteL Cs6,34
		        psgNoteL B5,33
		        psgNoteL A5,24
		        psgNoteL Cs6,144
		        psgNoteL A5,48
		        psgNoteL B5,72
		        psgNoteL Cs6,24
		  release 080h
		        psgNoteL E5,96
		  vibrato 040h
		  release 01h
		        psgNoteL E5,192
		  length 24
		  vibrato 04Ch
		        psgNote  Cs6
		        psgNote  D6
		        psgNoteL E6,23
		        psgNoteL E6,38
		        psgNoteL Fs6,37
		        psgNoteL Cs6,22
		        psgNoteL A5,26
		        psgNoteL Fs5,92
		        psgNoteL C6,4
		        psgNoteL Cs6,22
		        psgNoteL Fs6,24
		        psgNoteL E6,181
		  length 18
		        psgNoteL E6,6
		        psgNote  Ds6
		        psgNoteL D6,5
		        psgNoteL Cs6,172
		  length 20
		        psgNoteL E6,3
		        psgNoteL F6,4
		        psgNoteL Fs6,103
		  length 10
		        psgNoteL C6,2
		        psgNoteL Cs6,34
		        psgNoteL B5,12
		        psgNote  Cs6
		        psgNote  D6
		        psgNoteL A5,13
		        psgNote  B5
		        psgNoteL E6,118
		        psgNoteL D6,72
		        psgNoteL Cs6,24
		        psgNote  C6
		        psgNote  Cs6
		        psgNote  D6
		        psgNote  Cs6
		        psgNoteL Gs6,36
		        psgNoteL Fs6,12
		        psgNoteL B5,144
		        psgNoteL C6,48
		        psgNoteL Cs6,60
		  length 12
		        psgNoteL Gs5,24
		        psgNoteL A5,36
		        psgNote  B5
		        psgNoteL Cs6,24
		        psgNoteL Gs6,37
		        psgNoteL Fs6,33
		        psgNoteL Gs6,4
		        psgNoteL A6,60
		  length 10
		        psgNoteL Cs6,24
		        psgNoteL Fs6,134
		  length 10
		        psgNoteL Fs5,22
		        psgNoteL G5,4
		        psgNoteL Gs5,22
		        psgNoteL Cs6,177
		        psgNoteL B5,73
		mainLoopEnd
Music_14_Channel_9:
		channel_end
