
; ASM FILE music17.asm :
; 0xE832..0xEAD6 : Music 17
Music_17:       db 0
		db 1
		db 0
		db 0C9h
		dw Music_17_Channel_0
		dw Music_17_Channel_1
		dw Music_17_Channel_2
		dw Music_17_Channel_3
		dw Music_17_Channel_4
		dw Music_17_Channel_5
		dw Music_17_Channel_9
		dw Music_17_Channel_9
		dw Music_17_Channel_9
		dw Music_17_Channel_9
Music_17_Channel_0:
		  ymStereo 0C0h
		  ymInst 24
		  vibrato 02Ch
		  release 01h
		mainLoopStart
		  length 22
		  ymVol 0Bh
		        noteL B3,21
		        noteL C4,20
		        note  G4
		        note  Fs4
		        noteL D4,19
		        noteL E4,22
		        noteL B4,41
		        noteL A4,21
		        note  Fs4
		        note  D4
		        noteL E4,41
		  length 22
		        noteL B3,20
		        noteL C4,21
		        note  G4
		        note  Fs4
		        noteL D4,20
		        noteL E4,21
		        note  B4
		        noteL D5,61
		        noteL A4,24
		        noteL G4,66
		        noteL B4,28
		        noteL B4,20
		        note  A4
		        noteL B4,19
		        noteL C5,20
		        note  G4
		        noteL A4,22
		        noteL C4,32
		        noteL D4,11
		        noteL D4,64
		        noteL G4,22
		        noteL G4,21
		        noteL Fs4,20
		        noteL G4,19
		        noteL A4,21
		        noteL E4,20
		        noteL Fs4,21
		        note  D4
		        noteL E4,20
		        noteL F4,21
		        noteL A4,20
		        noteL C5,21
		        noteL D5,24
		        noteL E5,20
		        noteL B5,23
		        noteL A5,66
		        noteL D5,22
		        note  E5
		        noteL B4,19
		        noteL C5,15
		  length 10
		        noteL E5,21
		        noteL B5,22
		        noteL A5,65
		        noteL D5,23
		        noteL E5,20
		        note  C5
		        note  D5
		        note  B4
		        noteL C5,22
		        noteL A4,26
		        noteL As4,20
		        noteL Gs4,11
		        noteL G4,9
		        noteL Gs4,10
		        noteL As4,6
		  length 7
		        noteL C5,6
		  length 8
		        noteL Ds5,6
		  length 8
		        noteL G5,6
		  length 12
		        noteL F5,6
		  length 18
		        noteL As5,25
		        noteL Gs5,5
		        noteL As5,4
		        noteL Gs5,190
		mainLoopEnd
Music_17_Channel_1:
		  ymStereo 0C0h
		  release 01h
		  vibrato 00h
		mainLoopStart
		  ymInst 5
		  ymVol 0Bh
		        noteL C3,118
		        noteL C3,171
		        noteL C3,118
		        noteL C3,48
		        noteL B2,86
		  length 44
		        noteL E2,35
		        noteL F2,136
		        noteL As2,127
		        noteL A2,83
		        noteL D2,41
		        note  G2
		        note  As2
		        noteL Ds3,32
		        noteL D3,56
		        noteL G3,88
		        noteL C3,40
		        noteL F3,16
		        noteL A2,45
		        noteL E2,91
		        noteL D3,44
		        noteL C3,41
		        noteL As2,48
		  ymInst 25
		  ymVol 0Bh
		  ymSustain
		        noteL Gs2,158
		  release 01h
		        noteL Gs2,199
		mainLoopEnd
Music_17_Channel_2:
		  ymStereo 0C0h
		  release 01h
		  vibrato 00h
		mainLoopStart
		  ymInst 5
		  ymVol 0Ah
		        noteL E3,118
		  length 2
		        noteL E3,169
		        noteL E3,121
		        noteL E3,45
		  length 43
		        note  Fs3
		        noteL E3,79
		  length 5
		        noteL C3,89
		        noteL C4,42
		  length 43
		        noteL E3,32
		        noteL F3,10
		        noteL F3,42
		  length 2
		        noteL C4,81
		        noteL G3,20
		        noteL A3,21
		        noteL F3,41
		        note  F3
		        noteL G3,32
		  length 4
		        noteL A3,52
		        noteL D4,88
		        noteL G3,40
		        noteL A3,16
		  length 3
		        noteL E3,46
		        noteL B2,87
		  length 2
		        noteL F3,42
		        noteL E3,41
		        noteL D3,48
		  ymInst 25
		  ymVol 0Ah
		  ymSustain
		        noteL C3,158
		  release 01h
		        noteL C3,199
		mainLoopEnd
Music_17_Channel_3:
		  ymStereo 0C0h
		  release 01h
		  vibrato 00h
		mainLoopStart
		  ymInst 5
		  ymVol 0Ah
		        noteL G3,118
		  length 5
		        noteL Fs3,166
		        noteL G3,123
		        noteL Fs3,43
		        noteL A3,86
		        noteL G3,79
		  length 11
		        noteL A3,125
		        noteL Gs3,127
		  length 4
		        noteL E4,79
		        noteL C4,41
		        note  A3
		        note  A3
		        noteL As3,32
		  length 11
		        noteL F4,45
		        noteL F4,88
		        noteL C4,40
		        noteL C4,16
		  length 10
		        noteL C4,44
		        noteL G3,82
		  length 2
		        noteL A3,42
		        noteL G3,41
		        noteL F3,48
		  ymInst 25
		  ymVol 0Ah
		  ymSustain
		        noteL Ds3,158
		  release 01h
		        noteL Ds3,199
		mainLoopEnd
Music_17_Channel_4:
		  ymStereo 0C0h
		  release 01h
		  vibrato 00h
		mainLoopStart
		  ymInst 5
		  length 125
		  ymVol 0Ah
		        noteL A3,164
		  length 126
		        noteL A3,40
		  length 165
		  length 16
		        noteL E4,78
		        noteL E4,42
		  length 127
		  length 124
		  length 41
		        note  C4
		        noteL F4,32
		  length 13
		        noteL C5,43
		        noteL B4,88
		        noteL G4,42
		        noteL F4,14
		  length 10
		        noteL A4,43
		        noteL B4,83
		  length 6
		        noteL C4,38
		        noteL B3,41
		        noteL A3,48
		  ymInst 25
		  ymVol 0Ah
		  ymSustain
		        noteL G3,158
		  release 01h
		        noteL G3,199
		mainLoopEnd
Music_17_Channel_5:
		  ymStereo 080h
		  shifting 020h
		  length 15
		  vibrato 02Ch
		  ymInst 24
		  release 01h
		mainLoopStart
		  length 22
		  ymVol 09h
		        noteL B3,21
		        noteL C4,20
		        note  G4
		        note  Fs4
		        noteL D4,19
		        noteL E4,22
		        noteL B4,41
		        noteL A4,21
		        note  Fs4
		        note  D4
		        noteL E4,41
		  length 22
		        noteL B3,20
		        noteL C4,21
		        note  G4
		        note  Fs4
		        noteL D4,20
		        noteL E4,21
		        note  B4
		        noteL D5,61
		        noteL A4,24
		        noteL G4,66
		        noteL B4,28
		        noteL B4,20
		        note  A4
		        noteL B4,19
		        noteL C5,20
		        note  G4
		        noteL A4,22
		        noteL C4,32
		        noteL D4,11
		        noteL D4,64
		        noteL G4,22
		        noteL G4,21
		        noteL Fs4,20
		        noteL G4,19
		        noteL A4,21
		        noteL E4,20
		        noteL Fs4,21
		        note  D4
		        noteL E4,20
		        noteL F4,21
		        noteL A4,20
		        noteL C5,21
		        noteL D5,24
		        noteL E5,20
		        noteL B5,23
		        noteL A5,66
		        noteL D5,22
		        note  E5
		        noteL B4,19
		        noteL C5,15
		  length 10
		        noteL E5,21
		        noteL B5,22
		        noteL A5,65
		        noteL D5,23
		        noteL E5,20
		        note  C5
		        note  D5
		        note  B4
		        noteL C5,22
		        noteL A4,26
		        noteL As4,20
		        noteL Gs4,11
		        noteL G4,9
		        noteL Gs4,10
		        noteL As4,6
		  length 7
		        noteL C5,6
		  length 8
		        noteL Ds5,6
		  length 8
		        noteL G5,6
		  length 12
		        noteL F5,6
		  length 18
		        noteL As5,25
		        noteL Gs5,5
		        noteL As5,4
		        noteL Gs5,190
		mainLoopEnd
Music_17_Channel_9:
		channel_end
