
; ASM FILE music05.asm :
; 0xB0D0..0xB7B5 : Music 05
Music_5:        db 0
		db 0
		db 0
		db 0CCh
		dw Music_5_Channel_0
		dw Music_5_Channel_1
		dw Music_5_Channel_2
		dw Music_5_Channel_3
		dw Music_5_Channel_4
		dw Music_5_Channel_5
		dw Music_5_Channel_6
		dw Music_5_Channel_7
		dw Music_5_Channel_9
		dw Music_5_Channel_9
Music_5_Channel_0:
		  ymStereo 0C0h
		  release 01h
		  vibrato 02Ch
		  length 16
		  ymInst 12
		  ymVol 0Dh
		        note  G2
		        note  D2
		  ymSlide 021h
		        noteL A2,18
		  ymStopSlide
		        note  E2
		        noteL As1,6
		  ymVol 09h
		        note  As1
		mainLoopStart
		  ymInst 12
		  ymVol 0Ch
		  release 09h
		countedLoopStart 6
		        noteL Gs2,12
		countedLoopEnd
		  ymSustain
		        noteL Gs2,4
		        note  G2
		  release 01h
		        note  Fs2
		  release 09h
		        noteL F2,12
		        note  F2
		        silence
		  release 04h
		        noteL F2,6
		        note  F2
		        noteL F2,12
		        noteL F2,6
		        note  F2
		  release 01h
		        noteL F2,12
		  release 09h
		        note  F2
		countedLoopStart 6
		        noteL Cs2,12
		countedLoopEnd
		  release 00h
		        noteL Cs2,6
		        note  C2
		  release 09h
		        noteL B1,12
		        note  B1
		        silence
		  release 04h
		        noteL B1,6
		        note  B1
		        noteL B1,12
		  release 01h
		        noteL B2,24
		        noteL As2,12
		        noteL A2,48
		        note  E2
		        noteL A2,36
		  ymSustain
		        noteL Gs2,3
		        note  G2
		        note  Fs2
		        note  F2
		  release 01h
		        noteL E2,48
		        note  B1
		        note  F2
		        noteL B1,36
		  ymSustain
		        noteL A2,3
		        note  Gs2
		        note  G2
		        note  Fs2
		  release 01h
		        noteL F2,36
		        noteL Fs2,6
		        note  F2
		  release 09h
		countedLoopStart 16
		        noteL E2,12
		countedLoopEnd
		  release 01h
		  ymVol 0Dh
		        noteL E2,6
		        note  E2
		        note  Gs2
		        note  G2
		        note  Gs2
		        note  B2
		        note  As2
		        note  B2
		        note  As2
		        note  D3
		        note  Ds3
		        note  E3
		        note  G3
		        note  Gs3
		  release 05h
		        noteL E2,18
		        note  E2
		        note  E2
		  ymInst 33
		  ymVol 0Eh
		  release 01h
		        noteL B1,12
		  ymInst 1
		  ymVol 0Bh
		        noteL As3,39
		mainLoopEnd
Music_5_Channel_1:
		  ymStereo 0C0h
		  release 01h
		  vibrato 02Ch
		  length 16
		  ymInst 20
		  ymVol 0Ch
		        note  As4
		        note  B4
		        noteL C5,18
		        note  Cs5
		        noteL D5,6
		  ymVol 09h
		        note  D5
		mainLoopStart
		  vibrato 02Ch
		repeatStart
		  ymInst 26
		  ymVol 0Bh
		        noteL G4,6
		        note  B3
		        note  Ds4
		        note  G4
		        note  B4
		        note  Ds4
		        note  G4
		        note  B4
		  ymVol 0Ch
		        note  Ds5
		        note  G4
		        note  B4
		        note  Ds5
		        note  G5
		        note  B4
		        note  Ds5
		        note  G5
		  ymVol 0Dh
		  vibrato 016h
		repeatSection1Start
		  ymSlide 01Dh
		        noteL As5,12
		  ymStopSlide
		  vibrato 02Ch
		        noteL A5,6
		  ymVol 0Ah
		        note  A5
		  ymVol 07h
		        note  A5
		        silence
		  release 04h
		  ymInst 3
		  ymVol 0Bh
		        note  A3
		        note  A3
		        noteL A3,12
		        noteL A3,6
		        note  A3
		        noteL A3,12
		        noteL A3,6
		        note  A3
		  release 01h
		repeatEnd
		repeatSection2Start
		        noteL As5,0
		  ymSlide 01Dh
		        noteL Cs6,12
		  ymStopSlide
		  vibrato 02Ch
		        noteL C6,6
		  ymVol 0Ah
		        note  C6
		  ymVol 07h
		        note  C6
		        silence
		  release 04h
		  ymInst 3
		  ymVol 0Bh
		        note  C4
		        note  C4
		        noteL C4,12
		        noteL C4,6
		        note  C4
		  release 01h
		        note  Ds4
		        note  E4
		        note  F4
		        note  Fs4
		  ymInst 20
		  ymVol 0Bh
		        noteL C5,16
		        note  Cs5
		        note  D5
		        noteL Ds5,48
		  ymVol 08h
		        noteL Ds5,6
		  ymVol 06h
		        note  Ds5
		  ymVol 0Bh
		        noteL C5,12
		        note  Cs5
		        note  D5
		        noteL Ds5,18
		        note  Fs5
		        noteL Ds5,6
		  ymVol 08h
		        note  Ds5
		  ymVol 0Bh
		        noteL Gs4,16
		        note  A4
		        note  As4
		        noteL B4,48
		  ymVol 08h
		        noteL B4,6
		  ymVol 06h
		        note  B4
		  ymVol 0Bh
		        noteL Gs4,12
		        note  A4
		        note  As4
		        noteL B4,18
		        note  D5
		        noteL B4,6
		  ymVol 08h
		        note  B4
		  ymVol 0Bh
		        noteL As5,72
		countedLoopStart 1
		        noteL Gs5,6
		  ymVol 08h
		        note  Gs5
		  ymVol 0Bh
		        noteL As5,36
		countedLoopEnd
		        noteL Gs5,6
		  ymVol 08h
		        note  Gs5
		  ymVol 0Bh
		        noteL As5,108
		  vibrato 020h
		  ymInst 56
		  ymVol 0Ch
		  release 04h
		        noteL Gs5,18
		        note  Gs5
		        note  Gs5
		  length 12
		  release 01h
		  ymInst 1
		  ymVol 0Bh
		        noteL Gs4,39
		mainLoopEnd
Music_5_Channel_2:
		  ymStereo 0C0h
		  release 01h
		  vibrato 02Ch
		  length 16
		  ymInst 20
		  ymVol 0Bh
		        note  F4
		        note  Fs4
		        noteL G4,18
		        note  Gs4
		        noteL Gs4,6
		  ymVol 08h
		        note  Gs4
		mainLoopStart
		  vibrato 02Ch
		repeatStart
		  ymStereo 040h
		  ymInst 26
		  ymVol 0Bh
		        noteL Ds4,6
		        note  G4
		        note  B3
		        note  Ds4
		        note  G4
		        note  B4
		        note  Ds4
		        note  G4
		        note  B4
		        note  Ds5
		        note  G4
		        note  B4
		  ymVol 0Ch
		        note  Ds5
		        note  G5
		        note  B4
		        note  Ds5
		  ymStereo 0C0h
		  ymVol 0Ch
		  vibrato 016h
		repeatSection1Start
		        noteL D5,12
		  vibrato 02Ch
		        noteL E5,6
		  ymVol 09h
		        note  E5
		  ymVol 06h
		        note  E5
		        silence
		  release 04h
		  ymInst 3
		  ymVol 0Bh
		        note  G3
		        note  G3
		        noteL G3,12
		        noteL G3,6
		        note  G3
		        noteL G3,12
		        noteL G3,6
		        note  G3
		  release 01h
		repeatEnd
		repeatSection2Start
		  ymVol 0Ch
		        noteL F5,12
		  vibrato 02Ch
		        noteL Gs5,6
		  ymVol 09h
		        note  Gs5
		  ymVol 06h
		        note  Gs5
		        silence
		  release 04h
		  ymInst 3
		  ymVol 0Bh
		        note  Gs3
		        note  Gs3
		        noteL Gs3,12
		        noteL Gs3,6
		        note  Gs3
		  release 01h
		        note  C4
		        note  Cs4
		        note  D4
		        note  Ds4
		  ymInst 20
		  ymVol 0Ah
		        noteL Gs4,16
		        note  A4
		        note  As4
		        noteL B4,48
		  ymVol 07h
		        noteL B4,6
		  ymVol 05h
		        note  B4
		  ymVol 0Ah
		        noteL Gs4,12
		        note  A4
		        note  As4
		        noteL B4,18
		        note  B4
		        noteL B4,6
		  ymVol 07h
		        note  B4
		  ymVol 0Ah
		        noteL Ds4,16
		        note  E4
		        note  F4
		        noteL Fs4,48
		  ymVol 07h
		        noteL Fs4,6
		  ymVol 05h
		        note  Fs4
		  ymVol 0Ah
		        noteL Ds4,12
		        note  E4
		        note  F4
		        noteL Fs4,18
		        note  Fs4
		        noteL Fs4,6
		  ymVol 07h
		        note  Fs4
		  ymInst 35
		  ymVol 0Ch
		        note  Fs3
		        note  As2
		        note  D3
		        note  Ds3
		        note  As3
		        silence
		  ymVol 09h
		        note  As3
		  length 12
		  ymVol 0Ch
		        noteL As2,6
		        note  D3
		        note  Ds3
		        note  As3
		        note  Fs3
		        note  Ds3
		        note  As2
		countedLoopStart 3
		        noteL Fs3,6
		        note  As2
		        note  D3
		        note  Ds3
		countedLoopEnd
		  length 6
		        note  As2
		        note  D3
		        note  Ds3
		        note  As3
		        note  A3
		        note  As3
		        note  Ds4
		  ymVol 0Dh
		        note  Fs4
		        note  As3
		        note  D4
		        note  Ds4
		        note  Fs4
		        note  F4
		        note  Fs4
		        note  As4
		  vibrato 020h
		  ymInst 56
		  ymVol 0Bh
		  release 04h
		        noteL G5,18
		        note  G5
		        note  G5
		  length 12
		  release 01h
		  ymInst 1
		  ymVol 0Bh
		        noteL G4,39
		mainLoopEnd
Music_5_Channel_3:
		  ymStereo 0C0h
		  release 01h
		  vibrato 02Ch
		  length 16
		  ymInst 20
		  ymVol 0Bh
		        note  B3
		        note  C4
		        noteL Cs4,18
		        note  D4
		        noteL E4,6
		  ymVol 08h
		        note  E4
		mainLoopStart
		  vibrato 02Ch
		repeatStart
		  ymStereo 080h
		  ymInst 26
		  ymVol 0Ah
		        noteL B3,6
		        note  Ds4
		        note  G4
		  ymVol 0Bh
		        note  B3
		        note  Ds4
		        note  G4
		        note  B4
		        note  Ds4
		        note  G4
		        note  B4
		        note  Ds5
		        note  G4
		        note  B4
		        note  Ds5
		        note  G5
		        note  B4
		  ymStereo 0C0h
		  ymVol 0Ch
		  vibrato 016h
		repeatSection1Start
		        noteL B4,12
		  vibrato 02Ch
		        noteL C5,6
		  ymVol 09h
		        note  C5
		  ymVol 06h
		        note  C5
		  length 12
		  ymStereo 080h
		  shifting 020h
		  release 04h
		  ymInst 3
		  ymVol 0Ah
		        noteL G3,6
		        note  G3
		        noteL G3,12
		        noteL G3,6
		        note  G3
		        noteL G3,12
		        noteL G3,6
		  release 01h
		  ymStereo 0C0h
		  shifting 00h
		repeatEnd
		repeatSection2Start
		  ymVol 0Ch
		        noteL D5,12
		  vibrato 02Ch
		  ymVol 09h
		        noteL D5,6
		  ymVol 06h
		        note  D5
		        note  D5
		  length 12
		  ymStereo 080h
		  shifting 020h
		  ymInst 3
		  ymVol 0Ah
		  release 04h
		        noteL Gs3,6
		        note  Gs3
		        noteL Gs3,12
		        noteL Gs3,6
		        note  Gs3
		  release 01h
		        note  C4
		        note  Cs4
		        note  D4
		  ymStereo 0C0h
		  shifting 00h
		  ymInst 20
		  ymVol 0Ah
		        noteL Ds4,16
		        note  E4
		        note  F4
		        noteL Fs4,48
		  ymVol 07h
		        noteL Fs4,6
		  ymVol 05h
		        note  Fs4
		  ymVol 0Ah
		        noteL Ds4,12
		        note  E4
		        note  F4
		        noteL Fs4,18
		        note  Fs4
		        noteL Fs4,6
		  ymVol 07h
		        note  Fs4
		  ymVol 0Ah
		        noteL C4,16
		        note  Cs4
		        note  D4
		        noteL Ds4,48
		  ymVol 07h
		        noteL Ds4,6
		  ymVol 05h
		        note  Ds4
		  ymVol 0Ah
		        noteL C4,12
		        note  Cs4
		        note  D4
		        noteL Ds4,18
		        note  Ds4
		        noteL Ds4,6
		  ymVol 07h
		        note  Ds4
		        silence
		  shifting 020h
		  ymStereo 080h
		  ymInst 35
		  ymVol 0Bh
		        note  Fs3
		        note  As2
		        note  D3
		        note  Ds3
		        note  As3
		        silence
		  ymVol 08h
		        note  As3
		  length 12
		  ymVol 0Bh
		        noteL As2,6
		        note  D3
		        note  Ds3
		        note  As3
		        note  Fs3
		        note  Ds3
		        note  As2
		countedLoopStart 3
		        noteL Fs3,6
		        note  As2
		        note  D3
		        note  Ds3
		countedLoopEnd
		  length 6
		        note  As2
		        note  D3
		        note  Ds3
		        note  As3
		        note  A3
		        note  As3
		        note  Ds4
		  ymVol 0Ch
		        note  Fs4
		        note  As3
		        note  D4
		        note  Ds4
		        note  Fs4
		        note  F4
		        note  Fs4
		  vibrato 020h
		  ymStereo 0C0h
		  shifting 00h
		  ymInst 56
		  ymVol 0Bh
		  release 04h
		        noteL Ds5,18
		        note  Ds5
		        note  Ds5
		  length 12
		  release 01h
		  ymInst 1
		  ymVol 0Bh
		        noteL Ds4,39
		mainLoopEnd
Music_5_Channel_4:
		  ymStereo 080h
		  shifting 020h
		  release 01h
		  vibrato 02Ch
		  length 22
		  ymInst 20
		  ymVol 0Bh
		        noteL As4,16
		        note  B4
		        noteL C5,18
		        note  Cs5
		        noteL D5,6
		  ymVol 08h
		        note  D5
		mainLoopStart
		  vibrato 02Ch
		repeatStart
		  ymStereo 0C0h
		  ymInst 26
		  ymVol 09h
		        noteL G4,6
		        note  B3
		        note  Ds4
		        note  G4
		        note  B4
		        note  Ds4
		        note  G4
		        note  B4
		        note  Ds5
		        note  G4
		        note  B4
		        note  Ds5
		        note  G5
		        note  B4
		        note  Ds5
		        note  G5
		  ymStereo 040h
		  ymVol 0Ch
		  vibrato 016h
		repeatSection1Start
		  ymSlide 01Dh
		        noteL As5,12
		  ymStopSlide
		  vibrato 02Ch
		        noteL A5,6
		  ymVol 09h
		        note  A5
		  ymVol 06h
		        note  A5
		        silence
		  release 04h
		  ymInst 3
		  ymVol 0Ah
		        note  A3
		        note  A3
		        noteL A3,12
		        noteL A3,6
		        note  A3
		        noteL A3,12
		        noteL A3,6
		        note  A3
		  release 01h
		repeatEnd
		repeatSection2Start
		        noteL As5,0
		  ymSlide 01Dh
		        noteL Cs6,12
		  ymStopSlide
		  vibrato 02Ch
		        noteL C6,6
		  ymVol 09h
		        note  C6
		  ymVol 06h
		        note  C6
		        silence
		  release 04h
		  ymInst 3
		  ymVol 0Ah
		        note  C4
		        note  C4
		        noteL C4,12
		        noteL C4,6
		        note  C4
		  release 01h
		        note  Ds4
		        note  E4
		        note  F4
		        note  Fs4
		  ymStereo 080h
		  ymInst 20
		  ymVol 0Ah
		        noteL C5,16
		        note  Cs5
		        note  D5
		        noteL Ds5,48
		  ymVol 07h
		        noteL Ds5,6
		  ymVol 05h
		        note  Ds5
		  ymVol 0Ah
		        noteL C5,12
		        note  Cs5
		        note  D5
		        noteL Ds5,18
		        note  Fs5
		        noteL Ds5,6
		  ymVol 07h
		        note  Ds5
		  ymVol 0Ah
		        noteL Gs4,16
		        note  A4
		        note  As4
		        noteL B4,48
		  ymVol 07h
		        noteL B4,6
		  ymVol 05h
		        note  B4
		  ymVol 0Ah
		        noteL Gs4,12
		        note  A4
		        note  As4
		        noteL B4,18
		        note  D5
		        noteL B4,6
		  ymVol 07h
		        note  B4
		  ymStereo 040h
		  ymVol 0Ah
		        noteL As5,72
		countedLoopStart 1
		        noteL Gs5,6
		  ymVol 07h
		        note  Gs5
		  ymVol 0Ah
		        noteL As5,36
		countedLoopEnd
		        noteL Gs5,6
		  ymVol 07h
		        note  Gs5
		  ymVol 0Ah
		        noteL As5,108
		  vibrato 020h
		  ymStereo 080h
		  ymInst 56
		  ymVol 0Bh
		  release 04h
		        noteL Gs5,18
		        note  Gs5
		        note  Gs5
		  length 12
		  release 01h
		  ymStereo 040h
		  ymInst 1
		  ymVol 0Ah
		        noteL Gs4,39
		mainLoopEnd
Music_5_Channel_5:
		  ymStereo 0C0h
		        sampleL 0,48
		        sampleL 4,18
		        sample  3
		        sampleL 2,12
		mainLoopStart
		repeatStart
		countedLoopStart 3
		        sampleL 3,6
		        sample  4
		        sample  4
		        sample  4
		countedLoopEnd
		        sampleL 5,12
		        sampleL 5,24
		        sampleL 4,4
		        sample  3
		        sample  3
		        sampleL 2,12
		        sampleL 4,4
		        sample  3
		        sample  3
		repeatSection1Start
		        sampleL 2,12
		        sampleL 3,6
		        sample  4
		repeatEnd
		repeatSection2Start
		        sampleL 4,6
		        sample  4
		        sample  3
		        sample  2
		countedLoopStart 1
		        sampleL 2,16
		        sample  2
		        sample  2
		        sampleL 0,12
		        sampleL 4,1
		        sampleL 2,5
		        sampleL 3,6
		        sample  2
		        sample  3
		        sample  4
		        sampleL 2,12
		        sampleL 4,6
		        sample  3
		        sample  3
		        sampleL 2,12
		        sampleL 2,6
		        sampleL 3,5
		        sampleL 4,1
		        sampleL 5,17
		        sampleL 4,1
		        sampleL 5,17
		        sampleL 4,1
		        sampleL 5,12
		countedLoopEnd
		        sampleL 3,6
		        sample  4
		        sample  4
		        sample  4
		        sampleL 2,36
		        sampleL 3,4
		        sample  4
		        sample  4
		        sampleL 2,6
		        sample  2
		        sample  4
		        sample  3
		countedLoopStart 1
		        sampleL 2,6
		        sample  3
		        sample  4
		        sample  4
		        sampleL 2,12
		        sampleL 3,6
		        sample  4
		        sampleL 2,12
		        sampleL 3,6
		        sample  4
		        sampleL 2,12
		        sampleL 3,6
		        sample  4
		countedLoopEnd
		        sampleL 5,18
		        sample  5
		        sample  5
		        sampleL 0,39
		        sampleL 4,4
		        sample  4
		        sample  4
		mainLoopEnd
Music_5_Channel_6:
		  release 01h
		  vibrato 045h
		  psgInst 0
		  length 16
		  psgInst 12
		        psgNote  G5
		        psgNote  Gs5
		  psgInst 13
		        psgNoteL As4,6
		        psgNote  E5
		        psgNote  A5
		        psgNote  B4
		        psgNote  F5
		        psgNote  As5
		        psgNote  F5
		        psgNote  B5
		mainLoopStart
		  psgInst 124
		        psgNoteL E5,96
		  length 12
		  release 00h
		  psgInst 13
		        psgNoteL Gs5,4
		        psgNote  As5
		        psgNote  D6
		        psgNoteL Fs6,30
		  release 01h
		        psgNoteL D6,6
		        psgNote  Cs6
		        psgNote  As5
		        psgNote  C6
		        psgNote  B5
		        psgNote  Gs5
		        psgNote  E5
		  psgInst 124
		        psgNoteL E5,96
		  length 12
		  release 00h
		  psgInst 13
		        psgNoteL As5,4
		        psgNote  B5
		        psgNote  F6
		        psgNoteL A6,30
		  release 01h
		        psgNoteL F6,6
		        psgNote  E6
		        psgNote  Cs6
		        psgNote  Ds6
		        psgNote  D6
		        psgNote  B5
		        psgNote  Gs5
		  psgInst 125
		countedLoopStart 1
		        psgNoteL A6,6
		        psgNote  F6
		        psgNote  C6
		        psgNote  Fs6
		        psgNote  Cs6
		        psgNote  As5
		        psgNote  B5
		        psgNote  G5
		        psgNote  Ds5
		        psgNote  Gs5
		        psgNote  C6
		        psgNote  B5
		        psgNote  C6
		        psgNote  Ds6
		        psgNote  Gs6
		        psgNote  C7
		countedLoopEnd
		countedLoopStart 1
		        psgNoteL F6,6
		        psgNote  C6
		        psgNote  A5
		        psgNote  Cs6
		        psgNote  As5
		        psgNote  Fs5
		        psgNote  G5
		        psgNote  D5
		        psgNote  C5
		        psgNote  Ds5
		        psgNote  Gs5
		        psgNote  G5
		        psgNote  Gs5
		        psgNote  C6
		        psgNote  Ds6
		        psgNote  Gs6
		countedLoopEnd
		  psgInst 12
		        psgNoteL C5,72
		        psgNoteL C5,4
		  length 8
		        psgNoteL C5,36
		        psgNoteL C5,4
		  length 8
		        psgNoteL C5,36
		        psgNoteL C5,4
		  length 8
		        psgNoteL C5,108
		        psgNoteL G5,12
		  length 6
		        psgNoteL G5,12
		  length 6
		        psgNoteL G5,12
		  length 6
		  psgInst 0
		  length 12
		  psgInst 12
		        psgNoteL C5,39
		mainLoopEnd
Music_5_Channel_7:
		  release 01h
		  vibrato 045h
		  psgInst 0
		  length 16
		  psgInst 12
		        psgNote  D5
		        psgNote  Ds5
		        psgNoteL Fs4,18
		        psgNote  Cs4
		        psgNoteL G3,6
		        silence
		mainLoopStart
		  psgInst 124
		        psgNoteL Gs4,96
		  length 18
		  release 00h
		  shifting 010h
		        psgNoteL Gs5,4
		        psgNote  As5
		        psgNote  D6
		        psgNoteL Fs6,30
		  release 01h
		        psgNoteL D6,6
		        psgNote  Cs6
		        psgNote  As5
		        psgNote  C6
		        psgNote  B5
		        psgNote  Gs5
		  psgInst 124
		  shifting 00h
		        psgNoteL Gs4,96
		  length 18
		  release 00h
		  shifting 010h
		  psgInst 10
		        psgNoteL As5,4
		        psgNote  B5
		        psgNote  F6
		        psgNoteL A6,30
		  release 01h
		        psgNoteL F6,6
		        psgNote  E6
		        psgNote  Cs6
		        psgNote  Ds6
		        psgNote  D6
		        psgNote  B5
		        psgNoteL Gs5,9
		  psgInst 123
		countedLoopStart 1
		        psgNoteL A6,6
		        psgNote  F6
		        psgNote  C6
		        psgNote  Fs6
		        psgNote  Cs6
		        psgNote  As5
		        psgNote  B5
		        psgNote  G5
		        psgNote  Ds5
		        psgNote  Gs5
		        psgNote  C6
		        psgNote  B5
		        psgNote  C6
		        psgNote  Ds6
		        psgNote  Gs6
		        psgNote  C7
		countedLoopEnd
		repeatStart
		        psgNoteL F6,6
		        psgNote  C6
		        psgNote  A5
		        psgNote  Cs6
		        psgNote  As5
		        psgNote  Fs5
		        psgNote  G5
		        psgNote  D5
		        psgNote  C5
		        psgNote  Ds5
		        psgNote  Gs5
		        psgNote  G5
		        psgNote  Gs5
		        psgNote  C6
		repeatSection1Start
		        psgNoteL Ds6,6
		        psgNote  Gs6
		repeatEnd
		repeatSection2Start
		        psgNoteL Ds6,3
		  shifting 00h
		  psgInst 12
		        psgNoteL Ds4,72
		        psgNoteL Ds4,4
		  length 8
		        psgNoteL Ds4,36
		        psgNoteL Ds4,4
		  length 8
		        psgNoteL Ds4,36
		        psgNoteL Ds4,4
		  length 8
		        psgNoteL Ds4,108
		        psgNoteL Cs5,12
		  length 6
		        psgNoteL Cs5,12
		  length 6
		        psgNoteL Cs5,12
		  length 6
		  psgInst 0
		  length 12
		  psgInst 12
		        psgNoteL G4,39
		mainLoopEnd
Music_5_Channel_9:
		channel_end
