
; ASM FILE music15.asm :
; 0xDF62..0xE4FA : Music 15
Music_15:       db 0
		db 1
		db 0
		db 0C0h
		dw Music_15_Channel_0
		dw Music_15_Channel_1
		dw Music_15_Channel_2
		dw Music_15_Channel_3
		dw Music_15_Channel_4
		dw Music_15_Channel_5
		dw Music_15_Channel_6
		dw Music_15_Channel_7
		dw Music_15_Channel_9
		dw Music_15_Channel_9
Music_15_Channel_0:
		  ymStereo 0C0h
		  release 01h
		  length 72
		mainLoopStart
		  vibrato 02Fh
		  ymInst 25
		  ymVol 0Ch
		        noteL E2,96
		        note  Fs2
		        noteL G2,192
		        noteL Cs3,96
		        note  D3
		        note  Ds3
		  ymSustain
		        note  E3
		  vibrato 020h
		  ymVol 09h
		        noteL E3,6
		  ymVol 07h
		        note  E3
		  ymVol 05h
		        note  E3
		  ymVol 03h
		  release 01h
		        note  E3
		  ymVol 0Ch
		  vibrato 02Fh
		        noteL Cs3,24
		        noteL As2,36
		        noteL Gs2,12
		        noteL Fs2,48
		        note  E2
		        noteL Fs2,96
		        note  G2
		        noteL Gs2,99
		        noteL As2,112
		  ymInst 8
		  ymVol 0Ch
		countedLoopStart 7
		        noteL B1,96
		countedLoopEnd
		        noteL B1,192
		        note  B1
		        note  B1
		        noteL B1,96
		        note  Fs1
		  ymSustain
		        noteL B1,182
		  vibrato 020h
		  release 01h
		        noteL B1,231
		mainLoopEnd
Music_15_Channel_1:
		  ymStereo 0C0h
		  release 01h
		  vibrato 02Ch
		mainLoopStart
		  ymInst 26
		  ymVol 0Ch
		        noteL As4,24
		        note  B4
		        note  Fs5
		        noteL G5,120
		        noteL Fs5,24
		        note  E5
		        note  Fs5
		        noteL As4,96
		  ymSustain
		        noteL B4,12
		  ymVol 09h
		        noteL B4,6
		  ymVol 07h
		  release 01h
		        note  B4
		  ymVol 0Ch
		        noteL Fs4,24
		        note  G4
		        note  D5
		        noteL E5,120
		        noteL D5,24
		        note  Cs5
		        note  D5
		        note  C5
		        note  B4
		        note  As4
		        note  B4
		        noteL A4,48
		        note  G4
		  ymSustain
		        noteL Fs4,96
		  ymVol 09h
		        noteL Fs4,12
		  ymVol 07h
		        noteL Fs4,6
		  ymVol 05h
		  release 01h
		        note  Fs4
		  ymVol 0Ch
		        noteL Cs4,24
		        noteL G4,36
		        noteL A4,12
		        noteL Fs4,72
		        noteL Cs4,24
		        noteL E4,48
		        noteL D4,36
		        noteL Cs4,12
		        noteL D4,153
		  ymSustain
		        noteL Cs4,58
		  vibrato 020h
		  ymVol 09h
		        noteL Cs4,12
		  release 01h
		  ymVol 07h
		        noteL Cs4,6
		        silence
		  vibrato 028h
		  ymInst 55
		  ymVol 0Dh
		        noteL Cs5,24
		        note  D5
		        note  E5
		        note  Fs5
		        note  G5
		        note  A5
		        note  B5
		        note  Cs6
		        note  D6
		        note  E6
		        note  D6
		        note  Cs6
		        note  B5
		        note  A5
		  ymSustain
		        note  B5
		  vibrato 020h
		  ymVol 0Ah
		        noteL B5,12
		  ymVol 08h
		        noteL B5,6
		  ymVol 06h
		  release 01h
		        note  B5
		  vibrato 028h
		  ymVol 0Dh
		        noteL Cs5,24
		        note  D5
		        note  E5
		        note  Fs5
		        note  G5
		        note  A5
		        note  B5
		        note  Cs6
		        note  D6
		        note  Fs6
		        note  E6
		        note  A6
		        note  G6
		        note  Fs6
		        note  E6
		repeatStart
		        noteL E6,36
		        noteL Fs6,12
		  ymSustain
		        noteL Fs6,120
		  vibrato 020h
		  ymVol 0Ah
		        noteL Fs6,12
		  ymVol 08h
		        noteL Fs6,6
		  ymVol 06h
		  release 01h
		        note  Fs6
		  vibrato 028h
		  ymVol 0Dh
		repeatSection1Start
		        noteL E5,36
		        noteL Fs5,12
		  ymSustain
		        noteL Fs5,120
		  vibrato 020h
		  ymVol 0Ah
		        noteL Fs5,12
		  ymVol 08h
		        noteL Fs5,6
		  ymVol 06h
		  release 01h
		        note  Fs5
		  vibrato 028h
		  ymVol 0Dh
		repeatEnd
		repeatSection2Start
		countedLoopStart 1
		        noteL E5,36
		        noteL Fs5,12
		        noteL Fs5,48
		countedLoopEnd
		  vibrato 02Ch
		        noteL E5,99
		        noteL D5,50
		        noteL Cs5,52
		        noteL D5,139
		mainLoopEnd
Music_15_Channel_2:
		  ymStereo 0C0h
		  release 01h
		  length 72
		mainLoopStart
		  vibrato 02Ch
		  ymInst 58
		  ymVol 0Ch
		        noteL B3,96
		        note  As3
		        note  Cs4
		        noteL D4,48
		        note  B3
		        note  G3
		        noteL B3,96
		        noteL As3,48
		        noteL Fs3,24
		        note  A3
		        noteL C4,96
		        noteL B3,48
		        noteL As3,144
		        noteL B3,72
		        noteL Gs3,24
		        noteL As3,48
		        noteL B3,24
		        noteL E3,96
		        noteL F3,24
		        noteL Gs3,25
		        noteL B3,26
		  ymSustain
		        noteL Fs3,112
		  vibrato 020h
		  ymVol 0Ah
		        noteL Fs3,12
		  release 01h
		  ymVol 08h
		        noteL Fs3,6
		        silence
		  vibrato 028h
		  ymInst 55
		  ymVol 0Ch
		        noteL A4,24
		        note  B4
		        note  Cs5
		        note  D5
		        note  E5
		        note  Fs5
		        note  G5
		        note  A5
		        note  B5
		        note  Cs6
		        note  B5
		        note  A5
		        note  G5
		        note  Fs5
		  ymSustain
		        note  G5
		  vibrato 020h
		  ymVol 09h
		        noteL G5,12
		  ymVol 07h
		        noteL G5,6
		  ymVol 05h
		  release 01h
		        note  G5
		  vibrato 028h
		  ymVol 0Ch
		        noteL A4,24
		        note  B4
		        note  Cs5
		        note  D5
		        note  E5
		        note  Fs5
		        note  G5
		        note  A5
		        note  B5
		        note  D6
		        note  Cs6
		        note  Fs6
		        note  E6
		        note  D6
		        note  Cs6
		repeatStart
		        noteL Cs6,36
		        noteL D6,12
		  ymSustain
		        noteL D6,120
		  vibrato 020h
		  ymVol 09h
		        noteL D6,12
		  ymVol 07h
		        noteL D6,6
		  ymVol 05h
		  release 01h
		        note  D6
		  vibrato 028h
		  ymVol 0Ch
		repeatSection1Start
		        noteL Cs5,36
		        noteL D5,12
		  ymSustain
		        noteL D5,120
		  vibrato 020h
		  ymVol 09h
		        noteL D5,12
		  ymVol 07h
		        noteL D5,6
		  ymVol 05h
		  release 01h
		        note  D5
		  vibrato 028h
		  ymVol 0Ch
		repeatEnd
		repeatSection2Start
		        noteL Cs5,36
		        noteL D5,12
		        noteL D5,48
		        noteL Cs5,36
		        noteL B4,12
		        noteL As4,48
		  vibrato 02Ch
		        noteL G4,99
		        noteL Fs4,50
		        noteL E4,52
		  ymSustain
		        noteL Fs4,163
		  vibrato 020h
		  ymVol 09h
		        noteL Fs4,12
		  ymVol 07h
		        noteL Fs4,6
		  ymVol 05h
		  release 01h
		        note  Fs4
		  length 24
		mainLoopEnd
Music_15_Channel_3:
		  length 8
		  ymStereo 040h
		  shifting 020h
		  release 01h
		  vibrato 02Ch
		mainLoopStart
		  ymInst 26
		  ymVol 0Bh
		        noteL As4,24
		        note  B4
		        note  Fs5
		        noteL G5,120
		        noteL Fs5,24
		        note  E5
		        note  Fs5
		        noteL As4,96
		  ymSustain
		        noteL B4,12
		  ymVol 08h
		        noteL B4,6
		  ymVol 06h
		  release 01h
		        note  B4
		  ymVol 0Bh
		        noteL Fs4,24
		        note  G4
		        note  D5
		        noteL E5,120
		        noteL D5,24
		        note  Cs5
		        note  D5
		        note  C5
		        note  B4
		        note  As4
		        note  B4
		        noteL A4,48
		        note  G4
		  ymSustain
		        noteL Fs4,96
		  ymVol 08h
		        noteL Fs4,12
		  ymVol 06h
		        noteL Fs4,6
		  ymVol 04h
		  release 01h
		        note  Fs4
		  ymVol 0Bh
		        noteL Cs4,24
		        noteL G4,36
		        noteL A4,12
		        noteL Fs4,72
		        noteL Cs4,24
		        noteL E4,48
		        noteL D4,36
		        noteL Cs4,12
		        noteL D4,153
		  ymSustain
		        noteL Cs4,58
		  vibrato 020h
		  ymVol 08h
		        noteL Cs4,12
		  ymVol 06h
		  release 01h
		        noteL Cs4,6
		        silence
		  vibrato 028h
		  ymInst 55
		  ymVol 0Ch
		        noteL Cs5,24
		        note  D5
		        note  E5
		        note  Fs5
		        note  G5
		        note  A5
		        note  B5
		        note  Cs6
		        note  D6
		        note  E6
		        note  D6
		        note  Cs6
		        note  B5
		        note  A5
		  ymSustain
		        note  B5
		  vibrato 020h
		  ymVol 09h
		        noteL B5,12
		  ymVol 07h
		        noteL B5,6
		  ymVol 05h
		  release 01h
		        note  B5
		  vibrato 028h
		  ymVol 0Ch
		        noteL Cs5,24
		        note  D5
		        note  E5
		        note  Fs5
		        note  G5
		        note  A5
		        note  B5
		        note  Cs6
		        note  D6
		        note  Fs6
		        note  E6
		        note  A6
		        note  G6
		        note  Fs6
		        note  E6
		repeatStart
		        noteL E6,36
		        noteL Fs6,12
		  ymSustain
		        noteL Fs6,120
		  vibrato 020h
		  ymVol 09h
		        noteL Fs6,12
		  ymVol 07h
		        noteL Fs6,6
		  ymVol 05h
		  release 01h
		        note  Fs6
		  vibrato 028h
		  ymVol 0Ch
		repeatSection1Start
		        noteL E5,36
		        noteL Fs5,12
		  ymSustain
		        noteL Fs5,120
		  vibrato 020h
		  ymVol 09h
		        noteL Fs5,12
		  ymVol 07h
		        noteL Fs5,6
		  ymVol 05h
		  release 01h
		        note  Fs5
		  vibrato 028h
		  ymVol 0Ch
		repeatEnd
		repeatSection2Start
		countedLoopStart 1
		        noteL E5,36
		        noteL Fs5,12
		        noteL Fs5,48
		countedLoopEnd
		  vibrato 02Ch
		        noteL E5,99
		        noteL D5,50
		        noteL Cs5,52
		        noteL D5,139
		mainLoopEnd
Music_15_Channel_4:
		  ymStereo 080h
		  shifting 020h
		  release 01h
		  vibrato 02Ch
		  length 92
		mainLoopStart
		  ymInst 6
		  ymVol 0Bh
		        noteL E4,12
		        note  G4
		        note  B4
		        noteL D5,48
		  length 12
		        note  E4
		        note  Fs4
		        note  As4
		        noteL Cs5,48
		  length 12
		        note  Fs4
		        note  G4
		        note  As4
		        note  Cs5
		        note  As4
		        note  Cs5
		        note  E5
		        note  D5
		        note  Cs5
		        note  D5
		        note  Fs5
		        noteL B5,48
		  length 12
		        note  Cs4
		        note  E4
		        note  G4
		        noteL B4,48
		  length 12
		        note  Cs4
		        note  D4
		        note  Fs4
		        noteL As4,48
		  length 12
		        note  Ds4
		        note  Fs4
		        note  A4
		        note  C5
		        note  A4
		        note  C5
		        note  Ds5
		        note  E5
		        note  B4
		        note  G5
		        note  Fs5
		        note  E5
		        note  B4
		        note  G4
		        note  E4
		        silence
		        note  E4
		        note  Fs4
		        note  As4
		        noteL Cs5,90
		  shifting 00h
		  ymStereo 0C0h
		  ymVol 0Ch
		        noteL B4,46
		  length 18
		  ymStereo 080h
		  shifting 020h
		  ymVol 0Bh
		        noteL E4,12
		        note  Fs4
		        note  As4
		        noteL Cs5,48
		  length 12
		        note  G4
		        note  B4
		        note  E5
		        noteL G5,48
		  length 12
		        note  Gs4
		        note  B4
		        note  D5
		        noteL F5,51
		  length 12
		        noteL Fs4,13
		        noteL Cs5,14
		        noteL E5,15
		        noteL Fs5,58
		  length 12
		        note  Fs3
		        note  D4
		        note  B3
		        note  D4
		        note  B3
		        note  Fs3
		        note  B3
		        silence
		        note  G3
		        note  E4
		        note  B3
		        note  E4
		        note  B3
		        note  G3
		        note  B3
		        silence
		        note  A3
		        note  Fs4
		        note  Cs4
		        note  Fs4
		        note  Cs4
		        note  A3
		        note  Cs4
		        silence
		        note  G3
		        note  E4
		        note  B3
		        note  E4
		        note  B3
		        note  G3
		        note  B3
		        silence
		        note  Fs3
		        note  D4
		        note  B3
		        note  D4
		        note  B3
		        note  Fs3
		        note  B3
		        silence
		        note  G3
		        note  E4
		        note  B3
		        note  E4
		        note  B3
		        note  G3
		        note  B3
		        silence
		        note  A3
		        note  Fs4
		        note  Cs4
		        note  Fs4
		        note  Cs4
		        note  A3
		        note  Cs4
		        note  As3
		        note  Cs4
		        note  E4
		        note  Cs4
		        note  G4
		        note  E4
		        note  Cs5
		        note  As4
		        silence
		        note  B3
		        note  D4
		        note  Fs4
		        noteL B4,66
		  ymStereo 0C0h
		  shifting 00h
		  ymVol 0Ch
		        noteL Fs5,24
		        note  D5
		        note  B4
		  length 18
		  shifting 020h
		  ymStereo 080h
		  ymVol 0Bh
		        noteL B3,12
		        note  E4
		        note  G4
		        noteL B4,66
		  ymStereo 0C0h
		  shifting 00h
		  ymVol 0Ch
		        noteL E4,24
		        note  Fs4
		        note  G4
		  length 18
		  ymStereo 080h
		  shifting 020h
		  ymVol 0Bh
		        noteL B3,12
		        note  D4
		        note  Fs4
		        noteL B4,66
		  ymStereo 080h
		  ymVol 0Ch
		  shifting 00h
		        noteL Fs5,24
		        note  D5
		        note  B4
		  length 18
		  ymStereo 080h
		  shifting 020h
		  ymVol 0Bh
		        noteL B3,12
		        note  E4
		        note  G4
		        noteL B4,48
		  length 12
		        note  Cs4
		        note  E4
		        note  Fs4
		        noteL Cs5,48
		  length 18
		  ymStereo 0C0h
		  shifting 00h
		  ymVol 0Ch
		        noteL E4,24
		        noteL G4,25
		        noteL E4,26
		        noteL Fs4,102
		  length 26
		  ymStereo 080h
		  shifting 020h
		  ymVol 0Bh
		        noteL B4,17
		        note  Fs4
		        note  E4
		        noteL Cs4,19
		        noteL D4,23
		        noteL B3,112
		mainLoopEnd
Music_15_Channel_5:
		  ymStereo 0C0h
		  release 01h
		  vibrato 02Ch
		  length 84
		mainLoopStart
		  ymInst 6
		  ymVol 0Ch
		        noteL E4,12
		        note  G4
		        note  B4
		        noteL D5,48
		  length 12
		        note  E4
		        note  Fs4
		        note  As4
		        noteL Cs5,48
		  length 12
		        note  Fs4
		        note  G4
		        note  As4
		        note  Cs5
		        note  As4
		        note  Cs5
		        note  E5
		        note  D5
		        note  Cs5
		        note  D5
		        note  Fs5
		        noteL B5,48
		  length 12
		        note  Cs4
		        note  E4
		        note  G4
		        noteL B4,48
		  length 12
		        note  Cs4
		        note  D4
		        note  Fs4
		        noteL As4,48
		  length 12
		        note  Ds4
		        note  Fs4
		        note  A4
		        note  C5
		        note  A4
		        note  C5
		        note  Ds5
		        note  E5
		        note  B4
		        note  G5
		        note  Fs5
		        note  E5
		        note  B4
		        note  G4
		        note  E4
		        silence
		        note  E4
		        note  Fs4
		        note  As4
		        noteL Cs5,96
		        noteL G4,4
		        noteL E5,44
		  length 12
		        note  E4
		        note  Fs4
		        note  As4
		        noteL Cs5,48
		  length 12
		        note  G4
		        note  B4
		        note  E5
		        noteL G5,48
		  length 12
		        note  Gs4
		        note  B4
		        note  D5
		        noteL F5,51
		  length 12
		        noteL Fs4,13
		        noteL Cs5,14
		        noteL E5,15
		        noteL Fs5,58
		  length 12
		        note  Fs3
		        note  D4
		        note  B3
		        note  D4
		        note  B3
		        note  Fs3
		        note  B3
		        silence
		        note  G3
		        note  E4
		        note  B3
		        note  E4
		        note  B3
		        note  G3
		        note  B3
		        silence
		        note  A3
		        note  Fs4
		        note  Cs4
		        note  Fs4
		        note  Cs4
		        note  A3
		        note  Cs4
		        silence
		        note  G3
		        note  E4
		        note  B3
		        note  E4
		        note  B3
		        note  G3
		        note  B3
		        silence
		        note  Fs3
		        note  D4
		        note  B3
		        note  D4
		        note  B3
		        note  Fs3
		        note  B3
		        silence
		        note  G3
		        note  E4
		        note  B3
		        note  E4
		        note  B3
		        note  G3
		        note  B3
		        silence
		        note  A3
		        note  Fs4
		        note  Cs4
		        note  Fs4
		        note  Cs4
		        note  A3
		        note  Cs4
		        note  As3
		        note  Cs4
		        note  E4
		        note  Cs4
		        note  G4
		        note  E4
		        note  Cs5
		        note  As4
		        silence
		        note  B3
		        note  D4
		        note  Fs4
		        noteL B4,74
		        noteL D6,24
		        note  B5
		        noteL Fs5,22
		  length 12
		        note  B3
		        note  E4
		        note  G4
		        noteL B4,74
		        noteL Cs5,24
		        note  D5
		        noteL E5,22
		  length 12
		        note  B3
		        note  D4
		        note  Fs4
		        noteL B4,74
		        noteL D6,24
		        note  B5
		        noteL Fs5,22
		  length 12
		        note  B3
		        note  E4
		        note  G4
		        noteL B4,48
		  length 12
		        note  Cs4
		        note  E4
		        note  Fs4
		        noteL Cs5,48
		  length 26
		        noteL G4,24
		        noteL E5,25
		        noteL Cs5,26
		        noteL Fs5,100
		  length 18
		        noteL B4,17
		        note  Fs4
		        note  E4
		        noteL Cs4,19
		        noteL D4,23
		        noteL B3,112
		mainLoopEnd
Music_15_Channel_6:
		channel_end
Music_15_Channel_7:
		channel_end
Music_15_Channel_9:
		channel_end
