
; ASM FILE music01.asm :
; 0x89C9..0x9FA9 : Music 01
Music_1:        db 0
		db 0
		db 0
		db 0C2h
		dw Music_1_Channel_0
		dw Music_1_Channel_1
		dw Music_1_Channel_2
		dw Music_1_Channel_3
		dw Music_1_Channel_4
		dw Music_1_Channel_5
		dw Music_1_Channel_6
		dw Music_1_Channel_7
		dw Music_1_Channel_9
		dw Music_1_Channel_9
Music_1_Channel_0:
		  ymStereo 0C0h
		  release 01h
		  vibrato 02Ch
		  length 21
		mainLoopStart
		repeatStart
		  ymInst 13
		  ymVol 0Ch
		        noteL D5,30
		  ymVol 09h
		        noteL D5,6
		  ymVol 0Ch
		        note  D5
		        note  D5
		        note  Ds5
		  ymVol 09h
		        note  Ds5
		  ymVol 0Ch
		        noteL Ds5,18
		  ymVol 09h
		        noteL Ds5,6
		  ymVol 0Ch
		        note  Ds5
		  ymVol 09h
		        note  Ds5
		  ymVol 0Ch
		repeatSection1Start
		        noteL C5,6
		  ymVol 09h
		        note  C5
		  ymVol 0Ch
		        noteL C5,18
		  ymVol 09h
		        noteL C5,6
		  ymVol 0Ch
		        note  C5
		  ymVol 09h
		        note  C5
		  ymVol 0Ch
		        note  F5
		  ymVol 09h
		        note  F5
		  ymVol 0Ch
		        noteL F5,30
		  ymVol 09h
		        noteL F5,6
		repeatEnd
		repeatSection2Start
		        noteL C5,6
		  ymVol 09h
		        note  C5
		  ymVol 0Ch
		        note  C5
		  ymVol 09h
		        note  C5
		  ymVol 07h
		        note  C5
		  ymVol 05h
		        note  C5
		  ymVol 0Ch
		        noteL F5,60
		  ymVol 09h
		        noteL F5,6
		  ymVol 07h
		        note  F5
		  ymInst 27
		  ymVol 0Ah
		        noteL A3,12
		        noteL As3,6
		        silence
		        note  F4
		        silence
		        noteL E4,36
		        noteL C4,6
		        silence
		        note  D4
		        silence
		        noteL A4,24
		        noteL G4,6
		        silence
		        note  E4
		        silence
		        note  C4
		        silence
		        noteL D4,24
		  length 12
		        note  A3
		        noteL As3,6
		        silence
		        note  F4
		        silence
		        note  E4
		        silence
		        noteL C4,12
		        noteL D4,6
		        silence
		        note  A4
		        silence
		        noteL C5,36
		        noteL G4,6
		        silence
		        noteL F4,48
		  length 12
		  ymInst 26
		  ymVol 0Dh
		        note  D4
		        note  Ds4
		        note  As4
		        noteL A4,36
		        noteL G4,12
		        note  F4
		        noteL C5,24
		        noteL As4,12
		        noteL A4,16
		        note  G4
		        note  A4
		countedLoopStart 1
		        noteL As4,36
		        noteL Gs4,6
		        note  Fs4
		countedLoopEnd
		        noteL As4,48
		        note  C5
		  ymVol 0Ah
		        noteL C5,6
		  ymVol 06h
		        note  C5
		  ymInst 13
		  ymVol 0Ch
		        noteL A4,12
		        noteL As4,6
		  ymVol 09h
		        note  As4
		  ymVol 0Ch
		        note  F5
		  ymVol 09h
		        note  F5
		  ymVol 0Ch
		        noteL E5,36
		        noteL C5,6
		  ymVol 09h
		        note  C5
		  ymVol 0Ch
		        note  D5
		  ymVol 09h
		        note  D5
		  ymVol 0Ch
		        noteL A5,24
		        noteL G5,6
		  ymVol 09h
		        note  G5
		  ymVol 0Ch
		        note  E5
		  ymVol 09h
		        note  E5
		  ymVol 0Ch
		        note  C5
		  ymVol 09h
		        note  C5
		  ymVol 0Ch
		        noteL D5,24
		  ymVol 09h
		        noteL D5,6
		  ymVol 07h
		        note  D5
		  ymVol 0Ch
		        noteL A4,12
		        noteL As4,6
		  ymVol 09h
		        note  As4
		  ymVol 0Ch
		        note  F5
		  ymVol 09h
		        note  F5
		  ymVol 0Ch
		        note  E5
		  ymVol 09h
		        note  E5
		  ymVol 0Ch
		        noteL C5,12
		        noteL D5,6
		  ymVol 09h
		        note  D5
		  ymVol 0Ch
		        note  A5
		  ymVol 09h
		        note  A5
		  ymVol 0Ch
		        noteL C6,36
		        noteL G5,6
		  ymVol 09h
		        note  G5
		  ymVol 0Ch
		        noteL F5,30
		  ymVol 09h
		        noteL F5,6
		  ymInst 26
		  ymVol 0Ch
		        note  A5
		  ymVol 08h
		        note  A5
		  ymVol 0Ch
		        noteL A5,12
		        note  G5
		        note  A5
		        noteL As5,24
		        noteL A5,12
		        note  F5
		        note  G5
		        note  As4
		  ymVol 08h
		        noteL As4,6
		  ymVol 0Ch
		        note  C5
		        noteL C5,60
		        noteL C5,6
		        note  As4
		  ymVol 08h
		        note  As4
		  ymVol 06h
		        note  As4
		  ymVol 0Dh
		        noteL A4,12
		        note  As4
		        noteL F5,18
		  ymVol 09h
		        noteL F5,6
		  ymVol 0Dh
		        noteL C5,12
		        note  D5
		        noteL A5,18
		  ymVol 09h
		        noteL A5,6
		  ymVol 0Dh
		        noteL D5,12
		        note  Ds5
		        noteL D6,24
		        note  C6
		  ymVol 09h
		        noteL C6,12
		  ymVol 05h
		        note  C6
		  ymInst 27
		  ymVol 0Ah
		        note  Cs5
		        noteL C5,6
		        silence
		        note  G4
		        silence
		        note  Gs4
		        silence
		        noteL Ds4,24
		        noteL F4,6
		        silence
		        noteL As3,72
		        noteL A3,24
		  length 12
		        note  G3
		        noteL Gs3,6
		        silence
		        note  F4
		        silence
		        note  Ds4
		        silence
		        noteL As3,24
		        noteL C4,6
		        silence
		        noteL Gs4,72
		        noteL Fs4,24
		  length 12
		  ymInst 56
		  ymVol 0Ch
		        note  B4
		        noteL As4,6
		  ymVol 09h
		        note  As4
		  ymVol 0Ch
		        note  F4
		  ymVol 09h
		        note  F4
		  ymVol 0Ch
		        note  Fs4
		  ymVol 09h
		        note  Fs4
		  ymVol 0Ch
		        noteL D4,24
		        noteL Ds4,6
		  ymVol 09h
		        note  Ds4
		  ymVol 0Ch
		        noteL As3,72
		        noteL Gs3,24
		  ymVol 09h
		        noteL Gs3,6
		  ymVol 07h
		        note  Gs3
		  ymVol 0Ch
		        noteL E4,12
		        noteL Fs4,6
		  ymVol 09h
		        note  Fs4
		  ymVol 0Ch
		        noteL Cs5,18
		  ymVol 09h
		        noteL Cs5,6
		  ymVol 0Ch
		        noteL A4,12
		        noteL B4,6
		  ymVol 09h
		        note  B4
		  ymVol 0Ch
		        noteL Fs5,18
		  ymVol 09h
		        noteL Fs5,6
		  ymVol 0Ch
		        note  B4
		  ymVol 09h
		        note  B4
		  ymVol 0Ch
		        noteL Fs5,18
		        noteL B4,6
		        noteL Fs5,36
		        noteL E5,6
		  ymVol 09h
		        note  E5
		  ymInst 13
		  ymVol 0Ch
		        noteL Fs4,30
		  ymVol 09h
		        noteL Fs4,6
		  ymVol 0Ch
		        note  Fs4
		        note  Fs4
		        note  Gs4
		  ymVol 09h
		        note  Gs4
		  ymVol 0Ch
		        noteL Gs4,18
		  ymVol 09h
		        noteL Gs4,6
		  ymVol 0Ch
		        note  Gs4
		  ymVol 09h
		        note  Gs4
		  ymVol 0Ch
		        noteL A4,84
		  ymVol 09h
		        noteL A4,6
		  ymVol 07h
		        note  A4
		  ymVol 0Ch
		        noteL A4,30
		  ymVol 09h
		        noteL A4,6
		  ymVol 0Ch
		        note  A4
		        note  A4
		        note  B4
		  ymVol 09h
		        note  B4
		  ymVol 0Ch
		        noteL B4,18
		  ymVol 09h
		        noteL B4,6
		  ymVol 0Ch
		        note  B4
		  ymVol 09h
		        note  B4
		  ymVol 0Ch
		        noteL Cs5,84
		  ymVol 09h
		        noteL Cs5,6
		  ymVol 07h
		        note  Cs5
		  ymInst 45
		countedLoopStart 1
		  ymVol 0Ch
		        noteL Cs5,6
		        note  B4
		        note  Fs4
		        note  B4
		        note  Fs5
		  ymVol 08h
		        note  Fs5
		countedLoopEnd
		  ymVol 0Ch
		        noteL Cs5,6
		        note  B4
		countedLoopStart 1
		  ymVol 0Ch
		        noteL Cs5,6
		        note  B4
		        note  E4
		        note  A4
		        note  Fs5
		  ymVol 08h
		        note  Fs5
		countedLoopEnd
		  ymVol 0Ch
		        noteL Cs5,6
		        note  B4
		countedLoopStart 1
		  ymVol 0Ch
		        noteL Cs5,6
		        note  B4
		        note  Fs4
		        note  D5
		        note  Fs5
		  ymVol 08h
		        note  Fs5
		countedLoopEnd
		  ymVol 0Ch
		        noteL D5,6
		        note  Fs5
		        note  Gs5
		        note  Fs5
		        note  Gs5
		        note  Cs6
		        note  Cs5
		  ymVol 08h
		        note  Cs5
		  ymVol 0Ch
		        note  Fs5
		        note  E5
		        note  B4
		  ymVol 08h
		        note  B4
		  ymVol 0Ch
		        note  D5
		        note  Cs5
		        note  B4
		        note  A4
		        note  E4
		        note  A4
		  ymInst 26
		countedLoopStart 1
		  ymVol 0Bh
		        noteL Cs5,6
		        note  B4
		        note  Fs4
		        note  B4
		        note  Fs5
		  ymVol 07h
		        note  Fs5
		countedLoopEnd
		  ymVol 0Bh
		        noteL Cs5,6
		        note  B4
		countedLoopStart 1
		  ymVol 0Bh
		        noteL Cs5,6
		        note  B4
		        note  E4
		        note  A4
		        note  Fs5
		  ymVol 07h
		        note  Fs5
		countedLoopEnd
		  ymVol 0Bh
		        noteL Cs5,6
		        note  B4
		countedLoopStart 1
		  ymVol 0Bh
		        noteL Cs5,6
		        note  B4
		        note  Fs4
		        note  D5
		        note  Fs5
		  ymVol 07h
		        note  Fs5
		countedLoopEnd
		  ymVol 0Bh
		        noteL D5,6
		        note  Fs5
		        note  Gs5
		        note  Fs5
		        note  Gs5
		        note  Cs6
		        note  Cs5
		  ymVol 07h
		        note  Cs5
		  ymVol 0Bh
		        note  Fs5
		        note  E5
		        note  B4
		  ymVol 07h
		        note  B4
		  ymVol 0Bh
		        note  E5
		        note  D5
		        note  C5
		        note  As4
		        note  Gs4
		        note  As4
		        note  B4
		        note  Cs5
		        note  Ds5
		        note  F5
		        note  Fs5
		        note  Gs5
		        note  As5
		        note  B5
		repeatStart
		  ymInst 13
		  ymVol 0Ch
		        noteL Cs5,6
		        note  Cs5
		        note  Cs5
		  ymVol 09h
		        note  Cs5
		  ymInst 27
		  ymVol 0Ah
		repeatSection1Start
		        noteL Cs4,8
		  length 4
		        note  C4
		  release 04h
		        noteL C4,8
		        note  C4
		        note  As3
		        note  Gs3
		  release 01h
		        noteL As3,24
		repeatEnd
		repeatSection2Start
		        noteL Fs4,8
		  length 4
		        note  F4
		  release 04h
		        noteL F4,8
		        note  F4
		        note  Ds4
		        note  Cs4
		  release 01h
		        noteL Ds4,24
		  ymInst 13
		  ymVol 0Ch
		        noteL Cs5,30
		  ymVol 09h
		        noteL Cs5,6
		  ymVol 0Ch
		        note  Cs5
		        note  Cs5
		        noteL Cs5,8
		  ymVol 09h
		        note  Cs5
		  ymVol 0Ch
		        note  Cs5
		  ymVol 09h
		        note  Cs5
		  ymVol 0Ch
		        note  Cs5
		  ymVol 09h
		        note  Cs5
		  length 12
		  ymInst 27
		  ymVol 0Ah
		        note  Fs3
		        noteL Gs3,6
		        silence
		        note  F4
		        silence
		        note  Ds4
		        silence
		        noteL As3,12
		        noteL C4,6
		  length 12
		        noteL Gs4,6
		        noteL Fs4,96
		mainLoopEnd
Music_1_Channel_1:
		  ymStereo 0C0h
		  release 01h
		  vibrato 02Ch
		  length 21
		mainLoopStart
		  length 24
		  ymInst 3
		  ymVol 0Ch
		        note  As1
		        silence
		        note  F1
		        silence
		        note  Cs2
		        silence
		        noteL Fs1,6
		        silence
		        noteL B1,12
		  length 24
		        note  As1
		        silence
		        note  F1
		        noteL Fs1,6
		        silence
		        note  Fs1
		  length 18
		        noteL B1,60
		countedLoopStart 1
		        noteL As1,6
		        silence
		        note  As1
		  length 18
		        noteL As1,6
		  length 18
		        noteL As1,6
		  length 18
		        noteL As1,6
		        note  As1
		countedLoopEnd
		        noteL As1,6
		        silence
		        note  As1
		  length 18
		        noteL As1,6
		  length 18
		        noteL As1,6
		        silence
		        noteL As1,24
		        noteL A1,6
		        silence
		        note  A1
		  length 18
		        noteL A1,6
		        note  A1
		        note  D2
		        silence
		        note  A1
		        silence
		        noteL D2,24
		        noteL C2,6
		        silence
		        note  C2
		  length 18
		        noteL C2,6
		  length 18
		        noteL C2,6
		  length 18
		        noteL C2,6
		        note  C2
		        note  As1
		        silence
		        note  As1
		  length 18
		        noteL As1,6
		        silence
		        note  As1
		        silence
		        note  As1
		        silence
		        noteL As1,24
		        noteL Gs1,48
		        note  E2
		        note  F2
		        note  F1
		countedLoopStart 1
		        noteL As1,6
		        silence
		        note  As1
		  length 18
		        noteL As1,6
		  length 18
		        noteL As1,6
		  length 18
		        noteL As1,6
		        note  As1
		countedLoopEnd
		        noteL As1,6
		        silence
		        note  As1
		  length 18
		        noteL As1,6
		  length 18
		        noteL As1,6
		  length 18
		        noteL As1,6
		        silence
		        note  A1
		        silence
		        note  A1
		  length 18
		        noteL A1,6
		        silence
		        note  D2
		        silence
		        note  A1
		        silence
		        noteL D2,24
		        noteL Ds2,6
		        silence
		        note  Ds2
		  length 18
		        noteL Ds2,6
		  length 18
		        noteL Ds2,6
		  length 18
		        noteL Ds2,6
		        note  Ds2
		        note  Gs1
		        silence
		        note  Gs1
		  length 18
		        noteL Gs1,6
		  length 18
		        noteL Gs1,6
		        silence
		        noteL Gs1,24
		        noteL G1,30
		  length 6
		        note  G1
		        silence
		        noteL D2,30
		  length 6
		        note  D2
		        silence
		        noteL Ds2,30
		  length 6
		        note  Ds2
		        silence
		        note  Gs1
		        silence
		  ymInst 38
		  ymVol 0Ch
		        noteL Gs2,12
		        note  Fs2
		        note  Ds2
		        noteL Cs2,72
		        noteL Ds2,12
		        note  F2
		        noteL Fs2,60
		        noteL Gs2,24
		        noteL Fs2,12
		        noteL Cs2,72
		        noteL Ds2,12
		        note  F2
		        noteL Fs2,60
		        noteL Gs2,24
		        noteL As2,12
		        noteL B2,72
		        noteL Cs2,12
		        note  Ds2
		        noteL E2,72
		        noteL Fs2,12
		        note  E2
		        noteL D2,48
		        note  G2
		        note  C2
		        note  F2
		  ymInst 3
		  ymVol 0Ch
		  length 24
		        note  B1
		        silence
		        note  A1
		  release 08h
		        noteL G1,12
		        note  A1
		        note  B1
		        note  Cs2
		        note  D2
		        note  E2
		        note  Fs2
		        note  G2
		  release 01h
		  length 24
		        note  D2
		        silence
		        note  Cs2
		  release 08h
		        noteL B1,12
		        note  Cs2
		        note  Ds2
		        note  E2
		        note  Fs2
		        note  Gs2
		        note  As2
		        note  B2
		  release 01h
		  ymInst 56
		  ymVol 0Ch
		        noteL D3,60
		  ymVol 09h
		        noteL D3,12
		  ymVol 0Ch
		        noteL D3,6
		        note  D3
		        noteL Cs3,60
		  ymVol 09h
		        noteL Cs3,12
		  ymVol 0Ch
		        noteL Cs3,6
		  ymVol 09h
		        note  Cs3
		  ymVol 0Ch
		        noteL Gs3,60
		  ymVol 09h
		        noteL Gs3,12
		  ymVol 0Ch
		        noteL Gs3,6
		        note  Gs3
		        noteL A3,72
		  release 08h
		  ymInst 3
		  ymVol 0Ch
		        noteL A2,12
		        note  E2
		        note  D2
		        note  D2
		        silence
		        note  D2
		        silence
		        note  D2
		        note  D2
		        note  Cs2
		        note  Cs2
		        silence
		        note  Cs2
		        silence
		        note  Cs2
		        note  Cs2
		        note  Gs2
		        note  Gs2
		        silence
		        note  Gs2
		        silence
		        note  Gs2
		        note  Gs2
		        note  A1
		        note  A2
		        note  G1
		        note  G2
		        note  F1
		        note  F2
		        note  Ds1
		        note  Ds2
		  release 01h
		        noteL Cs2,48
		countedLoopStart 1
		        noteL B1,6
		        note  B1
		        note  B1
		  length 78
		countedLoopEnd
		        noteL E1,48
		        noteL Fs1,8
		        silence
		        note  Fs1
		        silence
		        note  Fs1
		  length 32
		        noteL Gs1,168
		mainLoopEnd
Music_1_Channel_2:
		  ymStereo 0C0h
		  release 01h
		  vibrato 02Ch
		  length 21
		mainLoopStart
		repeatStart
		  ymInst 13
		  ymVol 0Bh
		        noteL C5,30
		  ymVol 08h
		        noteL C5,6
		  ymVol 0Bh
		        note  C5
		        note  C5
		        note  As4
		  ymVol 08h
		        note  As4
		  ymVol 0Bh
		        noteL As4,18
		  ymVol 08h
		        noteL As4,6
		  ymVol 0Bh
		        note  As4
		  ymVol 08h
		        note  As4
		  ymVol 0Bh
		repeatSection1Start
		        noteL Gs4,6
		  ymVol 08h
		        note  Gs4
		  ymVol 0Bh
		        noteL Gs4,18
		  ymVol 08h
		        noteL Gs4,6
		  ymVol 0Bh
		        note  Gs4
		  ymVol 08h
		        note  Gs4
		  ymVol 0Bh
		        note  As4
		  ymVol 08h
		        note  As4
		  ymVol 0Bh
		        noteL As4,30
		  ymVol 08h
		        noteL As4,6
		repeatEnd
		repeatSection2Start
		        noteL Gs4,6
		  ymVol 08h
		        note  Gs4
		  ymVol 0Bh
		        note  Gs4
		  ymVol 08h
		        note  Gs4
		  ymVol 06h
		        note  Gs4
		  ymVol 04h
		        note  Gs4
		  ymVol 0Bh
		        noteL As4,36
		        noteL Gs4,24
		  ymVol 0Ah
		        noteL F5,6
		  ymVol 07h
		        note  F5
		countedLoopStart 2
		  ymVol 0Ah
		        noteL F5,6
		  ymVol 07h
		        note  F5
		  length 12
		countedLoopEnd
		  ymVol 0Ah
		        noteL F5,6
		        note  F5
		        note  G5
		  ymVol 07h
		        note  G5
		countedLoopStart 2
		  ymVol 0Ah
		        noteL G5,6
		  ymVol 07h
		        note  G5
		  length 12
		countedLoopEnd
		  ymVol 0Ah
		        noteL G5,6
		        note  G5
		        note  F5
		  ymVol 07h
		        note  F5
		countedLoopStart 1
		  ymVol 0Ah
		        noteL F5,6
		  ymVol 07h
		        note  F5
		  length 12
		countedLoopEnd
		  ymVol 0Ah
		        noteL F5,6
		  ymVol 07h
		        note  F5
		  ymVol 0Ah
		        noteL G5,24
		  ymVol 0Ah
		        noteL E5,6
		  ymVol 07h
		        note  E5
		  ymVol 0Ah
		        note  E5
		  ymVol 07h
		        note  E5
		  length 12
		  ymVol 0Ah
		        noteL E5,6
		        note  E5
		        note  F5
		  ymVol 07h
		        note  F5
		  ymVol 0Ah
		        note  F5
		  ymVol 07h
		        note  F5
		  ymVol 0Ah
		        noteL F5,24
		  ymInst 44
		  ymVol 0Ah
		        noteL G5,6
		  ymVol 07h
		        note  G5
		countedLoopStart 2
		  ymVol 0Ah
		        noteL G5,6
		  ymVol 07h
		        note  G5
		  length 12
		countedLoopEnd
		  ymVol 0Ah
		        noteL G5,6
		        note  G5
		        note  A5
		  ymVol 07h
		        note  A5
		  ymVol 0Bh
		        note  A5
		  ymVol 07h
		        note  A5
		  length 12
		  ymVol 0Bh
		        noteL A5,6
		  ymVol 07h
		        note  A5
		countedLoopStart 1
		  ymVol 0Ah
		        noteL F5,6
		  ymVol 07h
		        note  F5
		countedLoopEnd
		  ymVol 0Ah
		        noteL F5,24
		  ymInst 13
		  ymVol 0Ah
		        note  Fs4
		        note  Fs5
		        note  Fs4
		        note  Fs5
		        noteL G4,36
		        noteL G5,6
		        note  G5
		        noteL A4,12
		  ymVol 0Bh
		        noteL A5,6
		  ymVol 09h
		        note  A5
		  length 12
		  ymVol 0Bh
		        noteL A5,6
		  ymVol 09h
		        note  A5
		  ymInst 26
		  ymVol 0Bh
		        note  F4
		  ymVol 07h
		        note  F4
		countedLoopStart 2
		  ymVol 0Bh
		        noteL F4,6
		  ymVol 07h
		        note  F4
		  length 12
		countedLoopEnd
		  ymVol 0Bh
		        noteL F4,6
		        note  F4
		        note  G4
		  ymVol 07h
		        note  G4
		countedLoopStart 2
		  ymVol 0Bh
		        noteL G4,6
		  ymVol 07h
		        note  G4
		  length 12
		countedLoopEnd
		  ymVol 0Bh
		        noteL G4,6
		        note  G4
		        note  F4
		  ymVol 07h
		        note  F4
		countedLoopStart 2
		  ymVol 0Bh
		        noteL F4,6
		  ymVol 07h
		        note  F4
		  length 12
		countedLoopEnd
		  ymVol 0Bh
		        noteL G4,6
		  ymVol 07h
		        note  G4
		  ymVol 0Bh
		        note  E4
		  ymVol 07h
		        note  E4
		  ymVol 0Bh
		        note  E4
		  ymVol 07h
		        note  E4
		  length 12
		  ymVol 0Bh
		        noteL E4,6
		  ymVol 07h
		        note  E4
		  ymVol 0Bh
		        note  F4
		  ymVol 07h
		        note  F4
		  ymVol 0Bh
		        note  F4
		  ymVol 07h
		        note  F4
		  ymVol 0Bh
		        noteL F4,24
		  ymInst 44
		  ymVol 0Ah
		        noteL G5,6
		  ymVol 07h
		        note  G5
		countedLoopStart 2
		  ymVol 0Ah
		        noteL G5,6
		  ymVol 07h
		        note  G5
		  length 12
		countedLoopEnd
		  ymVol 0Ah
		        noteL G5,6
		        note  G5
		countedLoopStart 1
		  ymVol 0Ah
		        noteL Fs5,6
		  ymVol 07h
		        note  Fs5
		countedLoopEnd
		  length 12
		  ymVol 0Ah
		        noteL Fs5,6
		  ymVol 07h
		        note  Fs5
		  ymInst 16
		  ymVol 0Ch
		        noteL As5,18
		        noteL C6,6
		        noteL C6,24
		  ymInst 26
		  ymVol 0Bh
		        noteL As4,30
		  ymVol 07h
		        noteL As4,6
		  ymVol 0Bh
		        note  As4
		  ymVol 07h
		        note  As4
		  ymVol 0Bh
		        noteL C5,30
		  ymVol 07h
		        noteL C5,6
		  ymVol 0Bh
		        note  C5
		  ymVol 07h
		        note  C5
		  ymVol 0Bh
		        noteL D5,30
		  ymVol 07h
		        noteL D5,6
		  ymVol 0Bh
		        noteL D5,4
		  ymVol 07h
		        noteL D5,8
		  ymVol 0Bh
		        noteL Ds5,24
		        note  C5
		  ymInst 26
		countedLoopStart 1
		  ymVol 0Ah
		        noteL Cs6,6
		        note  Gs5
		        note  G5
		        note  Gs5
		        note  Cs6
		  ymVol 07h
		        note  Cs6
		countedLoopEnd
		  ymVol 0Ah
		        noteL Cs6,6
		        note  Gs5
		        note  F5
		        note  Cs5
		  ymInst 54
		countedLoopStart 1
		  ymVol 0Ah
		        noteL Fs5,6
		        note  Cs5
		        note  C5
		        note  Cs5
		        note  Fs5
		  ymVol 07h
		        note  Fs5
		countedLoopEnd
		  ymVol 0Ah
		        noteL Fs5,6
		        note  Cs5
		        note  As4
		        note  Fs4
		  ymInst 26
		countedLoopStart 1
		  ymVol 0Ah
		        noteL F5,6
		        note  Cs5
		        note  Gs4
		        note  Cs5
		        note  F5
		  ymVol 07h
		        note  F5
		countedLoopEnd
		  ymVol 0Ah
		        noteL F5,6
		        note  Cs5
		        note  Gs4
		        note  F5
		  ymInst 54
		countedLoopStart 1
		  ymVol 0Ah
		        noteL Cs5,6
		        note  As4
		        note  A4
		        note  As4
		        note  Cs5
		  ymVol 07h
		        note  Cs5
		countedLoopEnd
		  ymVol 0Ah
		        noteL Cs5,6
		        note  C5
		        note  Cs5
		        note  F5
		  ymInst 26
		countedLoopStart 1
		  ymVol 0Ah
		        noteL B5,6
		        note  Fs5
		        note  F5
		        note  Fs5
		        note  B5
		  ymVol 07h
		        note  B5
		countedLoopEnd
		  ymVol 0Ah
		        noteL B5,6
		        note  Fs5
		        note  E5
		        note  Ds5
		  ymInst 54
		countedLoopStart 1
		  ymVol 0Ah
		        noteL E5,6
		        note  B4
		        note  As4
		        note  B4
		        note  E5
		  ymVol 07h
		        note  E5
		countedLoopEnd
		  ymVol 0Ah
		        noteL E5,6
		        note  B4
		        note  As4
		        note  B4
		  ymInst 26
		  ymVol 0Bh
		        noteL Fs4,48
		        note  G4
		        note  B4
		        note  A4
		  ymInst 13
		  ymVol 0Bh
		        noteL Ds4,30
		  ymVol 08h
		        noteL Ds4,6
		  ymVol 0Bh
		        note  Ds4
		        note  Ds4
		        note  E4
		  ymVol 08h
		        note  E4
		  ymVol 0Bh
		        noteL E4,18
		  ymVol 08h
		        noteL E4,6
		  ymVol 0Bh
		        note  E4
		  ymVol 08h
		        note  E4
		  ymVol 0Bh
		        noteL Fs4,84
		  ymVol 08h
		        noteL Fs4,6
		  ymVol 06h
		        note  Fs4
		  ymVol 0Bh
		        noteL Fs4,30
		  ymVol 08h
		        noteL Fs4,6
		  ymVol 0Bh
		        note  Fs4
		        note  Fs4
		        note  Gs4
		  ymVol 08h
		        note  Gs4
		  ymVol 0Bh
		        noteL Gs4,18
		  ymVol 08h
		        noteL Gs4,6
		  ymVol 0Bh
		        note  Gs4
		  ymVol 08h
		        note  Gs4
		  ymVol 0Bh
		        noteL As4,84
		  ymVol 08h
		        noteL As4,6
		  ymVol 06h
		        note  As4
		  ymInst 54
		repeatStart
		  ymVol 0Bh
		        noteL E4,6
		  ymVol 07h
		        note  E4
		countedLoopStart 1
		  ymVol 0Bh
		        noteL E4,6
		  ymVol 07h
		        note  E4
		  length 12
		countedLoopEnd
		countedLoopStart 1
		  ymVol 0Bh
		        noteL E4,6
		  ymVol 07h
		        note  E4
		countedLoopEnd
		repeatSection1Start
		repeatEnd
		repeatSection2Start
		  ymVol 0Bh
		        noteL D4,6
		  ymVol 07h
		        note  D4
		countedLoopStart 1
		  ymVol 0Bh
		        noteL D4,6
		  ymVol 07h
		        note  D4
		  length 12
		countedLoopEnd
		countedLoopStart 1
		  ymVol 0Bh
		        noteL D4,6
		  ymVol 07h
		        note  D4
		countedLoopEnd
		  ymVol 0Bh
		        noteL Cs4,6
		  ymVol 07h
		        note  Cs4
		countedLoopStart 2
		  ymVol 0Bh
		        noteL Cs4,6
		  ymVol 07h
		        note  Cs4
		  length 12
		countedLoopEnd
		  ymVol 0Bh
		        noteL Cs4,6
		  ymVol 07h
		        note  Cs4
		repeatStart
		  ymInst 26
		countedLoopStart 5
		  ymVol 0Bh
		        noteL E4,6
		  ymVol 07h
		        note  E4
		countedLoopEnd
		  ymVol 0Bh
		        noteL E4,12
		repeatSection1Start
		repeatEnd
		repeatSection2Start
		countedLoopStart 5
		  ymVol 0Bh
		        noteL D4,6
		  ymVol 07h
		        note  D4
		countedLoopEnd
		  ymVol 0Bh
		        noteL D4,12
		  ymVol 07h
		        noteL D4,6
		        silence
		  ymVol 0Bh
		        note  E4
		  ymVol 07h
		        note  E4
		  length 12
		  ymVol 0Bh
		        noteL Fs4,6
		  ymVol 07h
		        note  Fs4
		  length 12
		  ymVol 0Bh
		        noteL E4,6
		  ymVol 07h
		        note  E4
		  length 12
		  ymVol 0Bh
		        noteL Cs4,6
		  ymVol 07h
		        note  Cs4
		  ymVol 0Bh
		        noteL Gs4,48
		repeatStart
		  ymInst 13
		  ymVol 0Ch
		        noteL As4,6
		        note  As4
		        note  As4
		  ymVol 09h
		        note  As4
		  ymInst 27
		  ymVol 0Ah
		repeatSection1Start
		        noteL As3,6
		        silence
		        noteL Gs3,4
		  release 04h
		        noteL Gs3,8
		        note  Gs3
		        note  Fs3
		        note  F3
		  release 01h
		        noteL Fs3,24
		repeatEnd
		repeatSection2Start
		        noteL Ds4,6
		        silence
		        noteL Cs4,4
		  release 04h
		        noteL Cs4,8
		        note  Cs4
		        note  B3
		        note  As3
		  release 01h
		        noteL B3,24
		  ymInst 13
		  ymVol 0Ch
		        noteL Gs4,30
		  ymVol 09h
		        noteL Gs4,6
		  ymVol 0Ch
		        note  Gs4
		        note  Gs4
		countedLoopStart 2
		  ymVol 0Ch
		        noteL Gs4,8
		  ymVol 09h
		        note  Gs4
		countedLoopEnd
		  length 90
		  ymVol 0Ch
		        noteL Cs5,6
		        noteL Cs5,96
		mainLoopEnd
Music_1_Channel_3:
		  ymStereo 0C0h
		  release 01h
		  vibrato 02Ch
		  length 21
		mainLoopStart
		repeatStart
		  ymInst 13
		  ymVol 0Bh
		        noteL F4,30
		  ymVol 08h
		        noteL F4,6
		  ymVol 0Bh
		        note  F4
		        note  F4
		        note  Gs4
		  ymVol 08h
		        note  Gs4
		  ymVol 0Bh
		        noteL Gs4,18
		  ymVol 08h
		        noteL Gs4,6
		  ymVol 0Bh
		        note  Gs4
		  ymVol 08h
		        note  Gs4
		  ymVol 0Bh
		repeatSection1Start
		        noteL Ds4,6
		  ymVol 08h
		        note  Ds4
		  ymVol 0Bh
		        noteL Ds4,18
		  ymVol 08h
		        noteL Ds4,6
		  ymVol 0Bh
		        note  Ds4
		  ymVol 08h
		        note  Ds4
		  ymVol 0Bh
		        note  Cs4
		  ymVol 08h
		        note  Cs4
		  ymVol 0Bh
		        noteL Cs4,30
		  ymVol 08h
		        noteL Cs4,6
		repeatEnd
		repeatSection2Start
		        noteL Ds4,6
		  ymVol 08h
		        note  Ds4
		  ymVol 0Bh
		        note  Ds4
		  ymVol 08h
		        note  Ds4
		  ymVol 06h
		        note  Ds4
		  ymVol 04h
		        note  Ds4
		  ymVol 0Bh
		        noteL Cs4,60
		  ymVol 0Ah
		        noteL D5,6
		  ymVol 07h
		        note  D5
		countedLoopStart 2
		  ymVol 0Ah
		        noteL D5,6
		  ymVol 07h
		        note  D5
		  length 12
		countedLoopEnd
		  ymVol 0Ah
		        noteL D5,6
		        note  D5
		        note  E5
		  ymVol 07h
		        note  E5
		countedLoopStart 2
		  ymVol 0Ah
		        noteL E5,6
		  ymVol 07h
		        note  E5
		  length 12
		countedLoopEnd
		  ymVol 0Ah
		        noteL E5,6
		        note  E5
		  ymVol 0Ah
		        note  D5
		  ymVol 07h
		        note  D5
		countedLoopStart 1
		  ymVol 0Ah
		        noteL D5,6
		  ymVol 07h
		        note  D5
		  length 12
		countedLoopEnd
		  ymVol 0Ah
		        noteL D5,6
		  ymVol 07h
		        note  D5
		  ymVol 0Ah
		        noteL E5,24
		        noteL C5,6
		  ymVol 07h
		        note  C5
		  ymVol 0Ah
		        note  C5
		  ymVol 07h
		        note  C5
		  length 12
		  ymVol 0Ah
		        noteL C5,6
		        note  C5
		        note  D5
		  ymVol 07h
		        note  D5
		  ymVol 0Ah
		        note  D5
		  ymVol 07h
		        note  D5
		  ymVol 0Ah
		        noteL D5,24
		  ymInst 44
		  ymVol 0Ah
		        noteL Ds5,6
		  ymVol 07h
		        note  Ds5
		countedLoopStart 2
		  ymVol 0Ah
		        noteL Ds5,6
		  ymVol 07h
		        note  Ds5
		  length 12
		countedLoopEnd
		  ymVol 0Ah
		        noteL Ds5,6
		        note  Ds5
		        note  D5
		  ymVol 07h
		        note  D5
		  ymVol 0Ah
		        note  D5
		  ymVol 07h
		        note  D5
		  length 12
		countedLoopStart 2
		  ymVol 0Ah
		        noteL D5,6
		  ymVol 07h
		        note  D5
		countedLoopEnd
		  ymVol 0Ah
		        noteL D5,24
		  ymInst 13
		  ymVol 0Ah
		        note  Ds4
		        note  Ds5
		        note  D4
		        note  D5
		        noteL Ds4,36
		        noteL Ds5,6
		        note  Ds5
		        noteL F4,12
		  ymVol 0Bh
		        noteL F5,6
		  ymVol 09h
		        note  F5
		  length 12
		  ymVol 0Bh
		        noteL F5,6
		  ymVol 09h
		        note  F5
		  ymInst 26
		  ymVol 0Bh
		        note  D4
		  ymVol 07h
		        note  D4
		countedLoopStart 2
		  ymVol 0Bh
		        noteL D4,6
		  ymVol 07h
		        note  D4
		  length 12
		countedLoopEnd
		  ymVol 0Bh
		        noteL D4,6
		        note  D4
		        note  E4
		  ymVol 07h
		        note  E4
		countedLoopStart 2
		  ymVol 0Bh
		        noteL E4,6
		  ymVol 07h
		        note  E4
		  length 12
		countedLoopEnd
		  ymVol 0Bh
		        noteL E4,6
		        note  E4
		        note  D4
		  ymVol 07h
		        note  D4
		countedLoopStart 2
		  ymVol 0Bh
		        noteL D4,6
		  ymVol 07h
		        note  D4
		  length 12
		countedLoopEnd
		  ymVol 0Bh
		        noteL E4,6
		  ymVol 07h
		        note  E4
		  ymVol 0Bh
		        note  C4
		  ymVol 07h
		        note  C4
		  ymVol 0Bh
		        note  C4
		  ymVol 07h
		        note  C4
		  length 12
		  ymVol 0Bh
		        noteL C4,6
		  ymVol 07h
		        note  C4
		  ymVol 0Bh
		        note  D4
		  ymVol 07h
		        note  D4
		  ymVol 0Bh
		        note  D4
		  ymVol 07h
		        note  D4
		  ymVol 0Bh
		        noteL D4,24
		  ymInst 44
		  ymVol 0Ah
		        noteL Ds5,6
		  ymVol 07h
		        note  Ds5
		countedLoopStart 2
		  ymVol 0Ah
		        noteL Ds5,6
		  ymVol 07h
		        note  Ds5
		  length 12
		countedLoopEnd
		  ymVol 0Ah
		        noteL Ds5,6
		        note  Ds5
		countedLoopStart 1
		  ymVol 0Ah
		        noteL Ds5,6
		  ymVol 07h
		        note  Ds5
		countedLoopEnd
		  length 12
		  ymVol 0Ah
		        noteL Ds5,6
		  ymVol 07h
		        note  Ds5
		  ymInst 16
		  ymVol 0Ch
		        noteL Fs5,18
		        noteL Gs5,6
		        noteL Gs5,24
		  ymInst 26
		  ymVol 0Bh
		        note  G4
		  ymInst 61
		  ymVol 0Dh
		        note  C2
		  ymInst 26
		  ymVol 0Bh
		        note  F4
		  ymInst 61
		  ymVol 0Dh
		        note  C2
		  ymInst 26
		  ymVol 0Bh
		        note  G4
		  ymInst 61
		  ymVol 0Dh
		        note  C2
		  ymInst 26
		  ymVol 0Bh
		        note  Fs4
		  ymInst 61
		  ymVol 0Dh
		        note  C2
		  length 6
		  shifting 020h
		  ymStereo 080h
		  ymInst 26
		countedLoopStart 1
		  ymVol 09h
		        noteL Cs6,6
		        note  Gs5
		        note  G5
		        note  Gs5
		        note  Cs6
		  ymVol 06h
		        note  Cs6
		countedLoopEnd
		  ymVol 09h
		        noteL Cs6,6
		        note  Gs5
		        note  F5
		        note  Cs5
		  ymInst 54
		countedLoopStart 1
		  ymVol 09h
		        noteL Fs5,6
		        note  Cs5
		        note  C5
		        note  Cs5
		        note  Fs5
		  ymVol 06h
		        note  Fs5
		countedLoopEnd
		  ymVol 09h
		        noteL Fs5,6
		        note  Cs5
		        note  As4
		        note  Fs4
		  ymInst 26
		countedLoopStart 1
		  ymVol 09h
		        noteL F5,6
		        note  Cs5
		        note  Gs4
		        note  Cs5
		        note  F5
		  ymVol 06h
		        note  F5
		countedLoopEnd
		  ymVol 09h
		        noteL F5,6
		        note  Cs5
		        note  Gs4
		        note  F5
		  ymInst 54
		countedLoopStart 1
		  ymVol 09h
		        noteL Cs5,6
		        note  As4
		        note  A4
		        note  As4
		        note  Cs5
		  ymVol 06h
		        note  Cs5
		countedLoopEnd
		  ymVol 09h
		        noteL Cs5,6
		        note  C5
		        note  Cs5
		        note  F5
		  ymInst 26
		countedLoopStart 1
		  ymVol 09h
		        noteL B5,6
		        note  Fs5
		        note  F5
		        note  Fs5
		        note  B5
		  ymVol 06h
		        note  B5
		countedLoopEnd
		  ymVol 09h
		        noteL B5,6
		        note  Fs5
		        note  E5
		        note  Ds5
		  ymInst 54
		countedLoopStart 1
		  ymVol 09h
		        noteL E5,6
		        note  B4
		        note  As4
		        note  B4
		        note  E5
		  ymVol 06h
		        note  E5
		countedLoopEnd
		  ymVol 09h
		        noteL E5,6
		        note  B4
		        note  As4
		  shifting 00h
		  ymStereo 0C0h
		  ymInst 26
		  ymVol 0Bh
		        noteL A3,48
		        note  B3
		        note  C4
		        note  C4
		  ymInst 13
		  ymVol 0Ch
		        noteL B3,30
		  ymVol 09h
		        noteL B3,6
		  ymVol 0Ch
		        note  B3
		        note  B3
		        note  B3
		  ymVol 09h
		        note  B3
		  ymVol 0Ch
		        noteL B3,18
		  ymVol 09h
		        noteL B3,6
		  ymVol 0Ch
		        note  B3
		  ymVol 09h
		        note  B3
		  ymVol 0Ch
		        noteL D4,84
		  ymVol 09h
		        noteL D4,6
		  ymVol 07h
		        note  D4
		  ymVol 0Ch
		        noteL D4,30
		  ymVol 09h
		        noteL D4,6
		  ymVol 0Ch
		        note  D4
		        note  D4
		        note  E4
		  ymVol 09h
		        note  E4
		  ymVol 0Ch
		        noteL E4,18
		  ymVol 09h
		        noteL E4,6
		  ymVol 0Ch
		        note  E4
		  ymVol 09h
		        note  E4
		  ymVol 0Ch
		        noteL Fs4,84
		  ymVol 09h
		        noteL Fs4,6
		  ymVol 07h
		        note  Fs4
		  ymInst 54
		  ymVol 0Bh
		        note  D4
		  ymVol 07h
		        note  D4
		countedLoopStart 1
		  ymVol 0Bh
		        noteL D4,6
		  ymVol 07h
		        note  D4
		  length 12
		countedLoopEnd
		countedLoopStart 1
		  ymVol 0Bh
		        noteL D4,6
		  ymVol 07h
		        note  D4
		countedLoopEnd
		  ymVol 0Bh
		        noteL Cs4,6
		  ymVol 07h
		        note  Cs4
		countedLoopStart 1
		  ymVol 0Bh
		        noteL Cs4,6
		  ymVol 07h
		        note  Cs4
		  length 12
		countedLoopEnd
		countedLoopStart 1
		  ymVol 0Bh
		        noteL Cs4,6
		  ymVol 07h
		        note  Cs4
		countedLoopEnd
		  ymVol 0Bh
		        noteL B3,6
		  ymVol 07h
		        note  B3
		countedLoopStart 1
		  ymVol 0Bh
		        noteL B3,6
		  ymVol 07h
		        note  B3
		  length 12
		countedLoopEnd
		countedLoopStart 1
		  ymVol 0Bh
		        noteL B3,6
		  ymVol 07h
		        note  B3
		countedLoopEnd
		  ymVol 0Bh
		        noteL A3,6
		  ymVol 07h
		        note  A3
		countedLoopStart 2
		  ymVol 0Bh
		        noteL A3,6
		  ymVol 07h
		        note  A3
		  length 12
		countedLoopEnd
		  ymVol 0Bh
		        noteL A3,6
		  ymVol 07h
		        note  A3
		  ymInst 26
		countedLoopStart 5
		  ymVol 0Bh
		        noteL D4,6
		  ymVol 07h
		        note  D4
		countedLoopEnd
		  ymVol 0Bh
		        noteL D4,12
		countedLoopStart 5
		  ymVol 0Bh
		        noteL Cs4,6
		  ymVol 07h
		        note  Cs4
		countedLoopEnd
		  ymVol 0Bh
		        noteL Cs4,12
		countedLoopStart 5
		  ymVol 0Bh
		        noteL B3,6
		  ymVol 07h
		        note  B3
		countedLoopEnd
		  ymVol 0Bh
		        noteL B3,12
		        silence
		  ymVol 0Bh
		        noteL Cs4,6
		  ymVol 07h
		        note  Cs4
		  length 12
		  ymVol 0Bh
		        noteL B3,6
		  ymVol 07h
		        note  B3
		  length 12
		  ymVol 0Bh
		        noteL A3,6
		  ymVol 07h
		        note  A3
		  length 12
		  ymVol 0Bh
		        noteL G3,6
		  ymVol 07h
		        note  G3
		  ymVol 0Bh
		        noteL F3,48
		repeatStart
		  ymStereo 0C0h
		  ymInst 13
		  ymVol 0Ch
		        noteL Fs4,6
		        note  Fs4
		        note  Fs4
		  ymVol 09h
		        note  Fs4
		        silence
		  shifting 020h
		  ymStereo 080h
		  ymInst 27
		  ymVol 09h
		repeatSection1Start
		        noteL As3,6
		        silence
		        noteL Gs3,4
		  release 04h
		        noteL Gs3,8
		        note  Gs3
		        note  Fs3
		        note  F3
		  release 01h
		        noteL Fs3,18
		  shifting 00h
		repeatEnd
		repeatSection2Start
		        noteL Ds4,6
		        silence
		        noteL Cs4,4
		  release 04h
		        noteL Cs4,8
		        note  Cs4
		        note  B3
		        note  As3
		  release 01h
		        noteL B3,18
		  shifting 00h
		  ymStereo 0C0h
		  ymInst 13
		  ymVol 0Ch
		        noteL Ds4,30
		  ymVol 09h
		        noteL Ds4,6
		  ymVol 0Ch
		        note  Ds4
		        note  Ds4
		countedLoopStart 2
		  ymVol 0Ch
		        noteL Ds4,8
		  ymVol 09h
		        note  Ds4
		countedLoopEnd
		  length 90
		  ymVol 0Ch
		        noteL As4,6
		        noteL As4,96
		mainLoopEnd
Music_1_Channel_4:
		  release 01h
		  vibrato 02Ch
		  length 21
		mainLoopStart
		  shifting 00h
		  ymStereo 0C0h
		repeatStart
		  ymInst 61
		  ymVol 0Eh
		        noteL C2,24
		  ymInst 13
		  ymVol 0Bh
		        note  As2
		  ymInst 61
		  ymVol 0Eh
		        note  C2
		  ymInst 13
		  ymVol 0Bh
		        note  F2
		repeatSection1Start
		  ymInst 61
		  ymVol 0Eh
		        noteL C2,24
		  ymInst 13
		  ymVol 0Bh
		        note  Cs3
		  ymInst 61
		  ymVol 0Eh
		        note  C2
		  ymInst 13
		  ymVol 0Bh
		        noteL Fs2,4
		  length 8
		        noteL B2,12
		repeatEnd
		repeatSection2Start
		        noteL Fs2,4
		  length 8
		        noteL Fs2,4
		  length 20
		  ymInst 62
		  ymVol 0Eh
		        noteL C2,78
		  shifting 020h
		  ymStereo 040h
		  ymInst 27
		  ymVol 09h
		        noteL A3,12
		        noteL As3,6
		        silence
		        note  F4
		        silence
		        noteL E4,36
		        noteL C4,6
		        silence
		        note  D4
		        silence
		        noteL A4,24
		        noteL G4,6
		        silence
		        note  E4
		        silence
		        note  C4
		        silence
		        noteL D4,24
		  length 12
		        note  A3
		        noteL As3,6
		        silence
		        note  F4
		        silence
		        note  E4
		        silence
		        noteL C4,12
		        noteL D4,6
		        silence
		        note  A4
		        silence
		        noteL C5,36
		        noteL G4,6
		        silence
		        noteL F4,48
		  length 12
		  ymStereo 080h
		  ymInst 26
		  ymVol 0Ch
		        note  D4
		        note  Ds4
		        note  As4
		        noteL A4,36
		        noteL G4,12
		        note  F4
		        noteL C5,24
		        noteL As4,12
		        noteL A4,16
		        note  G4
		        note  A4
		countedLoopStart 1
		        noteL As4,36
		        noteL Gs4,6
		        note  Fs4
		countedLoopEnd
		        noteL As4,48
		        note  C5
		  ymVol 09h
		        noteL C5,6
		  ymVol 05h
		        note  C5
		  ymStereo 040h
		  ymInst 13
		  ymVol 0Bh
		        noteL A4,12
		        noteL As4,6
		  ymVol 08h
		        note  As4
		  ymVol 0Bh
		        note  F5
		  ymVol 08h
		        note  F5
		  ymVol 0Bh
		        noteL E5,36
		        noteL C5,6
		  ymVol 08h
		        note  C5
		  ymVol 0Bh
		        note  D5
		  ymVol 08h
		        note  D5
		  ymVol 0Bh
		        noteL A5,24
		        noteL G5,6
		  ymVol 08h
		        note  G5
		  ymVol 0Bh
		        note  E5
		  ymVol 08h
		        note  E5
		  ymVol 0Bh
		        note  C5
		  ymVol 08h
		        note  C5
		  ymVol 0Bh
		        noteL D5,24
		  ymVol 08h
		        noteL D5,6
		  ymVol 06h
		        note  D5
		  ymVol 0Bh
		        noteL A4,12
		        noteL As4,6
		  ymVol 08h
		        note  As4
		  ymVol 0Bh
		        note  F5
		  ymVol 08h
		        note  F5
		  ymVol 0Bh
		        note  E5
		  ymVol 08h
		        note  E5
		  ymVol 0Bh
		        noteL C5,12
		        noteL D5,6
		  ymVol 08h
		        note  D5
		  ymVol 0Bh
		        note  A5
		  ymVol 08h
		        note  A5
		  ymVol 0Bh
		        noteL C6,36
		        noteL G5,6
		  ymVol 08h
		        note  G5
		  ymVol 0Bh
		        noteL F5,30
		  ymVol 08h
		        noteL F5,6
		  ymStereo 080h
		  ymInst 26
		  ymVol 0Bh
		        note  A5
		  ymVol 07h
		        note  A5
		  ymVol 0Bh
		        noteL A5,12
		        note  G5
		        note  A5
		        noteL As5,24
		        noteL A5,12
		        note  F5
		        note  G5
		        note  As4
		  ymVol 07h
		        noteL As4,6
		  ymVol 0Bh
		        note  C5
		        noteL C5,60
		        noteL C5,6
		        note  As4
		  ymVol 07h
		        note  As4
		  ymVol 05h
		        note  As4
		  ymVol 0Ch
		        noteL A4,12
		        note  As4
		        noteL F5,18
		  ymVol 08h
		        noteL F5,6
		  ymVol 0Ch
		        noteL C5,12
		        note  D5
		        noteL A5,18
		  ymVol 08h
		        noteL A5,6
		  ymVol 0Ch
		        noteL D5,12
		        note  Ds5
		        noteL D6,24
		        note  C6
		  ymVol 08h
		        noteL C6,6
		  ymStereo 0C0h
		  ymInst 61
		  ymVol 0Eh
		        noteL C2,18
		  ymStereo 080h
		  ymInst 27
		  ymVol 09h
		        noteL Cs5,12
		        noteL C5,6
		        silence
		        note  G4
		        silence
		        note  Gs4
		        silence
		        noteL Ds4,24
		        noteL F4,6
		        silence
		        noteL As3,72
		        noteL A3,24
		  length 12
		        note  G3
		        noteL Gs3,6
		        silence
		        note  F4
		        silence
		        note  Ds4
		        silence
		        noteL As3,24
		        noteL C4,6
		        silence
		        noteL Gs4,72
		        noteL Fs4,24
		  length 12
		  ymInst 56
		  ymVol 0Bh
		        note  B4
		        noteL As4,6
		  ymVol 08h
		        note  As4
		  ymVol 0Bh
		        note  F4
		  ymVol 08h
		        note  F4
		  ymVol 0Bh
		        note  Fs4
		  ymVol 08h
		        note  Fs4
		  ymVol 0Bh
		        noteL D4,24
		        noteL Ds4,6
		  ymVol 08h
		        note  Ds4
		  ymVol 0Bh
		        noteL As3,72
		        noteL Gs3,24
		  ymVol 08h
		        noteL Gs3,6
		  ymVol 06h
		        note  Gs3
		  ymVol 0Bh
		        noteL E4,12
		        noteL Fs4,6
		  ymVol 08h
		        note  Fs4
		  ymVol 0Bh
		        noteL Cs5,18
		  ymVol 08h
		        noteL Cs5,6
		  ymVol 0Bh
		        noteL A4,12
		        noteL B4,6
		  ymVol 08h
		        note  B4
		  ymVol 0Bh
		        noteL Fs5,18
		  ymVol 08h
		        noteL Fs5,6
		  ymVol 0Bh
		        note  B4
		  ymVol 08h
		        note  B4
		  ymVol 0Bh
		        noteL Fs5,18
		        noteL B4,6
		        noteL Fs5,36
		        noteL E5,6
		  shifting 00h
		  ymStereo 0C0h
		  ymInst 61
		  ymVol 0Eh
		        noteL C2,24
		  ymInst 13
		  ymVol 0Bh
		        note  B2
		  ymInst 61
		  ymVol 0Eh
		        note  C2
		  ymInst 13
		  ymVol 0Bh
		        note  A2
		  ymInst 61
		  ymVol 0Eh
		        note  C2
		  ymInst 13
		  ymVol 0Bh
		  release 09h
		        noteL B2,12
		        note  Cs3
		        note  D3
		        note  E3
		        note  Fs3
		        note  G3
		  release 01h
		  ymInst 61
		  ymVol 0Eh
		        noteL C2,24
		  ymInst 13
		  ymVol 0Bh
		        note  D3
		  ymInst 61
		  ymVol 0Eh
		        note  C2
		  ymInst 13
		  ymVol 0Bh
		        note  Cs3
		  ymInst 61
		  ymVol 0Eh
		        note  C2
		  ymInst 13
		  ymVol 0Bh
		  release 09h
		        noteL Ds3,12
		        note  E3
		        note  Fs3
		        note  Gs3
		        note  As3
		        note  B3
		  release 01h
		  length 6
		  shifting 020h
		  ymStereo 040h
		  ymInst 45
		countedLoopStart 1
		  ymVol 0Bh
		        noteL Cs5,6
		        note  B4
		        note  Fs4
		        note  B4
		        note  Fs5
		  ymVol 07h
		        note  Fs5
		countedLoopEnd
		  ymVol 0Bh
		        noteL Cs5,6
		        note  B4
		countedLoopStart 1
		  ymVol 0Bh
		        noteL Cs5,6
		        note  B4
		        note  E4
		        note  A4
		        note  Fs5
		  ymVol 07h
		        note  Fs5
		countedLoopEnd
		  ymVol 0Bh
		        noteL Cs5,6
		        note  B4
		countedLoopStart 1
		  ymVol 0Bh
		        noteL Cs5,6
		        note  B4
		        note  Fs4
		        note  D5
		        note  Fs5
		  ymVol 07h
		        note  Fs5
		countedLoopEnd
		  ymVol 0Bh
		        noteL D5,6
		        note  Fs5
		        note  Gs5
		        note  Fs5
		        note  Gs5
		        note  Cs6
		        note  Cs5
		  ymVol 07h
		        note  Cs5
		  ymVol 0Bh
		        note  Fs5
		        note  E5
		        note  B4
		  ymVol 07h
		        note  B4
		  ymVol 0Bh
		        note  D5
		        note  Cs5
		        note  B4
		        note  A4
		        note  E4
		        note  A4
		  ymStereo 080h
		  ymInst 26
		countedLoopStart 1
		  ymVol 0Ah
		        noteL Cs5,6
		        note  B4
		        note  Fs4
		        note  B4
		        note  Fs5
		  ymVol 06h
		        note  Fs5
		countedLoopEnd
		  ymVol 0Ah
		        noteL Cs5,6
		        note  B4
		countedLoopStart 1
		  ymVol 0Ah
		        noteL Cs5,6
		        note  B4
		        note  E4
		        note  A4
		        note  Fs5
		  ymVol 06h
		        note  Fs5
		countedLoopEnd
		  ymVol 0Ah
		        noteL Cs5,6
		        note  B4
		countedLoopStart 1
		  ymVol 0Ah
		        noteL Cs5,6
		        note  B4
		        note  Fs4
		        note  D5
		        note  Fs5
		  ymVol 06h
		        note  Fs5
		countedLoopEnd
		  ymVol 0Ah
		        noteL D5,6
		        note  Fs5
		        note  Gs5
		        note  Fs5
		        note  Gs5
		        note  Cs6
		        note  Cs5
		  ymVol 06h
		        note  Cs5
		  ymVol 0Ah
		        note  Fs5
		        note  E5
		        note  B4
		  ymVol 06h
		        note  B4
		  ymVol 0Ah
		        note  E5
		        note  D5
		        note  C5
		        note  As4
		        note  Gs4
		        note  As4
		        note  B4
		        note  Cs5
		        note  Ds5
		        note  F5
		        note  Fs5
		        note  Gs5
		        note  As5
		        note  B5
		repeatStart
		  ymStereo 040h
		  ymInst 13
		  ymVol 0Bh
		        noteL Cs5,6
		        note  Cs5
		        note  Cs5
		  ymVol 08h
		        note  Cs5
		  ymInst 27
		  ymVol 09h
		repeatSection1Start
		        noteL Cs4,8
		  length 4
		        note  C4
		  release 04h
		        noteL C4,8
		        note  C4
		        note  As3
		        note  Gs3
		  release 01h
		        noteL As3,24
		repeatEnd
		repeatSection2Start
		        noteL Fs4,8
		  length 4
		        note  F4
		  release 04h
		        noteL F4,8
		        note  F4
		        note  Ds4
		        note  Cs4
		  release 01h
		        noteL Ds4,24
		  ymInst 13
		  ymVol 0Bh
		        noteL Cs5,30
		  ymVol 08h
		        noteL Cs5,6
		  ymVol 0Bh
		        note  Cs5
		        note  Cs5
		        noteL Cs5,8
		  ymVol 08h
		        note  Cs5
		  ymVol 0Bh
		        note  Cs5
		  ymVol 08h
		        note  Cs5
		  ymVol 0Bh
		        note  Cs5
		  ymVol 08h
		        note  Cs5
		  length 12
		  ymInst 27
		  ymVol 09h
		        note  Fs3
		        noteL Gs3,6
		        silence
		        note  F4
		        silence
		        note  Ds4
		        silence
		        noteL As3,12
		        noteL C4,6
		  length 12
		        noteL Gs4,6
		        noteL Fs4,90
		mainLoopEnd
Music_1_Channel_5:
		  ymStereo 0C0h
		  length 21
		mainLoopStart
		  length 24
		        sampleL 0,48
		        sample  0
		        sample  0
		        sampleL 0,12
		        sampleL 0,36
		        sampleL 0,48
		        sampleL 0,24
		        sampleL 2,6
		        sample  3
		        sampleL 2,12
		        sample  0
		        sampleL 2,24
		        sampleL 4,3
		        sample  4
		        sample  3
		        sample  3
		        sampleL 2,6
		        sample  4
		        sample  2
		        sample  2
		repeatStart
		countedLoopStart 4
		        sampleL 3,6
		        sample  4
		        sampleL 3,12
		        sample  4
		        sampleL 3,6
		        sampleL 4,12
		        sampleL 4,6
		        sampleL 3,12
		        sample  4
		        sampleL 3,6
		        sample  4
		countedLoopEnd
		        sampleL 3,6
		        sample  4
		        sampleL 3,12
		        sample  4
		        sampleL 3,6
		        sampleL 4,12
		        sampleL 4,6
		        sampleL 3,12
		        sampleL 4,6
		        sample  4
		        sample  3
		        sample  3
		repeatSection1Start
		        sampleL 2,24
		        sampleL 0,22
		        sampleL 4,1
		        sample  3
		        sampleL 2,24
		        sample  0
		        sampleL 0,6
		        sample  3
		        sample  3
		        sample  2
		        sampleL 2,3
		        sample  3
		        sample  4
		        sample  4
		        sampleL 2,6
		        sampleL 3,12
		        sampleL 3,6
		        sample  2
		        sampleL 3,12
		        sampleL 3,6
		        sampleL 2,12
		repeatEnd
		repeatSection2Start
		countedLoopStart 1
		        sampleL 2,24
		        sampleL 0,22
		        sampleL 4,1
		        sample  3
		        sampleL 2,24
		        sample  0
		countedLoopEnd
		countedLoopStart 2
		        sampleL 0,36
		        sampleL 2,6
		        sample  3
		        sample  2
		        sample  3
		        sampleL 2,3
		        sample  3
		        sample  4
		        sample  4
		        sampleL 2,12
		        sampleL 2,6
		        sample  3
		  length 36
		        sampleL 2,6
		        sample  3
		        sample  2
		        sample  3
		        sampleL 2,3
		        sample  3
		        sample  4
		        sample  4
		        sampleL 2,24
		countedLoopEnd
		repeatStart
		        sampleL 0,6
		        sample  3
		        sampleL 2,3
		        sample  3
		        sample  4
		        sample  4
		        sampleL 2,12
		        sampleL 2,6
		        sample  3
		repeatSection1Start
		        sampleL 0,12
		        sampleL 2,6
		        sample  3
		        sample  2
		        sample  3
		        sampleL 2,3
		        sample  3
		        sample  4
		        sample  4
		repeatEnd
		repeatSection2Start
		        sampleL 4,6
		        sample  2
		        sample  4
		        sample  4
		        sample  3
		        sample  3
		        sample  2
		        sample  2
		countedLoopStart 1
		  length 24
		        sampleL 0,12
		        sampleL 2,6
		        sampleL 3,18
		        sampleL 2,12
		        sample  0
		        sample  2
		        sample  0
		        sample  4
		        sample  4
		        sample  4
		        sample  3
		        sample  3
		        sample  2
		        sample  2
		countedLoopEnd
		  length 84
		        silence
		        silence
		  length 96
		countedLoopStart 2
		        sampleL 3,6
		        sample  4
		        sampleL 3,12
		        sample  4
		        sampleL 3,6
		        sampleL 4,12
		        sampleL 4,6
		        sampleL 3,12
		        sampleL 3,6
		        sample  4
		countedLoopEnd
		        sampleL 3,12
		        sample  4
		        sample  3
		        sampleL 3,6
		        sample  4
		        sampleL 3,12
		        sampleL 3,6
		        sample  4
		        sample  3
		        sample  4
		        sample  3
		        sample  2
		        sampleL 0,24
		        sampleL 4,3
		        sample  4
		        sample  4
		        sample  4
		        sample  3
		        sample  3
		        sample  3
		        sample  3
		countedLoopStart 1
		        sampleL 5,6
		        sample  3
		        sampleL 2,60
		        sampleL 1,24
		countedLoopEnd
		        sampleL 0,22
		        sampleL 4,1
		        sample  3
		        sampleL 2,23
		        sampleL 4,1
		        sampleL 5,15
		        sampleL 4,1
		        sampleL 5,15
		        sampleL 4,1
		        sampleL 5,16
		  length 24
		        sampleL 0,66
		        sampleL 1,6
		        sampleL 0,48
		        sampleL 2,6
		        sampleL 2,3
		        sample  3
		        sample  3
		        sample  4
		        sampleL 2,6
		        sampleL 2,24
		mainLoopEnd
Music_1_Channel_6:
		  psgInst 124
		  release 01h
		  vibrato 04Ch
		        psgNoteL D6,3
		        psgNote  E6
		        psgNote  Fs6
		        psgNote  G6
		        psgNote  A6
		        psgNote  B6
		        psgNote  C7
		mainLoopStart
		countedLoopStart 23
		        psgNoteL D7,3
		        psgNote  E7
		countedLoopEnd
		        psgNoteL D7,3
		        psgNote  C7
		        psgNote  As6
		        psgNote  Gs6
		        psgNote  G6
		        psgNote  F6
		        psgNote  Ds6
		        psgNote  D6
		        psgNote  C6
		        psgNote  D6
		        psgNote  Ds6
		        psgNote  F6
		        psgNote  G6
		        psgNote  Gs6
		        psgNote  As6
		        psgNote  C7
		countedLoopStart 15
		        psgNoteL D7,3
		        psgNote  E7
		countedLoopEnd
		        psgNoteL D7,3
		        psgNote  C7
		        psgNote  As6
		        psgNote  A6
		        psgNote  G6
		        psgNote  F6
		        psgNote  Ds6
		        psgNote  D6
		        psgNote  C6
		        psgNote  D6
		        psgNote  Ds6
		        psgNote  F6
		        psgNote  G6
		        psgNote  A6
		        psgNote  As6
		        psgNote  C7
		countedLoopStart 2
		        psgNoteL D7,3
		        psgNote  C7
		        psgNote  As6
		        psgNote  Gs6
		countedLoopEnd
		        psgNoteL G6,3
		        psgNote  F6
		        psgNote  Ds6
		        psgNote  D6
		repeatStart
		  psgInst 122
		countedLoopStart 7
		        psgNoteL B4,6
		        psgNote  D5
		countedLoopEnd
		countedLoopStart 7
		        psgNoteL Cs5,6
		        psgNote  E5
		countedLoopEnd
		countedLoopStart 5
		        psgNoteL B4,6
		        psgNote  D5
		countedLoopEnd
		countedLoopStart 5
		        psgNoteL Cs5,6
		        psgNote  E5
		countedLoopEnd
		  psgInst 124
		        psgNoteL Fs5,6
		        psgNote  Cs5
		        psgNote  D5
		        psgNote  Fs5
		repeatSection1Start
		        psgNoteL As5,6
		        psgNote  B5
		        psgNote  D6
		        psgNote  Fs6
		  psgInst 122
		countedLoopStart 7
		        psgNoteL C5,6
		        psgNote  E5
		countedLoopEnd
		countedLoopStart 7
		        psgNoteL B4,6
		        psgNote  D5
		countedLoopEnd
		  psgInst 123
		        psgNoteL G4,6
		        psgNote  A4
		        psgNote  C5
		        psgNote  Ds5
		        psgNote  G5
		        psgNote  A5
		        psgNote  C6
		        psgNote  Ds6
		        psgNote  Fs4
		        psgNote  G4
		        psgNote  B4
		        psgNote  Ds5
		        psgNote  Fs5
		        psgNote  G5
		        psgNote  B5
		        psgNote  Ds6
		        psgNote  E6
		        psgNote  C6
		        psgNote  A5
		        psgNote  G5
		        psgNote  A5
		        psgNote  G5
		        psgNote  A5
		        psgNote  C6
		        psgNote  Fs6
		        psgNote  D6
		        psgNote  C6
		        psgNote  A5
		        psgNote  G5
		        psgNote  Fs5
		        psgNote  D5
		        psgNote  A4
		repeatEnd
		repeatSection2Start
		        psgNoteL B5,6
		        psgNote  Fs5
		        psgNote  D5
		        psgNote  B4
		  psgInst 122
		countedLoopStart 7
		        psgNoteL D5,6
		        psgNote  E5
		countedLoopEnd
		countedLoopStart 7
		        psgNoteL C5,6
		        psgNote  D5
		countedLoopEnd
		  psgInst 123
		countedLoopStart 2
		        psgNoteL G4,6
		        psgNote  B4
		countedLoopEnd
		        psgNoteL D5,6
		        psgNote  E5
		countedLoopStart 2
		        psgNoteL A4,6
		        psgNote  B4
		countedLoopEnd
		        psgNoteL D5,6
		        psgNote  Fs5
		countedLoopStart 2
		        psgNoteL B4,6
		        psgNote  C5
		countedLoopEnd
		        psgNoteL E5,6
		        psgNote  G5
		        psgNote  Ds5
		        psgNote  G5
		        psgNote  A5
		        psgNote  C6
		        psgNote  Ds6
		        psgNote  G6
		  psgInst 125
		        psgNote  As6
		        psgNote  C7
		        psgNoteL D7,108
		        psgNoteL C7,12
		        psgNote  As6
		        psgNote  Fs6
		        psgNote  G6
		        psgNoteL A6,24
		        psgNoteL As6,12
		        psgNoteL F6,108
		        psgNoteL A5,12
		        psgNote  As5
		        psgNoteL G6,24
		        psgNoteL F6,12
		        psgNoteL G6,8
		        psgNote  Gs6
		        psgNote  As6
		        psgNoteL C7,108
		        psgNoteL As6,12
		        psgNote  Gs6
		        psgNote  E6
		        psgNote  F6
		        psgNoteL G6,24
		        psgNoteL Gs6,12
		        psgNoteL As6,48
		        psgNote  B6
		        psgNote  Cs7
		        psgNoteL A4,6
		        psgNote  Cs5
		        psgNote  Fs5
		        psgNote  A5
		        psgNote  Cs6
		        psgNote  Fs6
		        psgNote  A6
		        psgNote  Cs7
		        psgNote  C6
		        psgNote  Gs5
		        psgNote  Ds5
		        psgNote  Gs5
		        psgNoteL C6,4
		  length 8
		        psgNoteL C6,6
		        psgNote  C6
		        psgNote  Cs6
		        psgNote  Gs5
		        psgNote  F5
		        psgNote  Gs5
		        psgNoteL Cs6,4
		  length 8
		        psgNoteL Cs6,4
		  length 8
		        psgNoteL Ds6,6
		        psgNote  B5
		        psgNote  Fs5
		        psgNote  B5
		        psgNote  Ds6
		        psgNote  B5
		        psgNote  Fs5
		        psgNote  B5
		        psgNote  Ds6
		        psgNote  B5
		        psgNote  B6
		        psgNote  Fs6
		        psgNote  Ds6
		        psgNote  B5
		        psgNote  Fs5
		        psgNote  Ds5
		        psgNote  Ds6
		        psgNote  B5
		        psgNote  Fs5
		        psgNote  B5
		        psgNoteL Ds6,4
		  length 8
		        psgNoteL Ds6,6
		        psgNote  Ds6
		        psgNote  F6
		        psgNote  Cs6
		        psgNote  Gs5
		        psgNote  Cs6
		        psgNoteL F6,4
		  length 8
		        psgNoteL F6,4
		  length 8
		countedLoopStart 1
		        psgNoteL G6,6
		        psgNote  Ds6
		        psgNote  As5
		        psgNote  Ds6
		countedLoopEnd
		        psgNoteL G6,6
		        psgNote  Ds6
		        psgNote  Ds7
		        psgNote  As6
		        psgNote  G6
		        psgNote  Ds6
		        psgNote  As5
		        psgNote  G5
		countedLoopStart 7
		  psgInst 0
		  length 102
		countedLoopEnd
		  psgInst 124
		        psgNoteL As4,4
		        psgNote  Ds5
		        psgNote  G5
		        psgNote  As5
		        psgNote  Ds6
		        psgNote  G6
		  psgInst 0
		  length 72
		  psgInst 124
		        psgNoteL C5,4
		        psgNote  Ds5
		        psgNote  Gs5
		        psgNote  C6
		        psgNote  Ds6
		        psgNote  Gs6
		  psgInst 0
		  length 96
		  length 24
		  psgInst 124
		countedLoopStart 11
		        psgNoteL As4,3
		        psgNote  C5
		countedLoopEnd
		        psgNoteL As4,3
		        psgNote  C5
		        psgNote  D5
		        psgNote  Ds5
		        psgNote  F5
		        psgNote  G5
		        psgNote  F5
		        psgNote  Ds5
		        psgNote  D5
		        psgNote  Ds5
		        psgNote  F5
		        psgNote  G5
		        psgNote  A5
		        psgNote  As5
		        psgNote  A5
		        psgNote  G5
		        psgNote  F5
		        psgNote  G5
		        psgNote  A5
		        psgNote  As5
		        psgNote  C6
		        psgNote  D6
		        psgNote  C6
		        psgNote  As5
		        psgNote  C6
		        psgNote  D6
		        psgNote  Ds6
		        psgNote  F6
		        psgNote  G6
		        psgNote  A6
		        psgNote  As6
		        psgNote  C7
		mainLoopEnd
Music_1_Channel_7:
		  psgInst 0
		  length 9
		  shifting 010h
		  psgInst 122
		  release 01h
		  vibrato 04Ch
		        psgNoteL D6,3
		        psgNote  E6
		        psgNote  Fs6
		        psgNote  G6
		        psgNote  A6
		        psgNote  B6
		        psgNote  C7
		mainLoopStart
		countedLoopStart 23
		        psgNoteL D7,3
		        psgNote  E7
		countedLoopEnd
		        psgNoteL D7,3
		        psgNote  C7
		        psgNote  As6
		        psgNote  Gs6
		        psgNote  G6
		        psgNote  F6
		        psgNote  Ds6
		        psgNote  D6
		        psgNote  C6
		        psgNote  D6
		        psgNote  Ds6
		        psgNote  F6
		        psgNote  G6
		        psgNote  Gs6
		        psgNote  As6
		        psgNote  C7
		countedLoopStart 15
		        psgNoteL D7,3
		        psgNote  E7
		countedLoopEnd
		        psgNoteL D7,3
		        psgNote  C7
		        psgNote  As6
		        psgNote  A6
		        psgNote  G6
		        psgNote  F6
		        psgNote  Ds6
		        psgNote  D6
		        psgNote  C6
		        psgNote  D6
		        psgNote  Ds6
		        psgNote  F6
		        psgNote  G6
		        psgNote  A6
		        psgNote  As6
		        psgNote  C7
		countedLoopStart 2
		        psgNoteL D7,3
		        psgNote  C7
		        psgNote  As6
		        psgNote  Gs6
		countedLoopEnd
		        psgNoteL G6,3
		  shifting 00h
		repeatStart
		  psgInst 122
		countedLoopStart 7
		        psgNoteL A4,6
		        psgNote  G4
		countedLoopEnd
		countedLoopStart 7
		        psgNoteL B4,6
		        psgNote  A4
		countedLoopEnd
		countedLoopStart 5
		        psgNoteL A4,6
		        psgNote  G4
		countedLoopEnd
		        psgNoteL B4,6
		        psgNote  A4
		        psgNote  B4
		        psgNote  A4
		countedLoopStart 3
		        psgNoteL A4,6
		        psgNote  Fs4
		countedLoopEnd
		  psgInst 124
		        psgNoteL B4,6
		        psgNote  As4
		        psgNote  B4
		        psgNote  D5
		repeatSection1Start
		        psgNoteL Cs5,6
		        psgNote  D5
		        psgNote  Fs5
		        psgNote  D5
		  psgInst 122
		countedLoopStart 7
		        psgNoteL A4,6
		        psgNote  G4
		countedLoopEnd
		countedLoopStart 7
		        psgNoteL G4,6
		        psgNote  Fs4
		countedLoopEnd
		  psgInst 123
		        psgNoteL Ds4,6
		        psgNote  G4
		        psgNote  A4
		        psgNote  C5
		        psgNote  Ds5
		        psgNote  G5
		        psgNote  A5
		        psgNote  C6
		        psgNote  Ds4
		        psgNote  Fs4
		        psgNote  G4
		        psgNote  B4
		        psgNote  Ds5
		        psgNote  Fs5
		        psgNote  G5
		        psgNote  B5
		        psgNote  C6
		        psgNote  A5
		        psgNote  G5
		        psgNote  E5
		        psgNote  G5
		        psgNote  E5
		        psgNote  G5
		        psgNote  A5
		        psgNote  D6
		        psgNote  C6
		        psgNote  A5
		        psgNote  Fs5
		        psgNote  D5
		        psgNote  C5
		        psgNote  A4
		        psgNote  Fs4
		repeatEnd
		repeatSection2Start
		        psgNoteL Fs5,6
		        psgNote  D5
		        psgNote  B4
		        psgNote  Fs4
		  psgInst 122
		countedLoopStart 7
		        psgNoteL C5,6
		        psgNote  B4
		countedLoopEnd
		countedLoopStart 7
		        psgNoteL A4,6
		        psgNote  F4
		countedLoopEnd
		  psgInst 123
		        psgNoteL Fs4,6
		        psgNote  E4
		        psgNote  Fs4
		        psgNote  E4
		        psgNote  Fs4
		        psgNote  E4
		        psgNote  B4
		        psgNote  G4
		        psgNote  Fs4
		        psgNote  D4
		        psgNote  Fs4
		        psgNote  D4
		        psgNote  Fs4
		        psgNote  D4
		        psgNote  Fs4
		        psgNote  A4
		        psgNote  G4
		        psgNote  E4
		        psgNote  G4
		        psgNote  E4
		        psgNote  G4
		        psgNote  E4
		        psgNote  G4
		        psgNote  B4
		        psgNote  C5
		        psgNote  A4
		        psgNote  C5
		        psgNote  Ds5
		        psgNote  G5
		        psgNote  Ds5
		        psgNote  G5
		        psgNote  A5
		  shifting 010h
		  psgInst 123
		        psgNote  As6
		        psgNote  C7
		        psgNoteL D7,108
		        psgNoteL C7,12
		        psgNote  As6
		        psgNote  Fs6
		        psgNote  G6
		        psgNoteL A6,24
		        psgNoteL As6,12
		        psgNoteL F6,108
		        psgNoteL A5,12
		        psgNote  As5
		        psgNoteL G6,24
		        psgNoteL F6,12
		        psgNoteL G6,8
		        psgNote  Gs6
		        psgNote  As6
		        psgNoteL C7,108
		        psgNoteL As6,12
		        psgNote  Gs6
		        psgNote  E6
		        psgNote  F6
		        psgNoteL G6,24
		        psgNoteL Gs6,12
		        psgNoteL As6,48
		        psgNote  B6
		        psgNoteL Cs7,36
		  shifting 00h
		  psgInst 124
		        psgNoteL A3,6
		        psgNote  Cs4
		        psgNote  Fs4
		        psgNote  A4
		        psgNote  A4
		        psgNote  Cs5
		        psgNote  Fs5
		        psgNote  A5
		        psgNote  Ds5
		        psgNote  C5
		        psgNote  Gs4
		        psgNote  C5
		        psgNoteL Ds5,4
		  length 8
		        psgNoteL Ds5,6
		        psgNote  Ds5
		        psgNote  F5
		        psgNote  Cs5
		        psgNote  Gs4
		        psgNote  Cs5
		        psgNoteL F5,4
		  length 8
		        psgNoteL F5,4
		  length 8
		        psgNoteL Fs5,6
		        psgNote  Ds5
		        psgNote  B4
		        psgNote  Ds5
		        psgNote  Fs5
		        psgNote  Ds5
		        psgNote  B4
		        psgNote  Ds5
		        psgNote  Fs5
		        psgNote  Ds5
		        psgNote  Ds6
		        psgNote  B5
		        psgNote  Fs5
		        psgNote  Ds5
		        psgNote  B4
		        psgNote  Fs4
		        psgNote  Fs5
		        psgNote  Ds5
		        psgNote  B4
		        psgNote  Ds5
		        psgNoteL Fs5,4
		  length 8
		        psgNoteL Fs5,6
		        psgNote  Fs5
		        psgNote  Gs5
		        psgNote  F5
		        psgNote  Cs5
		        psgNote  F5
		        psgNoteL Gs5,4
		  length 8
		        psgNoteL Gs5,4
		  length 8
		        psgNoteL As5,6
		        psgNote  G5
		        psgNote  Ds5
		        psgNote  G5
		        psgNote  As5
		        psgNote  G5
		        psgNote  Ds5
		        psgNote  G5
		        psgNote  As5
		        psgNote  G5
		        psgNote  G6
		        psgNote  Ds6
		        psgNote  As5
		        psgNote  G5
		        psgNote  Ds5
		        psgNote  As4
		countedLoopStart 7
		  psgInst 0
		  length 102
		countedLoopEnd
		  psgInst 124
		        psgNoteL Ds4,4
		        psgNote  G4
		        psgNote  As4
		        psgNote  Ds5
		        psgNote  G5
		        psgNote  As5
		  psgInst 0
		  length 72
		  psgInst 124
		        psgNoteL Ds4,4
		        psgNote  Gs4
		        psgNote  C5
		        psgNote  Ds5
		        psgNote  Gs5
		        psgNote  C6
		  psgInst 0
		  length 96
		  length 24
		  psgInst 122
		        psgNoteL G4,153
		  shifting 010h
		        psgNoteL C6,3
		        psgNote  D6
		        psgNote  Ds6
		        psgNote  F6
		        psgNote  G6
		        psgNote  A6
		        psgNote  As6
		        psgNote  C7
		mainLoopEnd
Music_1_Channel_9:
		channel_end
