
; ASM FILE music28.asm :
; 0xFA96..0xFE1C : Music 28
Music_28:       db 0
		db 0
		db 0
		db 0C2h
		dw Music_28_Channel_0
		dw Music_28_Channel_1
		dw Music_28_Channel_2
		dw Music_28_Channel_3
		dw Music_28_Channel_4
		dw Music_28_Channel_5
		dw Music_28_Channel_6
		dw Music_28_Channel_7
		dw Music_28_Channel_9
		dw Music_28_Channel_9
Music_28_Channel_0:
		  ymStereo 0C0h
		  release 01h
		  vibrato 02Ch
		  ymInst 13
		  ymVol 0Ch
		        noteL D5,30
		  ymVol 09h
		        noteL D5,6
		  ymVol 0Ch
		        note  D5
		        note  D5
		        note  Ds5
		  ymVol 09h
		        note  Ds5
		  ymVol 0Ch
		        noteL Ds5,18
		  ymVol 09h
		        noteL Ds5,6
		  ymVol 0Ch
		        note  Ds5
		  ymVol 09h
		        note  Ds5
		  ymVol 0Ch
		        note  C5
		  ymVol 09h
		        note  C5
		  ymVol 0Ch
		        noteL C5,18
		  ymVol 09h
		        noteL C5,6
		  ymVol 0Ch
		        note  C5
		  ymVol 09h
		        note  C5
		  ymVol 0Ch
		        note  F5
		  ymVol 09h
		        note  F5
		  ymVol 0Ch
		        noteL F5,18
		  ymVol 09h
		        noteL F5,6
		  ymVol 0Ch
		        noteL F5,12
		  ymVol 0Ch
		        noteL Fs5,6
		  ymVol 09h
		        note  Fs5
		  ymInst 27
		  ymVol 0Ah
		        noteL Fs3,12
		        noteL Gs3,6
		  ymVol 07h
		        note  Gs3
		  ymVol 0Ah
		        note  Ds4
		  ymVol 07h
		        note  Ds4
		  ymVol 0Ah
		        note  Cs4
		  ymVol 07h
		        note  Cs4
		  ymVol 0Ah
		        noteL Gs3,12
		        noteL As3,6
		  ymVol 07h
		        note  As3
		  ymVol 05h
		        note  As3
		  ymInst 13
		  ymVol 0Ch
		        note  Gs5
		  ymSustain
		        noteL Fs5,216
		  vibrato 020h
		  ymVol 09h
		        noteL Fs5,6
		  ymVol 07h
		        note  Fs5
		  ymVol 05h
		  release 01h
		        note  Fs5
		  length 24
		channel_end
Music_28_Channel_1:
		  ymStereo 0C0h
		  release 01h
		  vibrato 02Ch
		  length 24
		  ymInst 3
		  ymVol 0Ch
		        note  As1
		        silence
		        note  F1
		        silence
		        note  Cs2
		        silence
		        noteL Fs1,6
		        silence
		        noteL B1,12
		        noteL E1,66
		  length 6
		        note  E1
		  ymVol 0Ah
		        note  E1
		  ymVol 08h
		        note  E1
		  ymVol 0Ch
		        note  E2
		  ymInst 1
		  ymVol 0Bh
		  ymSustain
		        noteL E2,9
		  ymSlide 08h
		        noteL Fs3,7
		  vibrato 020h
		        noteL Fs3,200
		  ymStopSlide
		  ymVol 08h
		        noteL Fs4,6
		  ymVol 06h
		        note  Fs4
		  ymVol 04h
		  release 01h
		        note  Fs4
		  length 24
		channel_end
Music_28_Channel_2:
		  ymStereo 0C0h
		  release 01h
		  vibrato 02Ch
		  ymInst 13
		  ymVol 0Bh
		        noteL C5,30
		  ymVol 08h
		        noteL C5,6
		  ymVol 0Bh
		        note  C5
		        note  C5
		        note  As4
		  ymVol 08h
		        note  As4
		  ymVol 0Bh
		        noteL As4,18
		  ymVol 08h
		        noteL As4,6
		  ymVol 0Bh
		        note  As4
		  ymVol 08h
		        note  As4
		  ymVol 0Bh
		        note  Gs4
		  ymVol 08h
		        note  Gs4
		  ymVol 0Bh
		        noteL Gs4,18
		  ymVol 08h
		        noteL Gs4,6
		  ymVol 0Bh
		        note  Gs4
		  ymVol 08h
		        note  Gs4
		  ymVol 0Bh
		        note  As4
		  ymVol 08h
		        note  As4
		  ymVol 0Bh
		        noteL As4,18
		  ymVol 08h
		        noteL As4,6
		  ymVol 0Bh
		        noteL As4,12
		        noteL B4,6
		  ymVol 08h
		        note  B4
		  length 12
		  ymStereo 080h
		  shifting 020h
		  ymInst 27
		  ymVol 08h
		        note  Fs3
		        noteL Gs3,6
		  ymVol 05h
		        note  Gs3
		  ymVol 08h
		        note  Ds4
		  ymVol 05h
		        note  Ds4
		  ymVol 08h
		        note  Cs4
		  ymVol 05h
		        note  Cs4
		  ymVol 08h
		        noteL Gs3,12
		        noteL As3,6
		  ymStereo 0C0h
		  shifting 00h
		  ymInst 13
		  ymVol 0Ch
		        note  Ds5
		  ymSustain
		        noteL Ds5,216
		  vibrato 020h
		  ymVol 08h
		        noteL Ds5,6
		  ymVol 06h
		        note  Ds5
		  ymVol 04h
		  release 01h
		        note  Ds5
		  length 24
		channel_end
Music_28_Channel_3:
		  ymStereo 0C0h
		  release 01h
		  vibrato 02Ch
		  ymInst 13
		  ymVol 0Bh
		        noteL F4,30
		  ymVol 08h
		        noteL F4,6
		  ymVol 0Bh
		        note  F4
		        note  F4
		        note  Gs4
		  ymVol 08h
		        note  Gs4
		  ymVol 0Bh
		        noteL Gs4,18
		  ymVol 08h
		        noteL Gs4,6
		  ymVol 0Bh
		        note  Gs4
		  ymVol 08h
		        note  Gs4
		  ymVol 0Bh
		        note  Ds4
		  ymVol 08h
		        note  Ds4
		  ymVol 0Bh
		        noteL Ds4,18
		  ymVol 08h
		        noteL Ds4,6
		  ymVol 0Bh
		        note  Ds4
		  ymVol 08h
		        note  Ds4
		  ymVol 0Bh
		        note  Cs4
		  ymVol 08h
		        note  Cs4
		  ymVol 0Bh
		        noteL Cs4,18
		  ymVol 08h
		        noteL Cs4,6
		  ymVol 0Bh
		        noteL Cs4,12
		        noteL Ds4,6
		  ymVol 08h
		        note  Ds4
		  length 78
		  ymVol 0Ch
		        noteL Gs4,6
		  ymSustain
		        noteL As4,216
		  vibrato 020h
		  ymVol 08h
		        noteL As4,6
		  ymVol 06h
		        note  As4
		  ymVol 04h
		  release 01h
		        note  As4
		  length 24
		channel_end
Music_28_Channel_4:
		  length 6
		  shifting 010h
		  ymStereo 040h
		  release 01h
		  vibrato 02Ch
		  ymInst 13
		  ymVol 0Bh
		        noteL D5,18
		  ymStereo 0C0h
		  ymInst 61
		  ymVol 0Eh
		        note  C2
		  ymStereo 040h
		  ymInst 13
		  ymVol 0Bh
		        noteL D5,6
		        note  D5
		        note  Ds5
		  ymVol 08h
		        note  Ds5
		  ymVol 0Bh
		        note  Ds5
		  ymStereo 0C0h
		  ymInst 61
		  ymVol 0Eh
		        noteL C2,18
		  ymStereo 040h
		  ymInst 13
		  ymVol 0Bh
		        noteL Ds5,6
		  ymVol 08h
		        note  Ds5
		  ymVol 0Bh
		        note  C5
		  ymVol 08h
		        note  C5
		  ymVol 0Bh
		        note  C5
		  ymStereo 0C0h
		  ymInst 61
		  ymVol 0Eh
		        noteL C2,18
		  ymStereo 040h
		  ymInst 13
		  ymVol 0Bh
		        noteL C5,6
		  ymVol 08h
		        note  C5
		  ymVol 0Bh
		        note  F5
		  ymVol 08h
		        note  F5
		  ymVol 0Bh
		        note  F5
		  ymStereo 0C0h
		  ymInst 61
		  ymVol 0Eh
		        noteL C2,18
		  ymStereo 040h
		  ymInst 13
		  ymVol 0Bh
		        noteL F5,6
		  ymStereo 0C0h
		  ymInst 61
		  ymVol 0Eh
		        noteL C2,18
		  ymInst 27
		  ymVol 09h
		        noteL Fs3,12
		        noteL Gs3,6
		  ymVol 06h
		        note  Gs3
		  ymVol 09h
		        note  Ds4
		  ymVol 06h
		        note  Ds4
		  ymVol 09h
		        note  Cs4
		  ymVol 06h
		        note  Cs4
		  ymVol 09h
		        noteL Gs3,12
		        noteL As3,6
		  ymVol 06h
		        note  As3
		  ymVol 04h
		        note  As3
		  ymStereo 040h
		  ymInst 13
		  ymVol 0Bh
		        note  Gs5
		        noteL Fs5,102
		  shifting 00h
		  ymStereo 0C0h
		  ymInst 32
		  ymVol 0Ch
		  ymSustain
		        noteL E2,108
		  vibrato 020h
		  ymVol 09h
		        noteL E2,6
		  ymVol 07h
		        note  E2
		  ymVol 05h
		  release 01h
		        note  E2
		  length 24
		channel_end
Music_28_Channel_5:
		  ymStereo 0C0h
		  length 24
		        sampleL 0,48
		        sample  0
		        sample  0
		        sampleL 0,12
		        sample  0
		        sampleL 5,90
		        sampleL 5,6
		        sampleL 2,3
		        sample  3
		countedLoopStart 31
		        sampleL 4,3
		countedLoopEnd
		        sampleL 3,3
		        sample  2
		        sampleL 5,96
		channel_end
Music_28_Channel_6:
		  psgInst 124
		  release 01h
		  vibrato 04Ch
		countedLoopStart 23
		        psgNoteL D7,3
		        psgNote  E7
		countedLoopEnd
		        psgNoteL D7,3
		        psgNote  C7
		        psgNote  As6
		        psgNote  Gs6
		        psgNote  G6
		        psgNote  F6
		        psgNote  Ds6
		        psgNote  D6
		        psgNote  C6
		        psgNote  D6
		        psgNote  Ds6
		        psgNote  F6
		        psgNote  G6
		        psgNote  Gs6
		        psgNote  As6
		        psgNote  C7
		countedLoopStart 16
		        psgNoteL Gs4,3
		        psgNote  As4
		countedLoopEnd
		        psgNoteL C5,3
		        psgNote  Cs5
		        psgNote  Ds5
		        psgNote  F5
		        psgNote  Ds5
		        psgNote  Cs5
		        psgNote  Ds5
		        psgNote  F5
		        psgNote  G5
		        psgNote  Gs5
		        psgNote  As5
		        psgNoteL C6,6
		        psgNoteL Cs6,3
		        psgNote  Ds6
		        psgNote  F6
		        psgNote  G6
		        psgNote  Gs6
		        psgNote  As6
		countedLoopStart 6
		        psgNoteL C7,3
		        psgNote  Cs7
		countedLoopEnd
		        psgNoteL C7,108
		  vibrato 040h
		  length 6
		  psgInst 10
		        silence
		  psgInst 8
		        silence
		  psgInst 0
		  length 24
		channel_end
Music_28_Channel_7:
		  shifting 010h
		  psgInst 0
		  length 9
		  psgInst 122
		  release 01h
		  vibrato 04Ch
		countedLoopStart 23
		        psgNoteL D7,3
		        psgNote  E7
		countedLoopEnd
		        psgNoteL D7,3
		        psgNote  C7
		        psgNote  As6
		        psgNote  Gs6
		        psgNote  G6
		        psgNote  F6
		        psgNote  Ds6
		        psgNote  D6
		        psgNote  C6
		        psgNote  D6
		        psgNote  Ds6
		        psgNote  F6
		        psgNote  G6
		        psgNote  Gs6
		        psgNote  As6
		        psgNote  C7
		countedLoopStart 16
		        psgNoteL Gs4,3
		        psgNote  As4
		countedLoopEnd
		        psgNoteL C5,3
		        psgNote  Cs5
		        psgNote  Ds5
		        psgNote  F5
		        psgNote  Ds5
		        psgNote  Cs5
		        psgNote  Ds5
		        psgNote  F5
		        psgNote  G5
		        psgNote  Gs5
		        psgNote  As5
		        psgNoteL C6,6
		        psgNoteL Cs6,3
		        psgNote  Ds6
		        psgNote  F6
		        psgNote  G6
		        psgNote  Gs6
		        psgNote  As6
		countedLoopStart 6
		        psgNoteL C7,3
		        psgNote  Cs7
		countedLoopEnd
		        psgNoteL C7,108
		  vibrato 040h
		  length 6
		  psgInst 8
		        silence
		  psgInst 6
		        silence
		  psgInst 0
		  length 15
		channel_end
Music_28_Channel_9:
		channel_end
