
; ASM FILE music03.asm :
; 0xA713..0xB0D0 : Music 03 and 04 combined for optimization
Music_3:        db 0
		db 0
		db 0
		db 0C9h
		dw Music_3_Channel_0
		dw Music_3_Channel_1
		dw Music_3_Channel_2
		dw Music_3_Channel_3
		dw Music_3_Channel_4
		dw Music_3_Channel_5
		dw Music_3_Channel_6
		dw Music_3_Channel_7
		dw Music_4_Channel_9
		dw Music_4_Channel_9
Music_4:        db 0
		db 0
		db 0
		db 0C9h
		dw Music_4_Channel_0
		dw Music_4_Channel_1
		dw Music_4_Channel_2
		dw Music_4_Channel_3
		dw Music_4_Channel_4
		dw Music_4_Channel_5
		dw Music_4_Channel_6
		dw Music_4_Channel_7
		dw Music_4_Channel_9
		dw Music_4_Channel_9
Music_3_Channel_0:
		  ymStereo 0C0h
		  ymInst 56
		  release 01h
		  vibrato 02Ch
		  length 12
		  ymVol 0Ch
		        noteL Fs2,4
		  length 8
		        noteL Cs3,12
		  length 6
		        note  Ds3
		        noteL Ds2,36
		        noteL Fs2,4
		  length 8
		        noteL Cs3,4
		  length 8
		        noteL Gs2,4
		  length 8
		        noteL E2,4
		  length 8
		        noteL A2,24
		        noteL D3,4
		  length 8
		        noteL F2,12
		  length 6
		        note  F2
		  ymInst 12
		  ymVol 0Ch
		        noteL A2,120
		  length 12
		  ymSustain
		        noteL G3,6
		  release 01h
		        note  Gs3
		  release 09h
		        noteL A3,12
		        note  Ds3
		        note  Fs2
		        note  Gs2
		  release 01h
		        noteL A2,96
		  length 12
		  ymSustain
		        noteL Fs3,6
		  release 01h
		        note  Gs3
		  release 09h
		        noteL A3,12
		        note  Gs3
		        note  Fs3
		        note  E3
		        note  Ds3
		        note  B2
Music_4_Channel_0:
		  ymStereo 0C0h
		  vibrato 02Ch
		repeatStart
		  length 24
		  ymInst 12
		  ymVol 0Ch
		  release 01h
		        note  Cs3
		        noteL E3,4
		  length 14
		        noteL E3,6
		  release 09h
		        noteL A2,12
		        note  E3
		        note  A3
		  release 03h
		        noteL A2,20
		  length 4
		        noteL A2,6
		        note  A2
		  release 09h
		        noteL B2,12
		        note  Fs3
		  release 01h
		repeatSection1Start
		        noteL B2,24
		repeatEnd
		repeatSection2Start
		        noteL B2,36
		  release 09h
		        noteL B3,12
		        note  A3
		        note  Gs3
		  ymSustain
		        noteL Fs3,6
		  release 01h
		        note  Gs3
		  ymVol 0Bh
		mainLoopStart
		countedLoopStart 2
		  release 03h
		        noteL A3,6
		        note  A3
		        noteL A3,24
		        noteL A3,7
		  length 17
		        noteL A3,7
		  length 17
		        noteL A3,7
		  length 5
		countedLoopEnd
		        noteL A3,6
		        note  A3
		        noteL A3,24
		        noteL A3,7
		  length 17
		        noteL A3,7
		  length 17
		        noteL Gs3,7
		  length 5
		        noteL Fs3,6
		        note  Fs3
		        noteL Fs3,24
		        noteL Fs3,7
		  length 17
		        noteL Fs3,7
		  length 17
		        noteL E3,7
		  length 5
		        noteL D3,6
		        note  D3
		        noteL D3,24
		        noteL D3,7
		  length 17
		        noteL D3,7
		  length 17
		        noteL Cs3,7
		  length 5
		        noteL B2,6
		        note  B2
		        noteL B2,24
		        noteL B2,7
		  length 17
		        noteL B2,7
		  length 17
		        noteL B2,7
		  length 5
		        noteL As2,6
		        note  As2
		        noteL As2,24
		        noteL As2,7
		  length 5
		        noteL As3,6
		        note  As3
		        noteL As3,24
		        noteL As3,7
		  length 5
		mainLoopEnd
Music_3_Channel_1:
		  ymStereo 0C0h
		  ymInst 13
		  ymVol 0Ch
		  release 01h
		  vibrato 02Ch
		        noteL F4,24
		        note  G4
		  ymVol 09h
		        noteL G4,12
		  ymVol 0Ch
		        noteL A4,24
		        noteL As4,6
		  ymVol 09h
		        note  As4
		  ymInst 20
		  ymVol 0Ch
		        note  F5
		  ymVol 09h
		        note  F5
		  ymVol 0Ch
		        note  Fs5
		  ymVol 09h
		        note  Fs5
		  ymVol 0Ch
		        note  Ds5
		  ymVol 09h
		        note  Ds5
		  ymVol 0Ch
		        noteL Gs5,24
		        noteL Fs5,6
		  ymVol 09h
		        note  Fs5
		  ymVol 0Ch
		        noteL E5,9
		  ymVol 09h
		        noteL E5,6
		  ymVol 07h
		        noteL E5,3
		  ymVol 0Ch
		        noteL A5,6
		  ymVol 0Bh
		        note  Fs5
		  ymVol 08h
		        note  Fs5
		  ymInst 27
		  ymVol 0Bh
		        noteL E3,12
		        noteL Fs3,6
		        silence
		        note  Ds4
		        silence
		        noteL Cs4,36
		        noteL Fs3,6
		        silence
		        noteL Gs3,9
		        silence
		        noteL Gs4,6
		        noteL Fs4,72
		  length 12
		  ymInst 27
		  ymVol 0Bh
		        note  E3
		        noteL Fs3,6
		        silence
		        note  Ds4
		        silence
		        note  Cs4
		        silence
		        noteL A3,12
		        noteL B3,9
		        silence
		        noteL Gs4,6
		        noteL B4,72
		        noteL A4,24
Music_4_Channel_1:
		  ymStereo 0C0h
		  vibrato 02Ch
		  release 01h
		repeatStart
		  ymInst 13
		  ymVol 0Ch
		        noteL Gs4,30
		  ymVol 09h
		        noteL Gs4,6
		  ymVol 0Ch
		        note  Gs4
		        note  Gs4
		        noteL B4,9
		  ymVol 09h
		        noteL B4,6
		  ymVol 07h
		        noteL B4,3
		  ymVol 0Ch
		        noteL Cs5,6
		repeatSection1Start
		        noteL Gs4,54
		  ymVol 09h
		        noteL Gs4,6
		  ymVol 0Ch
		        note  Gs4
		        note  Gs4
		        note  Fs4
		  ymVol 09h
		        note  Fs4
		  ymVol 0Ch
		        note  E4
		  ymVol 09h
		        note  E4
		  ymVol 0Ch
		        noteL Fs4,24
		repeatEnd
		repeatSection2Start
		        noteL E5,54
		  ymVol 09h
		        noteL E5,6
		  ymVol 0Ch
		        note  E5
		        note  E5
		        note  Ds5
		  ymVol 09h
		        note  Ds5
		  ymVol 0Ch
		        note  Cs5
		  ymVol 09h
		        note  Cs5
		  ymVol 0Ch
		        noteL Ds5,30
		  ymVol 09h
		        noteL Ds5,6
		  ymVol 0Ch
		        note  Gs5
		        note  Gs5
		        note  Fs5
		  ymVol 09h
		        note  Fs5
		  ymVol 0Ch
		        note  E5
		  ymVol 09h
		        note  E5
		  ymVol 0Ch
		        note  Fs5
		  ymVol 09h
		        note  Fs5
		mainLoopStart
		  ymInst 7
		  ymVol 0Ch
		        noteL Cs5,48
		        note  E5
		        noteL Ds5,6
		        note  E5
		        noteL Fs5,60
		        noteL E5,12
		        note  Ds5
		        noteL E5,36
		        noteL Cs5,6
		  ymVol 0Ah
		        note  Cs5
		  ymVol 0Ch
		        noteL Cs5,36
		        noteL E5,6
		  ymVol 0Ah
		        note  E5
		  ymVol 0Ch
		        noteL Ds5,96
		        noteL E5,48
		        note  Gs5
		        noteL Fs5,6
		        note  Gs5
		        noteL A5,60
		        noteL Gs5,12
		        note  Fs5
		countedLoopStart 1
		        noteL Gs5,36
		        noteL Cs5,6
		  ymVol 0Ah
		        note  Cs5
		  ymVol 0Ch
		        noteL Cs5,36
		        noteL Gs5,6
		  ymVol 0Ah
		        note  Gs5
		  ymVol 0Ch
		countedLoopEnd
		mainLoopEnd
Music_3_Channel_2:
		  ymStereo 0C0h
		  ymInst 13
		  ymVol 0Ch
		  release 01h
		  vibrato 02Ch
		        noteL Ds4,24
		        note  F4
		  ymVol 09h
		        noteL F4,12
		  ymVol 0Ch
		        noteL G4,24
		        noteL Gs4,6
		  ymVol 09h
		        note  Gs4
		  ymInst 20
		  ymVol 0Bh
		        note  Ds5
		  ymVol 08h
		        note  Ds5
		  ymVol 0Bh
		        note  B4
		  ymVol 08h
		        note  B4
		  ymVol 0Bh
		        note  B4
		  ymVol 08h
		        note  B4
		  ymVol 0Bh
		        noteL E5,24
		        noteL D5,6
		  ymVol 08h
		        note  D5
		  ymVol 0Bh
		        noteL C5,9
		  ymVol 08h
		        noteL C5,6
		  ymVol 06h
		        noteL C5,3
		  ymVol 0Bh
		        noteL E5,6
		  ymVol 0Ch
		        note  B5
		  ymVol 09h
		        note  B5
		  ymVol 07h
		        note  B5
		  ymVol 05h
		        note  B5
		  length 156
		  ymInst 20
		  ymVol 0Ch
		        noteL Fs5,6
		        note  Fs5
		        note  Fs5
		  ymVol 09h
		        note  Fs5
		  ymVol 07h
		        note  Fs5
		  ymVol 05h
		        note  Fs5
		  length 108
		  ymVol 0Ch
		        noteL Fs5,6
		        note  Fs5
		        note  Fs5
		  ymVol 09h
		        note  Fs5
		  ymVol 0Ch
		        note  Fs5
		  ymVol 09h
		        note  Fs5
		  ymVol 0Ch
		        noteL Fs5,12
		  ymVol 09h
		        noteL Fs5,6
		  ymVol 07h
		        note  Fs5
Music_4_Channel_2:
		  ymStereo 0C0h
		  vibrato 02Ch
		  release 01h
		  ymInst 13
		repeatStart
		  ymVol 0Ch
		        noteL F4,30
		  ymVol 09h
		        noteL F4,6
		  ymVol 0Ch
		        note  F4
		        note  F4
		        noteL Gs4,9
		  ymVol 09h
		        noteL Gs4,6
		  ymVol 07h
		        noteL Gs4,3
		  ymVol 0Ch
		        noteL B4,6
		repeatSection1Start
		        noteL E4,54
		  ymVol 09h
		        noteL E4,6
		  ymVol 0Ch
		        note  E4
		        note  E4
		        note  Cs4
		  ymVol 09h
		        note  Cs4
		  ymVol 0Ch
		        note  Cs4
		  ymVol 09h
		        note  Cs4
		  ymVol 0Ch
		        noteL Cs4,24
		repeatEnd
		repeatSection2Start
		        noteL B4,54
		  ymVol 09h
		        noteL B4,6
		  ymVol 0Ch
		        note  B4
		        note  B4
		        note  B4
		  ymVol 09h
		        note  B4
		  ymVol 0Ch
		        note  B4
		  ymVol 09h
		        note  B4
		  ymVol 0Ch
		        noteL B4,30
		  ymVol 09h
		        noteL B4,6
		  ymVol 0Ch
		        note  Ds5
		        note  Ds5
		countedLoopStart 1
		  ymVol 0Ch
		        noteL Cs5,6
		  ymVol 09h
		        note  Cs5
		countedLoopEnd
		  ymVol 0Ch
		        noteL Ds5,6
		  ymVol 09h
		        note  Ds5
		mainLoopStart
		countedLoopStart 1
		  ymVol 0Bh
		        noteL A4,6
		        note  A4
		        noteL A4,18
		  ymVol 08h
		        noteL A4,6
		  ymVol 0Bh
		        note  A4
		  ymVol 08h
		        note  A4
		  length 12
		  ymInst 56
		  ymVol 0Bh
		        noteL Cs4,6
		  length 18
		        noteL Cs4,6
		        silence
		  ymInst 13
		  ymVol 0Bh
		        note  B4
		        note  B4
		        noteL B4,18
		  ymVol 08h
		        noteL B4,6
		  ymVol 0Bh
		        note  B4
		  ymVol 08h
		        note  B4
		  length 12
		  ymInst 56
		  ymVol 0Bh
		        noteL Ds4,6
		  length 18
		        noteL Ds4,6
		        silence
		  ymInst 13
		countedLoopEnd
		  ymVol 0Bh
		        noteL A4,6
		        note  A4
		        noteL A4,18
		  ymVol 08h
		        noteL A4,6
		  ymVol 0Bh
		        note  A4
		  ymVol 08h
		        note  A4
		  length 12
		  ymInst 56
		  ymVol 0Bh
		        noteL E4,6
		  length 18
		        noteL E4,6
		        silence
		countedLoopStart 1
		  ymInst 13
		  ymVol 0Bh
		        noteL A4,6
		        note  A4
		        noteL A4,18
		  ymVol 08h
		        noteL A4,6
		  ymVol 0Bh
		        note  A4
		  ymVol 08h
		        note  A4
		  length 12
		  ymInst 56
		  ymVol 0Bh
		        noteL Fs4,6
		  length 18
		        noteL Fs4,6
		        silence
		countedLoopEnd
		  ymInst 13
		  ymVol 0Bh
		        noteL F4,6
		        note  F4
		        noteL F4,18
		  ymVol 08h
		        noteL F4,6
		  ymVol 0Bh
		        note  F4
		  ymVol 08h
		        note  F4
		  ymVol 0Bh
		        note  Gs4
		        note  Gs4
		        noteL Gs4,18
		  ymVol 08h
		        noteL Gs4,6
		  ymVol 0Bh
		        note  Gs4
		  ymVol 08h
		        note  Gs4
		mainLoopEnd
Music_3_Channel_3:
		  ymStereo 0C0h
		  ymInst 13
		  ymVol 0Ch
		  release 01h
		  vibrato 02Ch
		        noteL As3,24
		        note  C4
		  ymVol 09h
		        noteL C4,12
		  ymVol 0Ch
		        noteL D4,24
		        noteL Ds4,6
		  ymVol 09h
		        note  Ds4
		  ymInst 20
		  ymVol 0Bh
		        note  Gs4
		  ymVol 08h
		        note  Gs4
		  ymVol 0Bh
		        note  Gs4
		  ymVol 08h
		        note  Gs4
		  ymVol 0Bh
		        note  Gs4
		  ymVol 08h
		        note  Gs4
		  ymVol 0Bh
		        noteL Cs5,24
		        noteL A4,6
		  ymVol 08h
		        note  A4
		  ymVol 0Bh
		        noteL A4,9
		  ymVol 08h
		        noteL A4,6
		  ymVol 06h
		        noteL A4,3
		  ymVol 0Bh
		        noteL C5,6
		        note  Ds5
		  ymVol 08h
		        note  Ds5
		  ymVol 06h
		        note  Ds5
		  ymVol 04h
		        note  Ds5
		  length 156
		  ymInst 20
		  ymVol 0Bh
		        noteL Ds5,6
		        note  Ds5
		        note  Ds5
		  ymVol 08h
		        note  Ds5
		  ymVol 06h
		        note  Ds5
		  ymVol 04h
		        note  Ds5
		  length 108
		  ymVol 0Bh
		        noteL Ds5,6
		        note  Ds5
		        note  Ds5
		  ymVol 08h
		        note  Ds5
		  ymVol 0Bh
		        note  Ds5
		  ymVol 08h
		        note  Ds5
		  ymVol 0Bh
		        noteL Ds5,12
		  ymVol 08h
		        noteL Ds5,6
		  ymVol 06h
		        note  Ds5
Music_4_Channel_3:
		  ymStereo 0C0h
		  vibrato 02Ch
		  release 01h
		  ymInst 13
		repeatStart
		  ymVol 0Ch
		        noteL Cs4,30
		  ymVol 09h
		        noteL Cs4,6
		  ymVol 0Ch
		        note  Cs4
		        note  Cs4
		        note  E4
		  ymVol 09h
		        note  E4
		  ymVol 07h
		        note  E4
		  ymVol 0Ch
		        note  Fs4
		repeatSection1Start
		        noteL B3,54
		  ymVol 09h
		        noteL B3,6
		  ymVol 0Ch
		        note  B3
		        note  B3
		        note  B3
		  ymVol 09h
		        note  B3
		  ymVol 0Ch
		        note  B3
		  ymVol 09h
		        note  B3
		  ymVol 0Ch
		        noteL B3,24
		repeatEnd
		repeatSection2Start
		        noteL Gs4,54
		  ymVol 09h
		        noteL Gs4,6
		  ymVol 0Ch
		        note  Gs4
		        note  Gs4
		        note  Fs4
		  ymVol 09h
		        note  Fs4
		  ymVol 0Ch
		        note  E4
		  ymVol 09h
		        note  E4
		  ymVol 0Ch
		        noteL Fs4,30
		  ymVol 09h
		        noteL Fs4,6
		  ymVol 0Ch
		        note  B4
		        note  B4
		countedLoopStart 2
		  ymVol 0Ch
		        noteL B4,6
		  ymVol 09h
		        note  B4
		countedLoopEnd
		mainLoopStart
		countedLoopStart 1
		  ymVol 0Bh
		        noteL Cs4,6
		        note  Cs4
		        noteL Cs4,18
		  ymVol 08h
		        noteL Cs4,6
		  ymVol 0Bh
		        note  Cs4
		  ymVol 08h
		        note  Cs4
		  length 12
		  ymInst 56
		  ymVol 0Bh
		        noteL A3,6
		  length 18
		        noteL A3,6
		        silence
		  ymInst 13
		  ymVol 0Bh
		        note  Ds4
		        note  Ds4
		        noteL Ds4,18
		  ymVol 08h
		        noteL Ds4,6
		  ymVol 0Bh
		        note  Ds4
		  ymVol 08h
		        note  Ds4
		  length 12
		  ymInst 56
		  ymVol 0Bh
		        noteL B3,6
		  length 18
		        noteL B3,6
		        silence
		  ymInst 13
		countedLoopEnd
		  ymVol 0Bh
		        noteL Cs4,6
		        note  Cs4
		        noteL Cs4,18
		  ymVol 08h
		        noteL Cs4,6
		  ymVol 0Bh
		        note  Cs4
		  ymVol 08h
		        note  Cs4
		  length 12
		  ymInst 56
		  ymVol 0Bh
		        noteL A3,6
		  length 18
		        noteL A3,6
		        silence
		  ymInst 13
		  ymVol 0Bh
		        note  Fs4
		        note  Fs4
		        noteL Fs4,18
		  ymVol 08h
		        noteL Fs4,6
		  ymVol 0Bh
		        note  Fs4
		  ymVol 08h
		        note  Fs4
		  length 12
		  ymInst 56
		  ymVol 0Bh
		        noteL D4,6
		  length 18
		        noteL D4,6
		        silence
		  ymInst 13
		  ymVol 0Bh
		        note  D4
		        note  D4
		        noteL D4,18
		  ymVol 08h
		        noteL D4,6
		  ymVol 0Bh
		        note  D4
		  ymVol 08h
		        note  D4
		  length 12
		  ymInst 56
		  ymVol 0Bh
		        noteL D4,6
		  length 18
		        noteL D4,6
		        silence
		countedLoopStart 1
		  ymInst 13
		  ymVol 0Bh
		        noteL D4,6
		        note  D4
		        noteL D4,18
		  ymVol 08h
		        noteL D4,6
		  ymVol 0Bh
		        note  D4
		  ymVol 08h
		        note  D4
		countedLoopEnd
		mainLoopEnd
Music_3_Channel_4:
		  shifting 020h
		  length 6
		  ymStereo 040h
		  ymInst 13
		  ymVol 0Bh
		  release 01h
		  vibrato 02Ch
		        noteL F4,24
		        note  G4
		  ymVol 08h
		        noteL G4,12
		  ymVol 0Bh
		        noteL A4,24
		        noteL As4,6
		  ymVol 08h
		        note  As4
		  ymInst 20
		  ymStereo 080h
		  ymVol 0Bh
		        note  F5
		  ymVol 08h
		        note  F5
		  ymVol 0Bh
		        note  Fs5
		  ymVol 08h
		        note  Fs5
		  ymVol 0Bh
		        note  Ds5
		  ymVol 08h
		        note  Ds5
		  ymVol 0Bh
		        noteL Gs5,24
		        noteL Fs5,6
		  ymVol 08h
		        note  Fs5
		  ymVol 0Bh
		        noteL E5,9
		  ymVol 08h
		        noteL E5,6
		  ymVol 06h
		        noteL E5,3
		  ymVol 0Bh
		        noteL A5,6
		        note  B5
		  ymVol 08h
		        note  B5
		  ymStereo 040h
		  ymInst 27
		  ymVol 0Ah
		        noteL E3,12
		        noteL Fs3,6
		        silence
		        note  Ds4
		        silence
		        noteL Cs4,36
		        noteL Fs3,6
		        silence
		        noteL Gs3,9
		        silence
		        noteL Gs4,6
		        noteL Fs4,60
		  ymStereo 080h
		  ymInst 20
		  ymVol 0Bh
		        noteL Fs5,6
		        note  Fs5
		        note  Fs5
		  ymVol 08h
		        note  Fs5
		  ymStereo 040h
		  ymInst 27
		  ymVol 0Ah
		        noteL E3,12
		        noteL Fs3,6
		        silence
		        note  Ds4
		        silence
		        note  Cs4
		        silence
		        noteL A3,12
		        noteL B3,9
		        silence
		        noteL Gs4,6
		        noteL B4,36
		  ymStereo 080h
		  ymInst 20
		  ymVol 0Bh
		        noteL Fs5,6
		        note  Fs5
		        note  Fs5
		  ymVol 08h
		        note  Fs5
		  ymVol 0Bh
		        note  Fs5
		  ymVol 08h
		        note  Fs5
		  ymVol 0Bh
		        noteL Fs5,12
		  ymVol 08h
		        noteL Fs5,6
Music_4_Channel_4:
		  shifting 020h
		  ymStereo 040h
		  length 6
		  ymInst 13
		  release 01h
		  vibrato 02Ch
		repeatStart
		  ymVol 0Bh
		        noteL Gs4,30
		  ymVol 08h
		        noteL Gs4,6
		  ymVol 0Bh
		        note  Gs4
		        note  Gs4
		        noteL B4,9
		  ymVol 08h
		        noteL B4,6
		  ymVol 06h
		        noteL B4,3
		  ymVol 0Bh
		        noteL Cs5,6
		repeatSection1Start
		        noteL Gs4,54
		  ymVol 08h
		        noteL Gs4,6
		  ymVol 0Bh
		        note  Gs4
		        note  Gs4
		        note  Fs4
		  ymVol 08h
		        note  Fs4
		  ymVol 0Bh
		        note  E4
		  ymVol 08h
		        note  E4
		  ymVol 0Bh
		        noteL Fs4,24
		repeatEnd
		repeatSection2Start
		        noteL E5,54
		  ymVol 08h
		        noteL E5,6
		  ymVol 0Bh
		        note  E5
		        note  E5
		        note  Ds5
		  ymVol 08h
		        note  Ds5
		  ymVol 0Bh
		        note  Cs5
		  ymVol 08h
		        note  Cs5
		  ymVol 0Bh
		        noteL Ds5,30
		  ymVol 08h
		        noteL Ds5,6
		  ymVol 0Bh
		        note  Gs5
		        note  Gs5
		        note  Fs5
		  ymVol 08h
		        note  Fs5
		  ymVol 0Bh
		        note  E5
		  ymVol 08h
		        note  E5
		  ymVol 0Bh
		        note  Fs5
		  ymVol 08h
		        note  Fs5
		  ymStereo 040h
		mainLoopStart
		  ymInst 7
		  ymVol 0Bh
		        noteL Cs5,48
		        note  E5
		        noteL Ds5,6
		        note  E5
		        noteL Fs5,60
		        noteL E5,12
		        note  Ds5
		        noteL E5,36
		        noteL Cs5,6
		  ymVol 09h
		        note  Cs5
		  ymVol 0Bh
		        noteL Cs5,36
		        noteL E5,6
		  ymVol 09h
		        note  E5
		  ymVol 0Bh
		        noteL Ds5,96
		        noteL E5,48
		        note  Gs5
		        noteL Fs5,6
		        note  Gs5
		        noteL A5,60
		        noteL Gs5,12
		        note  Fs5
		countedLoopStart 1
		        noteL Gs5,36
		        noteL Cs5,6
		  ymVol 09h
		        note  Cs5
		  ymVol 0Bh
		        noteL Cs5,36
		        noteL Gs5,6
		  ymVol 09h
		        note  Gs5
		  ymVol 0Bh
		countedLoopEnd
		mainLoopEnd
Music_3_Channel_5:
		  ymStereo 0C0h
		  length 60
		        sampleL 1,24
		        sampleL 1,12
		        sample  0
		        sampleL 2,3
		        sample  3
		        sample  3
		        sample  4
		        sampleL 2,6
		        sample  3
		        sampleL 5,24
		        sampleL 2,3
		        sample  3
		        sample  3
		        sample  4
		        sampleL 2,6
		        sample  4
		        sample  3
		        sample  3
		        sampleL 5,132
		countedLoopStart 1
		        sampleL 2,3
		        sample  3
		        sample  3
		        sample  4
		        sampleL 2,12
		countedLoopEnd
		        sampleL 2,6
		        sample  2
		        sampleL 5,108
		        sampleL 2,3
		        sample  3
		        sample  3
		        sample  4
		countedLoopStart 1
		        sampleL 2,6
		        sample  3
		        sample  3
		        sample  3
		countedLoopEnd
		        sampleL 2,3
		        sample  3
		        sample  3
		        sample  4
		        sampleL 2,12
Music_4_Channel_5:
		  ymStereo 0C0h
		repeatStart
		  length 24
		        sampleL 0,12
		        sampleL 2,6
		        sample  3
		        sampleL 2,18
		        sampleL 3,6
		        sample  2
		        sample  3
		        sample  3
		        sample  3
		        sampleL 2,12
		        sampleL 0,24
		        sampleL 2,6
		        sample  3
		        sampleL 2,12
		        sampleL 2,3
		        sample  3
		        sample  3
		        sample  4
		repeatSection1Start
		        sampleL 2,24
		repeatEnd
		repeatSection2Start
		        sampleL 2,12
		        sampleL 0,24
		        sampleL 2,6
		        sample  3
		        sample  2
		        sample  2
		        sampleL 2,3
		        sample  3
		        sample  3
		        sample  4
		        sampleL 2,12
		mainLoopStart
		countedLoopStart 2
		        sampleL 2,6
		        sample  3
		        sampleL 2,12
		        sample  0
		        sampleL 2,24
		        sampleL 2,4
		        sample  3
		        sample  3
		        sampleL 2,6
		        sample  3
		        sampleL 2,12
		countedLoopEnd
		        sampleL 2,6
		        sample  3
		        sampleL 2,12
		        sample  0
		        sampleL 2,18
		        sampleL 2,6
		        sample  2
		        sample  2
		        sampleL 2,3
		        sample  3
		        sample  3
		        sample  4
		        sampleL 2,6
		        sample  2
		countedLoopStart 2
		        sampleL 2,6
		        sample  3
		        sampleL 2,12
		        sample  0
		        sampleL 2,24
		        sampleL 2,4
		        sample  3
		        sample  3
		        sampleL 2,6
		        sample  3
		        sampleL 2,12
		countedLoopEnd
		countedLoopStart 1
		        sampleL 2,6
		        sample  3
		        sampleL 2,3
		        sample  3
		        sample  3
		        sample  4
		        sampleL 0,12
		        sample  2
		countedLoopEnd
		mainLoopEnd
Music_3_Channel_6:
		  psgInst 124
		  release 01h
		  vibrato 04Ch
		        psgNoteL G5,6
		        psgNote  D5
		        psgNote  C5
		        psgNote  D5
		        psgNote  A5
		        psgNote  E5
		        psgNote  D5
		        psgNote  E5
		        psgNote  D5
		        psgNote  E5
		        psgNote  B5
		        psgNote  Fs5
		        psgNote  E5
		        psgNote  Fs5
		        psgNote  C6
		        psgNote  G5
		        psgNote  D6
		        psgNote  As5
		        psgNote  Ds6
		        psgNote  C6
		        psgNote  Gs5
		        psgNote  F5
		        psgNote  F6
		        psgNote  Cs6
		        psgNote  As5
		        psgNote  Fs5
		        psgNote  Ds6
		        psgNote  B5
		        psgNote  A5
		        psgNote  Cs6
		        psgNote  Fs6
		        psgNote  A6
		        psgNote  C7
		  psgInst 123
		  length 18
		repeatStart
		countedLoopStart 14
		        psgNoteL Cs5,4
		        psgNote  Ds5
		countedLoopEnd
		  psgInst 125
		        psgNoteL Fs5,6
		        psgNote  G5
		        psgNote  Gs5
		        psgNote  A5
		        psgNote  As5
		        psgNote  B5
		        psgNote  C6
		        psgNote  Cs6
		repeatSection1Start
		        psgNoteL Ds6,6
		  psgInst 123
		  length 18
		repeatEnd
		repeatSection2Start
Music_4_Channel_6:
		  vibrato 04Ch
		  release 01h
		  psgInst 125
		        psgNoteL D6,6
		        silence
		repeatStart
		        psgNoteL F6,4
		        psgNote  G6
		        psgNote  A6
		        psgNoteL As6,6
		        silence
		  psgInst 0
		  length 36
		  psgInst 125
		        psgNoteL Gs4,6
		        psgNote  Cs5
		        psgNote  F5
		        psgNote  Gs5
		        psgNote  Cs6
		        silence
		        psgNoteL Cs6,4
		        psgNote  Ds6
		        psgNote  E6
		        psgNoteL F6,6
		  psgInst 123
		  length 18
		  psgInst 125
		        psgNoteL Ds6,6
		        psgNote  Gs6
		        psgNote  Ds6
		        psgNote  Cs6
		repeatSection1Start
		        psgNoteL C6,6
		        psgNote  As5
		        psgNote  Gs5
		        psgNote  Ds5
		  length 12
		repeatEnd
		repeatSection2Start
		        psgNoteL Ds6,6
		        silence
		        psgNoteL Ds6,4
		        psgNote  F6
		        psgNote  Fs6
		        psgNote  Gs6
		  length 20
		        psgNoteL Gs5,6
		        psgNote  Fs5
		        psgNote  Ds5
		        psgNote  F5
		        psgNote  Fs5
		        psgNote  Gs5
		mainLoopStart
		  psgInst 0
		  length 96
		        silence
		        silence
		  length 12
		  psgInst 13
		        psgNoteL Ds6,6
		        psgNote  F6
		        psgNote  Fs6
		        psgNote  Gs6
		        psgNote  Fs6
		        psgNote  F6
		        psgNote  Ds6
		        psgNote  Cs6
		        psgNote  As5
		        psgNote  C6
		        psgNote  Gs6
		        psgNote  Fs6
		        psgNote  D6
		        psgNote  Ds6
		        silence
		  psgInst 0
		  length 96
		        silence
		  psgInst 13
		        psgNoteL Gs5,6
		        psgNote  As5
		        psgNote  B5
		        psgNote  Cs6
		        psgNote  Ds6
		        psgNote  Fs6
		        psgNote  F6
		        psgNote  Ds6
		        psgNote  Cs6
		        psgNote  As5
		        psgNote  B5
		        psgNote  Cs6
		        psgNote  B5
		        psgNote  Cs6
		        psgNote  Ds6
		        psgNote  F6
		        psgNote  E6
		        psgNote  D6
		        psgNote  As6
		        psgNote  Gs6
		        psgNote  F6
		        psgNote  E6
		        psgNote  D6
		        psgNote  Cs6
		        psgNote  B5
		        psgNote  As5
		        psgNote  As6
		        psgNote  Gs6
		        psgNote  F6
		        psgNote  Cs6
		        psgNote  D6
		mainLoopEnd
Music_3_Channel_7:
		  psgInst 124
		  release 01h
		  vibrato 04Ch
		        psgNoteL Ds4,6
		        psgNote  G4
		        psgNote  As4
		        psgNote  G4
		        psgNote  F4
		        psgNote  A4
		        psgNote  C5
		        psgNote  A4
		        psgNote  C5
		        psgNote  A4
		        psgNote  G4
		        psgNote  B4
		        psgNote  D5
		        psgNote  B4
		        psgNote  Ds5
		        psgNote  C5
		        psgNote  As4
		        psgNote  D5
		        psgNote  F4
		        psgNote  Gs4
		        psgNote  C5
		        psgNote  Gs4
		        psgNote  Fs4
		        psgNote  As4
		        psgNote  Cs5
		        psgNote  As4
		        psgNote  B4
		        psgNote  Ds5
		        psgNote  Fs5
		        psgNote  Cs5
		        psgNote  A4
		        psgNote  Fs5
		        psgNote  Ds5
		  psgInst 123
		  length 18
		repeatStart
		countedLoopStart 14
		        psgNoteL As4,4
		        psgNote  C5
		countedLoopEnd
		  psgInst 125
		        psgNoteL As4,6
		        psgNote  B4
		        psgNote  C5
		        psgNote  Cs5
		        psgNote  D5
		        psgNote  Ds5
		        psgNote  E5
		        psgNote  F5
		repeatSection1Start
		        psgNoteL Fs5,6
		  psgInst 123
		  length 18
		repeatEnd
		repeatSection2Start
Music_4_Channel_7:
		  vibrato 04Ch
		  release 01h
		  psgInst 125
		        psgNoteL F5,6
		  length 18
		repeatStart
		  shifting 010h
		  psgInst 123
		        psgNoteL F6,4
		        psgNote  G6
		        psgNote  A6
		        psgNoteL As6,6
		        silence
		  psgInst 0
		  length 36
		  psgInst 123
		        psgNoteL Gs4,6
		        psgNote  Cs5
		        psgNote  F5
		        psgNote  Gs5
		        psgNote  Cs6
		        silence
		        psgNoteL Cs6,4
		        psgNote  Ds6
		        psgNote  E6
		        psgNoteL F6,6
		  psgInst 121
		  length 18
		  psgInst 123
		        psgNoteL Ds6,6
		        psgNote  Gs6
		        psgNote  Ds6
		        psgNote  Cs6
		repeatSection1Start
		        psgNoteL C6,6
		        psgNote  As5
		        psgNote  Gs5
		        psgNote  Ds5
		  length 12
		repeatEnd
		repeatSection2Start
		        psgNoteL Ds6,6
		        silence
		        psgNoteL Ds6,4
		        psgNote  F6
		        psgNote  Fs6
		        psgNote  Gs6
		  length 20
		        psgNoteL Gs5,6
		        psgNote  Fs5
		        psgNote  Ds5
		        psgNote  F5
		        psgNote  Fs5
		        psgNote  Gs5
		mainLoopStart
		  psgInst 0
		  length 96
		        silence
		        silence
		  length 12
		  psgInst 11
		        psgNoteL Ds6,6
		        psgNote  F6
		        psgNote  Fs6
		        psgNote  Gs6
		        psgNote  Fs6
		        psgNote  F6
		        psgNote  Ds6
		        psgNote  Cs6
		        psgNote  As5
		        psgNote  C6
		        psgNote  Gs6
		        psgNote  Fs6
		        psgNote  D6
		        psgNote  Ds6
		        silence
		  psgInst 0
		  length 96
		        silence
		  psgInst 11
		        psgNoteL Gs5,6
		        psgNote  As5
		        psgNote  B5
		        psgNote  Cs6
		        psgNote  Ds6
		        psgNote  Fs6
		        psgNote  F6
		        psgNote  Ds6
		        psgNote  Cs6
		        psgNote  As5
		        psgNote  B5
		        psgNote  Cs6
		        psgNote  B5
		        psgNote  Cs6
		        psgNote  Ds6
		        psgNote  F6
		        psgNote  E6
		        psgNote  D6
		        psgNote  As6
		        psgNote  Gs6
		        psgNote  F6
		        psgNote  E6
		        psgNote  D6
		        psgNote  Cs6
		        psgNote  B5
		        psgNote  As5
		        psgNote  As6
		        psgNote  Gs6
		        psgNote  F6
		        psgNote  Cs6
		        psgNote  D6
		mainLoopEnd
Music_4_Channel_9:
		channel_end
