
; ASM FILE music08.asm :
; 0xC52D..0xD818 : Music 08
Music_8:        db 0
		db 1
		db 0
		db 0CBh
		dw Music_8_Channel_0
		dw Music_8_Channel_1
		dw Music_8_Channel_2
		dw Music_8_Channel_3
		dw Music_8_Channel_4
		dw Music_8_Channel_5
		dw Music_8_Channel_6
		dw Music_8_Channel_7
		dw Music_8_Channel_9
		dw Music_8_Channel_9
Music_8_Channel_0:
		  ymStereo 0C0h
		  ymInst 26
		  release 01h
		  vibrato 02Ch
		mainLoopStart
		  length 16
		  ymVol 0Dh
		        note  C6
		        note  A5
		        note  F5
		        note  E5
		        note  F5
		        note  Fs5
		        note  G5
		        note  F5
		        note  Ds5
		        note  Gs4
		        noteL As4,8
		        noteL C5,56
		        noteL D5,8
		  ymVol 09h
		        note  D5
		countedLoopStart 1
		  length 16
		  ymVol 0Ah
		        noteL G4,6
		  ymVol 07h
		        note  G4
		  ymVol 03h
		        noteL G4,12
		  ymVol 0Ah
		        noteL Fs4,6
		  ymVol 07h
		        note  Fs4
		  ymVol 03h
		        noteL Fs4,12
		  ymVol 0Ah
		  ymSustain
		        noteL Fs4,22
		  release 01h
		  ymSlide 08h
		        noteL E4,42
		  ymStopSlide
		countedLoopEnd
		countedLoopStart 1
		  length 16
		        noteL G4,6
		  ymVol 07h
		        note  G4
		  ymVol 03h
		        noteL G4,12
		  ymVol 0Ah
		        noteL G4,6
		  ymVol 07h
		        note  G4
		  ymVol 03h
		        noteL G4,12
		  ymVol 0Ah
		  ymSustain
		        noteL G4,22
		  release 01h
		  ymSlide 08h
		        noteL A4,42
		  ymStopSlide
		countedLoopEnd
		countedLoopStart 1
		  length 16
		        noteL G4,6
		  ymVol 07h
		        note  G4
		  ymVol 03h
		        noteL G4,12
		  ymVol 0Ah
		        noteL Fs4,6
		  ymVol 07h
		        note  Fs4
		  ymVol 03h
		        noteL Fs4,12
		  ymVol 0Ah
		  ymSustain
		        noteL Fs4,22
		  release 01h
		  ymSlide 08h
		        noteL E4,42
		  ymStopSlide
		countedLoopEnd
		  length 16
		        noteL G4,6
		  ymVol 07h
		        note  G4
		  ymVol 03h
		        noteL G4,12
		  ymVol 0Ah
		        noteL G4,6
		  ymVol 07h
		        note  G4
		  ymVol 03h
		        noteL G4,12
		  ymVol 0Ah
		  ymSustain
		        noteL G4,22
		  release 01h
		  ymSlide 08h
		        noteL A4,42
		  ymStopSlide
		  length 16
		        noteL G4,6
		  ymVol 07h
		        note  G4
		  ymVol 03h
		        noteL G4,12
		  ymVol 0Ah
		        noteL G4,6
		  ymVol 07h
		        note  G4
		  ymVol 03h
		        noteL G4,12
		  ymVol 0Ah
		  ymSustain
		        noteL F4,30
		  release 01h
		  ymSlide 08h
		        noteL G4,34
		  ymStopSlide
		repeatStart
		  length 8
		  ymInst 14
		  ymVol 07h
		        note  D6
		        note  B5
		        note  D6
		        note  E6
		        note  D6
		        note  B5
		        note  D6
		  length 16
		        note  E6
		        note  C6
		        note  A5
		  length 8
		        note  C6
		        note  A5
		        note  C6
		        note  D6
		        note  C6
		        note  A5
		        note  C6
		repeatSection1Start
		  length 16
		        note  D6
		        note  B5
		        note  G5
		repeatEnd
		repeatSection2Start
		  length 8
		        note  D5
		        note  E5
		        note  F5
		        note  G5
		        note  Gs5
		        note  As5
		        noteL C6,16
		  ymStereo 040h
		  shifting 020h
		  ymInst 26
		  ymVol 08h
		        noteL C4,96
		        noteL C4,32
		        note  C4
		        note  D4
		        note  C4
		        noteL B3,24
		  ymStereo 0C0h
		  ymVol 0Bh
		        noteL C5,6
		  ymVol 07h
		        note  C5
		  ymVol 05h
		        note  C5
		  ymVol 03h
		        note  C5
		  length 32
		  ymVol 0Ch
		        noteL G4,24
		  ymVol 0Ch
		        noteL Fs4,8
		  ymVol 08h
		        note  Fs4
		  ymVol 0Ch
		        note  F4
		  ymVol 08h
		        note  F4
		  ymVol 06h
		        note  F4
		  ymVol 04h
		        note  F4
		countedLoopStart 2
		  length 16
		  ymVol 0Ah
		        noteL G4,6
		  ymVol 07h
		        note  G4
		  ymVol 03h
		        noteL G4,12
		  ymVol 0Ah
		        noteL Fs4,6
		  ymVol 07h
		        note  Fs4
		  ymVol 03h
		        noteL Fs4,12
		  ymVol 0Ah
		  ymSustain
		        noteL Fs4,22
		  release 01h
		  ymSlide 08h
		        noteL E4,42
		  ymStopSlide
		countedLoopEnd
		  length 8
		  ymVol 0Ch
		        note  B3
		        note  C4
		        note  E4
		        note  Fs4
		        note  G4
		        note  B4
		        note  C5
		        note  E5
		        note  D5
		        note  A4
		        note  B4
		        note  D5
		        note  Fs5
		        note  A5
		        note  As5
		repeatStart
		  ymVol 0Ch
		        noteL B5,8
		        note  C6
		        note  B5
		  ymVol 08h
		        note  B5
		  ymVol 0Ch
		        note  As5
		        noteL B5,12
		  ymVol 08h
		        noteL B5,6
		  ymVol 06h
		        note  B5
		  ymVol 0Ch
		        noteL D6,16
		        noteL A5,8
		        noteL B5,40
		  ymVol 08h
		        noteL B5,8
		  ymVol 0Ch
		        note  B5
		        note  C6
		        note  B5
		        note  As5
		        note  B5
		  ymVol 08h
		        note  B5
		  ymVol 0Ch
		  ymSustain
		        noteL D6,1
		  release 01h
		  ymSlide 06h
		        noteL E6,23
		  ymStopSlide
		        noteL A5,8
		        noteL B5,16
		repeatSection1Start
		        noteL C6,8
		        note  B5
		        note  G5
		        note  A5
		  ymVol 08h
		        note  A5
		  ymVol 0Ch
		        note  A5
		  ymVol 08h
		        note  A5
		  ymVol 0Ch
		        noteL A5,16
		        noteL C5,8
		        noteL D5,72
		  ymVol 06h
		        noteL D5,8
		  ymVol 04h
		        note  D5
		  ymVol 0Ch
		  ymSustain
		        noteL G5,1
		  release 01h
		  ymSlide 0Dh
		        noteL A5,31
		  ymStopSlide
		        noteL G5,8
		  ymVol 08h
		        note  G5
		  ymVol 0Ch
		        noteL C6,16
		        noteL B5,8
		        note  A5
		  ymVol 08h
		        note  A5
		  ymVol 0Ch
		        noteL G5,16
		  ymVol 08h
		        noteL G5,8
		repeatEnd
		repeatSection2Start
		        noteL B5,8
		        note  C6
		        note  D6
		        note  C6
		  ymVol 08h
		        note  C6
		  ymVol 0Ch
		        note  C6
		  ymVol 08h
		        note  C6
		  ymVol 0Ch
		        note  D6
		        note  E6
		  ymVol 08h
		        note  E6
		  ymVol 0Ch
		        noteL A5,72
		  ymVol 06h
		        noteL A5,8
		  ymVol 04h
		        note  A5
		  ymVol 0Ch
		        noteL F4,32
		        noteL G4,8
		  ymVol 08h
		        note  G4
		  ymVol 0Ch
		        note  A4
		  ymVol 08h
		        note  A4
		  ymVol 0Ch
		        note  B4
		  ymVol 08h
		        note  B4
		  ymVol 0Ch
		        note  C5
		        noteL D5,24
		  ymVol 0Bh
		        noteL E5,80
		        noteL D6,16
		        note  C6
		        note  B5
		        noteL A5,48
		        noteL G5,16
		        noteL F5,32
		        note  A5
		        noteL G5,80
		        noteL F6,16
		        note  E6
		        note  D6
		        noteL C6,64
		        noteL A5,32
		        note  Gs5
		  ymSustain
		        noteL A5,128
		  release 01h
		  vibrato 020h
		        noteL A5,112
		  vibrato 02Ch
		        noteL B5,16
		  ymVol 0Ch
		        noteL C6,6
		  ymVol 08h
		        note  C6
		  ymVol 06h
		        note  C6
		  ymVol 04h
		        note  C6
		  length 32
		  ymVol 0Ch
		        noteL G5,24
		  ymVol 0Ch
		        noteL Fs5,8
		  ymVol 08h
		        note  Fs5
		  ymVol 0Ch
		        note  F5
		  ymVol 08h
		        note  F5
		  ymVol 06h
		        note  F5
		  ymVol 04h
		        note  F5
		  length 16
		  ymInst 27
		  ymVol 0Ah
		        note  C4
		        note  Ds4
		        note  G4
		        noteL F4,24
		        note  Ds4
		        noteL F4,16
		        noteL G4,32
		        noteL E4,8
		  ymVol 05h
		        note  E4
		  ymVol 0Ah
		        noteL G4,80
		  ymVol 05h
		        noteL G4,8
		  ymVol 03h
		        note  G4
		  ymVol 0Ah
		        noteL Gs3,16
		        note  C4
		        note  Ds4
		        noteL F4,24
		        note  As4
		        noteL Gs4,16
		        noteL G4,128
		  ymVol 05h
		        noteL G4,8
		  ymVol 03h
		        note  G4
		  ymInst 16
		  ymVol 0Dh
		        noteL F5,16
		        note  A5
		        note  C6
		        noteL B5,24
		        note  As5
		        noteL B5,16
		        noteL D6,24
		        note  C6
		        noteL G6,16
		        noteL F6,32
		        note  Ds6
		  ymInst 7
		  ymVol 0Bh
		        noteL Gs5,40
		  ymVol 07h
		        noteL Gs5,8
		  ymVol 0Bh
		  ymSustain
		        noteL Gs5,5
		        note  G5
		  release 01h
		        noteL Fs5,6
		        noteL F5,16
		        noteL Fs5,32
		        noteL G5,16
		        noteL Gs5,112
		  ymVol 07h
		        noteL Gs5,8
		  ymVol 04h
		        note  Gs5
		  ymInst 9
		  ymVol 0Dh
		        noteL Fs5,40
		  ymVol 08h
		        noteL Fs5,8
		  ymVol 0Ch
		  ymSustain
		        noteL Fs5,5
		        note  F5
		  release 01h
		        noteL E5,6
		        noteL Ds5,16
		        noteL E5,32
		        noteL F5,16
		        noteL Fs5,112
		  ymVol 08h
		        noteL Fs5,8
		  ymVol 05h
		        note  Fs5
		  ymInst 26
		  ymVol 0Dh
		        noteL A4,26
		        noteL B4,6
		        note  E5
		  ymVol 09h
		        note  E5
		  ymVol 07h
		        note  E5
		  ymVol 05h
		        note  E5
		  length 8
		  ymVol 0Dh
		        noteL B4,26
		        noteL C5,6
		        noteL G5,32
		  ymVol 09h
		        noteL G5,8
		  ymVol 07h
		        note  G5
		  ymVol 0Dh
		        note  E5
		  ymVol 09h
		        note  E5
		  ymVol 0Dh
		        note  F5
		  ymVol 09h
		        note  F5
		  ymVol 0Dh
		        note  G5
		  ymVol 09h
		        note  G5
		  ymVol 0Dh
		        note  A5
		  ymVol 09h
		        note  A5
		  ymVol 0Dh
		        note  B5
		  ymVol 09h
		        note  B5
		  ymVol 0Dh
		        note  C6
		  ymVol 09h
		        note  C6
		  ymVol 0Dh
		        note  D6
		  ymVol 09h
		        note  D6
		mainLoopEnd
Music_8_Channel_1:
		  ymStereo 0C0h
		  ymInst 38
		  ymVol 0Ch
		  release 01h
		  vibrato 02Ch
		mainLoopStart
		        noteL D2,64
		        note  C2
		        note  As1
		        note  G1
		repeatStart
		countedLoopStart 2
		  ymInst 57
		  ymVol 0Eh
		        noteL C2,16
		  ymVol 0Bh
		        note  E3
		  ymVol 0Eh
		        note  G1
		  ymVol 0Bh
		        note  E3
		countedLoopEnd
		  ymVol 0Eh
		        noteL C2,16
		  ymVol 0Bh
		        noteL E3,8
		  ymVol 0Eh
		        noteL C2,16
		  ymVol 0Bh
		        noteL E3,8
		  ymVol 0Eh
		        noteL G1,16
		countedLoopStart 2
		  ymVol 0Eh
		        noteL F2,16
		  ymVol 0Bh
		        note  F3
		  ymVol 0Eh
		        note  C2
		  ymVol 0Bh
		        note  F3
		countedLoopEnd
		  ymVol 0Eh
		        noteL F2,16
		  ymVol 0Bh
		        noteL F3,8
		  ymVol 0Eh
		        noteL C2,16
		        noteL C2,8
		        noteL F2,16
		countedLoopStart 2
		  ymVol 0Eh
		        noteL C2,16
		  ymVol 0Bh
		        note  E3
		  ymVol 0Eh
		        note  G1
		  ymVol 0Bh
		        note  E3
		countedLoopEnd
		  ymVol 0Eh
		        noteL C2,16
		  ymVol 0Bh
		        noteL E3,8
		  ymVol 0Eh
		        noteL C2,16
		  ymVol 0Bh
		        noteL E3,8
		  ymVol 0Eh
		        noteL G1,16
		countedLoopStart 1
		  ymVol 0Eh
		        noteL F2,16
		  ymVol 0Bh
		        note  F3
		  ymVol 0Eh
		        note  C2
		  ymVol 0Bh
		        note  F3
		countedLoopEnd
		  ymVol 0Eh
		        noteL F2,16
		  ymVol 0Bh
		        note  F3
		  ymVol 0Eh
		        note  E2
		  ymVol 0Bh
		        note  E3
		  ymVol 0Eh
		        note  D2
		  ymVol 0Bh
		        note  D3
		  ymInst 38
		  ymVol 0Ch
		        note  G2
		        note  F2
		        noteL E2,32
		  length 16
		        noteL E2,8
		        silence
		        noteL F2,16
		        silence
		        noteL F2,32
		        note  D2
		  length 16
		        noteL D2,8
		        silence
		        noteL G2,32
		        note  F2
		        note  E2
		  length 16
		        noteL E2,8
		        silence
		        noteL A2,16
		        silence
		        noteL G2,32
		        note  F2
		  length 16
		        noteL F2,8
		        silence
		        noteL As2,32
		  ymSustain
		        noteL Gs3,1
		  release 01h
		  ymSlide 010h
		        noteL As3,31
		  ymStopSlide
		        noteL A3,32
		        note  Gs3
		        note  G3
		        note  Fs3
		        note  F3
		        note  E3
		        noteL D3,16
		  length 8
		        note  D3
		        note  C3
		        silence
		        noteL C2,16
		        noteL F2,8
		  length 48
		        noteL G2,16
		  length 8
		        note  G3
		        silence
		        note  G2
		  length 24
		repeatSection1Start
		countedLoopStart 2
		  ymInst 57
		  ymVol 0Eh
		        noteL C2,16
		  ymVol 0Bh
		        note  E3
		  ymVol 0Eh
		        note  G1
		  ymVol 0Bh
		        note  E3
		countedLoopEnd
		  ymVol 0Eh
		        noteL C2,16
		  ymVol 0Bh
		        noteL E3,8
		  ymVol 0Eh
		        noteL C2,16
		  ymVol 0Bh
		        noteL E3,8
		  ymVol 0Eh
		        noteL G1,16
		countedLoopStart 2
		  ymInst 57
		  ymVol 0Eh
		        noteL C2,16
		  ymVol 0Bh
		        note  E3
		  ymVol 0Eh
		        note  G1
		  ymVol 0Bh
		        note  E3
		countedLoopEnd
		        noteL C2,16
		  ymInst 38
		  ymVol 0Ch
		  ymSustain
		        noteL G2,2
		        note  Gs2
		  release 01h
		        noteL A2,4
		        noteL G2,8
		        silence
		        note  D2
		        noteL G1,16
		repeatEnd
		repeatSection2Start
		        noteL Gs2,64
		        note  Cs3
		        note  C3
		        note  F2
		        note  Cs2
		        note  Ds2
		        note  Gs2
		        note  E2
		        note  D3
		        note  E3
		        note  F3
		        note  Gs3
		        noteL B3,80
		  length 16
		        noteL B3,32
		        noteL E4,120
		  length 8
		        noteL A3,80
		  length 16
		        noteL A3,32
		        noteL D4,120
		  length 8
		  ymInst 57
		  ymVol 0Dh
		        noteL G2,64
		        note  C3
		  ymInst 38
		  ymVol 0Ch
		        note  F2
		        note  E2
		mainLoopEnd
Music_8_Channel_2:
		  release 01h
		  vibrato 02Ch
		mainLoopStart
		  ymStereo 040h
		  ymInst 38
		  ymVol 0Ah
		        noteL C4,64
		        note  D4
		        note  Ds4
		        note  F4
		  ymStereo 0C0h
		  ymInst 26
		countedLoopStart 1
		  length 16
		  ymVol 0Ah
		        noteL E4,6
		  ymVol 07h
		        note  E4
		  ymVol 03h
		        noteL E4,12
		  ymVol 0Ah
		        noteL E4,6
		  ymVol 07h
		        note  E4
		  ymVol 03h
		        noteL E4,12
		  ymVol 0Ah
		  ymSustain
		        noteL D4,22
		  release 01h
		  ymSlide 08h
		        noteL C4,42
		  ymStopSlide
		countedLoopEnd
		countedLoopStart 1
		  length 16
		        noteL E4,6
		  ymVol 07h
		        note  E4
		  ymVol 03h
		        noteL E4,12
		  ymVol 0Ah
		        noteL E4,6
		  ymVol 07h
		        note  E4
		  ymVol 03h
		        noteL E4,12
		  ymVol 0Ah
		        noteL E4,24
		        noteL E4,40
		countedLoopEnd
		countedLoopStart 1
		  length 16
		        noteL E4,6
		  ymVol 07h
		        note  E4
		  ymVol 03h
		        noteL E4,12
		  ymVol 0Ah
		        noteL E4,6
		  ymVol 07h
		        note  E4
		  ymVol 03h
		        noteL E4,12
		  ymVol 0Ah
		  ymSustain
		        noteL D4,22
		  release 01h
		  ymSlide 08h
		        noteL C4,42
		  ymStopSlide
		countedLoopEnd
		  length 16
		        noteL E4,6
		  ymVol 07h
		        note  E4
		  ymVol 03h
		        noteL E4,12
		  ymVol 0Ah
		        noteL E4,6
		  ymVol 07h
		        note  E4
		  ymVol 03h
		        noteL E4,12
		  ymVol 0Ah
		        noteL E4,24
		        noteL E4,40
		  length 16
		        noteL E4,6
		  ymVol 07h
		        note  E4
		  ymVol 03h
		        noteL E4,12
		  ymVol 0Ah
		        noteL D4,6
		  ymVol 07h
		        note  D4
		  ymVol 03h
		        noteL D4,12
		  ymVol 0Ah
		  ymSustain
		        noteL C4,30
		  release 01h
		  ymSlide 08h
		        noteL D4,34
		  ymStopSlide
		  length 8
		repeatStart
		  length 8
		  shifting 020h
		  ymStereo 080h
		  ymInst 14
		  ymVol 06h
		        note  D6
		        note  B5
		        note  D6
		        note  E6
		        note  D6
		        note  B5
		        note  D6
		  length 16
		        note  E6
		        note  C6
		        note  A5
		  length 8
		        note  C6
		        note  A5
		        note  C6
		        note  D6
		        note  C6
		        note  A5
		        note  C6
		repeatSection1Start
		  length 16
		        note  D6
		        note  B5
		        note  G5
		repeatEnd
		repeatSection2Start
		  length 8
		        note  D5
		        note  E5
		        note  F5
		        note  G5
		        note  Gs5
		        note  As5
		  ymStereo 0C0h
		  shifting 00h
		  ymInst 26
		  ymVol 0Ah
		        noteL C4,96
		        noteL C4,32
		        note  C4
		        note  D4
		        note  C4
		        note  B3
		  ymVol 0Bh
		        noteL F3,6
		  ymVol 07h
		        note  F3
		  ymVol 05h
		        note  F3
		  ymVol 03h
		        note  F3
		  length 32
		  ymVol 0Bh
		        noteL D4,24
		        noteL D4,8
		  ymVol 07h
		        note  D4
		  ymVol 0Bh
		        note  D4
		  ymVol 07h
		        note  D4
		  ymVol 05h
		        note  D4
		  ymVol 03h
		        note  D4
		countedLoopStart 2
		  length 16
		  ymVol 0Ah
		        noteL E4,6
		  ymVol 07h
		        note  E4
		  ymVol 03h
		        noteL E4,12
		  ymVol 0Ah
		        noteL E4,6
		  ymVol 07h
		        note  E4
		  ymVol 03h
		        noteL E4,12
		  ymVol 0Ah
		  ymSustain
		        noteL D4,22
		  release 01h
		  ymSlide 08h
		        noteL C4,42
		  ymStopSlide
		countedLoopEnd
		  length 128
		  length 96
		  ymStereo 080h
		  ymInst 17
		  ymVol 0Ch
		        noteL G6,32
		        noteL E6,96
		        noteL G6,32
		        noteL F6,96
		        noteL A6,32
		        noteL F6,96
		        noteL F6,8
		        note  G6
		        noteL A6,16
		        noteL G6,96
		        noteL G6,32
		        noteL E6,96
		        noteL G6,32
		        noteL F6,96
		        noteL A6,32
		        noteL F6,64
		        noteL A6,16
		        note  G6
		        note  F6
		        note  D6
		  length 24
		  shifting 020h
		  ymStereo 040h
		  ymInst 26
		  ymVol 0Ah
		        noteL D4,16
		        note  C4
		        note  B3
		        noteL A3,24
		        noteL Gs3,23
		        noteL A3,17
		        noteL C4,64
		        note  B3
		  ymVol 06h
		        noteL B3,8
		  ymVol 04h
		        note  B3
		  ymVol 0Ah
		        noteL F3,16
		        note  Fs3
		        noteL G3,32
		        noteL Gs3,16
		        note  B3
		        noteL A3,28
		  ymVol 06h
		        noteL A3,4
		  ymVol 0Ah
		        noteL G4,16
		        note  F4
		        note  G4
		        noteL F4,64
		        noteL C4,88
		  ymStereo 0C0h
		  shifting 00h
		        noteL A4,32
		        note  A4
		        note  G4
		        note  F4
		        note  E4
		  ymVol 0Bh
		        noteL E5,6
		  ymVol 07h
		        note  E5
		  ymVol 05h
		        note  E5
		  ymVol 03h
		        note  E5
		  length 32
		  ymVol 0Bh
		        noteL D5,24
		        noteL D5,8
		  ymVol 07h
		        note  D5
		  ymVol 0Bh
		        note  D5
		  ymVol 07h
		        note  D5
		  ymVol 05h
		        note  D5
		  ymVol 03h
		        note  D5
		  ymStereo 080h
		  ymInst 39
		  ymVol 0Bh
		        note  Ds5
		        note  G5
		        note  Ds5
		        note  C5
		        note  Gs4
		        note  G4
		        note  Ds4
		        note  C4
		        noteL F5,7
		        noteL G5,6
		        noteL F5,5
		        noteL Cs5,4
		        noteL C5,5
		        note  Gs4
		        noteL F4,8
		        note  Cs4
		        note  C4
		        note  Cs4
		        note  E5
		        note  G5
		        note  E5
		        note  D5
		        note  C5
		        note  B4
		        note  G4
		        note  E4
		        noteL E5,7
		        noteL G5,6
		        noteL E5,5
		        noteL D5,4
		        noteL C5,5
		        note  A4
		        noteL G4,8
		        note  E4
		        note  D4
		        note  E4
		        note  F5
		        note  Gs5
		        note  F5
		        note  Cs5
		        note  C5
		        note  Gs4
		        note  F4
		        note  Cs4
		        noteL F5,7
		        noteL As5,6
		        noteL F5,5
		        noteL Ds5,4
		        noteL D5,5
		        note  As4
		        noteL F4,8
		        note  D4
		        note  As3
		        note  D4
		        note  G5
		        note  As5
		        note  G5
		        note  F5
		        note  Ds5
		        note  As4
		        note  G4
		        note  Ds4
		        note  G5
		        note  B5
		        noteL G5,7
		        noteL E5,5
		        note  D5
		        note  B4
		        note  G5
		        note  E5
		        noteL D5,4
		        note  B4
		        note  G4
		        noteL E4,12
		        noteL Cs4,7
		        noteL D4,6
		        note  F4
		        noteL A4,5
		        noteL C5,20
		  ymVol 06h
		        note  C5
		  ymVol 0Bh
		        noteL Ds4,7
		        noteL E4,6
		        note  G4
		        noteL B4,5
		        noteL D5,20
		  ymVol 06h
		        note  D5
		  ymVol 0Bh
		        noteL E4,7
		        noteL F4,6
		        note  A4
		        noteL C5,5
		        noteL E5,20
		  ymVol 06h
		        note  E5
		  ymVol 0Bh
		        noteL G4,7
		        noteL Gs4,6
		        noteL C5,5
		        noteL F5,6
		        noteL G5,16
		        note  Gs5
		  length 128
		  ymStereo 0C0h
		  ymInst 27
		  ymVol 0Bh
		  length 16
		        noteL Ds4,8
		  ymVol 06h
		        note  Ds4
		  ymVol 0Bh
		        note  B3
		  ymVol 06h
		        note  B3
		  ymVol 0Bh
		        note  Gs3
		  ymVol 06h
		        note  Gs3
		  ymVol 0Bh
		        noteL As3,24
		        note  Ds4
		        noteL B3,8
		  ymVol 06h
		        note  B3
		  length 128
		  length 16
		  ymVol 0Bh
		        noteL Cs4,8
		  ymVol 06h
		        note  Cs4
		  ymVol 0Bh
		        note  A3
		  ymVol 06h
		        note  A3
		  ymVol 0Bh
		        note  Fs3
		  ymVol 06h
		        note  Fs3
		  ymVol 0Bh
		        noteL Gs3,24
		        note  Cs4
		        noteL A3,8
		  ymVol 06h
		        note  A3
		  ymStereo 080h
		  length 32
		  ymInst 39
		  ymVol 0Bh
		        noteL A5,64
		  ymStereo 040h
		        noteL E5,32
		  ymInst 38
		  ymVol 0Bh
		        noteL C4,64
		        noteL D4,32
		        note  B3
		mainLoopEnd
Music_8_Channel_3:
		mainLoopStart
		  ymStereo 0C0h
		  ymInst 38
		  ymVol 0Bh
		  release 01h
		  vibrato 02Ch
		        noteL F4,64
		        note  G4
		        note  Gs4
		        note  A4
		  ymInst 26
		countedLoopStart 1
		  length 16
		  ymVol 0Ah
		        noteL C4,6
		  ymVol 07h
		        note  C4
		  ymVol 03h
		        noteL C4,12
		  ymVol 0Ah
		        noteL C4,6
		  ymVol 07h
		        note  C4
		  ymVol 03h
		        noteL C4,12
		  ymVol 0Ah
		        noteL B3,24
		        noteL B3,40
		countedLoopEnd
		countedLoopStart 1
		  length 16
		        noteL D4,6
		  ymVol 07h
		        note  D4
		  ymVol 03h
		        noteL D4,12
		  ymVol 0Ah
		        noteL C4,6
		  ymVol 07h
		        note  C4
		  ymVol 03h
		        noteL C4,12
		  ymVol 0Ah
		  ymSustain
		        noteL D4,22
		  release 01h
		  ymSlide 08h
		        noteL C4,42
		  ymStopSlide
		countedLoopEnd
		countedLoopStart 1
		  length 16
		        noteL C4,6
		  ymVol 07h
		        note  C4
		  ymVol 03h
		        noteL C4,12
		  ymVol 0Ah
		        noteL C4,6
		  ymVol 07h
		        note  C4
		  ymVol 03h
		        noteL C4,12
		  ymVol 0Ah
		        noteL B3,24
		        noteL B3,40
		countedLoopEnd
		  length 16
		        noteL D4,6
		  ymVol 07h
		        note  D4
		  ymVol 03h
		        noteL D4,12
		  ymVol 0Ah
		        noteL C4,6
		  ymVol 07h
		        note  C4
		  ymVol 03h
		        noteL C4,12
		  ymVol 0Ah
		  ymSustain
		        noteL D4,22
		  release 01h
		  ymSlide 08h
		        noteL C4,42
		  ymStopSlide
		  length 16
		        noteL D4,6
		  ymVol 07h
		        note  D4
		  ymVol 03h
		        noteL D4,12
		  ymVol 0Ah
		        noteL C4,6
		  ymVol 07h
		        note  C4
		  ymVol 03h
		        noteL C4,12
		  ymVol 0Ah
		        noteL A3,32
		        note  A3
		  length 16
		  ymVol 0Bh
		        note  D4
		        note  C4
		        note  B3
		        noteL A3,24
		        noteL Gs3,23
		        noteL A3,17
		        noteL C4,64
		        note  B3
		  ymVol 07h
		        noteL B3,8
		  ymVol 05h
		        note  B3
		  ymVol 0Bh
		        noteL F3,16
		        note  Fs3
		        noteL G3,32
		        noteL Gs3,16
		        note  B3
		        noteL A3,28
		  ymVol 07h
		        noteL A3,4
		  ymVol 0Bh
		        noteL G4,16
		        note  F4
		        note  G4
		        noteL A4,32
		        note  Gs4
		        noteL A4,96
		        noteL A4,32
		  ymVol 0Ah
		        note  A4
		        note  G4
		        note  F4
		        note  E4
		  ymVol 0Ch
		        noteL E5,6
		  ymVol 08h
		        note  E5
		  ymVol 06h
		        note  E5
		  ymVol 04h
		        note  E5
		  length 32
		  ymVol 0Bh
		        noteL C4,24
		        noteL C4,8
		  ymVol 07h
		        note  C4
		  ymVol 0Bh
		        note  G3
		  ymVol 07h
		        note  G3
		  ymVol 05h
		        note  G3
		  ymVol 03h
		        note  G3
		countedLoopStart 2
		  length 16
		  ymVol 0Ah
		        noteL C4,6
		  ymVol 07h
		        note  C4
		  ymVol 03h
		        noteL C4,12
		  ymVol 0Ah
		        noteL C4,6
		  ymVol 07h
		        note  C4
		  ymVol 03h
		        noteL C4,12
		  ymVol 0Ah
		        noteL B3,24
		        noteL B3,40
		countedLoopEnd
		  length 64
		  length 16
		  ymVol 0Bh
		        noteL Fs4,8
		        note  G4
		        note  B4
		        note  D5
		        noteL Fs5,16
		repeatStart
		  ymVol 0Bh
		        noteL G5,8
		        note  A5
		        note  G5
		  ymVol 07h
		        note  G5
		  ymVol 0Bh
		        note  Fs5
		        noteL G5,12
		  ymVol 07h
		        noteL G5,6
		  ymVol 05h
		        note  G5
		  ymVol 0Bh
		        noteL B5,16
		        noteL Fs5,8
		        noteL G5,40
		  ymVol 07h
		        noteL G5,8
		  ymVol 0Bh
		        note  G5
		        note  A5
		        note  G5
		        note  Fs5
		        note  G5
		  ymVol 07h
		        note  G5
		  ymVol 0Bh
		        noteL B5,24
		        noteL Fs5,8
		        noteL G5,16
		repeatSection1Start
		        noteL A5,8
		        note  G5
		        note  E5
		        note  F5
		  ymVol 07h
		        note  F5
		  ymVol 0Bh
		        note  F5
		  ymVol 07h
		        note  F5
		  ymVol 0Bh
		        noteL F5,16
		        noteL A4,8
		        noteL A4,72
		  ymVol 07h
		        noteL A4,8
		  ymVol 05h
		        note  A4
		  ymVol 0Bh
		        noteL F5,32
		        noteL F5,8
		  ymVol 07h
		        note  F5
		  ymVol 0Bh
		        noteL A5,16
		        noteL G5,8
		        note  F5
		  ymVol 07h
		        note  F5
		  ymVol 0Bh
		        noteL E5,16
		  ymVol 07h
		        noteL E5,8
		repeatEnd
		repeatSection2Start
		        noteL G5,8
		        note  A5
		        note  B5
		        note  A5
		  ymVol 07h
		        note  A5
		  ymVol 0Bh
		        note  A5
		  ymVol 07h
		        note  A5
		  ymVol 0Bh
		        note  B5
		        note  C6
		  ymVol 07h
		        note  C6
		  ymVol 0Bh
		        noteL F5,72
		  ymVol 07h
		        noteL F5,8
		  ymVol 05h
		        note  F5
		  ymVol 0Bh
		        noteL D4,32
		        noteL E4,8
		  ymVol 07h
		        note  E4
		  ymVol 0Bh
		        note  F4
		  ymVol 07h
		        note  F4
		  ymVol 0Bh
		        note  G4
		  ymVol 07h
		        note  G4
		  ymVol 0Bh
		        note  A4
		        noteL B4,24
		  ymVol 07h
		        noteL B4,8
		  ymVol 05h
		        note  B4
		  ymVol 0Bh
		        noteL D4,16
		        note  C4
		        note  B3
		        noteL A3,24
		        noteL Gs3,23
		        noteL A3,17
		        noteL C4,64
		        note  B3
		  ymVol 07h
		        noteL B3,8
		  ymVol 05h
		        note  B3
		  ymVol 0Bh
		        noteL F3,16
		        note  Fs3
		        noteL G3,32
		        noteL Gs3,16
		        note  B3
		        noteL A3,28
		  ymVol 07h
		        noteL A3,4
		  ymVol 0Bh
		        noteL G4,16
		        note  F4
		        note  G4
		        noteL F4,64
		  ymVol 0Ah
		        noteL C4,96
		        noteL C4,32
		        note  C4
		        note  D4
		        note  C4
		        note  B3
		  ymVol 0Bh
		        noteL A3,6
		  ymVol 07h
		        note  A3
		  ymVol 05h
		        note  A3
		  ymVol 03h
		        note  A3
		  length 32
		  ymVol 0Bh
		        noteL C5,24
		        noteL C5,8
		  ymVol 07h
		        note  C5
		  ymVol 0Bh
		        note  G4
		  ymVol 07h
		        note  G4
		  ymVol 05h
		        note  G4
		  ymVol 03h
		        note  G4
		        silence
		  shifting 020h
		  ymStereo 040h
		  ymInst 39
		  ymVol 09h
		        note  Ds5
		        note  G5
		        note  Ds5
		        note  C5
		        note  Gs4
		        note  G4
		        note  Ds4
		        note  C4
		        noteL F5,7
		        noteL G5,6
		        noteL F5,5
		        noteL Cs5,4
		        noteL C5,5
		        note  Gs4
		        noteL F4,8
		        note  Cs4
		        note  C4
		        note  Cs4
		        note  E5
		        note  G5
		        note  E5
		        note  D5
		        note  C5
		        note  B4
		        note  G4
		        note  E4
		        noteL E5,7
		        noteL G5,6
		        noteL E5,5
		        noteL D5,4
		        noteL C5,5
		        note  A4
		        noteL G4,8
		        note  E4
		        note  D4
		        note  E4
		        note  F5
		        note  Gs5
		        note  F5
		        note  Cs5
		        note  C5
		        note  Gs4
		        note  F4
		        note  Cs4
		        noteL F5,7
		        noteL As5,6
		        noteL F5,5
		        noteL Ds5,4
		        noteL D5,5
		        note  As4
		        noteL F4,8
		        note  D4
		        note  As3
		        note  D4
		        note  G5
		        note  As5
		        note  G5
		        note  F5
		        note  Ds5
		        note  As4
		        note  G4
		        note  Ds4
		        note  G5
		        noteL B5,7
		        note  G5
		        noteL E5,6
		        noteL D5,5
		        note  B4
		        note  G5
		        note  E5
		        noteL D5,4
		        note  B4
		        note  G4
		        noteL E4,12
		        noteL Cs4,7
		        note  D4
		        noteL F4,5
		        note  A4
		        noteL C5,20
		  ymVol 04h
		        note  C5
		  ymVol 09h
		        noteL Ds4,7
		        note  E4
		        noteL G4,5
		        note  B4
		        noteL D5,20
		  ymVol 04h
		        note  D5
		  ymVol 09h
		        noteL E4,7
		        note  F4
		        noteL A4,5
		        note  C5
		        noteL E5,20
		  ymVol 04h
		        note  E5
		  ymVol 09h
		        noteL G4,7
		        note  Gs4
		        noteL C5,5
		        note  F5
		        noteL G5,16
		        note  Gs5
		  length 128
		  length 16
		  ymInst 27
		  ymVol 09h
		        noteL Ds4,8
		  ymVol 04h
		        note  Ds4
		  ymVol 09h
		        note  B3
		  ymVol 04h
		        note  B3
		  ymVol 09h
		        note  Gs3
		  ymVol 04h
		        note  Gs3
		  ymVol 09h
		        noteL As3,24
		        note  Ds4
		        noteL B3,8
		  ymVol 04h
		        note  B3
		  length 128
		  length 16
		  ymVol 09h
		        noteL Cs4,8
		  ymVol 04h
		        note  Cs4
		  ymVol 09h
		        note  A3
		  release 04h
		        note  A3
		  ymVol 09h
		        note  Fs3
		  ymVol 04h
		        note  Fs3
		  ymVol 09h
		        noteL Gs3,24
		        note  Cs4
		        noteL A3,8
		  shifting 00h
		  ymInst 39
		  ymVol 0Bh
		  ymStereo 0C0h
		        noteL F3,32
		  ymStereo 080h
		        note  B4
		  ymStereo 0C0h
		        note  G3
		  ymStereo 040h
		        note  C5
		  length 16
		  ymStereo 0C0h
		  ymInst 26
		  ymVol 0Bh
		        noteL G4,8
		  ymVol 07h
		        note  G4
		  ymVol 0Bh
		        note  A4
		  ymVol 07h
		        note  A4
		  ymVol 0Bh
		        note  B4
		  ymVol 07h
		        note  B4
		  ymVol 0Bh
		        note  C5
		  ymVol 07h
		        note  C5
		  ymVol 0Bh
		        note  D5
		  ymVol 07h
		        note  D5
		  ymVol 0Bh
		        note  E5
		  ymVol 07h
		        note  E5
		  ymVol 0Bh
		        note  F5
		  ymVol 07h
		        note  F5
		mainLoopEnd
Music_8_Channel_4:
		  ymInst 26
		  shifting 020h
		  release 01h
		  vibrato 02Ch
		  length 8
		mainLoopStart
		  ymStereo 080h
		  length 16
		  ymVol 0Ah
		        note  C6
		        note  A5
		        note  F5
		        note  E5
		        note  F5
		        note  Fs5
		        note  G5
		        note  F5
		        note  Ds5
		        note  Gs4
		        noteL As4,8
		        noteL C5,56
		        noteL D5,8
		  ymVol 06h
		        note  D5
		  ymStereo 040h
		countedLoopStart 1
		  length 16
		  ymVol 07h
		        noteL G4,6
		  ymVol 04h
		        note  G4
		  length 12
		  ymVol 07h
		        noteL Fs4,6
		  ymVol 04h
		        note  Fs4
		  length 12
		  ymVol 07h
		  ymSustain
		        noteL Fs4,22
		  release 01h
		  ymSlide 08h
		        noteL E4,42
		  ymStopSlide
		countedLoopEnd
		countedLoopStart 1
		  length 16
		        noteL G4,6
		  ymVol 04h
		        note  G4
		  length 12
		  ymVol 07h
		        noteL G4,6
		  ymVol 04h
		        note  G4
		  length 12
		  ymVol 07h
		  ymSustain
		        noteL G4,22
		  release 01h
		  ymSlide 08h
		        noteL A4,42
		  ymStopSlide
		countedLoopEnd
		countedLoopStart 1
		  length 16
		        noteL G4,6
		  ymVol 04h
		        note  G4
		  length 12
		  ymVol 07h
		        noteL Fs4,6
		  ymVol 04h
		        note  Fs4
		  length 12
		  ymVol 07h
		  ymSustain
		        noteL Fs4,22
		  release 01h
		  ymSlide 08h
		        noteL E4,42
		  ymStopSlide
		countedLoopEnd
		  length 16
		        noteL G4,6
		  ymVol 04h
		        note  G4
		  length 12
		  ymVol 07h
		        noteL G4,6
		  ymVol 04h
		        note  G4
		  length 12
		  ymVol 07h
		  ymSustain
		        noteL G4,22
		  release 01h
		  ymSlide 08h
		        noteL A4,42
		  ymStopSlide
		  length 16
		        noteL G4,6
		  ymVol 04h
		        note  G4
		  length 12
		  ymVol 07h
		        noteL G4,6
		  ymVol 04h
		        note  G4
		  length 12
		  ymVol 07h
		  ymSustain
		        noteL F4,30
		  release 01h
		  ymSlide 08h
		        noteL G4,34
		  ymStopSlide
		  length 16
		  ymVol 0Ah
		        note  D4
		        note  C4
		        note  B3
		        noteL A3,24
		        noteL Gs3,23
		        noteL A3,17
		        noteL C4,64
		        note  B3
		  ymVol 06h
		        noteL B3,8
		  ymVol 04h
		        note  B3
		  ymVol 0Ah
		        noteL F3,16
		        note  Fs3
		        noteL G3,32
		        noteL Gs3,16
		        note  B3
		        noteL A3,28
		  ymVol 06h
		        noteL A3,4
		  ymVol 0Ah
		        noteL G4,16
		        note  F4
		        note  G4
		        noteL A4,32
		        note  Gs4
		        noteL A4,96
		  ymVol 09h
		        noteL A4,32
		  ymVol 08h
		        note  A4
		        note  G4
		        note  F4
		        note  E4
		  ymStereo 080h
		  ymInst 26
		  ymVol 09h
		        noteL E5,6
		  ymVol 05h
		        note  E5
		  ymVol 03h
		        note  E5
		  length 38
		  ymVol 0Ah
		        noteL G4,24
		  ymVol 0Ah
		        noteL Fs4,8
		  ymVol 06h
		        note  Fs4
		  ymVol 0Ah
		        note  F4
		  ymVol 06h
		        note  F4
		  ymVol 04h
		        note  F4
		  ymVol 02h
		        note  F4
		  ymStereo 040h
		countedLoopStart 2
		  length 16
		  ymVol 07h
		        noteL G4,6
		  ymVol 04h
		        note  G4
		  length 12
		  ymVol 07h
		        noteL Fs4,6
		  ymVol 04h
		        note  Fs4
		  length 12
		  ymVol 07h
		  ymSustain
		        noteL Fs4,22
		  release 01h
		  ymSlide 08h
		        noteL E4,42
		  ymStopSlide
		countedLoopEnd
		  length 8
		  ymVol 09h
		        note  B3
		        note  C4
		        note  E4
		        note  Fs4
		        note  G4
		        note  B4
		        note  C5
		        note  E5
		        note  D5
		        note  A4
		        note  B4
		        note  D5
		        note  Fs5
		        note  A5
		        note  As5
		repeatStart
		  ymVol 09h
		        noteL B5,8
		        note  C6
		        note  B5
		  ymVol 05h
		        note  B5
		  ymVol 09h
		        note  As5
		        noteL B5,12
		  ymVol 05h
		        noteL B5,6
		  ymVol 03h
		        note  B5
		  ymVol 09h
		        noteL D6,16
		        noteL A5,8
		        noteL B5,40
		  ymVol 05h
		        noteL B5,8
		  ymVol 09h
		        note  B5
		        note  C6
		        note  B5
		        note  As5
		        note  B5
		  ymVol 05h
		        note  B5
		  ymVol 09h
		  ymSustain
		        noteL D6,1
		  release 01h
		  ymSlide 06h
		        noteL E6,23
		  ymStopSlide
		        noteL A5,8
		        noteL B5,16
		repeatSection1Start
		        noteL C6,8
		        note  B5
		        note  G5
		        note  A5
		  ymVol 05h
		        note  A5
		  ymVol 09h
		        note  A5
		  ymVol 05h
		        note  A5
		  ymVol 09h
		        noteL A5,16
		        noteL C5,8
		        noteL D5,72
		  ymVol 03h
		        noteL D5,8
		  ymVol 01h
		        note  D5
		  ymVol 09h
		  ymSustain
		        noteL G5,1
		  release 01h
		  ymSlide 0Dh
		        noteL A5,31
		  ymStopSlide
		        noteL G5,8
		  ymVol 05h
		        note  G5
		  ymVol 09h
		        noteL C6,16
		        noteL B5,8
		        note  A5
		  ymVol 05h
		        note  A5
		  ymVol 09h
		        noteL G5,16
		  ymVol 05h
		        noteL G5,8
		repeatEnd
		repeatSection2Start
		        noteL B5,8
		        note  C6
		        note  D6
		        note  C6
		  ymVol 05h
		        note  C6
		  ymVol 09h
		        note  C6
		  ymVol 05h
		        note  C6
		  ymVol 09h
		        note  D6
		        note  E6
		  ymVol 05h
		        note  E6
		  ymVol 09h
		        noteL A5,72
		  ymVol 03h
		        noteL A5,8
		  ymVol 01h
		        note  A5
		  ymVol 09h
		        noteL F4,32
		        noteL G4,8
		  ymVol 05h
		        note  G4
		  ymVol 09h
		        note  A4
		  ymVol 05h
		        note  A4
		  ymVol 09h
		        note  B4
		  ymVol 05h
		        note  B4
		  ymVol 09h
		        note  C5
		        noteL D5,32
		  ymStereo 080h
		  ymVol 08h
		        noteL E5,80
		        noteL D6,16
		        note  C6
		        note  B5
		        noteL A5,48
		        noteL G5,16
		        noteL F5,32
		        note  A5
		        noteL G5,80
		        noteL F6,16
		        note  E6
		        note  D6
		        noteL C6,64
		        noteL A5,32
		        note  Gs5
		  ymSustain
		        noteL A5,128
		  release 01h
		  vibrato 020h
		        noteL A5,112
		  vibrato 02Ch
		        noteL B5,8
		  ymVol 09h
		        noteL C6,6
		  ymVol 05h
		        note  C6
		  ymVol 03h
		        note  C6
		  length 38
		  ymStereo 040h
		  ymVol 09h
		        noteL G5,24
		  ymVol 09h
		        noteL Fs5,8
		  ymVol 05h
		        note  Fs5
		  ymVol 09h
		        note  F5
		  ymVol 05h
		        note  F5
		  ymVol 03h
		        note  F5
		  length 24
		  ymInst 27
		  ymVol 07h
		        noteL C4,16
		        note  Ds4
		        note  G4
		        noteL F4,24
		        note  Ds4
		        noteL F4,16
		        noteL G4,32
		        noteL E4,8
		  ymVol 02h
		        note  E4
		  ymVol 07h
		        noteL G4,80
		  ymVol 02h
		        noteL G4,8
		  ymVol 01h
		        note  G4
		  ymVol 07h
		        noteL Gs3,16
		        note  C4
		        note  Ds4
		        noteL F4,24
		        note  As4
		        noteL Gs4,16
		        noteL G4,128
		  ymVol 02h
		        noteL G4,8
		  ymVol 01h
		        note  G4
		  ymStereo 080h
		  ymInst 16
		  ymVol 0Bh
		        noteL F5,16
		        note  A5
		        note  C6
		        noteL B5,24
		        note  As5
		        noteL B5,16
		        noteL D6,24
		        note  C6
		        noteL G6,16
		        noteL F6,32
		        note  Ds6
		  ymStereo 0C0h
		  ymInst 7
		  ymVol 08h
		        noteL Gs5,40
		  ymVol 04h
		        noteL Gs5,8
		  ymVol 08h
		  ymSustain
		        noteL Gs5,5
		        note  G5
		  release 01h
		        noteL Fs5,6
		        noteL F5,16
		        noteL Fs5,32
		        noteL G5,16
		        noteL Gs5,112
		  ymVol 04h
		        noteL Gs5,8
		  ymVol 01h
		        note  Gs5
		  ymStereo 040h
		  ymInst 9
		  ymVol 0Ah
		        noteL Fs5,40
		  ymVol 05h
		        noteL Fs5,8
		  ymVol 09h
		  ymSustain
		        noteL Fs5,5
		        note  F5
		  release 01h
		        noteL E5,6
		        noteL Ds5,16
		        noteL E5,32
		        noteL F5,16
		        noteL Fs5,112
		  ymVol 05h
		        noteL Fs5,8
		  ymVol 02h
		        note  Fs5
		  ymStereo 080h
		  ymInst 26
		  ymVol 0Ah
		        noteL A4,26
		        noteL B4,6
		        note  E5
		  ymVol 06h
		        note  E5
		  ymVol 04h
		        note  E5
		  ymVol 02h
		        note  E5
		  length 8
		  ymVol 0Ah
		        noteL B4,26
		        noteL C5,6
		        noteL G5,32
		  ymVol 06h
		        noteL G5,8
		  ymVol 04h
		        note  G5
		  ymVol 0Ah
		        note  E5
		  ymVol 06h
		        note  E5
		  ymVol 0Ah
		        note  F5
		  ymVol 06h
		        note  F5
		  ymVol 0Ah
		        note  G5
		  ymVol 06h
		        note  G5
		  ymVol 0Ah
		        note  A5
		  ymVol 06h
		        note  A5
		  ymVol 0Ah
		        note  B5
		  ymVol 06h
		        note  B5
		  ymVol 0Ah
		        note  C6
		  ymVol 06h
		        note  C6
		  ymVol 0Ah
		        note  D6
		  ymVol 06h
		        note  D6
		mainLoopEnd
Music_8_Channel_5:
		  release 01h
		  vibrato 02Ch
		mainLoopStart
		  ymStereo 040h
		  ymInst 38
		  ymVol 0Ah
		        noteL A3,64
		        note  B3
		        note  C4
		        noteL C4,32
		        note  B3
		  ymStereo 0C0h
		  ymInst 57
		  ymVol 0Bh
		countedLoopStart 6
		  length 16
		        note  G3
		countedLoopEnd
		  length 8
		        note  G3
		  length 16
		countedLoopStart 7
		  length 16
		        note  A3
		countedLoopEnd
		countedLoopStart 6
		  length 16
		        note  G3
		countedLoopEnd
		  length 8
		        note  G3
		  length 16
		countedLoopStart 4
		  length 16
		        note  A3
		countedLoopEnd
		  length 16
		        note  G3
		        silence
		        note  F3
		        noteL G3,32
		  length 128
		        silence
		        silence
		        silence
		        silence
		        silence
		        silence
		countedLoopStart 6
		  length 16
		        note  G3
		countedLoopEnd
		  length 8
		        note  G3
		  length 16
		countedLoopStart 5
		  length 16
		        note  G3
		countedLoopEnd
		  length 64
		countedLoopStart 6
		  length 16
		        note  G3
		countedLoopEnd
		  length 8
		        note  G3
		  length 16
		countedLoopStart 7
		  length 16
		        note  A3
		countedLoopEnd
		countedLoopStart 6
		  length 16
		        note  G3
		countedLoopEnd
		  length 8
		        note  G3
		  length 16
		countedLoopStart 4
		  length 16
		        note  A3
		countedLoopEnd
		  length 16
		        note  G3
		        silence
		        note  F3
		  length 32
		  length 128
		        silence
		        silence
		        silence
		        silence
		        silence
		        silence
		        silence
		        silence
		        silence
		        silence
		        silence
		        silence
		        silence
		        silence
		        silence
		        silence
		        silence
		  ymStereo 040h
		  ymInst 38
		  ymVol 0Ah
		        noteL A3,64
		        note  G3
		mainLoopEnd
Music_8_Channel_6:
		mainLoopStart
		  psgInst 123
		  release 01h
		  vibrato 04Ch
		        psgNoteL A4,64
		        psgNote  B4
		        psgNote  C5
		        psgNote  D5
		repeatStart
		  psgInst 126
		        psgNoteL Gs5,8
		        psgNote  A5
		        psgNote  Gs5
		        silence
		        psgNote  G5
		        psgNoteL Gs5,12
		        silence
		        psgNoteL B5,16
		        psgNoteL Fs5,8
		        psgNoteL Gs5,40
		  length 8
		        psgNote  Gs5
		        psgNote  A5
		        psgNote  Gs5
		        psgNote  G5
		        psgNote  Gs5
		        silence
		        psgNoteL Cs6,24
		        psgNoteL Fs5,8
		repeatSection1Start
		        psgNoteL Gs5,16
		        psgNoteL A5,8
		        psgNote  Gs5
		        psgNote  E5
		        psgNote  Fs5
		        silence
		        psgNote  Fs5
		        silence
		        psgNoteL Fs5,16
		        psgNoteL A4,8
		        psgNoteL B4,56
		        psgNoteL C5,2
		        psgNoteL Cs5,6
		        psgNoteL B4,8
		  length 16
		        psgNoteL Fs5,32
		        psgNoteL E5,8
		        silence
		        psgNoteL A5,16
		        psgNoteL Gs5,8
		        psgNote  Fs5
		        silence
		        psgNoteL E5,16
		  length 8
		repeatEnd
		repeatSection2Start
		        psgNoteL Gs5,12
		  length 4
		        psgNoteL Gs5,8
		        psgNote  A5
		        psgNote  B5
		        psgNote  A5
		        silence
		        psgNote  A5
		        silence
		        psgNote  B5
		        psgNote  Cs6
		        silence
		        psgNoteL Fs5,72
		repeatStart
		  length 16
		  psgInst 126
		        psgNoteL B4,32
		        psgNoteL Cs5,8
		        silence
		        psgNote  D5
		        silence
		        psgNote  E5
		        silence
		        psgNote  Fs5
		        psgNoteL Gs5,24
		        psgNoteL E5,32
		        psgNoteL B5,24
		        psgNoteL A5,40
		        psgNoteL Cs5,16
		        psgNote  D5
		        psgNote  E5
		        psgNote  D5
		        psgNote  Cs5
		        psgNoteL D5,8
		        psgNoteL Fs5,20
		  length 4
		        psgNoteL Gs4,16
		        psgNote  A4
		        psgNote  B4
		        psgNoteL Cs5,32
		        psgNoteL B5,24
		        psgNoteL A5,37
		  length 3
		        psgNoteL A5,16
		        psgNote  B5
		        psgNote  Cs6
		        psgNote  B5
		        psgNote  Cs6
		        psgNoteL D6,8
		        psgNoteL A5,40
		        psgNoteL B5,32
		        psgNoteL Cs6,8
		        psgNote  D6
		        psgNote  Cs6
		        silence
		        psgNote  C6
		        psgNote  Cs6
		        silence
		        psgNoteL D6,24
		        psgNoteL Cs6,8
		        psgNote  C6
		        silence
		        psgNoteL Cs6,24
		  length 8
		        psgNote  Cs6
		        psgNote  D6
		        psgNote  Cs6
		        psgNote  C6
		        psgNote  Cs6
		        silence
		        psgNoteL Fs6,24
		        psgNoteL Cs6,8
		        psgNoteL B5,16
		        psgNoteL Cs6,8
		        psgNote  B5
		        psgNote  A5
		        psgNote  Fs5
		        psgNote  Gs5
		        psgNote  A5
		        silence
		        psgNote  Cs6
		        psgNoteL Fs5,28
		        silence
		        psgNoteL Gs5,32
		  release 080h
		        psgNoteL A5,128
		  vibrato 040h
		  release 01h
		        psgNote  A5
		  length 16
		  psgInst 125
		        silence
		  psgInst 124
		        silence
		  psgInst 123
		        silence
		  psgInst 122
		        silence
		  psgInst 121
		        silence
		  psgInst 120
		        silence
		  psgInst 119
		        silence
		  psgInst 0
		repeatSection1Start
		  length 128
		  vibrato 04Ch
		countedLoopStart 1
		  psgInst 0
		  length 16
		  psgInst 172
		        psgNoteL E5,5
		  length 19
		        psgNoteL Ds5,5
		  length 19
		        psgNoteL Ds5,24
		        psgNoteL Cs5,40
		countedLoopEnd
		countedLoopStart 1
		  psgInst 0
		  length 16
		  psgInst 172
		        psgNoteL E5,5
		  length 19
		        psgNoteL E5,5
		  length 19
		        psgNoteL E5,24
		        psgNoteL Fs5,40
		countedLoopEnd
		countedLoopStart 1
		  psgInst 0
		  length 16
		  psgInst 172
		        psgNoteL E5,5
		  length 19
		        psgNoteL Ds5,5
		  length 19
		        psgNoteL Ds5,24
		        psgNoteL Cs5,40
		countedLoopEnd
		  psgInst 0
		  length 16
		  psgInst 172
		        psgNoteL E5,5
		  length 19
		        psgNoteL E5,5
		  length 19
		        psgNoteL E5,24
		        psgNoteL Fs5,40
		repeatEnd
		repeatSection2Start
		  length 32
		  release 00h
		  vibrato 04Ch
		  psgInst 8
		        psgNoteL C6,8
		  psgInst 9
		        psgNote  C6
		  psgInst 10
		        psgNote  C6
		  psgInst 11
		        psgNote  C6
		  psgInst 123
		        psgNoteL B5,64
		        psgNote  A5
		        psgNote  Gs5
		        psgNote  Fs5
		        psgNote  E5
		  release 01h
		        psgNoteL C6,7
		  length 4
		        psgNoteL C6,7
		  length 4
		        psgNoteL C6,7
		  length 4
		        psgNoteL C6,55
		  length 8
		        psgNoteL C6,24
		  length 8
		        psgNoteL C6,120
		  length 8
		        psgNoteL As5,7
		  length 4
		        psgNoteL As5,7
		  length 4
		        psgNoteL As5,7
		  length 4
		        psgNoteL As5,55
		  length 8
		        psgNoteL As5,24
		  length 8
		        psgNoteL As5,64
		        psgNote  Gs5
		  psgInst 0
		  length 128
		  psgInst 123
		        psgNoteL A4,64
		        psgNoteL B4,32
		        psgNote  Gs4
		mainLoopEnd
Music_8_Channel_7:
		mainLoopStart
		  psgInst 123
		  release 01h
		  vibrato 04Ch
		        psgNoteL Fs4,64
		        psgNote  Gs4
		        psgNote  A4
		        psgNoteL A4,32
		        psgNote  Gs4
		  psgInst 0
		  length 8
		  shifting 010h
		repeatStart
		  psgInst 123
		        psgNoteL Gs5,8
		        psgNote  A5
		        psgNote  Gs5
		        silence
		        psgNote  G5
		        psgNoteL Gs5,12
		        silence
		        psgNoteL B5,16
		        psgNoteL Fs5,8
		        psgNoteL Gs5,40
		  length 8
		        psgNote  Gs5
		        psgNote  A5
		        psgNote  Gs5
		        psgNote  G5
		        psgNote  Gs5
		        silence
		        psgNoteL Cs6,24
		        psgNoteL Fs5,8
		repeatSection1Start
		        psgNoteL Gs5,16
		        psgNoteL A5,8
		        psgNote  Gs5
		        psgNote  E5
		        psgNote  Fs5
		        silence
		        psgNote  Fs5
		        silence
		        psgNoteL Fs5,16
		        psgNoteL A4,8
		        psgNoteL B4,56
		        psgNoteL C5,2
		        psgNoteL Cs5,6
		        psgNoteL B4,8
		  length 16
		        psgNoteL Fs5,32
		        psgNoteL E5,8
		        silence
		        psgNoteL A5,16
		        psgNoteL Gs5,8
		        psgNote  Fs5
		        silence
		        psgNoteL E5,16
		  length 8
		repeatEnd
		repeatSection2Start
		        psgNoteL Gs5,12
		  length 4
		        psgNoteL Gs5,8
		        psgNote  A5
		        psgNote  B5
		        psgNote  A5
		        silence
		        psgNote  A5
		        silence
		        psgNote  B5
		        psgNote  Cs6
		        silence
		        psgNoteL Fs5,72
		repeatStart
		  length 16
		  psgInst 123
		        psgNoteL B4,32
		        psgNoteL Cs5,8
		        silence
		        psgNote  D5
		        silence
		        psgNote  E5
		        silence
		        psgNote  Fs5
		        psgNoteL Gs5,24
		        psgNoteL E5,32
		        psgNoteL B5,24
		        psgNoteL A5,40
		        psgNoteL Cs5,16
		        psgNote  D5
		        psgNote  E5
		        psgNote  D5
		        psgNote  Cs5
		        psgNoteL D5,8
		        psgNoteL Fs5,20
		  length 4
		        psgNoteL Gs4,16
		        psgNote  A4
		        psgNote  B4
		        psgNoteL Cs5,32
		        psgNoteL B5,24
		        psgNoteL A5,37
		  length 3
		        psgNoteL A5,16
		        psgNote  B5
		        psgNote  Cs6
		        psgNote  B5
		        psgNote  Cs6
		        psgNoteL D6,8
		        psgNoteL A5,40
		        psgNoteL B5,32
		        psgNoteL Cs6,8
		        psgNote  D6
		        psgNote  Cs6
		        silence
		        psgNote  C6
		        psgNote  Cs6
		        silence
		        psgNoteL D6,24
		        psgNoteL Cs6,8
		        psgNote  C6
		        silence
		        psgNoteL Cs6,24
		  length 8
		        psgNote  Cs6
		        psgNote  D6
		        psgNote  Cs6
		        psgNote  C6
		        psgNote  Cs6
		        silence
		        psgNoteL Fs6,24
		        psgNoteL Cs6,8
		        psgNoteL B5,16
		        psgNoteL Cs6,8
		        psgNote  B5
		        psgNote  A5
		        psgNote  Fs5
		        psgNote  Gs5
		        psgNote  A5
		        silence
		        psgNote  Cs6
		        psgNoteL Fs5,28
		        silence
		        psgNoteL Gs5,32
		  release 080h
		        psgNoteL A5,128
		  release 01h
		  vibrato 040h
		        psgNote  A5
		  length 16
		  psgInst 122
		        silence
		  psgInst 121
		        silence
		  psgInst 120
		        silence
		  psgInst 119
		        silence
		  psgInst 118
		        silence
		  psgInst 117
		        silence
		  psgInst 116
		        silence
		  psgInst 0
		repeatSection1Start
		  length 120
		  vibrato 04Ch
		countedLoopStart 1
		  psgInst 0
		  length 16
		  psgInst 172
		        psgNoteL Cs5,5
		  length 19
		        psgNoteL Cs5,5
		  length 19
		        psgNoteL B4,24
		        psgNoteL A4,40
		countedLoopEnd
		countedLoopStart 1
		  psgInst 0
		  length 16
		  psgInst 172
		        psgNoteL Cs5,5
		  length 19
		        psgNoteL Cs5,5
		  length 19
		        psgNoteL Cs5,24
		        psgNoteL Cs5,40
		countedLoopEnd
		countedLoopStart 1
		  psgInst 0
		  length 16
		  psgInst 172
		        psgNoteL Cs5,5
		  length 19
		        psgNoteL Cs5,5
		  length 19
		        psgNoteL B4,24
		        psgNoteL A4,40
		countedLoopEnd
		  psgInst 0
		  length 16
		  psgInst 172
		        psgNoteL Cs5,5
		  length 19
		        psgNoteL Cs5,5
		  length 19
		        psgNoteL Cs5,24
		        psgNoteL Cs5,40
		  length 8
		repeatEnd
		repeatSection2Start
		  length 24
		  release 00h
		  vibrato 04Ch
		  psgInst 8
		        psgNoteL G5,8
		  psgInst 9
		        psgNote  G5
		  psgInst 10
		        psgNote  G5
		  psgInst 11
		        psgNote  G5
		  psgInst 123
		        psgNoteL Gs5,64
		        psgNote  Fs5
		        psgNote  E5
		        psgNote  D5
		        psgNote  A4
		  release 01h
		        psgNoteL Gs5,7
		  length 4
		        psgNoteL Gs5,7
		  length 4
		        psgNoteL Gs5,7
		  length 4
		        psgNoteL Gs5,55
		  length 8
		        psgNoteL Gs5,24
		  length 8
		        psgNoteL Gs5,120
		  length 8
		        psgNoteL Fs5,7
		  length 4
		        psgNoteL Fs5,7
		  length 4
		        psgNoteL Fs5,7
		  length 4
		        psgNoteL Fs5,55
		  length 8
		        psgNoteL Fs5,24
		  length 8
		        psgNoteL Fs5,128
		  psgInst 0
		        silence
		  psgInst 123
		        psgNoteL Fs4,64
		        psgNote  E4
		mainLoopEnd
Music_8_Channel_9:
		channel_end
