
; ASM FILE music37.asm :
; 0xAFFC..0xBA4B : Music 37
Music_37:       db 0
		db 1
		db 0
		db 0C6h
		dw Music_5_Channel_0
		dw Music_5_Channel_1
		dw Music_5_Channel_2
		dw Music_5_Channel_3
		dw Music_5_Channel_4
		dw Music_5_Channel_5
		dw Music_5_Channel_6
		dw Music_5_Channel_7
		dw Music_5_Channel_9
		dw Music_5_Channel_9
Music_5_Channel_0:
		  length 24
		  ymStereo 0C0h
		  ymInst 48
		  ymVol 0Ch
		  release 01h
		  vibrato 02Ch
		mainLoopStart
		repeatStart
		        noteL A3,48
		        note  E3
		        note  A3
		        note  E3
		        note  A3
		        note  G3
		        note  F3
		        noteL E3,24
		        note  A3
		        noteL D3,48
		        note  As2
		        note  D3
		        note  As2
		repeatSection1Start
		        noteL D3,48
		        note  As2
		        noteL E3,60
		        noteL E4,12
		        noteL E3,24
		repeatEnd
		repeatSection2Start
		        noteL D3,36
		        note  As2
		        noteL Fs3,24
		        noteL D3,12
		        note  E3
		        noteL E2,24
		        noteL A2,36
		  vibrato 0E6h
		  ymInst 50
		  ymVol 0Eh
		        note  B2
		  ymInst 48
		  ymVol 0Ch
		  vibrato 02Ch
		countedLoopStart 6
		        noteL E3,36
		        note  A3
		countedLoopEnd
		        noteL E3,27
		        noteL A3,18
		        noteL A3,9
		        noteL A2,18
		countedLoopStart 6
		        noteL D3,36
		        note  G3
		countedLoopEnd
		        noteL D3,27
		        noteL G3,18
		        noteL G3,9
		        note  D3
		        note  Ds3
		countedLoopStart 6
		        noteL E3,36
		        note  A3
		countedLoopEnd
		        noteL E3,27
		        note  E4
		        noteL A3,18
		        noteL G3,27
		        note  A3
		        note  B3
		        note  D4
		        noteL D4,18
		        noteL A3,9
		        noteL D4,27
		        noteL E4,18
		        noteL E3,9
		        noteL E3,18
		        noteL E3,9
		  length 135
		mainLoopEnd
Music_5_Channel_1:
		  ymStereo 0C0h
		  ymInst 9
		  ymVol 0Dh
		  release 01h
		  vibrato 02Ah
		        noteL Ds4,12
		        note  E4
		mainLoopStart
		        noteL G4,12
		  ymVol 09h
		        note  G4
		  ymVol 0Dh
		        note  Fs4
		        note  E4
		        note  C4
		  ymVol 09h
		        note  C4
		  ymVol 0Dh
		        noteL Cs4,16
		  ymSustain
		        noteL Ds4,4
		        note  E4
		  release 01h
		        noteL G4,12
		        note  Fs4
		        note  E4
		        note  C4
		        note  Cs4
		  ymVol 09h
		        note  Cs4
		  ymVol 0Dh
		        note  Ds4
		        note  E4
		        note  G4
		        note  Fs4
		        note  E4
		        note  C4
		        note  Cs4
		        note  E4
		        note  A4
		        noteL G4,84
		        noteL F4,12
		        note  Fs4
		        note  A4
		  ymVol 09h
		        note  A4
		  ymVol 0Dh
		        note  Gs4
		        note  Fs4
		        note  D4
		  ymVol 09h
		        note  D4
		  ymVol 0Dh
		        noteL F4,16
		  ymSustain
		        noteL Fs4,4
		        note  Gs4
		  release 01h
		        noteL A4,12
		        note  Gs4
		        note  Fs4
		        note  Cs4
		        note  D4
		  ymVol 09h
		        note  D4
		  ymVol 0Dh
		        note  F4
		        note  Fs4
		        note  A4
		        note  Gs4
		        note  Fs4
		        note  Cs4
		        note  D4
		        note  Cs4
		        note  D4
		        note  F4
		        note  E4
		        note  As3
		  ymVol 09h
		        note  As3
		  ymVol 0Dh
		        noteL As3,36
		  ymVol 09h
		        noteL As3,12
		  ymVol 07h
		        note  As3
		  length 24
		  ymVol 0Ch
		        noteL E4,48
		        noteL Ds4,24
		        noteL E4,12
		        note  Ds4
		        note  G4
		        noteL Fs4,60
		  ymVol 08h
		        noteL Fs4,24
		  ymVol 0Ch
		        note  Ds4
		        noteL E4,12
		        noteL G4,24
		        noteL C4,84
		        noteL Cs4,24
		  ymVol 08h
		        note  Cs4
		  ymVol 0Ch
		        noteL Fs4,48
		        noteL F4,24
		        noteL Fs4,12
		        note  F4
		        note  A4
		        noteL Gs4,60
		        noteL Fs4,12
		  ymVol 08h
		        noteL Fs4,24
		  ymVol 0Ch
		        noteL Gs4,36
		        noteL Fs4,12
		  ymVol 08h
		        note  Fs4
		  ymVol 0Ch
		        note  E4
		        noteL D4,36
		        noteL Cs4,12
		  ymVol 08h
		        note  Cs4
		  ymVol 06h
		        note  Cs4
		  length 36
		  ymInst 10
		  ymVol 0Eh
		        noteL B4,12
		  ymVol 08h
		        note  B4
		  ymVol 0Eh
		        note  B4
		  ymVol 08h
		        note  B4
		  ymVol 0Eh
		        note  B4
		  ymVol 08h
		        note  B4
		  ymVol 0Eh
		        note  B4
		  ymVol 08h
		        note  B4
		  ymVol 0Eh
		        noteL B4,21
		        noteL A4,9
		        note  Gs4
		        note  A4
		        noteL B4,5
		  ymVol 09h
		        noteL B4,4
		  ymVol 0Eh
		        noteL E5,18
		        noteL B4,5
		  ymVol 09h
		        noteL B4,4
		  ymVol 0Eh
		        noteL Fs5,18
		        noteL B4,5
		  ymVol 09h
		        noteL B4,4
		  ymVol 0Eh
		        noteL G5,18
		        noteL B4,9
		        note  Gs5
		        note  A5
		        note  Gs5
		        note  E5
		        note  B4
		        note  A4
		        noteL Gs4,24
		  ymSustain
		        noteL A4,4
		        note  As4
		        note  B4
		  release 01h
		        noteL Gs4,9
		        noteL E4,6
		  ymVol 08h
		        noteL E4,10
		  ymVol 0Eh
		  ymSustain
		        noteL Cs4,2
		  release 01h
		        noteL D4,61
		  ymSustain
		        noteL Ds4,2
		  release 01h
		        noteL E4,9
		        note  D4
		  ymVol 08h
		        note  D4
		  length 36
		  ymVol 0Eh
		        noteL Gs3,9
		        note  A3
		        note  As3
		        note  B3
		        note  Ds4
		        note  E4
		  ymSustain
		        noteL As4,2
		  release 01h
		        noteL B4,7
		        noteL Gs4,9
		        note  E4
		  ymVol 08h
		        note  E4
		  length 18
		  ymVol 0Eh
		        noteL B3,5
		  ymVol 09h
		        noteL B3,4
		  ymVol 0Eh
		        noteL D4,18
		        noteL Cs4,9
		        note  D4
		  ymSustain
		        noteL Ds4,2
		  release 01h
		        noteL E4,7
		        noteL D4,9
		        note  Cs5
		        note  B4
		        note  Gs4
		        noteL A4,18
		        noteL E4,9
		        note  D4
		        note  B3
		        note  A3
		        note  F3
		        note  E3
		        note  G3
		        note  B3
		        note  As3
		        note  D4
		        note  F4
		        note  E4
		        note  B3
		        noteL D4,7
		  ymSustain
		        noteL Gs4,2
		  release 01h
		        noteL A4,54
		        noteL G4,9
		  ymVol 08h
		        note  G4
		  ymVol 0Eh
		        note  G4
		  ymVol 08h
		        note  G4
		  ymVol 0Eh
		        note  G3
		  ymSustain
		        noteL As4,2
		  release 01h
		        noteL B4,7
		        noteL A4,9
		  ymVol 08h
		        note  A4
		  ymVol 0Eh
		        note  A4
		  ymVol 08h
		        note  A4
		  ymVol 0Eh
		        note  B3
		        noteL C5,81
		  ymSustain
		        noteL Cs5,2
		  release 01h
		        noteL D5,7
		        noteL C5,24
		        noteL B4,6
		        note  G4
		        note  F4
		        note  D4
		        note  A3
		  ymVol 08h
		        note  A3
		  ymVol 06h
		        note  A3
		  length 33
		  ymVol 0Eh
		  ymSustain
		        noteL C4,2
		        note  Cs4
		  release 01h
		        noteL D4,23
		        noteL D4,27
		        noteL D4,23
		  ymSustain
		        noteL C4,2
		        note  Cs4
		  release 01h
		        noteL D4,27
		        note  D4
		repeatStart
		  ymVol 0Eh
		  ymSustain
		        noteL C4,2
		        note  Cs4
		  release 01h
		        noteL D4,5
		        noteL Cs4,9
		        note  E4
		repeatSection1Start
		        noteL D4,9
		  ymVol 08h
		        note  D4
		repeatEnd
		repeatSection2Start
		        noteL D4,9
		  ymVol 08h
		        note  D4
		repeatEnd
		repeatSection3Start
		        noteL D4,18
		        note  D4
		        noteL Cs4,9
		        note  D4
		        note  Fs4
		        note  A4
		        noteL Gs4,12
		  ymVol 08h
		        noteL Gs4,6
		  ymVol 0Eh
		  ymSustain
		        noteL As4,2
		  release 01h
		        noteL B4,37
		  ymSustain
		        noteL Cs5,2
		        note  B4
		        note  A4
		  release 01h
		        noteL Gs4,18
		        noteL A4,9
		        note  Cs5
		  ymVol 08h
		        note  Cs5
		  ymVol 0Eh
		  length 15
		        noteL F3,6
		        note  Fs3
		        note  A3
		        note  Cs4
		        note  F4
		        note  E4
		        note  As3
		        note  B3
		        note  C4
		        note  Cs4
		        note  E4
		        note  Fs4
		        note  G4
		        note  Cs5
		  ymVol 08h
		        note  Cs5
		  ymVol 0Eh
		        note  B4
		  ymVol 08h
		        note  B4
		  ymVol 0Eh
		        note  Fs5
		  ymVol 08h
		        note  Fs5
		  ymVol 0Eh
		        note  E5
		  ymVol 08h
		        note  E5
		  ymVol 0Eh
		        noteL A4,15
		  ymSustain
		        noteL G4,2
		        note  F4
		  release 01h
		        note  D4
		  ymSustain
		        note  Ds4
		  release 01h
		        noteL E4,7
		        noteL C4,9
		  ymVol 08h
		        note  C4
		  ymVol 0Eh
		        note  B3
		        note  A3
		        noteL F3,24
		  ymSustain
		        noteL E3,4
		        note  Fs3
		  release 01h
		        note  B3
		        noteL D4,9
		        noteL C4,18
		        noteL E4,9
		  ymVol 08h
		        noteL E4,12
		  ymVol 0Eh
		  ymSustain
		        noteL B3,2
		        note  C4
		        note  Cs4
		  release 01h
		        noteL D4,18
		        noteL D4,9
		countedLoopStart 1
		  ymVol 0Eh
		        noteL Cs5,9
		  ymVol 08h
		        note  Cs5
		countedLoopEnd
		  ymVol 06h
		        noteL Cs5,9
		  length 18
		  ymInst 9
		  ymVol 0Eh
		        noteL Ds4,72
		        noteL E4,27
		mainLoopEnd
Music_5_Channel_2:
		  ymStereo 0C0h
		  length 24
		  ymInst 60
		  release 01h
		  vibrato 02Ch
		mainLoopStart
		repeatStart
		  length 24
		  ymVol 0Ch
		        noteL Cs4,48
		        note  C4
		        note  Cs4
		        note  C4
		        note  Cs4
		        note  B3
		        noteL Ds4,24
		        note  D4
		        noteL Cs4,48
		        note  C4
		        note  D4
		        note  C4
		repeatSection1Start
		        noteL D4,48
		        note  C4
		        noteL D4,24
		        noteL E4,96
		repeatEnd
		repeatSection2Start
		        noteL D4,24
		        noteL C4,36
		        note  D4
		        note  D4
		        note  D4
		        note  Cs4
		        note  Ds4
		countedLoopStart 7
		  length 18
		        noteL B3,36
		        noteL Cs4,18
		countedLoopEnd
		countedLoopStart 7
		  length 18
		        noteL A3,36
		        noteL B3,18
		countedLoopEnd
		countedLoopStart 6
		  length 18
		        noteL B3,36
		        noteL Cs4,18
		countedLoopEnd
		        noteL B3,27
		        note  B3
		        noteL Cs4,18
		        noteL F3,27
		        note  G3
		        note  A3
		        note  C4
		        note  C4
		        note  C4
		        note  D4
		        noteL D4,18
		        noteL D4,9
		  length 135
		mainLoopEnd
Music_5_Channel_3:
		  ymStereo 0C0h
		  length 24
		  ymInst 60
		  release 01h
		  vibrato 02Ch
		mainLoopStart
		repeatStart
		  length 24
		  ymVol 0Bh
		        noteL G3,48
		        note  Fs3
		        note  G3
		        note  Fs3
		        note  G3
		        note  F3
		        noteL A3,24
		        note  Gs3
		        noteL E3,48
		        note  A3
		        note  Gs3
		        note  A3
		repeatSection1Start
		        noteL Gs3,48
		        note  A3
		        noteL Gs3,24
		        noteL Gs3,96
		repeatEnd
		repeatSection2Start
		        noteL Gs3,24
		        noteL A3,36
		        note  Gs3
		        note  As3
		        note  Gs3
		        note  G3
		        note  Fs3
		countedLoopStart 7
		  length 18
		        noteL Gs3,36
		        noteL G3,18
		countedLoopEnd
		countedLoopStart 7
		  length 18
		        noteL Fs3,36
		        noteL F3,18
		countedLoopEnd
		countedLoopStart 6
		  length 18
		        noteL Gs3,36
		        noteL G3,18
		countedLoopEnd
		        noteL Gs3,27
		        note  Gs3
		        noteL G3,18
		        noteL B2,27
		        note  C3
		        note  D3
		        note  Fs3
		        note  Fs3
		        note  Fs3
		        note  Gs3
		        noteL Gs3,18
		        noteL Gs3,9
		  length 135
		mainLoopEnd
Music_5_Channel_4:
		  shifting 010h
		  length 6
		  ymStereo 040h
		  ymInst 9
		  ymVol 0Ch
		  release 01h
		  vibrato 02Ah
		        noteL Ds4,12
		        note  E4
		mainLoopStart
		        noteL G4,12
		  ymVol 08h
		        note  G4
		  ymVol 0Ch
		        note  Fs4
		        note  E4
		        note  C4
		  ymVol 08h
		        note  C4
		  ymVol 0Ch
		        noteL Cs4,16
		  ymSustain
		        noteL Ds4,4
		        note  E4
		  release 01h
		        noteL G4,12
		        note  Fs4
		        note  E4
		        note  C4
		        note  Cs4
		  ymVol 08h
		        note  Cs4
		  ymVol 0Ch
		        note  Ds4
		        note  E4
		        note  G4
		        note  Fs4
		        note  E4
		        note  C4
		        note  Cs4
		        note  E4
		        note  A4
		        noteL G4,84
		        noteL F4,12
		        note  Fs4
		        note  A4
		  ymVol 08h
		        note  A4
		  ymVol 0Ch
		        note  Gs4
		        note  Fs4
		        note  D4
		  ymVol 08h
		        note  D4
		  ymVol 0Ch
		        noteL F4,16
		  ymSustain
		        noteL Fs4,4
		        note  Gs4
		  release 01h
		        noteL A4,12
		        note  Gs4
		        note  Fs4
		        note  Cs4
		        note  D4
		  ymVol 08h
		        note  D4
		  ymVol 0Ch
		        note  F4
		        note  Fs4
		        note  A4
		        note  Gs4
		        note  Fs4
		        note  Cs4
		        note  D4
		        note  Cs4
		        note  D4
		        note  F4
		        note  E4
		        note  As3
		  ymVol 08h
		        note  As3
		  ymVol 0Ch
		        noteL As3,36
		  ymVol 08h
		        noteL As3,12
		  ymVol 06h
		        note  As3
		  length 24
		  ymVol 0Bh
		        noteL E4,48
		        noteL Ds4,24
		        noteL E4,12
		        note  Ds4
		        note  G4
		        noteL Fs4,60
		  ymVol 07h
		        noteL Fs4,24
		  ymVol 0Bh
		        note  Ds4
		        noteL E4,12
		        noteL G4,24
		        noteL C4,84
		        noteL Cs4,24
		  ymVol 07h
		        note  Cs4
		  ymVol 0Bh
		        noteL Fs4,48
		        noteL F4,24
		        noteL Fs4,12
		        note  F4
		        note  A4
		        noteL Gs4,60
		        noteL Fs4,12
		  ymVol 07h
		        noteL Fs4,24
		  ymVol 0Bh
		        noteL Gs4,36
		        noteL Fs4,12
		  ymVol 07h
		        note  Fs4
		  ymVol 0Bh
		        note  E4
		        noteL D4,36
		        noteL Cs4,12
		  ymVol 07h
		        note  Cs4
		  ymVol 05h
		        note  Cs4
		  length 36
		  ymStereo 080h
		  ymInst 10
		  ymVol 0Dh
		        noteL B4,12
		  ymVol 07h
		        note  B4
		  ymVol 0Dh
		        note  B4
		  ymVol 07h
		        note  B4
		  ymVol 0Dh
		        note  B4
		  ymVol 07h
		        note  B4
		  ymVol 0Dh
		        note  B4
		  ymVol 07h
		        note  B4
		  ymVol 0Dh
		        noteL B4,21
		        noteL A4,9
		        note  Gs4
		        note  A4
		        noteL B4,5
		  ymVol 08h
		        noteL B4,4
		  ymVol 0Dh
		        noteL E5,18
		        noteL B4,5
		  ymVol 08h
		        noteL B4,4
		  ymVol 0Dh
		        noteL Fs5,18
		        noteL B4,5
		  ymVol 08h
		        noteL B4,4
		  ymVol 0Dh
		        noteL G5,18
		        noteL B4,9
		        note  Gs5
		        note  A5
		        note  Gs5
		        note  E5
		        note  B4
		        note  A4
		        noteL Gs4,24
		  ymSustain
		        noteL A4,4
		        note  As4
		        note  B4
		  release 01h
		        noteL Gs4,9
		        noteL E4,6
		  ymVol 07h
		        noteL E4,10
		  ymVol 0Dh
		  ymSustain
		        noteL Cs4,2
		  release 01h
		        noteL D4,61
		  ymSustain
		        noteL Ds4,2
		  release 01h
		        noteL E4,9
		        note  D4
		  ymVol 07h
		        note  D4
		  length 36
		  ymVol 0Dh
		        noteL Gs3,9
		        note  A3
		        note  As3
		        note  B3
		        note  Ds4
		        note  E4
		  ymSustain
		        noteL As4,2
		  release 01h
		        noteL B4,7
		        noteL Gs4,9
		        note  E4
		  ymVol 07h
		        note  E4
		  length 18
		  ymVol 0Dh
		        noteL B3,5
		  ymVol 08h
		        noteL B3,4
		  ymVol 0Dh
		        noteL D4,18
		        noteL Cs4,9
		        note  D4
		  ymSustain
		        noteL Ds4,2
		  release 01h
		        noteL E4,7
		        noteL D4,9
		        note  Cs5
		        note  B4
		        note  Gs4
		        noteL A4,18
		        noteL E4,9
		        note  D4
		        note  B3
		        note  A3
		        note  F3
		        note  E3
		        note  G3
		        note  B3
		        note  As3
		        note  D4
		        note  F4
		        note  E4
		        note  B3
		        noteL D4,7
		  ymSustain
		        noteL Gs4,2
		  release 01h
		        noteL A4,54
		        noteL G4,9
		  ymVol 07h
		        note  G4
		  ymVol 0Dh
		        note  G4
		  ymVol 07h
		        note  G4
		  ymVol 0Dh
		        note  G3
		  ymSustain
		        noteL As4,2
		  release 01h
		        noteL B4,7
		        noteL A4,9
		  ymVol 07h
		        note  A4
		  ymVol 0Dh
		        note  A4
		  ymVol 07h
		        note  A4
		  ymVol 0Dh
		        note  B3
		        noteL C5,81
		  ymSustain
		        noteL Cs5,2
		  release 01h
		        noteL D5,7
		        noteL C5,24
		        noteL B4,6
		        note  G4
		        note  F4
		        note  D4
		        note  A3
		  ymVol 07h
		        note  A3
		  ymVol 05h
		        note  A3
		  length 33
		  ymVol 0Dh
		  ymSustain
		        noteL C4,2
		        note  Cs4
		  release 01h
		        noteL D4,23
		        noteL D4,27
		        noteL D4,23
		  ymSustain
		        noteL C4,2
		        note  Cs4
		  release 01h
		        noteL D4,27
		        note  D4
		repeatStart
		  ymVol 0Dh
		  ymSustain
		        noteL C4,2
		        note  Cs4
		  release 01h
		        noteL D4,5
		        noteL Cs4,9
		        note  E4
		repeatSection1Start
		        noteL D4,9
		  ymVol 07h
		        note  D4
		repeatEnd
		repeatSection2Start
		        noteL D4,9
		  ymVol 07h
		        note  D4
		repeatEnd
		repeatSection3Start
		        noteL D4,18
		        note  D4
		        noteL Cs4,9
		        note  D4
		        note  Fs4
		        note  A4
		        noteL Gs4,12
		  ymVol 07h
		        noteL Gs4,6
		  ymVol 0Dh
		  ymSustain
		        noteL As4,2
		  release 01h
		        noteL B4,37
		  ymSustain
		        noteL Cs5,2
		        note  B4
		        note  A4
		  release 01h
		        noteL Gs4,18
		        noteL A4,9
		        note  Cs5
		  ymVol 07h
		        note  Cs5
		  ymVol 0Dh
		  length 15
		        noteL F3,6
		        note  Fs3
		        note  A3
		        note  Cs4
		        note  F4
		        note  E4
		        note  As3
		        note  B3
		        note  C4
		        note  Cs4
		        note  E4
		        note  Fs4
		        note  G4
		        note  Cs5
		  ymVol 07h
		        note  Cs5
		  ymVol 0Dh
		        note  B4
		  ymVol 07h
		        note  B4
		  ymVol 0Dh
		        note  Fs5
		  ymVol 07h
		        note  Fs5
		  ymVol 0Dh
		        note  E5
		  ymVol 07h
		        note  E5
		  ymVol 0Dh
		        noteL A4,15
		  ymSustain
		        noteL G4,2
		        note  F4
		  release 01h
		        note  D4
		  ymSustain
		        note  Ds4
		  release 01h
		        noteL E4,7
		        noteL C4,9
		  ymVol 07h
		        note  C4
		  ymVol 0Dh
		        note  B3
		        note  A3
		        noteL F3,24
		  ymSustain
		        noteL E3,4
		        note  Fs3
		  release 01h
		        note  B3
		        noteL D4,9
		        noteL C4,18
		        noteL E4,9
		  ymVol 07h
		        noteL E4,12
		  ymVol 0Dh
		  ymSustain
		        noteL B3,2
		        note  C4
		        note  Cs4
		  release 01h
		        noteL D4,18
		        noteL D4,9
		countedLoopStart 1
		  ymVol 0Dh
		        noteL Cs5,9
		  ymVol 07h
		        note  Cs5
		countedLoopEnd
		  ymVol 05h
		        noteL Cs5,9
		  length 18
		  ymStereo 040h
		  ymInst 9
		  ymVol 0Dh
		        noteL Ds4,72
		        noteL E4,27
		mainLoopEnd
Music_5_Channel_5:
		  shifting 020h
		  length 12
		  ymStereo 080h
		  ymInst 9
		  ymVol 0Bh
		  release 01h
		  vibrato 02Ah
		        note  Ds4
		        note  E4
		mainLoopStart
		        noteL G4,12
		  ymVol 07h
		        note  G4
		  ymVol 0Bh
		        note  Fs4
		        note  E4
		        note  C4
		  ymVol 07h
		        note  C4
		  ymVol 0Bh
		        noteL Cs4,16
		  ymSustain
		        noteL Ds4,4
		        note  E4
		  release 01h
		        noteL G4,12
		        note  Fs4
		        note  E4
		        note  C4
		        note  Cs4
		  ymVol 07h
		        note  Cs4
		  ymVol 0Bh
		        note  Ds4
		        note  E4
		        note  G4
		        note  Fs4
		        note  E4
		        note  C4
		        note  Cs4
		        note  E4
		        note  A4
		        noteL G4,84
		        noteL F4,12
		        note  Fs4
		        note  A4
		  ymVol 07h
		        note  A4
		  ymVol 0Bh
		        note  Gs4
		        note  Fs4
		        note  D4
		  ymVol 07h
		        note  D4
		  ymVol 0Bh
		        noteL F4,16
		  ymSustain
		        noteL Fs4,4
		        note  Gs4
		  release 01h
		        noteL A4,12
		        note  Gs4
		        note  Fs4
		        note  Cs4
		        note  D4
		  ymVol 07h
		        note  D4
		  ymVol 0Bh
		        note  F4
		        note  Fs4
		        note  A4
		        note  Gs4
		        note  Fs4
		        note  Cs4
		        note  D4
		        note  Cs4
		        note  D4
		        note  F4
		        note  E4
		        note  As3
		  ymVol 07h
		        note  As3
		  ymVol 0Bh
		        noteL As3,36
		  ymVol 07h
		        noteL As3,12
		  ymVol 05h
		        note  As3
		  length 24
		  ymVol 0Ah
		        noteL E4,48
		        noteL Ds4,24
		        noteL E4,12
		        note  Ds4
		        note  G4
		        noteL Fs4,60
		  ymVol 06h
		        noteL Fs4,24
		  ymVol 0Ah
		        note  Ds4
		        noteL E4,12
		        noteL G4,24
		        noteL C4,84
		        noteL Cs4,24
		  ymVol 06h
		        note  Cs4
		  ymVol 0Ah
		        noteL Fs4,48
		        noteL F4,24
		        noteL Fs4,12
		        note  F4
		        note  A4
		        noteL Gs4,60
		        noteL Fs4,12
		  ymVol 06h
		        noteL Fs4,24
		  ymVol 0Ah
		        noteL Gs4,36
		        noteL Fs4,12
		  ymVol 06h
		        note  Fs4
		  ymVol 0Ah
		        note  E4
		        noteL D4,36
		        noteL Cs4,12
		  ymVol 06h
		        note  Cs4
		  ymVol 04h
		        note  Cs4
		  length 36
		  ymStereo 040h
		  ymInst 44
		  ymVol 0Ch
		        noteL B4,12
		  ymVol 06h
		        note  B4
		  ymVol 0Ch
		        note  B4
		  ymVol 06h
		        note  B4
		  ymVol 0Ch
		        note  B4
		  ymVol 06h
		        note  B4
		  ymVol 0Ch
		        note  B4
		  ymVol 06h
		        note  B4
		  ymVol 0Ch
		        noteL B4,21
		        noteL A4,9
		        note  Gs4
		        note  A4
		        noteL B4,5
		  ymVol 07h
		        noteL B4,4
		  ymVol 0Ch
		        noteL E5,18
		        noteL B4,5
		  ymVol 07h
		        noteL B4,4
		  ymVol 0Ch
		        noteL Fs5,18
		        noteL B4,5
		  ymVol 07h
		        noteL B4,4
		  ymVol 0Ch
		        noteL G5,18
		        noteL B4,9
		        note  Gs5
		        note  A5
		        note  Gs5
		        note  E5
		        note  B4
		        note  A4
		        noteL Gs4,24
		  ymSustain
		        noteL A4,4
		        note  As4
		        note  B4
		  release 01h
		        noteL Gs4,9
		        noteL E4,6
		  ymVol 06h
		        noteL E4,10
		  ymVol 0Ch
		  ymSustain
		        noteL Cs4,2
		  release 01h
		        noteL D4,61
		  ymSustain
		        noteL Ds4,2
		  release 01h
		        noteL E4,9
		        note  D4
		  ymVol 06h
		        note  D4
		  length 36
		  ymVol 0Ch
		        noteL Gs3,9
		        note  A3
		        note  As3
		        note  B3
		        note  Ds4
		        note  E4
		  ymSustain
		        noteL As4,2
		  release 01h
		        noteL B4,7
		        noteL Gs4,9
		        note  E4
		  ymVol 06h
		        note  E4
		  length 18
		  ymVol 0Ch
		        noteL B3,5
		  ymVol 07h
		        noteL B3,4
		  ymVol 0Ch
		        noteL D4,18
		        noteL Cs4,9
		        note  D4
		  ymSustain
		        noteL Ds4,2
		  release 01h
		        noteL E4,7
		        noteL D4,9
		        note  Cs5
		        note  B4
		        note  Gs4
		        noteL A4,18
		        noteL E4,9
		        note  D4
		        note  B3
		        note  A3
		        note  F3
		        note  E3
		        note  G3
		        note  B3
		        note  As3
		        note  D4
		        note  F4
		        note  E4
		        note  B3
		        noteL D4,7
		  ymSustain
		        noteL Gs4,2
		  release 01h
		        noteL A4,54
		        noteL G4,9
		  ymVol 06h
		        note  G4
		  ymVol 0Ch
		        note  G4
		  ymVol 06h
		        note  G4
		  ymVol 0Ch
		        note  G3
		  ymSustain
		        noteL As4,2
		  release 01h
		        noteL B4,7
		        noteL A4,9
		  ymVol 06h
		        note  A4
		  ymVol 0Ch
		        note  A4
		  ymVol 06h
		        note  A4
		  ymVol 0Ch
		        note  B3
		        noteL C5,81
		  ymSustain
		        noteL Cs5,2
		  release 01h
		        noteL D5,7
		        noteL C5,24
		        noteL B4,6
		        note  G4
		        note  F4
		        note  D4
		        note  A3
		  ymVol 06h
		        note  A3
		  ymVol 04h
		        note  A3
		  length 33
		  ymVol 0Ch
		  ymSustain
		        noteL C4,2
		        note  Cs4
		  release 01h
		        noteL D4,23
		        noteL D4,27
		        noteL D4,23
		  ymSustain
		        noteL C4,2
		        note  Cs4
		  release 01h
		        noteL D4,27
		        note  D4
		repeatStart
		  ymVol 0Ch
		  ymSustain
		        noteL C4,2
		        note  Cs4
		  release 01h
		        noteL D4,5
		        noteL Cs4,9
		        note  E4
		repeatSection1Start
		        noteL D4,9
		  ymVol 06h
		        note  D4
		repeatEnd
		repeatSection2Start
		        noteL D4,9
		  ymVol 06h
		        note  D4
		repeatEnd
		repeatSection3Start
		        noteL D4,18
		        note  D4
		        noteL Cs4,9
		        note  D4
		        note  Fs4
		        note  A4
		        noteL Gs4,12
		  ymVol 06h
		        noteL Gs4,6
		  ymVol 0Ch
		  ymSustain
		        noteL As4,2
		  release 01h
		        noteL B4,37
		  ymSustain
		        noteL Cs5,2
		        note  B4
		        note  A4
		  release 01h
		        noteL Gs4,18
		        noteL A4,9
		        note  Cs5
		  ymVol 06h
		        note  Cs5
		  ymVol 0Ch
		  length 15
		        noteL F3,6
		        note  Fs3
		        note  A3
		        note  Cs4
		        note  F4
		        note  E4
		        note  As3
		        note  B3
		        note  C4
		        note  Cs4
		        note  E4
		        note  Fs4
		        note  G4
		        note  Cs5
		  ymVol 06h
		        note  Cs5
		  ymVol 0Ch
		        note  B4
		  ymVol 06h
		        note  B4
		  ymVol 0Ch
		        note  Fs5
		  ymVol 06h
		        note  Fs5
		  ymVol 0Ch
		        note  E5
		  ymVol 06h
		        note  E5
		  ymVol 0Ch
		        noteL A4,15
		  ymSustain
		        noteL G4,2
		        note  F4
		  release 01h
		        note  D4
		  ymSustain
		        note  Ds4
		  release 01h
		        noteL E4,7
		        noteL C4,9
		  ymVol 06h
		        note  C4
		  ymVol 0Ch
		        note  B3
		        note  A3
		        noteL F3,24
		  ymSustain
		        noteL E3,4
		        note  Fs3
		  release 01h
		        note  B3
		        noteL D4,9
		        noteL C4,18
		        noteL E4,9
		  ymVol 06h
		        noteL E4,12
		  ymVol 0Ch
		  ymSustain
		        noteL B3,2
		        note  C4
		        note  Cs4
		  release 01h
		        noteL D4,18
		        noteL D4,9
		countedLoopStart 1
		  ymVol 0Ch
		        noteL Cs5,9
		  ymVol 06h
		        note  Cs5
		countedLoopEnd
		  ymVol 04h
		        noteL Cs5,9
		  length 18
		  ymStereo 080h
		  ymInst 9
		  ymVol 0Ch
		        noteL Ds4,72
		        noteL E4,27
		mainLoopEnd
Music_5_Channel_6:
		  psgInst 0
		  release 01h
		  vibrato 04Ch
		mainLoopStart
		  length 192
		        silence
		        silence
		        silence
		  psgInst 125
		        psgNoteL C6,12
		        psgNote  Cs6
		        psgNote  E6
		        silence
		        psgNote  Ds6
		        psgNote  Cs6
		        psgNote  A5
		        silence
		        psgNoteL As5,16
		        psgNoteL C6,4
		        psgNote  Cs6
		        psgNoteL E6,12
		        psgNote  Ds6
		        psgNote  Cs6
		        psgNote  A5
		        psgNote  As5
		        silence
		        psgNote  C6
		        psgNote  Cs6
		        psgNote  E6
		        psgNote  Ds6
		        psgNote  Cs6
		        psgNote  A5
		        psgNote  As5
		        psgNote  Cs6
		        psgNote  Fs6
		        psgNoteL E6,84
		        psgNoteL D6,12
		        psgNote  Ds6
		        psgNote  Fs6
		        silence
		        psgNote  F6
		        psgNote  Ds6
		        psgNote  B5
		        silence
		        psgNoteL D6,16
		        psgNoteL Ds6,4
		        psgNote  F6
		        psgNoteL Fs6,12
		        psgNote  F6
		        psgNote  Ds6
		        psgNote  As5
		        psgNote  B5
		        silence
		        psgNote  D6
		        psgNote  Ds6
		        psgNote  Fs6
		        psgNote  F6
		        psgNote  Ds6
		        psgNote  B5
		        psgNote  As5
		        psgNote  B5
		        psgNoteL G5,54
		        psgNoteL Gs5,6
		        psgNote  B5
		        psgNote  D6
		        psgNoteL Cs6,12
		  length 15
		countedLoopStart 14
		  psgInst 0
		  length 140
		countedLoopEnd
		mainLoopEnd
Music_5_Channel_7:
		  psgInst 0
		  length 6
		  shifting 010h
		  release 01h
		  vibrato 04Ch
		mainLoopStart
		  length 192
		        silence
		        silence
		        silence
		  psgInst 123
		        psgNoteL C6,12
		        psgNote  Cs6
		        psgNote  E6
		        silence
		        psgNote  Ds6
		        psgNote  Cs6
		        psgNote  A5
		        silence
		        psgNoteL As5,16
		        psgNoteL C6,4
		        psgNote  Cs6
		        psgNoteL E6,12
		        psgNote  Ds6
		        psgNote  Cs6
		        psgNote  A5
		        psgNote  As5
		        silence
		        psgNote  C6
		        psgNote  Cs6
		        psgNote  E6
		        psgNote  Ds6
		        psgNote  Cs6
		        psgNote  A5
		        psgNote  As5
		        psgNote  Cs6
		        psgNote  Fs6
		        psgNoteL E6,84
		        psgNoteL D6,12
		        psgNote  Ds6
		        psgNote  Fs6
		        silence
		        psgNote  F6
		        psgNote  Ds6
		        psgNote  B5
		        silence
		        psgNoteL D6,16
		        psgNoteL Ds6,4
		        psgNote  F6
		        psgNoteL Fs6,12
		        psgNote  F6
		        psgNote  Ds6
		        psgNote  As5
		        psgNote  B5
		        silence
		        psgNote  D6
		        psgNote  Ds6
		        psgNote  Fs6
		        psgNote  F6
		        psgNote  Ds6
		        psgNote  B5
		        psgNote  As5
		        psgNote  B5
		        psgNoteL G5,54
		        psgNoteL Gs5,6
		        psgNote  B5
		        psgNote  D6
		        psgNoteL Cs6,12
		  length 15
		countedLoopStart 14
		  psgInst 0
		  length 140
		countedLoopEnd
		mainLoopEnd
Music_5_Channel_9:
		channel_end
