
; ASM FILE music38.asm :
; 0xBA4B..0xC85F : Music 38
Music_38:       db 0
		db 0
		db 0
		db 0D2h
		dw Music_6_Channel_0
		dw Music_6_Channel_1
		dw Music_6_Channel_2
		dw Music_6_Channel_3
		dw Music_6_Channel_4
		dw Music_6_Channel_5
		dw Music_6_Channel_6
		dw Music_6_Channel_7
		dw Music_6_Channel_9
		dw Music_6_Channel_9
Music_6_Channel_0:
		mainLoopStart
		  ymStereo 0C0h
		  ymInst 13
		  release 01h
		  vibrato 02Fh
		repeatStart
		  ymVol 0Ch
		        noteL A4,8
		  ymVol 08h
		        note  A4
		  ymVol 06h
		        note  A4
		  ymVol 0Ch
		        note  G4
		  ymVol 08h
		        note  G4
		  ymVol 06h
		        note  G4
		  ymVol 0Ch
		        noteL A4,144
		  ymVol 08h
		        noteL A4,8
		  ymVol 06h
		        note  A4
		  ymVol 04h
		        note  A4
		  ymVol 0Ch
		        note  G4
		  ymVol 08h
		        note  G4
		  ymVol 06h
		        note  G4
		  ymVol 0Ch
		        note  F4
		  ymVol 08h
		        note  F4
		  ymVol 06h
		        note  F4
		  ymVol 0Ch
		        note  G4
		  ymVol 08h
		        note  G4
		  ymVol 06h
		        note  G4
		repeatSection1Start
		  ymVol 0Ch
		        noteL As4,96
		repeatEnd
		repeatSection2Start
		  ymVol 0Bh
		        noteL Gs3,76
		  ymInst 10
		  ymVol 0Bh
		        noteL Cs6,4
		        note  Ds6
		        note  E6
		        note  Fs6
		        note  Gs6
		        noteL A6,8
		  ymVol 08h
		        note  A6
		  ymVol 05h
		        note  A6
		  length 48
		  ymInst 27
		  ymVol 0Bh
		  release 06h
		        noteL A3,12
		        note  A3
		  release 01h
		        noteL A3,240
		  ymVol 05h
		        noteL A3,24
		repeatStart
		  ymInst 13
		  ymVol 0Bh
		        noteL E3,8
		  ymVol 08h
		        note  E3
		  ymVol 06h
		        note  E3
		  ymVol 0Bh
		        note  F3
		  ymVol 08h
		        note  F3
		  ymVol 06h
		        note  F3
		  ymVol 0Bh
		        note  C4
		  ymVol 08h
		        note  C4
		  ymVol 06h
		        note  C4
		  ymVol 0Bh
		        noteL B3,24
		        noteL G3,8
		  ymVol 08h
		        note  G3
		  ymVol 06h
		        note  G3
		  ymVol 0Bh
		        note  A3
		  ymVol 08h
		        note  A3
		  ymVol 06h
		        note  A3
		repeatSection1Start
		  ymVol 0Bh
		        noteL E4,48
		        noteL D4,8
		  ymVol 08h
		        note  D4
		  ymVol 06h
		        note  D4
		  ymVol 0Bh
		        note  B3
		  ymVol 08h
		        note  B3
		  ymVol 06h
		        note  B3
		  ymVol 0Bh
		        note  G3
		  ymVol 08h
		        note  G3
		  ymVol 06h
		        note  G3
		  ymVol 0Bh
		        noteL A3,48
		  ymVol 08h
		        noteL A3,8
		  ymVol 06h
		        note  A3
		  ymVol 04h
		        note  A3
		repeatEnd
		repeatSection2Start
		  ymVol 0Bh
		        noteL B3,8
		  ymVol 08h
		        note  B3
		  ymVol 06h
		        note  B3
		  ymVol 0Bh
		        note  D4
		  ymVol 08h
		        note  D4
		  ymVol 06h
		        note  D4
		  ymVol 0Bh
		        noteL A4,38
		        noteL G4,10
		        noteL G4,240
		  ymVol 06h
		        noteL G4,24
		  ymInst 3
		  ymVol 0Bh
		        noteL B4,8
		  ymVol 07h
		        note  B4
		  ymVol 05h
		        note  B4
		  ymVol 0Bh
		        note  C5
		  ymVol 07h
		        note  C5
		  ymVol 05h
		        note  C5
		  ymVol 0Bh
		        note  G5
		  ymVol 07h
		        note  G5
		  ymVol 05h
		        note  G5
		  ymVol 0Bh
		        noteL F5,24
		        noteL D5,8
		  ymVol 07h
		        note  D5
		  ymVol 05h
		        note  D5
		  ymVol 0Bh
		        note  E5
		  ymVol 07h
		        note  E5
		  ymVol 05h
		        note  E5
		  ymVol 0Bh
		        noteL B5,48
		        noteL A5,8
		  ymVol 07h
		        note  A5
		  ymVol 05h
		        note  A5
		  ymVol 0Bh
		        noteL G5,48
		        noteL D5,38
		        noteL E5,10
		        noteL F5,192
		        noteL G5,144
		  ymVol 0Ah
		        noteL F5,48
		  ymInst 10
		  ymVol 0Ah
		        noteL A5,12
		        note  B5
		        note  G6
		  ymVol 07h
		        note  G6
		  ymVol 0Ah
		        noteL Fs6,36
		        noteL D6,12
		        noteL E6,8
		  ymVol 06h
		        note  E6
		  ymVol 04h
		        note  E6
		  ymVol 0Ah
		        note  B6
		  ymVol 06h
		        note  B6
		  ymVol 04h
		        note  B6
		  ymVol 0Ah
		        note  A6
		  ymVol 06h
		        note  A6
		  ymVol 04h
		        note  A6
		  ymVol 0Ah
		        noteL G6,12
		        note  Fs6
		        note  E6
		        note  G6
		        note  Fs6
		        note  E6
		        note  D6
		        note  Fs6
		        noteL E6,8
		  ymVol 06h
		        note  E6
		  ymVol 04h
		        note  E6
		  ymVol 0Ah
		        note  C6
		  ymVol 06h
		        note  C6
		  ymVol 04h
		        note  C6
		  ymVol 0Ah
		        note  G5
		  ymVol 06h
		        note  G5
		  ymVol 04h
		        note  G5
		  ymInst 54
		  ymVol 0Ah
		        noteL As3,12
		        note  C4
		        note  G4
		  ymVol 07h
		        note  G4
		  ymVol 0Ah
		        noteL F4,36
		        noteL C4,12
		        noteL D4,8
		  ymVol 06h
		        note  D4
		  ymVol 04h
		        note  D4
		  ymVol 0Ah
		        note  C5
		  ymVol 06h
		        note  C5
		  ymVol 04h
		        note  C5
		  ymVol 0Ah
		        note  As4
		  ymVol 06h
		        note  As4
		  ymVol 04h
		        note  As4
		  ymVol 0Ah
		        noteL A4,12
		        note  G4
		        note  F4
		        note  A4
		        note  G4
		        note  F4
		        note  E4
		        note  G4
		        noteL F4,8
		  ymVol 06h
		        note  F4
		  ymVol 04h
		        note  F4
		  ymVol 0Ah
		        note  D4
		  ymVol 06h
		        note  D4
		  ymVol 04h
		        note  D4
		  ymVol 0Ah
		        note  As3
		  ymVol 06h
		        note  As3
		  ymVol 04h
		        note  As3
		  length 168
		        silence
		  ymInst 26
		  ymVol 0Bh
		        noteL C4,12
		        note  Cs4
		        note  As4
		  ymVol 08h
		        note  As4
		  ymVol 0Bh
		        noteL Gs4,36
		        noteL E4,12
		        noteL F4,8
		  ymVol 07h
		        note  F4
		  ymVol 05h
		        note  F4
		  ymVol 0Bh
		        note  Ds5
		  ymVol 07h
		        note  Ds5
		  ymVol 05h
		        note  Ds5
		  ymVol 0Bh
		        note  Cs5
		  ymVol 07h
		        note  Cs5
		  ymVol 05h
		        note  Cs5
		  ymVol 0Bh
		        noteL C5,12
		        note  As4
		        note  Gs4
		        note  C5
		        note  As4
		        note  Gs4
		        noteL As4,36
		        noteL B4,12
		        note  Cs5
		        note  D5
		        note  E5
		        note  Fs5
		        note  Gs5
		        note  A5
		countedLoopStart 1
		        noteL Gs5,12
		        note  Fs5
		        note  E5
		        note  Fs5
		        noteL Gs5,144
		countedLoopEnd
		        noteL Gs5,12
		        note  Fs5
		        note  F5
		        note  Fs5
		        noteL Gs5,144
		  length 12
		  ymVol 0Ch
		        note  C4
		        note  Cs4
		        note  As4
		        note  Gs4
		        note  E4
		        note  F4
		        note  C5
		        note  As4
		        note  Gs4
		        note  As4
		        note  C5
		  ymVol 0Dh
		        note  Cs5
		        note  Ds5
		        note  F5
		        note  G5
		mainLoopEnd
Music_6_Channel_1:
		mainLoopStart
		  ymStereo 0C0h
		  ymInst 52
		  vibrato 02Ch
		repeatStart
		  ymVol 0Ch
		  ymSustain
		        noteL Fs1,3
		        note  G1
		        note  Gs1
		  release 01h
		        noteL A1,63
		        noteL E1,8
		  ymVol 05h
		        note  E1
		  ymVol 03h
		        note  E1
		  ymVol 0Ch
		        note  G1
		  ymVol 05h
		        note  G1
		  ymVol 03h
		        note  G1
		  ymVol 0Ch
		        note  A1
		  ymVol 05h
		        note  A1
		  ymVol 03h
		        note  A1
		  ymVol 0Ch
		repeatSection1Start
		        noteL C2,40
		        noteL As1,8
		  ymSustain
		        noteL G1,3
		        note  Gs1
		        note  A1
		  release 01h
		        noteL As1,183
		repeatEnd
		repeatSection2Start
		        noteL E2,40
		        noteL Ds2,8
		  ymSustain
		        noteL C2,3
		        note  Cs2
		        note  D2
		  release 01h
		        noteL Ds2,87
		  ymVol 0Bh
		  ymSustain
		        noteL Cs2,3
		        note  D2
		        note  Ds2
		  release 01h
		        noteL E2,87
		countedLoopStart 1
		repeatStart
		  ymVol 0Bh
		        noteL F2,12
		  ymVol 04h
		        note  F2
		  length 24
		  ymVol 0Bh
		        noteL F2,12
		  ymVol 04h
		        note  F2
		repeatSection1Start
		  length 96
		repeatEnd
		repeatSection2Start
		  length 72
		  ymVol 0Bh
		        noteL F2,12
		        note  F2
		countedLoopEnd
		countedLoopStart 1
		  ymVol 0Bh
		        noteL F2,12
		  ymVol 04h
		        note  F2
		  length 24
		countedLoopEnd
		  length 24
		  ymInst 15
		  ymVol 0Bh
		        noteL F2,48
		  ymInst 52
		repeatStart
		countedLoopStart 1
		  ymVol 0Bh
		        noteL E2,12
		  ymVol 04h
		        note  E2
		  length 24
		countedLoopEnd
		repeatSection1Start
		  length 48
		  ymVol 0Bh
		        noteL E2,12
		        note  E2
		repeatEnd
		repeatSection2Start
		  length 24
		  ymInst 15
		  ymVol 0Bh
		        noteL E2,48
		  ymInst 52
		countedLoopStart 1
		  ymVol 0Bh
		        noteL D2,12
		  ymVol 04h
		        note  D2
		  length 24
		countedLoopEnd
		  length 72
		countedLoopStart 1
		  ymVol 0Bh
		        noteL C2,12
		  ymVol 04h
		        note  C2
		  length 24
		countedLoopEnd
		  length 48
		  ymVol 0Bh
		        noteL C2,12
		        note  C2
		        noteL As1,48
		        note  C2
		        note  D2
		        note  Ds2
		        note  E2
		        note  Fs2
		        note  G2
		        note  Gs2
		  ymSustain
		        noteL A2,168
		  vibrato 020h
		  release 01h
		        note  A2
		  length 24
		  vibrato 02Ch
		  ymInst 53
		  ymVol 0Dh
		  ymSustain
		        noteL F3,30
		  release 01h
		  ymVol 0Ch
		        noteL F3,6
		  ymVol 0Dh
		        noteL E3,12
		        note  D3
		        note  F3
		  ymSustain
		        noteL E3,30
		  release 01h
		  ymVol 0Ch
		        noteL E3,6
		  ymVol 0Dh
		        noteL D3,12
		  ymSustain
		        noteL D3,42
		  release 01h
		  ymVol 0Ch
		        noteL D3,6
		  ymVol 0Dh
		        noteL D3,12
		  ymSustain
		        note  C3
		        noteL D3,8
		  ymVol 0Bh
		        note  D3
		  release 01h
		  ymVol 09h
		        note  D3
		  ymSustain
		  ymVol 0Dh
		        note  F3
		  ymVol 0Bh
		        note  F3
		  release 01h
		  ymVol 09h
		        note  F3
		  ymVol 0Dh
		        noteL As3,12
		        note  A3
		  ymSustain
		        noteL As3,30
		  release 01h
		  ymVol 0Ch
		        noteL As3,6
		  ymVol 0Dh
		        noteL D3,12
		  ymInst 19
		  ymVol 0Bh
		        noteL Ds3,168
		  ymVol 0Ah
		        note  Gs3
		        noteL Cs3,48
		  ymInst 26
		  ymVol 0Bh
		        noteL C3,12
		        note  Cs3
		        note  As3
		  ymVol 08h
		        note  As3
		  ymVol 0Bh
		        noteL Gs3,36
		        noteL F3,12
		  ymVol 0Bh
		        noteL Cs3,8
		  ymVol 08h
		        note  Cs3
		  ymVol 06h
		        note  Cs3
		  ymVol 0Bh
		        note  Fs3
		  ymVol 08h
		        note  Fs3
		  ymVol 06h
		        note  Fs3
		  ymVol 0Bh
		        note  Cs3
		  ymVol 08h
		        note  Cs3
		  ymVol 06h
		        note  Cs3
		  ymVol 0Bh
		        noteL Fs3,36
		        noteL F3,12
		        noteL E3,60
		  ymVol 08h
		        noteL E3,6
		  ymVol 06h
		        note  E3
		  ymInst 52
		  ymVol 0Bh
		        noteL E2,8
		  ymVol 06h
		        note  E2
		  ymVol 04h
		        note  E2
		  ymVol 0Bh
		        noteL A2,168
		        noteL A1,8
		  ymVol 06h
		        note  A1
		  ymVol 04h
		        note  A1
		  ymVol 0Bh
		        noteL D2,168
		        noteL D2,8
		  ymVol 06h
		        note  D2
		  ymVol 04h
		        note  D2
		  ymVol 0Bh
		  ymSustain
		        noteL Cs2,192
		  vibrato 020h
		  release 01h
		        note  Cs2
		mainLoopEnd
Music_6_Channel_2:
		mainLoopStart
		  ymStereo 0C0h
		  release 01h
		  vibrato 02Ch
		  ymInst 13
		repeatStart
		  ymVol 0Bh
		        noteL E4,8
		  ymVol 07h
		        note  E4
		  ymVol 05h
		        note  E4
		  ymVol 0Bh
		        note  D4
		  ymVol 07h
		        note  D4
		  ymVol 05h
		        note  D4
		  ymVol 0Bh
		        noteL E4,144
		  ymVol 07h
		        noteL E4,8
		  ymVol 05h
		        note  E4
		  ymVol 03h
		        note  E4
		  ymVol 0Bh
		        note  D4
		  ymVol 07h
		        note  D4
		  ymVol 05h
		        note  D4
		  ymVol 0Bh
		        note  C4
		  ymVol 07h
		        note  C4
		  ymVol 05h
		        note  C4
		  ymVol 0Bh
		        note  D4
		  ymVol 07h
		        note  D4
		  ymVol 05h
		        note  D4
		repeatSection1Start
		  ymVol 0Bh
		        noteL F4,96
		repeatEnd
		repeatSection2Start
		  ymVol 0Ch
		        noteL Cs4,96
		countedLoopStart 1
		repeatStart
		  ymInst 26
		  ymVol 0Bh
		        noteL A4,12
		  ymVol 08h
		        note  A4
		  ymVol 09h
		        note  E4
		  ymVol 06h
		        note  E4
		  ymVol 0Bh
		        note  A4
		  ymVol 08h
		        note  A4
		  ymVol 09h
		        note  E4
		  ymVol 06h
		        note  E4
		repeatSection1Start
		  length 72
		repeatEnd
		repeatSection2Start
		  length 48
		  ymVol 0Bh
		        noteL A4,12
		        note  A4
		countedLoopEnd
		countedLoopStart 1
		  ymVol 0Bh
		        noteL A4,12
		  ymVol 08h
		        note  A4
		  ymVol 09h
		        note  E4
		  ymVol 06h
		        note  E4
		countedLoopEnd
		  length 24
		  ymInst 15
		  ymVol 0Ch
		        noteL A4,48
		  ymInst 26
		repeatStart
		countedLoopStart 1
		  ymVol 0Bh
		        noteL G4,12
		  ymVol 08h
		        note  G4
		  ymVol 09h
		        note  D4
		  ymVol 06h
		        note  D4
		countedLoopEnd
		repeatSection1Start
		  length 48
		  ymVol 0Bh
		        noteL G4,12
		        note  G4
		repeatEnd
		repeatSection2Start
		  length 24
		  ymInst 15
		  ymVol 0Ch
		        noteL G4,48
		  ymInst 26
		countedLoopStart 1
		  ymVol 0Bh
		        noteL F4,12
		  ymVol 08h
		        note  F4
		  ymVol 09h
		        note  C4
		  ymVol 06h
		        note  C4
		countedLoopEnd
		  length 72
		countedLoopStart 1
		  ymVol 0Bh
		        noteL E4,12
		  ymVol 08h
		        note  E4
		  ymVol 09h
		        note  B3
		  ymVol 06h
		        note  B3
		countedLoopEnd
		  length 48
		  ymVol 0Bh
		        noteL E4,12
		        note  E4
		        noteL D4,192
		        noteL E4,96
		  length 12
		        note  B4
		        note  C5
		        note  Cs5
		        note  D5
		        note  E5
		        noteL F5,24
		        noteL E5,16
		  ymVol 07h
		        note  E5
		  ymVol 05h
		        note  E5
		  length 120
		  length 24
		  ymInst 0
		  ymVol 0Ah
		        noteL C3,12
		        note  B2
		        noteL C3,8
		  ymVol 05h
		        note  C3
		  ymVol 03h
		        note  C3
		  ymVol 0Ah
		        note  E3
		  ymVol 05h
		        note  E3
		  ymVol 03h
		        note  E3
		  ymVol 0Ah
		        noteL A3,12
		        note  G3
		        noteL A3,36
		        noteL C3,12
		  ymSustain
		        noteL As2,168
		  release 01h
		        note  As2
		  length 24
		  ymInst 9
		  ymVol 0Ah
		        noteL G4,36
		        noteL F4,12
		        note  Ds4
		        note  G4
		        noteL C5,36
		        noteL As4,12
		        noteL As4,42
		  ymVol 07h
		        noteL As4,6
		  ymVol 0Ah
		        noteL Gs4,12
		        note  G4
		        noteL Gs4,8
		  ymVol 07h
		        note  Gs4
		  ymVol 05h
		        note  Gs4
		  ymVol 0Ah
		        note  C5
		  ymVol 07h
		        note  C5
		  ymVol 05h
		        note  C5
		  ymVol 0Ah
		        noteL Ds5,12
		        note  D5
		        noteL Ds5,36
		        noteL G5,12
		        note  F5
		  ymVol 07h
		        note  F5
		  ymInst 10
		  ymVol 0Ah
		        noteL Cs6,36
		        noteL C6,12
		        note  As5
		        note  Cs6
		        noteL G6,36
		        noteL F6,12
		        noteL F6,42
		  ymVol 06h
		        noteL F6,6
		  ymVol 0Ah
		        noteL F6,12
		        note  Ds6
		        noteL F6,8
		  ymVol 07h
		        note  F6
		  ymVol 05h
		        note  F6
		  ymVol 0Ah
		        note  Cs6
		  ymVol 07h
		        note  Cs6
		  ymVol 05h
		        note  Cs6
		  ymVol 03h
		        noteL Cs6,12
		  ymVol 0Ah
		        note  D5
		        note  E5
		        note  Fs5
		        note  Gs5
		        note  A5
		        note  B5
		        note  C6
		repeatStart
		  ymVol 0Ah
		        noteL Cs6,60
		  ymVol 07h
		        noteL Cs6,12
		  ymVol 0Ah
		        noteL Cs6,8
		        note  Cs6
		        note  Cs6
		        noteL Cs6,30
		        noteL Ds6,7
		        noteL Cs6,6
		        noteL Ds6,5
		        noteL Cs6,4
		        note  Ds6
		repeatSection1Start
		        noteL Cs6,30
		  ymVol 07h
		        noteL Cs6,10
		repeatEnd
		repeatSection2Start
		        noteL Cs6,30
		  ymVol 07h
		        noteL Cs6,10
		repeatEnd
		repeatSection3Start
		        noteL Cs6,88
		  ymVol 07h
		        noteL Cs6,12
		  ymInst 26
		  ymVol 0Ah
		        note  C4
		        note  Cs4
		        note  Ds4
		        note  Cs4
		        note  C4
		        note  Cs4
		        note  Ds4
		        note  F4
		        note  Fs4
		        note  Gs4
		        note  As4
		mainLoopEnd
Music_6_Channel_3:
		mainLoopStart
		  ymStereo 0C0h
		  release 01h
		  vibrato 02Ch
		  ymInst 13
		repeatStart
		  ymVol 0Bh
		        noteL D4,8
		  ymVol 07h
		        note  D4
		  ymVol 05h
		        note  D4
		  ymVol 0Bh
		        note  C4
		  ymVol 07h
		        note  C4
		  ymVol 05h
		        note  C4
		  ymVol 0Bh
		        noteL D4,144
		  ymVol 07h
		        noteL D4,8
		  ymVol 05h
		        note  D4
		  ymVol 03h
		        note  D4
		  ymVol 0Bh
		        note  C4
		  ymVol 07h
		        note  C4
		  ymVol 05h
		        note  C4
		  ymVol 0Bh
		        note  As3
		  ymVol 07h
		        note  As3
		  ymVol 05h
		        note  As3
		  ymVol 0Bh
		        note  C4
		  ymVol 07h
		        note  C4
		  ymVol 05h
		        note  C4
		repeatSection1Start
		  ymVol 0Bh
		        noteL Ds4,96
		repeatEnd
		repeatSection2Start
		  ymVol 0Bh
		        noteL Fs3,96
		  ymInst 26
		countedLoopStart 1
		repeatStart
		  ymVol 0Bh
		        noteL B3,12
		  ymVol 08h
		        note  B3
		  ymVol 09h
		        note  B3
		  ymVol 06h
		        note  B3
		  ymVol 0Bh
		        note  B3
		  ymVol 08h
		        note  B3
		  ymVol 09h
		        note  B3
		  ymVol 06h
		        note  B3
		repeatSection1Start
		  length 72
		repeatEnd
		repeatSection2Start
		  length 48
		  ymVol 0Bh
		        noteL B3,12
		        note  B3
		countedLoopEnd
		countedLoopStart 1
		  ymVol 0Bh
		        noteL B3,12
		  ymVol 08h
		        note  B3
		  ymVol 09h
		        note  B3
		  ymVol 06h
		        note  B3
		countedLoopEnd
		  length 24
		  ymInst 15
		  ymVol 0Ch
		        noteL B3,48
		repeatStart
		  ymInst 26
		countedLoopStart 1
		  ymVol 0Bh
		        noteL A3,12
		  ymVol 08h
		        note  A3
		  ymVol 09h
		        note  A3
		  ymVol 06h
		        note  A3
		countedLoopEnd
		repeatSection1Start
		  length 48
		  ymVol 0Bh
		        noteL A3,12
		        note  A3
		repeatEnd
		repeatSection2Start
		  length 24
		  ymInst 15
		  ymVol 0Ch
		        noteL A3,48
		repeatEnd
		repeatSection3Start
		  length 72
		countedLoopStart 1
		  ymVol 0Bh
		        noteL G3,12
		  ymVol 08h
		        note  G3
		  ymVol 09h
		        note  G3
		  ymVol 06h
		        note  G3
		countedLoopEnd
		  length 48
		  ymVol 0Bh
		        noteL G3,12
		        note  G3
		  ymVol 0Ah
		        noteL F3,192
		        noteL E3,96
		  ymVol 07h
		        noteL E3,16
		  ymVol 05h
		        note  E3
		  ymVol 03h
		        note  E3
		  ymVol 0Ah
		        noteL B4,12
		        note  C5
		        noteL D5,24
		        noteL C5,16
		  ymVol 06h
		        note  C5
		  ymVol 04h
		        note  C5
		  length 156
		  shifting 020h
		  ymStereo 040h
		  ymInst 0
		  ymVol 09h
		        noteL C3,12
		        note  B2
		        noteL C3,8
		  ymVol 04h
		        note  C3
		  ymVol 02h
		        note  C3
		  ymVol 09h
		        note  E3
		  ymVol 04h
		        note  E3
		  ymVol 02h
		        note  E3
		  ymVol 09h
		        noteL A3,12
		        note  G3
		        noteL A3,36
		        noteL C3,12
		        noteL As2,24
		  ymStereo 0C0h
		  ymInst 53
		  ymVol 09h
		        noteL F3,36
		        noteL E3,12
		        note  D3
		        note  F3
		        noteL E3,36
		        noteL D3,12
		        noteL D3,42
		  length 6
		        noteL D3,12
		        note  C3
		        noteL D3,8
		  ymVol 06h
		        note  D3
		  ymVol 04h
		        note  D3
		  ymVol 09h
		        note  F3
		  ymVol 06h
		        note  F3
		  ymVol 04h
		        note  F3
		  ymVol 09h
		        noteL As3,12
		        note  A3
		        noteL As3,36
		        noteL D3,12
		        noteL Ds3,24
		  ymStereo 040h
		  ymInst 9
		  ymVol 09h
		        noteL G4,36
		        noteL F4,12
		        note  Ds4
		        note  G4
		        noteL C5,36
		        noteL As4,12
		        noteL As4,42
		  ymVol 06h
		        noteL As4,6
		  ymVol 09h
		        noteL Gs4,12
		        note  G4
		        noteL Gs4,8
		  ymVol 06h
		        note  Gs4
		  ymVol 04h
		        note  Gs4
		  ymVol 09h
		        note  C5
		  ymVol 06h
		        note  C5
		  ymVol 04h
		        note  C5
		  ymVol 09h
		        noteL Ds5,12
		        note  D5
		        noteL Ds5,36
		        noteL G5,12
		        note  F5
		  ymVol 06h
		        note  F5
		  ymStereo 080h
		  ymInst 10
		  ymVol 09h
		        noteL Cs6,36
		        noteL C6,12
		        note  As5
		        note  Cs6
		        noteL G6,36
		        noteL F6,12
		        noteL F6,42
		  ymVol 05h
		        noteL F6,6
		  ymVol 09h
		        noteL F6,12
		        note  Ds6
		        noteL F6,8
		  ymVol 06h
		        note  F6
		  ymVol 04h
		        note  F6
		  ymVol 09h
		        note  Cs6
		  ymVol 06h
		        note  Cs6
		  ymVol 04h
		        note  Cs6
		  ymVol 02h
		        noteL Cs6,12
		  ymVol 09h
		        note  D5
		        note  E5
		        note  Fs5
		        note  Gs5
		        note  A5
		        note  B5
		        note  C6
		        noteL Cs6,60
		  shifting 00h
		  ymStereo 0C0h
		  release 06h
		  ymInst 27
		  ymVol 0Ah
		        noteL A3,12
		        note  A3
		  release 01h
		        noteL Cs4,8
		  ymVol 06h
		        note  Cs4
		  ymVol 04h
		        note  Cs4
		  ymVol 0Ah
		        noteL Gs4,48
		        noteL E4,8
		  ymVol 06h
		        note  E4
		  ymVol 04h
		        note  E4
		  ymVol 0Ah
		        noteL Fs4,60
		  ymVol 05h
		        noteL Fs4,12
		  release 06h
		  ymVol 0Ah
		        note  Fs3
		        note  Fs3
		  release 01h
		        noteL A3,8
		  ymVol 06h
		        note  A3
		  ymVol 04h
		        note  A3
		  ymVol 0Ah
		        noteL Cs4,48
		        noteL E4,8
		  ymVol 06h
		        note  E4
		  ymVol 04h
		        note  E4
		  ymVol 0Ah
		        noteL F4,60
		  ymVol 05h
		        noteL F4,12
		  ymVol 0Ah
		  release 06h
		        note  Gs3
		        note  Gs3
		  release 01h
		        noteL Ds4,8
		  ymVol 06h
		        note  Ds4
		  ymVol 04h
		        note  Ds4
		  ymVol 0Ah
		        note  Cs4
		  ymVol 06h
		        note  Cs4
		  ymVol 04h
		        note  Cs4
		  ymVol 0Ah
		        noteL As4,36
		        noteL Gs4,12
		        noteL Gs4,192
		mainLoopEnd
Music_6_Channel_4:
		mainLoopStart
		  ymStereo 040h
		  shifting 00h
		  ymInst 12
		  vibrato 02Ch
		repeatStart
		  ymVol 0Ch
		  ymSustain
		        noteL Fs2,3
		        note  G2
		        note  Gs2
		  release 01h
		        noteL A2,63
		        noteL E2,8
		  ymVol 05h
		        note  E2
		  ymVol 03h
		        note  E2
		  ymVol 0Ch
		        note  G2
		  ymVol 05h
		        note  G2
		  ymVol 03h
		        note  G2
		  ymVol 0Ch
		        note  A2
		  ymVol 05h
		        note  A2
		  ymVol 03h
		        note  A2
		  ymVol 0Ch
		repeatSection1Start
		        noteL C3,40
		        noteL As2,8
		  ymSustain
		        noteL G2,3
		        note  Gs2
		        note  A2
		  release 01h
		        noteL As2,183
		repeatEnd
		repeatSection2Start
		        noteL E3,40
		        noteL Ds3,8
		  ymSustain
		        noteL C3,3
		        note  Cs3
		        note  D3
		  release 01h
		        noteL Ds3,87
		  ymSustain
		        noteL Cs3,3
		        note  D3
		        note  Ds3
		  release 01h
		        noteL E3,71
		  shifting 020h
		  ymStereo 080h
		  ymInst 10
		  ymVol 0Ah
		        noteL Cs6,4
		        note  Ds6
		        note  E6
		        note  Fs6
		        note  Gs6
		        noteL A6,8
		  ymVol 07h
		        note  A6
		  ymVol 04h
		        note  A6
		  length 56
		  ymStereo 040h
		  ymInst 27
		  ymVol 0Ah
		  release 06h
		        noteL A3,12
		        note  A3
		  release 01h
		        noteL A3,240
		  ymVol 04h
		        noteL A3,24
		repeatStart
		  ymStereo 080h
		  ymInst 13
		  ymVol 0Ah
		        noteL E3,8
		  ymVol 07h
		        note  E3
		  ymVol 05h
		        note  E3
		  ymVol 0Ah
		        note  F3
		  ymVol 07h
		        note  F3
		  ymVol 05h
		        note  F3
		  ymVol 0Ah
		        note  C4
		  ymVol 07h
		        note  C4
		  ymVol 05h
		        note  C4
		  ymVol 0Ah
		        noteL B3,24
		        noteL G3,8
		  ymVol 07h
		        note  G3
		  ymVol 05h
		        note  G3
		  ymVol 0Ah
		        note  A3
		  ymVol 07h
		        note  A3
		  ymVol 05h
		        note  A3
		repeatSection1Start
		  ymVol 0Ah
		        noteL E4,48
		        noteL D4,8
		  ymVol 07h
		        note  D4
		  ymVol 05h
		        note  D4
		  ymVol 0Ah
		        note  B3
		  ymVol 07h
		        note  B3
		  ymVol 05h
		        note  B3
		  ymVol 0Ah
		        note  G3
		  ymVol 07h
		        note  G3
		  ymVol 05h
		        note  G3
		  ymVol 0Ah
		        noteL A3,48
		  ymVol 07h
		        noteL A3,8
		  ymVol 05h
		        note  A3
		  ymVol 03h
		        note  A3
		repeatEnd
		repeatSection2Start
		  ymVol 0Ah
		        noteL B3,8
		  ymVol 07h
		        note  B3
		  ymVol 05h
		        note  B3
		  ymVol 0Ah
		        note  D4
		  ymVol 07h
		        note  D4
		  ymVol 05h
		        note  D4
		  ymVol 0Ah
		        noteL A4,38
		        noteL G4,10
		        noteL G4,240
		  ymVol 05h
		        noteL G4,24
		  ymStereo 040h
		  ymInst 3
		  ymVol 0Ah
		        noteL B4,8
		  ymVol 07h
		        note  B4
		  ymVol 05h
		        note  B4
		  ymVol 0Ah
		        note  C5
		  ymVol 07h
		        note  C5
		  ymVol 05h
		        note  C5
		  ymVol 0Ah
		        note  G5
		  ymVol 07h
		        note  G5
		  ymVol 05h
		        note  G5
		  ymVol 0Ah
		        noteL F5,24
		        noteL D5,8
		  ymVol 07h
		        note  D5
		  ymVol 05h
		        note  D5
		  ymVol 0Ah
		        note  E5
		  ymVol 07h
		        note  E5
		  ymVol 05h
		        note  E5
		  ymVol 0Ah
		        noteL B5,48
		        noteL A5,8
		  ymVol 07h
		        note  A5
		  ymVol 05h
		        note  A5
		  ymVol 0Ah
		        noteL G5,48
		        noteL D5,38
		        noteL E5,10
		        noteL F5,192
		        noteL G5,144
		  ymVol 09h
		        noteL F5,48
		  ymStereo 080h
		  ymInst 10
		  ymVol 09h
		        noteL A5,12
		        note  B5
		        note  G6
		  ymVol 06h
		        note  G6
		  ymVol 09h
		        noteL Fs6,36
		        noteL D6,12
		        noteL E6,8
		  ymVol 05h
		        note  E6
		  ymVol 03h
		        note  E6
		  ymVol 09h
		        note  B6
		  ymVol 05h
		        note  B6
		  ymVol 03h
		        note  B6
		  ymVol 09h
		        note  A6
		  ymVol 05h
		        note  A6
		  ymVol 03h
		        note  A6
		  ymVol 09h
		        noteL G6,12
		        note  Fs6
		        note  E6
		        note  G6
		        note  Fs6
		        note  E6
		        note  D6
		        note  Fs6
		        noteL E6,8
		  ymVol 05h
		        note  E6
		  ymVol 03h
		        note  E6
		  ymVol 09h
		        note  C6
		  ymVol 05h
		        note  C6
		  ymVol 03h
		        note  C6
		  ymVol 09h
		        note  G5
		  ymVol 05h
		        note  G5
		  ymVol 03h
		        note  G5
		  ymStereo 040h
		  ymInst 54
		  ymVol 09h
		        noteL As3,12
		        note  C4
		        note  G4
		  ymVol 06h
		        note  G4
		  ymVol 09h
		        noteL F4,36
		        noteL C4,12
		        noteL D4,8
		  ymVol 05h
		        note  D4
		  ymVol 03h
		        note  D4
		  ymVol 09h
		        note  C5
		  ymVol 05h
		        note  C5
		  ymVol 03h
		        note  C5
		  ymVol 09h
		        note  As4
		  ymVol 05h
		        note  As4
		  ymVol 03h
		        note  As4
		  ymVol 09h
		        noteL A4,12
		        note  G4
		        note  F4
		        note  A4
		        note  G4
		        note  F4
		        note  E4
		        note  G4
		        noteL F4,8
		  ymVol 05h
		        note  F4
		  ymVol 03h
		        note  F4
		  ymVol 09h
		        note  D4
		  ymVol 05h
		        note  D4
		  ymVol 03h
		        note  D4
		  ymVol 09h
		        note  As3
		  ymVol 05h
		        note  As3
		  ymVol 03h
		        note  As3
		  length 168
		        silence
		  ymStereo 040h
		  ymInst 26
		  ymVol 0Ah
		        noteL C4,12
		        note  Cs4
		        note  As4
		  ymVol 07h
		        note  As4
		  ymVol 0Ah
		        noteL Gs4,36
		        noteL E4,12
		        noteL F4,8
		  ymVol 06h
		        note  F4
		  ymVol 04h
		        note  F4
		  ymVol 0Ah
		        note  Ds5
		  ymVol 06h
		        note  Ds5
		  ymVol 04h
		        note  Ds5
		  ymVol 0Ah
		        note  Cs5
		  ymVol 06h
		        note  Cs5
		  ymVol 04h
		        note  Cs5
		  ymVol 0Ah
		        noteL C5,12
		        note  As4
		        note  Gs4
		        note  C5
		        note  As4
		        note  Gs4
		        noteL As4,36
		        noteL B4,12
		        note  Cs5
		        note  D5
		        note  E5
		        note  Fs5
		        note  Gs5
		        note  A5
		        note  Gs5
		        note  Fs5
		        note  E5
		        note  Fs5
		        noteL Gs5,24
		  release 06h
		  ymStereo 040h
		  ymInst 27
		  ymVol 09h
		        noteL A3,12
		        note  A3
		  release 01h
		        noteL Cs4,8
		  ymVol 05h
		        note  Cs4
		  ymVol 03h
		        note  Cs4
		  ymVol 09h
		        noteL Gs4,48
		        noteL E4,8
		  ymVol 05h
		        note  E4
		  ymVol 03h
		        note  E4
		  ymStereo 040h
		  ymInst 26
		  ymVol 0Ah
		        noteL Gs5,12
		        note  Fs5
		        note  E5
		        note  Fs5
		        noteL Gs5,24
		  release 06h
		  ymStereo 080h
		  ymInst 27
		  ymVol 09h
		        noteL Fs3,12
		        note  Fs3
		  release 01h
		        noteL A3,8
		  ymVol 05h
		        note  A3
		  ymVol 03h
		        note  A3
		  ymVol 09h
		        noteL Cs4,48
		        noteL E4,8
		  ymVol 05h
		        note  E4
		  ymVol 03h
		        note  E4
		  ymStereo 040h
		  ymInst 26
		  ymVol 0Ah
		        noteL Gs5,12
		        note  Fs5
		        note  F5
		        note  Fs5
		        noteL Gs5,24
		  release 06h
		  ymStereo 080h
		  ymInst 27
		  ymVol 09h
		        noteL Gs3,12
		        note  Gs3
		  release 01h
		        noteL Ds4,8
		  ymVol 05h
		        note  Ds4
		  ymVol 03h
		        note  Ds4
		  ymVol 09h
		        note  Cs4
		  ymVol 05h
		        note  Cs4
		  ymVol 03h
		        note  Cs4
		  ymVol 09h
		        noteL As4,36
		        noteL Gs4,12
		        note  Gs4
		  ymStereo 0C0h
		  ymInst 26
		  ymVol 0Bh
		        note  C4
		        note  Cs4
		        note  As4
		        note  Gs4
		        note  E4
		        note  F4
		  ymVol 0Ch
		        note  C5
		        note  As4
		        note  Gs4
		        note  As4
		        note  C5
		        note  Cs5
		  ymVol 0Dh
		        note  Ds5
		        note  F5
		mainLoopEnd
Music_6_Channel_5:
		  ymStereo 0C0h
		mainLoopStart
		countedLoopStart 1
		        sampleL 5,72
		        sampleL 2,12
		        sample  3
		        sampleL 2,24
		        sample  3
		        sample  2
		        sampleL 4,8
		        sample  3
		        sample  3
		        sampleL 2,96
		        sampleL 3,4
		        sample  4
		        sample  4
		        sample  4
		        sample  3
		        sample  3
		        sampleL 2,24
		        sample  3
		        sampleL 2,4
		        sample  3
		        sample  3
		        sample  4
		        sample  4
		        sample  4
		countedLoopEnd
		countedLoopStart 15
		  length 249
		countedLoopEnd
		        sampleL 4,4
		        sample  4
		        sample  4
		        sample  4
		        sample  3
		        sample  3
		        sample  3
		        sample  3
		        sample  2
		        sample  2
		        sample  2
		        sample  2
		mainLoopEnd
Music_6_Channel_6:
		mainLoopStart
		  vibrato 04Ch
		  psgInst 124
		repeatStart
		  release 010h
		        psgNoteL Fs5,24
		        psgNote  E5
		        psgNoteL Fs5,168
		        psgNoteL E5,24
		        psgNote  D5
		        psgNote  E5
		repeatSection1Start
		        psgNoteL G5,96
		repeatEnd
		repeatSection2Start
		        psgNoteL As4,96
		  release 01h
		countedLoopStart 1
		repeatStart
		  psgInst 124
		        psgNoteL Cs5,12
		  psgInst 121
		        psgNote  Cs5
		  psgInst 122
		        psgNote  Cs5
		  psgInst 119
		        psgNote  Cs5
		  psgInst 124
		        psgNote  Cs5
		  psgInst 121
		        psgNote  Cs5
		  psgInst 122
		        psgNote  Cs5
		  psgInst 119
		        psgNote  Cs5
		  psgInst 0
		repeatSection1Start
		  length 72
		repeatEnd
		repeatSection2Start
		  length 48
		  psgInst 124
		        psgNoteL Cs5,12
		        psgNote  Cs5
		countedLoopEnd
		countedLoopStart 1
		  psgInst 124
		        psgNoteL Cs5,12
		  psgInst 7
		        psgNote  Cs5
		  psgInst 122
		        psgNote  Cs5
		  psgInst 119
		        psgNote  Cs5
		countedLoopEnd
		  psgInst 0
		  length 24
		  release 00h
		  psgInst 247
		        psgNoteL Cs5,12
		  psgInst 249
		        psgNote  Cs5
		  psgInst 250
		        psgNote  Cs5
		  release 01h
		  psgInst 252
		        psgNote  Cs5
		repeatStart
		countedLoopStart 1
		  psgInst 124
		        psgNoteL B4,12
		  psgInst 121
		        psgNote  B4
		  psgInst 122
		        psgNote  B4
		  psgInst 119
		        psgNote  B4
		countedLoopEnd
		  psgInst 0
		repeatSection1Start
		  length 48
		  psgInst 124
		        psgNoteL B4,12
		        psgNote  B4
		repeatEnd
		repeatSection2Start
		  length 24
		  release 00h
		  psgInst 247
		        psgNoteL B4,12
		  psgInst 249
		        psgNote  B4
		  psgInst 250
		        psgNote  B4
		  release 01h
		  psgInst 252
		        psgNote  B4
		countedLoopStart 1
		  psgInst 124
		        psgNoteL A4,12
		  psgInst 121
		        psgNote  A4
		  psgInst 122
		        psgNote  A4
		  psgInst 119
		        psgNote  A4
		countedLoopEnd
		  psgInst 0
		  length 72
		countedLoopStart 1
		  psgInst 124
		        psgNoteL Gs4,12
		  psgInst 121
		        psgNote  Gs4
		  psgInst 122
		        psgNote  Gs4
		  psgInst 119
		        psgNote  Gs4
		countedLoopEnd
		  psgInst 0
		  length 48
		  psgInst 124
		        psgNoteL Gs4,12
		        psgNote  Gs4
		        psgNoteL D4,192
		        psgNote  B4
		  psgInst 0
		  length 168
		        silence
		        silence
		        silence
		  psgInst 124
		        psgNoteL D5,12
		        psgNote  E5
		        psgNote  B5
		        silence
		        psgNoteL A5,36
		        psgNoteL Fs5,12
		        psgNoteL G5,8
		  length 16
		        psgNoteL E6,8
		  length 16
		        psgNoteL D6,8
		  length 16
		        psgNoteL C6,12
		        psgNote  B5
		        psgNote  A5
		        psgNote  C6
		        psgNote  B5
		        psgNote  A5
		        psgNote  G5
		        psgNote  B5
		        psgNoteL A5,8
		  length 16
		        psgNoteL E5,8
		  length 16
		        psgNoteL C5,8
		  length 16
		        psgNoteL F5,8
		  length 16
		        psgNoteL D5,48
		        psgNoteL As4,8
		  length 40
		        psgNoteL A4,12
		        psgNote  As4
		        psgNote  G5
		        silence
		        psgNoteL F5,36
		        psgNoteL Ds5,12
		        psgNoteL Ds5,48
		  length 24
		        psgNoteL Gs5,48
		        psgNoteL Cs6,24
		  psgInst 124
		        psgNoteL Fs5,144
		        psgNoteL Fs5,24
		        psgNote  F5
		        psgNoteL Ds5,144
		        psgNoteL Ds5,48
		  release 080h
		        psgNoteL D5,192
		  vibrato 040h
		  release 01h
		        psgNote  D5
		mainLoopEnd
Music_6_Channel_7:
		mainLoopStart
		  vibrato 04Ch
		  psgInst 123
		repeatStart
		  release 010h
		        psgNoteL Cs5,24
		        psgNote  B4
		        psgNoteL Cs5,168
		        psgNoteL B4,24
		        psgNote  A4
		        psgNote  B4
		repeatSection1Start
		        psgNoteL D5,96
		repeatEnd
		repeatSection2Start
		        psgNoteL F4,96
		  release 01h
		countedLoopStart 1
		repeatStart
		  psgInst 124
		        psgNoteL Gs4,12
		  psgInst 121
		        psgNote  Gs4
		  psgInst 122
		        psgNote  Gs4
		  psgInst 119
		        psgNote  Gs4
		  psgInst 124
		        psgNote  Gs4
		  psgInst 121
		        psgNote  Gs4
		  psgInst 122
		        psgNote  Gs4
		  psgInst 119
		        psgNote  Gs4
		  psgInst 0
		repeatSection1Start
		  length 72
		repeatEnd
		repeatSection2Start
		  length 48
		  psgInst 124
		        psgNoteL Gs4,12
		        psgNote  Gs4
		countedLoopEnd
		countedLoopStart 1
		  psgInst 124
		        psgNoteL Gs4,12
		  psgInst 7
		        psgNote  Gs4
		  psgInst 122
		        psgNote  Gs4
		  psgInst 119
		        psgNote  Gs4
		countedLoopEnd
		  psgInst 0
		  length 24
		  release 00h
		  psgInst 247
		        psgNoteL Gs4,12
		  psgInst 249
		        psgNote  Gs4
		  psgInst 250
		        psgNote  Gs4
		  release 01h
		  psgInst 252
		        psgNote  Gs4
		repeatStart
		countedLoopStart 1
		  psgInst 124
		        psgNoteL Fs4,12
		  psgInst 121
		        psgNote  Fs4
		  psgInst 122
		        psgNote  Fs4
		  psgInst 119
		        psgNote  Fs4
		countedLoopEnd
		  psgInst 0
		repeatSection1Start
		  length 48
		  psgInst 124
		        psgNoteL Fs4,12
		        psgNote  Fs4
		repeatEnd
		repeatSection2Start
		  length 24
		  release 00h
		  psgInst 247
		        psgNoteL Fs4,12
		  psgInst 249
		        psgNote  Fs4
		  psgInst 250
		        psgNote  Fs4
		  release 01h
		  psgInst 252
		        psgNote  Fs4
		repeatEnd
		repeatSection3Start
		  length 72
		countedLoopStart 1
		  psgInst 124
		        psgNoteL E4,12
		  psgInst 121
		        psgNote  E4
		  psgInst 122
		        psgNote  E4
		  psgInst 119
		        psgNote  E4
		countedLoopEnd
		  psgInst 0
		  length 48
		  psgInst 124
		        psgNoteL E4,12
		        psgNote  E4
		        psgNoteL Fs4,192
		        psgNote  Gs4
		  psgInst 0
		  length 168
		        silence
		        silence
		  length 174
		  psgInst 122
		        psgNoteL D5,12
		        psgNote  E5
		        psgNote  B5
		        silence
		        psgNoteL A5,36
		        psgNoteL Fs5,12
		        psgNoteL G5,8
		  length 16
		        psgNoteL E6,8
		  length 16
		        psgNoteL D6,8
		  length 16
		        psgNoteL C6,12
		        psgNote  B5
		        psgNote  A5
		        psgNote  C6
		        psgNote  B5
		        psgNote  A5
		        psgNote  G5
		        psgNote  B5
		        psgNoteL A5,8
		  length 16
		        psgNoteL E5,8
		  length 16
		        psgNoteL C5,8
		  length 16
		        psgNoteL F5,8
		  length 16
		        psgNoteL D5,48
		        psgNoteL As4,8
		  length 40
		        psgNoteL A4,12
		        psgNote  As4
		        psgNote  G5
		        silence
		        psgNoteL F5,36
		        psgNoteL Ds5,12
		        psgNoteL Ds5,42
		        psgNoteL F5,48
		        psgNote  F5
		  psgInst 122
		        psgNoteL As4,144
		        psgNoteL As4,48
		        psgNoteL As4,144
		        psgNoteL As4,24
		        psgNote  Gs4
		  release 080h
		        psgNoteL As4,192
		  vibrato 040h
		  release 01h
		        psgNote  As4
		mainLoopEnd
Music_6_Channel_9:
		channel_end
