
; ASM FILE music33.asm :
; 0x8040..0x910B : Music 33
Music_33:       db 0
		db 0
		db 0
		db 0C0h
		dw Music_1_Channel_0
		dw Music_1_Channel_1
		dw Music_1_Channel_2
		dw Music_1_Channel_3
		dw Music_1_Channel_4
		dw Music_1_Channel_5
		dw Music_1_Channel_6
		dw Music_1_Channel_7
		dw Music_1_Channel_9
		dw Music_1_Channel_9
Music_1_Channel_0:
		  ymStereo 0C0h
		  vibrato 02Ch
		mainLoopStart
		  ymInst 38
		  ymVol 0Ch
		repeatStart
		  release 09h
		        noteL D2,12
		        note  D2
		        note  D2
		        note  D2
		        note  D2
		  release 03h
		        noteL D2,6
		        note  D2
		  release 09h
		        noteL D2,12
		        note  D2
		countedLoopStart 1
		        noteL D2,12
		  release 03h
		        noteL D2,6
		        note  D2
		  release 09h
		countedLoopEnd
		repeatSection1Start
		repeatEnd
		repeatSection2Start
		  ymInst 35
		  ymVol 0Ch
		  release 07h
		        noteL F2,36
		        note  E2
		        note  D2
		        noteL C3,12
		        note  B2
		        note  A2
		        note  F2
		        note  D2
		        noteL D2,36
		        note  C2
		        note  B1
		        noteL A2,12
		        note  F2
		        note  E2
		        note  D2
		        note  B1
		repeatStart
		  release 01h
		        noteL E2,48
		        noteL B1,24
		        note  E2
		        note  A1
		repeatSection1Start
		        noteL B1,30
		  length 6
		        note  B1
		        silence
		repeatEnd
		repeatSection2Start
		        noteL B1,24
		        note  E2
		  ymInst 38
		  ymVol 0Ch
		countedLoopStart 2
		  release 09h
		        noteL Ds2,12
		        note  Ds2
		  length 6
		  release 03h
		        note  Ds2
		        note  Ds2
		        note  Ds2
		countedLoopEnd
		  release 01h
		        noteL Ds2,24
		  ymVol 0Bh
		        noteL D2,72
		        note  D2
		        note  D2
		        noteL D2,12
		        silence
		        noteL D2,48
		  ymVol 0Ch
		  release 09h
		countedLoopStart 5
		        noteL D2,12
		countedLoopEnd
		countedLoopStart 5
		        noteL E2,12
		countedLoopEnd
		countedLoopStart 5
		        noteL F2,12
		countedLoopEnd
		        noteL G2,12
		        note  G2
		  release 05h
		        noteL G2,24
		        note  G2
		  ymVol 0Bh
		  release 01h
		        noteL As2,48
		  length 12
		        noteL As2,6
		  ymVol 07h
		        note  As2
		  ymVol 0Bh
		        noteL A2,72
		        noteL Gs2,48
		  length 12
		        noteL Gs2,6
		  ymVol 07h
		        note  Gs2
		  ymVol 0Bh
		        noteL G2,48
		  ymVol 0Ch
		        noteL G2,18
		        noteL F2,6
		        noteL E2,12
		  ymVol 08h
		        note  E2
		  ymVol 0Ch
		        noteL A1,48
		        noteL D2,24
		        noteL C2,48
		        noteL B1,72
		        noteL E2,36
		  ymVol 0Dh
		        noteL D3,6
		        note  C3
		        note  B2
		        note  A2
		        note  Gs2
		        note  E2
		repeatStart
		countedLoopStart 2
		  length 24
		  ymInst 32
		  ymVol 0Dh
		        noteL E2,6
		  ymVol 09h
		        note  E2
		  ymVol 0Dh
		        note  A2
		  ymVol 09h
		        note  A2
		  ymVol 0Dh
		countedLoopEnd
		  length 12
		repeatSection1Start
		        noteL A2,24
		        noteL E2,6
		  ymVol 09h
		        note  E2
		repeatEnd
		repeatSection2Start
		        noteL A2,24
		        noteL G2,6
		  ymVol 09h
		        note  G2
		countedLoopStart 2
		  length 24
		  ymVol 0Dh
		        noteL C2,6
		  ymVol 09h
		        note  C2
		  ymVol 0Dh
		        note  F2
		  ymVol 09h
		        note  F2
		countedLoopEnd
		  length 12
		  ymVol 0Dh
		        noteL F2,24
		        noteL G2,6
		  ymVol 09h
		        note  G2
		countedLoopStart 2
		  length 24
		  ymVol 0Dh
		        noteL E2,6
		  ymVol 09h
		        note  E2
		  ymVol 0Dh
		        note  A2
		  ymVol 09h
		        note  A2
		countedLoopEnd
		  ymInst 38
		  ymVol 0Dh
		        noteL A2,24
		        note  G2
		  ymVol 0Ch
		        noteL F2,96
		        note  E2
		countedLoopStart 2
		  release 09h
		        noteL As1,12
		        note  As1
		  length 6
		  release 03h
		        note  As1
		        note  As1
		        note  As1
		countedLoopEnd
		  release 01h
		        noteL As1,6
		  length 18
		        noteL E2,24
		  ymInst 52
		  ymVol 0Eh
		countedLoopStart 1
		        noteL A1,96
		        noteL A2,6
		  ymVol 0Ah
		        note  A2
		  ymVol 0Eh
		  ymSustain
		        noteL Fs2,4
		        note  G2
		  release 01h
		        note  Gs2
		        noteL A2,30
		  ymVol 0Ah
		        noteL A2,6
		  ymVol 0Eh
		  ymSustain
		        noteL Fs2,4
		        note  G2
		  release 01h
		        note  Gs2
		        noteL A2,24
		countedLoopEnd
		        noteL A1,192
		mainLoopEnd
Music_1_Channel_1:
		  ymStereo 0C0h
		  release 01h
		  vibrato 02Ch
		mainLoopStart
		  length 12
		  ymInst 26
		  ymVol 0Ch
		        note  D4
		        note  E4
		        note  B4
		        note  A4
		        note  E4
		        noteL F4,18
		        noteL C5,6
		        noteL B4,36
		        noteL G4,12
		        note  A4
		        note  E5
		        note  D5
		        note  B4
		        noteL C5,18
		        noteL G5,6
		        noteL F5,18
		        noteL E5,6
		        note  F5
		  ymVol 09h
		        note  F5
		  ymVol 0Ch
		        note  D5
		        note  E5
		        note  F5
		        note  G5
		        note  A5
		        note  B5
		repeatStart
		countedLoopStart 2
		        noteL C6,6
		        note  B5
		        note  A5
		        note  Gs5
		        note  A5
		  ymVol 09h
		        note  A5
		  ymVol 0Ch
		countedLoopEnd
		        noteL C6,6
		        note  B5
		        note  A5
		        note  Gs5
		        note  A5
		        note  B5
		        note  C6
		        note  D6
		        note  E6
		repeatSection1Start
		        noteL B5,6
		repeatEnd
		repeatSection2Start
		        noteL F6,6
		        note  Fs6
		  ymVol 0Ah
		        note  Fs6
		  ymVol 08h
		        note  Fs6
		  ymVol 06h
		        note  Fs6
		  ymInst 13
		repeatStart
		  ymVol 0Bh
		        noteL Fs4,12
		  ymVol 09h
		        noteL Fs4,6
		  ymVol 0Bh
		        note  Fs4
		        noteL A4,30
		  ymVol 09h
		        noteL A4,6
		  ymVol 0Bh
		        note  Fs4
		  ymVol 09h
		        note  Fs4
		  ymVol 0Bh
		        noteL A4,18
		        noteL B4,6
		        noteL E4,24
		repeatSection1Start
		        noteL Fs4,24
		  ymVol 08h
		        noteL Fs4,6
		  ymVol 06h
		        note  Fs4
		  length 12
		repeatEnd
		repeatSection2Start
		        noteL Fs4,12
		  ymVol 09h
		        noteL Fs4,6
		  ymVol 0Bh
		        note  Fs4
		        noteL Gs4,168
		  ymInst 20
		  ymVol 0Bh
		  length 12
		        note  D3
		        note  E3
		        note  B3
		        note  A3
		        note  E3
		        noteL F3,18
		        noteL C4,6
		        noteL B3,12
		        note  A3
		        note  G3
		        note  A3
		        noteL B3,30
		        noteL A3,6
		        note  G3
		        note  F3
		        noteL E3,30
		        noteL F3,6
		        note  E3
		        note  D3
		        noteL C3,18
		        noteL D3,6
		        noteL D3,24
		  length 12
		  ymInst 26
		  ymVol 0Ch
		        note  F4
		        note  G4
		        note  E5
		        note  D5
		        note  C5
		        noteL D5,18
		        noteL B5,6
		        noteL A5,12
		        note  G5
		        note  F5
		        note  G5
		        noteL A5,30
		        noteL G5,6
		        note  F5
		        note  E5
		        noteL F5,30
		        noteL E5,6
		        note  D5
		        note  Cs5
		        note  D5
		        note  E5
		        note  F5
		        note  G5
		        note  A5
		        note  B5
		        note  C6
		        note  Cs6
		  ymVol 0Ah
		        noteL D6,126
		        noteL C6,6
		        note  B5
		        note  G5
		        noteL F5,114
		  ymVol 07h
		        noteL F5,6
		  ymVol 0Ch
		        noteL D5,4
		        note  E5
		        note  F5
		        note  E5
		        note  D5
		        note  A4
		        noteL G4,12
		  ymVol 09h
		        noteL G4,6
		  ymVol 0Ch
		        note  D5
		        noteL D5,12
		        note  B4
		        note  Cs5
		        note  E5
		        note  E5
		        note  D5
		        note  E5
		        note  F5
		        note  D5
		  ymVol 09h
		        noteL D5,6
		  ymVol 0Ch
		        note  A5
		        noteL A5,30
		        noteL G5,6
		        note  F5
		        note  E5
		        note  F5
		        note  E5
		        note  D5
		        note  A4
		        note  B4
		        note  A4
		        note  E4
		        note  Fs4
		        note  Gs4
		        note  A4
		        note  B4
		        note  D5
		        note  E5
		        note  Fs5
		        note  Gs5
		        note  B5
		countedLoopStart 2
		        noteL C6,4
		  ymVol 08h
		        note  C6
		  ymVol 0Ch
		        note  C6
		  ymVol 08h
		        note  C6
		  ymVol 0Ch
		        noteL D6,6
		  ymVol 08h
		        note  D6
		  ymVol 06h
		        note  D6
		  length 14
		  ymVol 0Ch
		        noteL C6,4
		  ymVol 08h
		        note  C6
		  ymVol 0Ch
		        note  C6
		  ymVol 08h
		        note  C6
		  ymVol 0Ch
		        noteL B5,6
		  ymVol 08h
		        note  B5
		  ymVol 06h
		        note  B5
		  length 14
		  ymVol 0Ch
		        noteL C6,4
		  ymVol 08h
		        note  C6
		  ymVol 0Ch
		        note  C6
		  ymVol 08h
		        note  C6
		  ymVol 0Ch
		        noteL D6,6
		  ymVol 08h
		        note  D6
		  ymVol 06h
		        note  D6
		  length 14
		  ymVol 0Ch
		        noteL E6,16
		        noteL D6,4
		        note  C6
		        noteL B5,24
		countedLoopEnd
		        noteL C6,4
		  ymVol 08h
		        note  C6
		  ymVol 0Ch
		        note  C6
		  ymVol 08h
		        note  C6
		  ymVol 0Ch
		        noteL D6,6
		  ymVol 08h
		        note  D6
		  ymVol 06h
		        note  D6
		  length 14
		  ymVol 0Ch
		        noteL C6,4
		  ymVol 08h
		        note  C6
		  ymVol 0Ch
		        note  C6
		  ymVol 08h
		        note  C6
		  ymVol 0Ch
		        noteL B5,6
		  ymVol 08h
		        note  B5
		  ymVol 06h
		        note  B5
		  length 14
		  ymVol 0Ch
		        noteL C6,4
		  ymVol 08h
		        note  C6
		  ymVol 0Ch
		        note  C6
		  ymVol 08h
		        note  C6
		  ymVol 0Ch
		        noteL D6,6
		  ymVol 08h
		        note  D6
		  ymVol 06h
		        note  D6
		  length 14
		  ymVol 0Ch
		        noteL E6,16
		        noteL D6,4
		        note  C6
		        noteL B5,18
		        noteL C6,6
		  ymVol 0Bh
		        noteL A5,72
		  ymSustain
		        noteL A5,3
		        note  G5
		        note  F5
		        note  E5
		        note  D5
		        note  C5
		        note  B4
		        note  A4
		  release 01h
		        noteL G4,96
		        noteL F4,144
		  ymVol 0Ch
		        noteL F4,6
		  ymVol 08h
		        note  F4
		  ymVol 06h
		        note  F4
		  ymVol 04h
		        note  F4
		  ymInst 3
		  ymVol 0Bh
		        noteL G5,24
		        noteL A5,6
		  ymVol 07h
		        note  A5
		  ymInst 27
		  ymVol 0Ah
		repeatStart
		        noteL E4,12
		        noteL Fs4,15
		  length 3
		        noteL Fs4,6
		        note  A4
		        silence
		        noteL C5,18
		  length 6
		        note  C5
		        silence
		countedLoopStart 1
		        noteL E5,30
		  length 6
		        note  Cs5
		        silence
		countedLoopEnd
		repeatSection1Start
		        noteL E5,6
		        silence
		repeatEnd
		repeatSection2Start
		  ymVol 09h
		        noteL E5,192
		mainLoopEnd
Music_1_Channel_2:
		  ymStereo 0C0h
		  vibrato 02Ch
		mainLoopStart
		  ymInst 13
		  ymVol 0Ah
		countedLoopStart 1
		  release 09h
		        noteL A3,12
		        note  A3
		        note  A3
		        note  A3
		        note  A3
		  release 03h
		        noteL A3,6
		        note  A3
		  release 09h
		        noteL B3,12
		        note  B3
		        note  B3
		  release 03h
		        noteL B3,6
		        note  B3
		  release 09h
		        noteL B3,12
		  release 03h
		        noteL B3,6
		        note  B3
		countedLoopEnd
		  release 01h
		repeatStart
		countedLoopStart 2
		  ymInst 26
		  ymVol 0Bh
		        noteL A5,6
		        note  G5
		        note  F5
		        note  E5
		        note  F5
		  ymVol 08h
		        note  F5
		countedLoopEnd
		  ymVol 0Bh
		        noteL A5,6
		        note  G5
		        note  F5
		        note  E5
		        note  F5
		        note  G5
		        note  A5
		        note  B5
		        note  C6
		repeatSection1Start
		        noteL G5,6
		repeatEnd
		repeatSection2Start
		        noteL D6,6
		        note  Ds6
		  ymVol 09h
		        note  Ds6
		  ymVol 07h
		        note  Ds6
		  ymVol 05h
		        note  Ds6
		  ymInst 13
		repeatStart
		  ymVol 0Bh
		        noteL Ds4,12
		  ymVol 09h
		        noteL Ds4,6
		  ymVol 0Bh
		        note  Ds4
		        noteL Fs4,30
		  ymVol 09h
		        noteL Fs4,6
		  ymVol 0Bh
		        note  Ds4
		  ymVol 09h
		        note  Ds4
		  ymVol 0Bh
		        noteL Fs4,24
		        note  Cs4
		repeatSection1Start
		        noteL Ds4,24
		  ymVol 08h
		        noteL Ds4,6
		  ymVol 06h
		        note  Ds4
		  length 12
		repeatEnd
		repeatSection2Start
		        noteL Ds4,12
		  ymVol 09h
		        noteL Ds4,6
		  ymVol 0Bh
		        note  Ds4
		  ymVol 0Ah
		countedLoopStart 2
		  release 09h
		        noteL F4,12
		        note  F4
		  length 6
		  release 03h
		        note  F4
		        note  F4
		        note  F4
		countedLoopEnd
		  release 01h
		        noteL F4,24
		        silence
		  ymInst 7
		  ymVol 0Ah
		        noteL A5,36
		        noteL G5,6
		  ymVol 07h
		        note  G5
		  ymVol 0Ah
		        noteL G5,48
		  ymVol 07h
		        noteL G5,6
		  ymVol 0Ah
		        note  F5
		        note  E5
		        note  F5
		        noteL G5,48
		        noteL F5,6
		        note  E5
		        note  D5
		        note  C5
		        noteL B4,36
		  ymVol 07h
		        noteL B4,6
		  ymVol 05h
		        note  B4
		  ymVol 0Ah
		        noteL G5,18
		        noteL A5,6
		        noteL A5,36
		  ymVol 07h
		        noteL A5,6
		  ymVol 05h
		        note  A5
		  ymInst 26
		  ymVol 0Bh
		        noteL A4,24
		        noteL G4,36
		        noteL B4,12
		        note  D5
		        note  B4
		        note  D5
		        noteL C5,18
		        noteL B4,6
		        note  A4
		        note  G4
		        noteL A4,30
		        noteL C5,6
		        note  B4
		        note  As4
		        note  B4
		        note  C5
		        note  D5
		        note  E5
		        note  F5
		        note  E5
		        note  D5
		        note  F5
		  length 12
		  ymInst 44
		  ymVol 0Ch
		        note  F5
		        note  E5
		        note  A5
		        noteL E6,8
		        note  D6
		        note  C6
		        noteL B5,36
		        noteL C6,6
		        note  D6
		        noteL B5,24
		  ymVol 08h
		        noteL B5,6
		  ymVol 06h
		        note  B5
		  ymInst 9
		  ymVol 0Ch
		        noteL D4,12
		        note  C4
		        note  Gs4
		        noteL D5,8
		        note  C5
		        note  As4
		        noteL A4,36
		        noteL F4,6
		        note  G4
		        noteL A4,24
		  ymInst 26
		  ymVol 0Bh
		        noteL E4,12
		  ymVol 07h
		        noteL E4,6
		  ymVol 05h
		        note  E4
		  ymVol 0Bh
		        noteL E4,30
		        noteL D4,6
		        note  E4
		        note  F4
		        noteL A4,48
		        noteL A4,24
		        noteL D4,72
		        noteL E4,6
		  ymVol 08h
		        note  E4
		  ymVol 0Bh
		        note  Gs3
		        note  A3
		        note  B3
		        note  C4
		        note  D4
		        note  F4
		        note  Gs4
		        note  A4
		        note  B4
		        note  D5
		countedLoopStart 1
		  ymVol 0Ch
		        noteL A5,4
		  ymVol 08h
		        note  A5
		  ymVol 0Ch
		        note  A5
		  ymVol 08h
		        note  A5
		  ymVol 0Ch
		        noteL B5,6
		  ymVol 08h
		        note  B5
		  ymVol 06h
		        note  B5
		  length 14
		  ymVol 0Ch
		        noteL A5,4
		  ymVol 08h
		        note  A5
		  ymVol 0Ch
		        note  A5
		  ymVol 08h
		        note  A5
		  ymVol 0Ch
		        noteL A5,6
		  ymVol 08h
		        note  A5
		  ymVol 06h
		        note  A5
		  length 14
		  ymVol 0Ch
		        noteL A5,4
		  ymVol 08h
		        note  A5
		  ymVol 0Ch
		        note  A5
		  ymVol 08h
		        note  A5
		  ymVol 0Ch
		        noteL B5,6
		  ymVol 08h
		        note  B5
		  ymVol 06h
		        note  B5
		  length 14
		  ymVol 0Ch
		        noteL C6,16
		        noteL B5,4
		        note  A5
		        noteL A5,24
		countedLoopEnd
		repeatStart
		        noteL A5,4
		  ymVol 08h
		        note  A5
		  ymVol 0Ch
		        note  A5
		  ymVol 08h
		        note  A5
		  ymVol 0Ch
		        noteL B5,6
		  ymVol 08h
		        note  B5
		  ymVol 06h
		        note  B5
		  length 14
		  ymVol 0Ch
		        noteL A5,4
		  ymVol 08h
		        note  A5
		  ymVol 0Ch
		        note  A5
		  ymVol 08h
		        note  A5
		  ymVol 0Ch
		        noteL A5,6
		  ymVol 08h
		        note  A5
		  ymVol 06h
		        note  A5
		  length 14
		  ymVol 0Ch
		        noteL A5,4
		  ymVol 08h
		        note  A5
		  ymVol 0Ch
		        note  A5
		  ymVol 08h
		        note  A5
		  ymVol 0Ch
		        noteL B5,6
		  ymVol 08h
		        note  B5
		  ymVol 06h
		        note  B5
		  length 14
		  ymVol 0Ch
		repeatSection1Start
		        noteL A5,16
		        noteL B5,4
		        note  A5
		        noteL G5,24
		repeatEnd
		repeatSection2Start
		        noteL C6,16
		        noteL B5,4
		        note  A5
		        noteL A5,24
		  ymVol 0Bh
		        noteL E4,96
		        note  D4
		  ymInst 3
		countedLoopStart 2
		  ymVol 0Bh
		        noteL D4,6
		  ymVol 07h
		        note  D4
		  ymVol 0Bh
		        note  D4
		  ymVol 07h
		        note  D4
		  ymVol 05h
		        note  D4
		  release 03h
		  ymVol 0Bh
		        note  D4
		        note  D4
		        note  D4
		  release 01h
		countedLoopEnd
		        noteL D4,6
		  ymVol 07h
		        note  D4
		  ymVol 05h
		        note  D4
		  ymVol 03h
		        note  D4
		  ymVol 0Bh
		        noteL D5,24
		        noteL Cs5,6
		  ymVol 07h
		        note  Cs5
		  ymInst 27
		  ymVol 0Ah
		repeatStart
		        noteL Cs4,12
		        noteL Ds4,15
		  length 3
		        noteL Ds4,6
		        note  Fs4
		        silence
		        noteL A4,18
		  length 6
		        note  A4
		        silence
		countedLoopStart 1
		        noteL Cs5,30
		  length 6
		        note  A4
		        silence
		countedLoopEnd
		repeatSection1Start
		        noteL Cs5,6
		        silence
		repeatEnd
		repeatSection2Start
		  ymVol 09h
		        noteL Cs5,192
		mainLoopEnd
Music_1_Channel_3:
		  ymStereo 0C0h
		  vibrato 02Ch
		mainLoopStart
		  ymInst 13
		  ymVol 0Ah
		countedLoopStart 1
		  release 09h
		        noteL F3,12
		        note  F3
		        note  F3
		        note  F3
		        note  F3
		  release 03h
		        noteL F3,6
		        note  F3
		  release 09h
		        noteL G3,12
		        note  G3
		        note  G3
		  release 03h
		        noteL G3,6
		        note  G3
		  release 09h
		        noteL G3,12
		  release 03h
		        noteL G3,6
		        note  G3
		countedLoopEnd
		  release 07h
		        noteL A3,36
		        note  G3
		        note  F3
		  release 09h
		        noteL C4,12
		        note  B3
		        note  A3
		        note  F3
		        note  D3
		  release 07h
		        noteL F3,36
		        note  E3
		        note  D3
		  release 09h
		        noteL A3,12
		        note  F3
		        note  E3
		        note  D3
		        note  B2
		  release 01h
		  ymInst 26
		  ymVol 0Bh
		        noteL B5,6
		  ymVol 09h
		        note  B5
		  ymVol 07h
		        note  B5
		  ymVol 05h
		        note  B5
		  ymInst 13
		repeatStart
		  ymVol 0Bh
		        noteL B3,12
		  ymVol 09h
		        noteL B3,6
		  ymVol 0Bh
		        note  B3
		        noteL D4,30
		  ymVol 09h
		        noteL D4,6
		  ymVol 0Bh
		        note  B3
		  ymVol 09h
		        note  B3
		  ymVol 0Bh
		        noteL D4,24
		        note  A3
		repeatSection1Start
		        noteL B3,24
		  ymVol 08h
		        noteL B3,6
		  ymVol 06h
		        note  B3
		  length 12
		repeatEnd
		repeatSection2Start
		        noteL B3,12
		  ymVol 09h
		        noteL B3,6
		  ymVol 0Bh
		        note  B3
		  ymVol 0Ah
		countedLoopStart 2
		  release 09h
		        noteL Cs4,12
		        note  Cs4
		  length 6
		  release 03h
		        note  Cs4
		        note  Cs4
		        note  Cs4
		countedLoopEnd
		  release 01h
		        noteL Cs4,24
		  length 30
		  ymStereo 080h
		  shifting 020h
		  ymInst 7
		  ymVol 09h
		        noteL A5,36
		        noteL G5,6
		  ymVol 06h
		        note  G5
		  ymVol 09h
		        noteL G5,48
		  ymVol 06h
		        noteL G5,6
		  ymVol 09h
		        note  F5
		        note  E5
		        note  F5
		        noteL G5,48
		        noteL F5,6
		        note  E5
		        note  D5
		        note  C5
		        noteL B4,36
		  ymVol 06h
		        noteL B4,6
		  ymStereo 0C0h
		  shifting 00h
		  ymVol 0Ah
		        noteL E5,18
		        noteL F5,6
		  ymVol 0Ah
		        noteL F5,36
		  ymVol 07h
		        noteL F5,6
		  ymVol 05h
		        note  F5
		  ymInst 26
		  ymVol 0Bh
		        noteL F4,24
		        noteL E4,48
		        noteL E4,24
		        noteL E4,48
		        noteL F4,6
		        note  E4
		        note  D4
		        note  C4
		        noteL B3,48
		        noteL B3,24
		  length 18
		  ymStereo 080h
		  shifting 020h
		  ymInst 44
		  ymVol 0Bh
		        noteL F5,12
		        note  E5
		        note  A5
		        noteL E6,8
		        note  D6
		        note  C6
		        noteL B5,36
		        noteL C6,6
		        note  D6
		        noteL B5,24
		  ymVol 07h
		        noteL B5,6
		  ymVol 05h
		        note  B5
		  ymInst 9
		  ymVol 0Bh
		        noteL D4,12
		        note  C4
		        note  Gs4
		        noteL D5,8
		        note  C5
		        note  As4
		        noteL A4,36
		        noteL F4,6
		        note  G4
		        noteL A4,18
		  shifting 00h
		  ymStereo 0C0h
		  ymInst 26
		  ymVol 0Bh
		        noteL As3,12
		  ymVol 07h
		        noteL As3,6
		  ymVol 05h
		        note  As3
		  ymVol 0Bh
		        noteL A3,36
		        noteL G3,12
		        note  G3
		        noteL F3,24
		        noteL G3,6
		        note  A3
		        noteL F3,24
		        noteL F3,72
		        note  E3
		repeatStart
		countedLoopStart 2
		  ymInst 26
		  ymVol 0Ch
		        noteL E5,4
		  ymVol 08h
		        note  E5
		  ymVol 0Ch
		        note  E5
		  ymVol 08h
		        note  E5
		  ymVol 0Ch
		        note  E5
		  ymVol 08h
		        note  E5
		  ymInst 3
		  ymVol 0Ch
		        noteL E2,6
		  ymVol 09h
		        note  E2
		  ymVol 0Ch
		        note  A2
		  ymVol 09h
		        note  A2
		countedLoopEnd
		  ymVol 0Ch
		  length 12
		repeatSection1Start
		        noteL A2,24
		        noteL E2,6
		  ymVol 09h
		        note  E2
		repeatEnd
		repeatSection2Start
		        noteL A2,24
		        noteL G2,6
		  ymVol 09h
		        note  G2
		countedLoopStart 2
		  ymInst 26
		  ymVol 0Ch
		        noteL F5,4
		  ymVol 08h
		        note  F5
		  ymVol 0Ch
		        note  F5
		  ymVol 08h
		        note  F5
		  ymVol 0Ch
		        note  F5
		  ymVol 08h
		        note  F5
		  ymInst 3
		  ymVol 0Ch
		        noteL C2,6
		  ymVol 09h
		        note  C2
		  ymVol 0Ch
		        note  F2
		  ymVol 09h
		        note  F2
		countedLoopEnd
		  length 12
		        noteL F2,24
		        noteL G2,6
		  ymVol 09h
		        note  G2
		countedLoopStart 2
		  ymInst 26
		  ymVol 0Ch
		        noteL E5,4
		  ymVol 08h
		        note  E5
		  ymVol 0Ch
		        note  E5
		  ymVol 08h
		        note  E5
		  ymVol 0Ch
		        note  E5
		  ymVol 08h
		        note  E5
		  ymInst 3
		  ymVol 0Ch
		        noteL E2,6
		  ymVol 09h
		        note  E2
		  ymVol 0Ch
		        note  A2
		  ymVol 09h
		        note  A2
		countedLoopEnd
		  ymInst 26
		  ymVol 0Bh
		        noteL E5,24
		        note  E5
		  ymVol 0Ah
		        noteL C4,96
		        note  B3
		  ymInst 3
		countedLoopStart 2
		  ymVol 0Bh
		        noteL As3,6
		  ymVol 07h
		        note  As3
		  ymVol 0Bh
		        note  As3
		  ymVol 07h
		        note  As3
		  ymVol 05h
		        note  As3
		  ymVol 0Bh
		  release 03h
		        note  As3
		        note  As3
		        note  As3
		  release 01h
		countedLoopEnd
		        noteL As3,6
		  ymVol 07h
		        note  As3
		  ymVol 05h
		        note  As3
		  ymVol 03h
		        note  As3
		  ymVol 0Bh
		        noteL As4,24
		repeatStart
		  ymInst 61
		  ymVol 0Eh
		        noteL C2,24
		  ymInst 27
		  ymVol 0Ah
		        noteL B3,15
		  length 3
		        noteL B3,6
		        note  D4
		        silence
		        noteL F4,18
		  length 6
		        note  F4
		        silence
		countedLoopStart 1
		        noteL A4,30
		  length 6
		        note  F4
		        silence
		countedLoopEnd
		repeatSection1Start
		repeatEnd
		repeatSection2Start
		  ymVol 09h
		        noteL A4,192
		mainLoopEnd
Music_1_Channel_4:
		  length 6
		  shifting 020h
		  release 01h
		  vibrato 02Ch
		mainLoopStart
		  length 12
		  ymStereo 040h
		  ymInst 26
		  ymVol 0Bh
		        note  D4
		        note  E4
		        note  B4
		        note  A4
		        note  E4
		        noteL F4,18
		        noteL C5,6
		        noteL B4,36
		        noteL G4,12
		        note  A4
		        note  E5
		        note  D5
		        note  B4
		        noteL C5,18
		        noteL G5,6
		        noteL F5,18
		        noteL E5,6
		        note  F5
		  ymVol 08h
		        note  F5
		  ymVol 0Bh
		        note  D5
		        note  E5
		        note  F5
		        note  G5
		        note  A5
		        note  B5
		repeatStart
		countedLoopStart 2
		        noteL C6,6
		        note  B5
		        note  A5
		        note  Gs5
		        note  A5
		  ymVol 08h
		        note  A5
		  ymVol 0Bh
		countedLoopEnd
		        noteL C6,6
		        note  B5
		        note  A5
		        note  Gs5
		        note  A5
		        note  B5
		        note  C6
		        note  D6
		        note  E6
		repeatSection1Start
		        noteL B5,6
		repeatEnd
		repeatSection2Start
		  ymStereo 0C0h
		  ymInst 61
		  ymVol 0Eh
		        noteL C2,30
		repeatStart
		  ymStereo 080h
		  ymInst 13
		  ymVol 0Ah
		        noteL Fs4,12
		  ymVol 08h
		        noteL Fs4,6
		  ymVol 0Ah
		        note  Fs4
		        noteL A4,30
		  ymVol 08h
		        noteL A4,6
		  ymVol 0Ah
		        note  Fs4
		  ymVol 08h
		        note  Fs4
		  ymVol 0Ah
		        noteL A4,18
		        noteL B4,6
		        noteL E4,24
		repeatSection1Start
		        noteL Fs4,18
		  ymStereo 0C0h
		  ymInst 61
		  ymVol 0Eh
		        noteL C2,30
		repeatEnd
		repeatSection2Start
		        noteL Fs4,12
		  ymVol 08h
		        noteL Fs4,6
		  ymVol 0Ah
		        note  Fs4
		        noteL Gs4,168
		  ymStereo 040h
		  ymInst 20
		  ymVol 0Ah
		  length 12
		        note  D3
		        note  E3
		        note  B3
		        note  A3
		        note  E3
		        noteL F3,18
		        noteL C4,6
		        noteL B3,12
		        note  A3
		        note  G3
		        note  A3
		        noteL B3,30
		        noteL A3,6
		        note  G3
		        note  F3
		        noteL E3,30
		        noteL F3,6
		        note  E3
		        note  D3
		        noteL C3,18
		        noteL D3,6
		        noteL D3,24
		  length 12
		  ymInst 26
		  ymVol 0Bh
		        note  F4
		        note  G4
		        note  E5
		        note  D5
		        note  C5
		        noteL D5,18
		        noteL B5,6
		        noteL A5,12
		        note  G5
		        note  F5
		        note  G5
		        noteL A5,30
		        noteL G5,6
		        note  F5
		        note  E5
		        noteL F5,30
		        noteL E5,6
		        note  D5
		        note  Cs5
		        note  D5
		        note  E5
		        note  F5
		        note  G5
		        note  A5
		        note  B5
		        note  C6
		        note  Cs6
		  ymVol 09h
		        noteL D6,126
		        noteL C6,6
		        note  B5
		        note  G5
		        noteL F5,114
		  ymVol 06h
		        noteL F5,6
		  ymVol 0Bh
		        noteL D5,4
		        note  E5
		        note  F5
		        note  E5
		        note  D5
		        note  A4
		        noteL G4,12
		  ymVol 08h
		        noteL G4,6
		  ymVol 0Bh
		        note  D5
		        noteL D5,12
		        note  B4
		        note  Cs5
		        note  E5
		        note  E5
		        note  D5
		        note  E5
		        note  F5
		        note  D5
		  ymVol 08h
		        noteL D5,6
		  ymVol 0Bh
		        note  A5
		        noteL A5,30
		        noteL G5,6
		        note  F5
		        note  E5
		        note  F5
		        note  E5
		        note  D5
		        note  A4
		        note  B4
		        note  A4
		        note  E4
		        note  Fs4
		        note  Gs4
		        note  A4
		        note  B4
		        note  D5
		        note  E5
		        note  Fs5
		        note  Gs5
		        note  B5
		countedLoopStart 1
		        noteL C6,4
		  ymVol 07h
		        note  C6
		  ymVol 0Bh
		        note  C6
		  ymVol 07h
		        note  C6
		  ymVol 0Bh
		        note  D6
		  ymVol 07h
		        note  D6
		  ymStereo 080h
		  ymInst 32
		  ymVol 0Ch
		        noteL E2,6
		  ymVol 08h
		        note  E2
		  ymVol 0Ch
		        note  A2
		  ymVol 08h
		        note  A2
		  ymStereo 040h
		  ymInst 26
		  ymVol 0Bh
		        noteL C6,4
		  ymVol 07h
		        note  C6
		  ymVol 0Bh
		        note  C6
		  ymVol 07h
		        note  C6
		  ymVol 0Bh
		        note  B5
		  ymVol 07h
		        note  B5
		  ymStereo 080h
		  ymInst 32
		  ymVol 0Ch
		        noteL E2,6
		  ymVol 08h
		        note  E2
		  ymVol 0Ch
		        note  A2
		  ymVol 08h
		        note  A2
		  ymStereo 040h
		  ymInst 26
		  ymVol 0Bh
		        noteL C6,4
		  ymVol 07h
		        note  C6
		  ymVol 0Bh
		        note  C6
		  ymVol 07h
		        note  C6
		  ymVol 0Bh
		        note  D6
		  ymVol 07h
		        note  D6
		  ymStereo 080h
		  ymInst 32
		  ymVol 0Ch
		        noteL E2,6
		  ymVol 08h
		        note  E2
		  ymVol 0Ch
		        note  A2
		  ymVol 08h
		        note  A2
		  ymStereo 040h
		  ymInst 26
		  ymVol 0Bh
		        noteL E6,16
		        noteL D6,4
		        note  C6
		        noteL B5,24
		countedLoopEnd
		        noteL C6,4
		  ymVol 07h
		        note  C6
		  ymVol 0Bh
		        note  C6
		  ymVol 07h
		        note  C6
		  ymVol 0Bh
		        note  D6
		  ymVol 07h
		        note  D6
		  ymStereo 080h
		  ymInst 32
		  ymVol 0Ch
		        noteL C2,6
		  ymVol 08h
		        note  C2
		  ymVol 0Ch
		        note  F2
		  ymVol 08h
		        note  F2
		  ymStereo 040h
		  ymInst 26
		  ymVol 0Bh
		        noteL C6,4
		  ymVol 07h
		        note  C6
		  ymVol 0Bh
		        note  C6
		  ymVol 07h
		        note  C6
		  ymVol 0Bh
		        note  B5
		  ymVol 07h
		        note  B5
		  ymStereo 080h
		  ymInst 32
		  ymVol 0Ch
		        noteL C2,6
		  ymVol 08h
		        note  C2
		  ymVol 0Ch
		        note  F2
		  ymVol 08h
		        note  F2
		  ymStereo 040h
		  ymInst 26
		  ymVol 0Bh
		        noteL C6,4
		  ymVol 07h
		        note  C6
		  ymVol 0Bh
		        note  C6
		  ymVol 07h
		        note  C6
		  ymVol 0Bh
		        note  D6
		  ymVol 07h
		        note  D6
		  ymStereo 080h
		  ymInst 32
		  ymVol 0Ch
		        noteL C2,6
		  ymVol 08h
		        note  C2
		  ymVol 0Ch
		        note  F2
		  ymVol 08h
		        note  F2
		  ymStereo 040h
		  ymInst 26
		  ymVol 0Bh
		        noteL E6,16
		        noteL D6,4
		        note  C6
		        noteL B5,24
		        noteL C6,4
		  ymVol 07h
		        note  C6
		  ymVol 0Bh
		        note  C6
		  ymVol 07h
		        note  C6
		  ymVol 0Bh
		        note  D6
		  ymVol 07h
		        note  D6
		  ymStereo 080h
		  ymInst 32
		  ymVol 0Ch
		        noteL E2,6
		  ymVol 08h
		        note  E2
		  ymVol 0Ch
		        note  A2
		  ymVol 08h
		        note  A2
		  ymStereo 040h
		  ymInst 26
		  ymVol 0Bh
		        noteL C6,4
		  ymVol 07h
		        note  C6
		  ymVol 0Bh
		        note  C6
		  ymVol 07h
		        note  C6
		  ymVol 0Bh
		        note  B5
		  ymVol 07h
		        note  B5
		  ymStereo 080h
		  ymInst 32
		  ymVol 0Ch
		        noteL E2,6
		  ymVol 08h
		        note  E2
		  ymVol 0Ch
		        note  A2
		  ymVol 08h
		        note  A2
		  ymStereo 040h
		  ymInst 26
		  ymVol 0Bh
		        noteL C6,4
		  ymVol 07h
		        note  C6
		  ymVol 0Bh
		        note  C6
		  ymVol 07h
		        note  C6
		  ymVol 0Bh
		        note  D6
		  ymVol 07h
		        note  D6
		  ymStereo 080h
		  ymInst 32
		  ymVol 0Ch
		        noteL E2,6
		  ymVol 08h
		        note  E2
		  ymVol 0Ch
		        note  A2
		  ymVol 08h
		        note  A2
		  ymStereo 040h
		  ymInst 26
		  ymVol 0Bh
		        noteL E6,16
		        noteL D6,4
		        note  C6
		        noteL B5,18
		  ymStereo 0C0h
		  ymInst 62
		  ymVol 0Eh
		        noteL C2,78
		  ymStereo 040h
		  ymInst 26
		  ymVol 0Bh
		  ymSustain
		        noteL A5,3
		        note  G5
		        note  F5
		        note  E5
		        note  D5
		        note  C5
		        note  B4
		        note  A4
		  release 01h
		        noteL G4,96
		        noteL F4,144
		  ymVol 0Bh
		        noteL F4,6
		  ymVol 07h
		        note  F4
		  ymVol 05h
		        note  F4
		  ymVol 03h
		        note  F4
		  ymInst 3
		  ymVol 0Ah
		        noteL G5,24
		        noteL A5,6
		  ymVol 06h
		        note  A5
		  ymInst 27
		  ymVol 09h
		repeatStart
		        noteL E4,12
		        noteL Fs4,15
		  length 3
		        noteL Fs4,6
		        note  A4
		        silence
		        noteL C5,18
		  length 6
		        note  C5
		        silence
		countedLoopStart 1
		        noteL E5,30
		  length 6
		        note  Cs5
		        silence
		countedLoopEnd
		repeatSection1Start
		        noteL E5,6
		        silence
		repeatEnd
		repeatSection2Start
		  ymVol 08h
		        noteL E5,192
		mainLoopEnd
Music_1_Channel_5:
		  ymStereo 0C0h
		mainLoopStart
		repeatStart
		        sampleL 3,6
		        sample  4
		        sample  4
		        sample  4
		        sampleL 3,12
		        sample  4
		        sample  3
		        sampleL 3,4
		        sample  4
		        sample  4
		        sampleL 3,6
		        sample  4
		        sample  4
		        sample  4
		        sampleL 3,12
		        sampleL 3,4
		        sample  4
		        sample  4
		repeatSection1Start
		        sampleL 3,12
		        sampleL 3,4
		        sample  4
		        sample  4
		repeatEnd
		repeatSection2Start
		        sampleL 3,6
		        sample  4
		        sample  3
		        sample  2
		repeatStart
		countedLoopStart 2
		        sampleL 5,12
		        sampleL 2,4
		        sample  3
		        sample  4
		        sampleL 2,12
		countedLoopEnd
		        sampleL 5,12
		        sampleL 2,4
		        sample  3
		        sample  4
		        sampleL 2,6
		        sample  3
		        sample  2
		        sample  3
		        sample  2
		        sample  2
		repeatSection1Start
		repeatEnd
		repeatSection2Start
		repeatStart
		        sampleL 0,24
		        sampleL 2,12
		        sampleL 2,4
		        sample  3
		        sample  3
		        sampleL 2,24
		        sampleL 0,12
		        sample  2
		        sample  2
		        sampleL 2,4
		        sample  3
		        sample  3
		        sampleL 5,24
		repeatSection1Start
		        sampleL 2,3
		        sample  3
		        sample  3
		        sample  4
		        sample  4
		        sample  3
		        sample  3
		        sample  2
		repeatEnd
		repeatSection2Start
		        sampleL 2,18
		        sampleL 3,6
		countedLoopStart 2
		        sampleL 3,12
		        sampleL 3,18
		        sampleL 4,6
		        sample  3
		        sample  4
		countedLoopEnd
		        sampleL 3,24
		        sampleL 1,72
		        sample  1
		        sample  1
		        sampleL 1,12
		        sampleL 1,60
		repeatStart
		        sampleL 3,12
		        sample  3
		        sample  3
		        sampleL 3,4
		        sample  4
		        sample  4
		        sampleL 3,12
		        sample  3
		        sample  3
		        sampleL 3,4
		        sample  4
		        sample  4
		        sampleL 3,12
		repeatSection1Start
		        sampleL 3,4
		        sample  4
		        sample  4
		        sampleL 3,12
		        sample  3
		repeatEnd
		repeatSection2Start
		        sampleL 3,12
		        sampleL 3,24
		        sampleL 1,144
		        silence
		        sampleL 1,72
		  length 156
		        sampleL 4,6
		        sample  4
		        sample  4
		        sample  4
		        sample  3
		        sample  3
		        sample  3
		        sample  2
		        sample  2
		        sample  2
		repeatStart
		countedLoopStart 2
		        sampleL 2,8
		        sample  2
		        sample  2
		        sampleL 0,12
		        sample  0
		countedLoopEnd
		        sampleL 3,1
		        sampleL 2,11
		        sampleL 0,12
		        sampleL 3,1
		        sampleL 2,11
		        sampleL 0,12
		repeatSection1Start
		repeatEnd
		repeatSection2Start
		repeatEnd
		repeatSection3Start
		countedLoopStart 2
		        sampleL 2,8
		        sample  2
		        sample  2
		        sampleL 0,12
		        sample  0
		countedLoopEnd
		        sampleL 5,24
		        sample  5
		        sampleL 0,192
		countedLoopStart 2
		        sampleL 3,12
		        sampleL 3,18
		        sampleL 4,6
		        sample  3
		        sample  4
		countedLoopEnd
		        sampleL 3,24
		        sampleL 3,3
		        sample  3
		        sample  4
		        sample  4
		        sample  4
		        sample  3
		        sample  3
		        sample  2
		repeatStart
		        sampleL 0,60
		        sampleL 2,4
		        sample  3
		        sample  3
		        sampleL 2,6
		        sample  3
		        sampleL 2,12
		countedLoopStart 1
		        sampleL 0,12
		        sampleL 2,4
		        sample  3
		        sample  3
		        sampleL 2,24
		countedLoopEnd
		repeatSection1Start
		repeatEnd
		repeatSection2Start
		        sampleL 0,144
		        sampleL 4,3
		        sample  4
		        sample  4
		        sample  4
		        sample  3
		        sample  3
		        sample  3
		        sample  3
		        sampleL 2,24
		mainLoopEnd
Music_1_Channel_6:
		  release 01h
		  vibrato 04Ch
		mainLoopStart
		  psgInst 123
		        psgNoteL D5,72
		        psgNote  E5
		        psgNote  Fs5
		        psgNote  Gs5
		  psgInst 11
		  release 07h
		        psgNoteL Fs5,36
		        psgNote  E5
		        psgNote  D5
		        psgNoteL Fs5,12
		        psgNote  Fs5
		        psgNote  Fs5
		        psgNote  Fs5
		        psgNote  Fs5
		        psgNoteL D5,36
		        psgNote  Cs5
		        psgNote  B4
		        psgNoteL D5,12
		        psgNote  D5
		        psgNote  D5
		        psgNote  D5
		        psgNote  D5
		  release 01h
		        psgNoteL Ds5,6
		        silence
		  psgInst 10
		        silence
		  psgInst 8
		        silence
		  psgInst 0
		  length 36
		repeatStart
		  psgInst 125
		        psgNoteL B5,4
		        psgNote  Ds6
		        psgNote  Fs6
		        psgNoteL B6,6
		        silence
		  psgInst 11
		        silence
		  psgInst 9
		        silence
		  psgInst 0
		  length 36
		  psgInst 125
		        psgNoteL Gs6,4
		        psgNote  As6
		        psgNote  Cs7
		        psgNote  Ds7
		        psgNote  Cs7
		        psgNote  C7
		        psgNote  Gs6
		        psgNote  Fs6
		        psgNote  Ds6
		  psgInst 0
		repeatSection1Start
		  length 60
		repeatEnd
		repeatSection2Start
		  length 12
		  psgInst 125
		        psgNote  Cs6
		        psgNote  D6
		        psgNote  As6
		        psgNote  A6
		        psgNote  F6
		        psgNote  G6
		        psgNote  D7
		        psgNoteL C7,18
		        psgNoteL As6,6
		        psgNoteL A6,48
		  length 6
		  psgInst 10
		        silence
		countedLoopStart 4
		        psgNoteL D5,6
		        psgNote  Fs5
		countedLoopEnd
		countedLoopStart 5
		        psgNoteL E5,6
		        psgNote  Gs5
		countedLoopEnd
		countedLoopStart 5
		        psgNoteL Fs5,6
		        psgNote  A5
		countedLoopEnd
		countedLoopStart 5
		        psgNoteL E5,6
		        psgNote  Gs5
		countedLoopEnd
		  psgInst 12
		  release 07h
		repeatStart
		        psgNoteL A4,12
		        psgNote  A4
		        psgNote  A4
		        psgNote  A4
		        psgNote  A4
		        psgNote  A4
		        psgNote  Gs4
		        psgNote  Gs4
		repeatSection1Start
		        psgNoteL Gs4,12
		        psgNote  Gs4
		        psgNote  Gs4
		        psgNote  Gs4
		repeatEnd
		repeatSection2Start
		  psgInst 124
		        psgNoteL Gs4,24
		        psgNote  Gs4
		  release 01h
		  psgInst 125
		        psgNote  Fs4
		        psgNoteL B4,36
		        psgNoteL Fs4,12
		        psgNoteL E4,72
		  length 24
		        psgNote  D4
		        psgNote  A4
		        psgNoteL G4,36
		        psgNoteL A4,12
		        psgNoteL B4,24
		        psgNoteL B4,12
		  length 6
		  psgInst 11
		        silence
		  psgInst 124
		        psgNoteL As4,48
		        psgNoteL B4,72
		  release 00h
		  psgInst 248
		        psgNoteL D5,12
		  psgInst 249
		        psgNote  D5
		  psgInst 250
		        psgNote  D5
		  psgInst 251
		        psgNote  D5
		  psgInst 252
		        psgNoteL D5,24
		  release 05h
		  psgInst 60
		        psgNoteL Cs5,12
		        psgNote  Cs5
		        psgNote  F5
		        psgNote  F5
		        psgNote  Gs5
		        psgNote  Gs5
		repeatStart
		countedLoopStart 2
		  psgInst 12
		        psgNoteL Fs5,8
		        silence
		        psgNote  Fs5
		        psgNoteL Cs4,12
		        psgNote  Fs3
		countedLoopEnd
		  psgInst 124
		        psgNoteL Fs5,24
		        psgNote  Fs5
		repeatSection1Start
		repeatEnd
		repeatSection2Start
		countedLoopStart 2
		  psgInst 12
		        psgNoteL Fs5,8
		        silence
		        psgNote  Fs5
		        psgNoteL A3,12
		        psgNote  D4
		countedLoopEnd
		  psgInst 124
		        psgNoteL Fs5,24
		        psgNote  E5
		countedLoopStart 2
		  psgInst 12
		        psgNoteL Fs5,8
		        silence
		        psgNote  Fs5
		        psgNoteL Cs4,12
		        psgNote  Fs3
		countedLoopEnd
		  psgInst 124
		        psgNoteL Fs5,24
		        psgNote  Fs5
		  release 01h
		        psgNote  Fs5
		  length 6
		  psgInst 125
		        psgNote  C6
		        psgNote  Cs6
		        psgNote  F6
		        psgNote  Fs6
		        silence
		        psgNoteL Cs7,24
		        psgNoteL A6,12
		        psgNoteL B6,36
		        psgNoteL A6,4
		        psgNote  Gs6
		        psgNote  G6
		        psgNoteL Fs6,24
		        psgNoteL E6,18
		        psgNoteL Fs6,6
		        psgNoteL Fs6,12
		        psgNoteL G6,7
		        psgNoteL Fs6,6
		        psgNoteL G6,5
		        psgNote  Fs6
		        psgNoteL G6,4
		        psgNote  Fs6
		        psgNote  G6
		        psgNote  Fs6
		        psgNoteL G6,3
		countedLoopStart 14
		        psgNoteL Fs6,3
		        psgNote  G6
		countedLoopEnd
		        psgNoteL Fs6,12
		  length 6
		  psgInst 10
		        silence
		  psgInst 125
		        psgNoteL Fs5,4
		        psgNote  G5
		        psgNote  B5
		        psgNote  Cs6
		        psgNote  E6
		        psgNote  G6
		repeatStart
		        psgNoteL Fs6,6
		        silence
		        psgNoteL Fs4,4
		        psgNote  As4
		        psgNote  Cs5
		        psgNote  Ds5
		        psgNote  Gs5
		        psgNote  C6
		        psgNote  Ds6
		        psgNote  C6
		        psgNote  Gs5
		        psgNote  B4
		        psgNote  Ds5
		        psgNote  Fs5
		        psgNote  A5
		        psgNote  D6
		        psgNote  Fs6
		        psgNote  A6
		        psgNote  Fs6
		        psgNote  D6
		        psgNote  A5
		        psgNote  Fs5
		        psgNote  A5
		countedLoopStart 1
		        psgNoteL As5,4
		        psgNote  Cs6
		        psgNote  F6
		        psgNote  Fs6
		        psgNote  As6
		        psgNote  Cs7
		        psgNote  D7
		        psgNote  Cs7
		        psgNote  As6
		        psgNote  Fs6
		        psgNote  D6
		        psgNote  Cs6
		countedLoopEnd
		repeatSection1Start
		repeatEnd
		repeatSection2Start
		countedLoopStart 2
		        psgNoteL D7,4
		        psgNote  Cs7
		        psgNote  As6
		        psgNote  Fs6
		        psgNote  D6
		        psgNote  Cs6
		countedLoopEnd
		        psgNoteL As5,4
		        psgNote  F5
		        psgNote  Fs5
		        psgNote  As5
		        psgNote  Cs6
		        psgNote  As5
		countedLoopStart 2
		        psgNoteL D6,4
		        psgNote  Cs6
		        psgNote  As5
		        psgNote  Fs5
		        psgNote  D5
		        psgNote  Cs5
		countedLoopEnd
		  psgInst 124
		        psgNoteL As4,4
		        psgNote  F4
		        psgNote  Fs4
		        psgNote  As4
		        psgNote  Cs5
		        psgNote  As4
		mainLoopEnd
Music_1_Channel_7:
		  release 01h
		  vibrato 04Ch
		mainLoopStart
		  shifting 00h
		  psgInst 123
		        psgNoteL Fs4,72
		        psgNote  Gs4
		        psgNote  A4
		        psgNote  B4
		  psgInst 11
		  release 07h
		        psgNoteL D4,36
		        psgNote  Cs4
		        psgNote  B3
		        psgNoteL D4,12
		        psgNote  D4
		        psgNote  D4
		        psgNote  D4
		        psgNote  D4
		        psgNoteL B3,36
		        psgNote  A3
		        psgNote  Gs3
		        psgNoteL B3,12
		        psgNote  B3
		        psgNote  B3
		        psgNote  B3
		        psgNote  B3
		  release 01h
		        psgNoteL C4,6
		        silence
		  psgInst 10
		        silence
		  psgInst 8
		        silence
		  psgInst 0
		  length 42
		  shifting 010h
		repeatStart
		  psgInst 123
		        psgNoteL B5,4
		        psgNote  Ds6
		        psgNote  Fs6
		        psgNoteL B6,6
		        silence
		  psgInst 9
		        silence
		  psgInst 7
		        silence
		  psgInst 0
		  length 36
		  psgInst 123
		        psgNoteL Gs6,4
		        psgNote  As6
		        psgNote  Cs7
		        psgNote  Ds7
		        psgNote  Cs7
		        psgNote  C7
		        psgNote  Gs6
		        psgNote  Fs6
		        psgNote  Ds6
		  psgInst 0
		repeatSection1Start
		  length 60
		repeatEnd
		repeatSection2Start
		  length 12
		  shifting 00h
		  psgInst 123
		        psgNote  Cs6
		        psgNote  D6
		        psgNote  As6
		        psgNote  A6
		        psgNote  F6
		        psgNote  G6
		        psgNote  D7
		        psgNoteL C7,18
		        psgNoteL As6,6
		        psgNoteL A6,48
		  length 6
		  psgInst 10
		countedLoopStart 4
		        psgNoteL B4,6
		        psgNote  A4
		countedLoopEnd
		countedLoopStart 17
		        psgNoteL D5,6
		        psgNote  B4
		countedLoopEnd
		  psgInst 12
		  release 07h
		repeatStart
		        psgNoteL Fs4,12
		        psgNote  Fs4
		        psgNote  Fs4
		        psgNote  Fs4
		        psgNote  Fs4
		        psgNote  Fs4
		        psgNote  E4
		        psgNote  E4
		repeatSection1Start
		        psgNoteL E4,12
		        psgNote  E4
		        psgNote  E4
		        psgNote  E4
		repeatEnd
		repeatSection2Start
		  psgInst 124
		        psgNoteL E4,24
		        psgNote  E4
		  psgInst 0
		  length 6
		  release 01h
		  shifting 010h
		  psgInst 123
		        psgNoteL Fs4,24
		        psgNoteL B4,36
		        psgNoteL Fs4,12
		        psgNoteL E4,72
		  length 24
		        psgNote  D4
		        psgNote  A4
		        psgNoteL G4,36
		        psgNoteL A4,12
		        psgNoteL B4,24
		        psgNoteL B4,12
		  length 6
		  psgInst 9
		        silence
		  psgInst 122
		        psgNoteL As4,48
		        psgNoteL B4,66
		  shifting 00h
		  release 00h
		  psgInst 248
		        psgNoteL Gs4,12
		  psgInst 249
		        psgNote  Gs4
		  psgInst 250
		        psgNote  Gs4
		  psgInst 251
		        psgNote  Gs4
		  psgInst 252
		        psgNoteL Fs4,24
		  release 05h
		  psgInst 60
		        psgNoteL F4,12
		        psgNote  F4
		        psgNote  Gs4
		        psgNote  Gs4
		        psgNote  F4
		        psgNote  F4
		repeatStart
		countedLoopStart 2
		  psgInst 12
		        psgNoteL Cs5,8
		        silence
		        psgNote  Cs5
		  psgInst 0
		  length 24
		countedLoopEnd
		  psgInst 124
		        psgNoteL Cs5,24
		        psgNote  Cs5
		repeatSection1Start
		repeatEnd
		repeatSection2Start
		countedLoopStart 2
		  psgInst 12
		        psgNoteL D5,8
		        silence
		        psgNote  D5
		  psgInst 0
		  length 24
		countedLoopEnd
		  psgInst 124
		        psgNoteL D5,24
		        psgNote  D5
		countedLoopStart 2
		  psgInst 12
		        psgNoteL Cs5,8
		        silence
		        psgNote  Cs5
		  psgInst 0
		  length 24
		countedLoopEnd
		  psgInst 124
		        psgNoteL Cs5,24
		        psgNote  Cs5
		  release 01h
		        psgNote  Cs5
		  length 12
		  shifting 010h
		  psgInst 123
		        psgNoteL C6,6
		        psgNote  Cs6
		        psgNote  F6
		        psgNote  Fs6
		        silence
		        psgNoteL Cs7,24
		        psgNoteL A6,12
		        psgNoteL B6,36
		        psgNoteL A6,4
		        psgNote  Gs6
		        psgNote  G6
		        psgNoteL Fs6,24
		        psgNoteL E6,18
		        psgNoteL Fs6,6
		        psgNoteL Fs6,12
		        psgNoteL G6,7
		        psgNoteL Fs6,6
		        psgNoteL G6,5
		        psgNote  Fs6
		        psgNoteL G6,4
		        psgNote  Fs6
		        psgNote  G6
		        psgNote  Fs6
		        psgNoteL G6,3
		countedLoopStart 14
		        psgNoteL Fs6,3
		        psgNote  G6
		countedLoopEnd
		        psgNoteL Fs6,12
		  length 6
		  psgInst 8
		        silence
		  psgInst 123
		        psgNoteL Fs5,4
		        psgNote  G5
		        psgNote  B5
		        psgNote  Cs6
		        psgNote  E6
		        psgNote  G6
		        psgNoteL Fs6,6
		  length 14
		repeatStart
		        psgNoteL Fs4,4
		        psgNote  As4
		        psgNote  Cs5
		        psgNote  Ds5
		        psgNote  Gs5
		        psgNote  C6
		        psgNote  Ds6
		        psgNote  C6
		        psgNote  Gs5
		        psgNote  B4
		        psgNote  Ds5
		        psgNote  Fs5
		        psgNote  A5
		        psgNote  D6
		        psgNote  Fs6
		        psgNote  A6
		        psgNote  Fs6
		        psgNote  D6
		        psgNote  A5
		        psgNote  Fs5
		        psgNote  A5
		countedLoopStart 1
		        psgNoteL As5,4
		        psgNote  Cs6
		        psgNote  F6
		        psgNote  Fs6
		        psgNote  As6
		        psgNote  Cs7
		        psgNote  D7
		        psgNote  Cs7
		        psgNote  As6
		        psgNote  Fs6
		        psgNote  D6
		        psgNote  Cs6
		countedLoopEnd
		repeatSection1Start
		        psgNoteL Fs6,6
		        silence
		repeatEnd
		repeatSection2Start
		countedLoopStart 2
		        psgNoteL D7,4
		        psgNote  Cs7
		        psgNote  As6
		        psgNote  Fs6
		        psgNote  D6
		        psgNote  Cs6
		countedLoopEnd
		        psgNoteL As5,4
		        psgNote  F5
		        psgNote  Fs5
		        psgNote  As5
		        psgNote  Cs6
		        psgNote  As5
		countedLoopStart 2
		        psgNoteL D6,4
		        psgNote  Cs6
		        psgNote  As5
		        psgNote  Fs5
		        psgNote  D5
		        psgNote  Cs5
		countedLoopEnd
		  psgInst 122
		        psgNoteL As4,4
		        psgNote  F4
		        psgNoteL Fs4,2
		mainLoopEnd
Music_1_Channel_9:
		channel_end
