
; ASM FILE music39.asm :
; 0xC85F..0xD877 : Music 39
Music_39:       db 0
		db 0
		db 0
		db 0C3h
		dw Music_7_Channel_0
		dw Music_7_Channel_1
		dw Music_7_Channel_2
		dw Music_7_Channel_3
		dw Music_7_Channel_4
		dw Music_7_Channel_5
		dw Music_7_Channel_6
		dw Music_7_Channel_7
		dw Music_7_Channel_9
		dw Music_7_Channel_9
Music_7_Channel_0:
		  ymStereo 0C0h
		  release 01h
		  vibrato 02Ch
		  length 96
		  ymInst 3
		  ymVol 0Ch
		        noteL A1,32
		mainLoopStart
		  release 019h
		countedLoopStart 2
		        noteL D2,32
		        note  A1
		countedLoopEnd
		        noteL D2,32
		        noteL A1,8
		  release 01h
		        silence
		        noteL A1,16
		countedLoopStart 1
		  release 019h
		        noteL D2,32
		        note  A1
		countedLoopEnd
		        noteL D2,32
		        note  C2
		        note  As1
		  release 01h
		        note  A1
		countedLoopStart 5
		  release 019h
		        noteL D2,32
		        note  A1
		countedLoopEnd
		        noteL Cs2,32
		        note  Gs1
		  release 0Bh
		        noteL Fs1,16
		        note  Cs2
		  release 01h
		        noteL Fs1,32
		countedLoopStart 1
		  release 019h
		        noteL E2,32
		        note  B1
		countedLoopEnd
		countedLoopStart 1
		        noteL D2,32
		        note  A1
		countedLoopEnd
		  release 0Bh
		        noteL C2,16
		        note  C2
		  release 01h
		        noteL C2,32
		  release 0Bh
		        noteL Gs2,16
		        note  Gs2
		  release 01h
		        noteL Gs2,32
		  release 0Bh
		        noteL A2,16
		        note  A2
		  release 01h
		        noteL A2,48
		        noteL E2,6
		  length 10
		        noteL A1,32
		countedLoopStart 5
		  release 019h
		        noteL D2,32
		        note  A1
		countedLoopEnd
		        noteL Cs2,32
		        note  Gs1
		  release 0Bh
		        noteL Fs1,16
		        note  A1
		        note  Cs2
		        note  Fs2
		countedLoopStart 1
		  release 019h
		        noteL G2,32
		        note  D2
		countedLoopEnd
		countedLoopStart 1
		        noteL C2,32
		        note  G1
		countedLoopEnd
		  release 01h
		        noteL B1,6
		        noteL B1,5
		        note  B1
		        note  B1
		  length 11
		        noteL B1,32
		        noteL Fs2,6
		        noteL Fs2,5
		        note  Fs2
		        note  Fs2
		  length 11
		        noteL Fs2,32
		        noteL G2,6
		        noteL G2,5
		        note  G2
		        note  G2
		  length 11
		        noteL G2,32
		        noteL Gs2,6
		  length 10
		        noteL Gs2,6
		  length 10
		        noteL Gs2,24
		        noteL Gs2,8
		countedLoopStart 1
		  release 0Bh
		        noteL A2,48
		        noteL A1,16
		countedLoopEnd
		  release 01h
		        noteL A2,32
		  length 16
		        noteL E2,6
		  length 10
		        noteL A1,64
		mainLoopEnd
Music_7_Channel_1:
		  ymStereo 0C0h
		  release 01h
		  vibrato 02Ch
		  length 120
		mainLoopStart
		repeatStart
		  ymInst 26
		  ymVol 0Ch
		  ymSustain
		        noteL D5,3
		        note  Fs5
		  release 01h
		        noteL G5,2
		        noteL A5,6
		  ymVol 09h
		        note  A5
		  ymVol 07h
		        note  A5
		  length 14
		  ymVol 0Ch
		        noteL A5,20
		  ymVol 09h
		        noteL A5,5
		  ymVol 0Ch
		  ymSustain
		        noteL A5,6
		        noteL As5,1
		  release 01h
		countedLoopStart 1
		        noteL B5,5
		  ymVol 09h
		        note  B5
		  ymVol 07h
		        noteL B5,6
		  ymVol 0Ch
		countedLoopEnd
		        noteL A5,24
		  ymSustain
		        noteL D5,3
		        note  G5
		  release 01h
		        noteL A5,2
		        noteL C6,5
		  ymVol 09h
		        note  C6
		  ymVol 07h
		        noteL C6,6
		  ymVol 0Ch
		        noteL C6,5
		  ymVol 09h
		repeatSection1Start
		        noteL C6,9
		  ymVol 0Ch
		  ymSustain
		        noteL A5,1
		        note  As5
		  release 01h
		        noteL B5,25
		  ymSustain
		        noteL G5,6
		        noteL Gs5,1
		  release 01h
		        noteL A5,56
		repeatEnd
		repeatSection2Start
		        noteL C6,10
		  ymVol 0Ch
		  ymSustain
		        noteL A5,1
		  release 01h
		        noteL B5,25
		        noteL C6,6
		  ymSustain
		        noteL Cs6,1
		        noteL D6,64
		  ymVol 09h
		        noteL D6,8
		  release 01h
		  ymVol 07h
		        note  D6
		repeatStart
		  ymInst 20
		  ymVol 0Ch
		        noteL Cs3,16
		        noteL D3,5
		  ymVol 09h
		        note  D3
		  ymVol 07h
		        noteL D3,6
		  ymVol 0Ch
		        noteL A3,5
		  ymVol 09h
		        note  A3
		  ymVol 07h
		        noteL A3,6
		  ymVol 0Ch
		repeatSection1Start
		        noteL Gs3,48
		        noteL E3,5
		  ymVol 09h
		        note  E3
		  ymVol 07h
		        noteL E3,6
		  ymVol 0Ch
		        noteL Fs3,5
		  ymVol 09h
		        note  Fs3
		  ymVol 07h
		        noteL Fs3,6
		  ymVol 0Ch
		        noteL Cs4,32
		        noteL B3,5
		  ymVol 09h
		        note  B3
		  ymVol 07h
		        noteL B3,6
		  ymVol 0Ch
		        noteL Gs3,5
		  ymVol 09h
		        note  Gs3
		  ymVol 07h
		        noteL Gs3,6
		  ymVol 0Ch
		        noteL E3,5
		  ymVol 09h
		        note  E3
		  ymVol 07h
		        noteL E3,6
		  ymSustain
		  ymVol 0Ch
		        noteL Fs3,32
		  ymVol 09h
		        noteL Fs3,8
		  ymVol 07h
		  release 01h
		        note  Fs3
		repeatEnd
		repeatSection2Start
		        noteL Gs3,5
		  ymVol 09h
		        note  Gs3
		  ymVol 07h
		        noteL Gs3,6
		  ymVol 0Ch
		        noteL E3,16
		        noteL Fs3,5
		  ymVol 09h
		        note  Fs3
		  ymVol 07h
		        noteL Fs3,6
		  ymVol 0Ch
		        noteL Cs4,5
		  ymVol 09h
		        note  Cs4
		  ymVol 07h
		        noteL Cs4,6
		  ymVol 0Ch
		        noteL E4,48
		        noteL B3,5
		  ymVol 09h
		        note  B3
		  ymVol 07h
		        noteL B3,6
		  ymSustain
		  ymVol 0Ch
		        noteL A3,64
		  ymVol 09h
		        noteL A3,8
		  release 01h
		  ymVol 07h
		        note  A3
		  ymInst 13
		  ymVol 0Ch
		        noteL Fs4,16
		        noteL G4,5
		  ymVol 09h
		        note  G4
		  ymVol 07h
		        noteL G4,6
		  ymVol 0Ch
		        noteL D5,5
		  ymVol 09h
		        note  D5
		  ymVol 07h
		        noteL D5,6
		  ymVol 0Ch
		        noteL Cs5,48
		        noteL B4,5
		  ymVol 09h
		        note  B4
		  ymVol 07h
		        noteL B4,6
		  ymVol 0Ch
		        noteL A4,5
		  ymVol 09h
		        note  A4
		  ymVol 07h
		        noteL A4,6
		  ymVol 0Ch
		        noteL E5,32
		        noteL D5,5
		  ymVol 09h
		        note  D5
		  ymVol 07h
		        noteL D5,6
		  ymVol 0Ch
		        noteL Cs5,32
		        noteL B4,27
		        noteL Cs5,5
		        noteL D5,48
		        noteL C5,8
		        note  As4
		        noteL D5,48
		        noteL C5,8
		        note  As4
		  ymSustain
		        noteL D5,40
		  ymVol 09h
		  release 01h
		        noteL D5,8
		  ymVol 0Ch
		        noteL D5,6
		        noteL D5,5
		        note  D5
		        note  Cs5
		  ymVol 09h
		        note  Cs5
		  ymVol 07h
		        noteL Cs5,6
		  ymVol 0Ch
		        noteL B4,5
		  ymVol 09h
		        note  B4
		  ymVol 07h
		        noteL B4,6
		  ymVol 0Ch
		        noteL A4,5
		  ymVol 09h
		        note  A4
		  ymVol 07h
		        noteL A4,6
		  ymVol 0Ch
		        noteL G4,5
		  ymVol 09h
		        note  G4
		  ymVol 07h
		        noteL G4,6
		  ymVol 0Ch
		        noteL Fs4,5
		  ymVol 09h
		        note  Fs4
		  ymVol 07h
		        noteL Fs4,6
		  ymInst 26
		  ymVol 0Ch
		        note  Cs5
		        noteL C5,5
		        note  Cs5
		        noteL D5,6
		        noteL Cs5,5
		        note  D5
		        noteL F5,6
		        noteL Fs5,5
		        note  A5
		        noteL Gs5,48
		        noteL Fs5,4
		        note  Gs5
		        note  Fs5
		        note  E5
		        noteL Fs5,6
		        noteL Gs5,5
		        note  A5
		        noteL Cs6,56
		        noteL B5,8
		        note  Gs5
		        noteL E5,4
		        note  F5
		        noteL Fs5,24
		        noteL E5,8
		        noteL D5,70
		        noteL Cs5,5
		        note  C5
		        noteL Cs5,6
		        noteL D5,5
		        note  E5
		        noteL F5,6
		        noteL Fs5,5
		        note  Gs5
		        noteL A5,6
		        noteL B5,5
		        note  C6
		        noteL Cs6,6
		        noteL D6,5
		        note  Ds6
		        noteL E6,32
		        noteL B5,16
		        noteL Fs6,6
		  ymVol 09h
		        noteL Fs6,5
		  ymVol 0Ch
		        noteL E6,6
		  ymVol 09h
		        noteL E6,5
		  ymVol 0Ch
		        note  B5
		  ymVol 09h
		        note  B5
		  ymVol 0Ch
		        noteL A5,8
		  ymVol 09h
		        note  A5
		  ymVol 0Ch
		        noteL Cs6,24
		        noteL B5,8
		        note  Cs6
		        note  D6
		        noteL Cs6,48
		        noteL D6,6
		        noteL Cs6,5
		        note  A5
		        noteL B5,6
		        noteL A5,5
		        note  Fs5
		        noteL G5,6
		        noteL Fs5,5
		        note  Cs5
		        noteL D5,6
		  ymVol 09h
		        noteL D5,5
		  ymVol 0Ch
		        note  E5
		        noteL E5,32
		        noteL E5,6
		        noteL D5,5
		        note  A4
		        noteL Fs4,6
		  ymVol 09h
		        noteL Fs4,5
		  ymVol 0Ch
		        note  G4
		        noteL G4,32
		        noteL G4,6
		        noteL Fs4,5
		        note  E4
		  ymVol 09h
		        noteL E4,8
		  ymVol 07h
		        note  E4
		  ymVol 0Ch
		        noteL D4,6
		        noteL Cs4,5
		        note  D4
		        noteL F4,6
		        noteL Fs4,5
		        note  A4
		        noteL Cs5,6
		        noteL D5,5
		        note  A5
		  ymVol 09h
		        noteL A5,8
		  ymVol 07h
		        note  A5
		  ymVol 0Ch
		        noteL E4,6
		        noteL Ds4,5
		        note  E4
		        noteL F4,6
		        noteL Fs4,5
		        note  A4
		        noteL Cs5,6
		        noteL E5,5
		        note  A5
		  ymVol 09h
		        noteL A5,8
		  ymVol 07h
		        note  A5
		  ymVol 0Ch
		        noteL B4,6
		        noteL As4,5
		        note  B4
		        noteL D5,6
		        noteL Cs5,5
		        note  D5
		        noteL F5,6
		        noteL Fs5,5
		        note  As5
		        noteL B5,6
		        noteL Cs6,5
		        note  D6
		        noteL Fs6,22
		        noteL E6,5
		        note  D6
		        noteL B5,6
		        noteL Fs5,5
		        note  D5
		  ymVol 0Dh
		        noteL A5,248
		mainLoopEnd
Music_7_Channel_2:
		  ymStereo 0C0h
		  release 01h
		  vibrato 02Ch
		  length 128
		mainLoopStart
		repeatStart
		  ymInst 26
		  ymVol 0Ah
		        noteL Fs5,5
		  ymVol 07h
		        note  Fs5
		  ymVol 05h
		        noteL Fs5,6
		  length 16
		  ymVol 0Ah
		        noteL Fs5,20
		  ymVol 07h
		        noteL Fs5,5
		  ymVol 0Ah
		        noteL Fs5,7
		countedLoopStart 1
		        noteL G5,5
		  ymVol 07h
		        note  G5
		  ymVol 05h
		        noteL G5,6
		  ymVol 0Ah
		countedLoopEnd
		        noteL Fs5,24
		  ymVol 07h
		        noteL Fs5,8
		countedLoopStart 1
		  ymVol 0Ah
		        noteL A5,5
		  ymVol 07h
		        note  A5
		  ymVol 05h
		        noteL A5,6
		countedLoopEnd
		  ymVol 0Ah
		        noteL G5,25
		repeatSection1Start
		        noteL E5,7
		        noteL G5,16
		        noteL Fs5,8
		        note  E5
		        noteL Fs5,32
		repeatEnd
		repeatSection2Start
		        noteL A5,7
		        noteL A5,16
		        noteL G5,6
		        noteL A5,5
		        note  G5
		        noteL F5,6
		        noteL G5,5
		        note  F5
		        noteL E5,6
		        noteL D5,5
		        note  C5
		        note  D5
		  ymVol 07h
		        note  D5
		  ymVol 05h
		        noteL D5,6
		repeatStart
		  ymVol 0Bh
		        noteL A4,6
		        noteL A4,5
		        note  A4
		        note  A4
		  ymVol 08h
		        note  A4
		  ymVol 06h
		        noteL A4,6
		  ymVol 0Bh
		        noteL A3,5
		  ymVol 08h
		        note  A3
		  ymVol 06h
		        noteL A3,6
		  ymVol 0Bh
		        note  B4
		        noteL B4,5
		        note  B4
		        note  B4
		  ymVol 08h
		        note  B4
		  ymVol 06h
		        noteL B4,6
		  ymVol 0Bh
		repeatSection1Start
		        noteL A4,24
		        noteL Gs4,8
		        noteL A4,5
		  ymVol 08h
		        note  A4
		  ymVol 06h
		        noteL A4,6
		repeatEnd
		repeatSection2Start
		        noteL Cs5,24
		        noteL B4,4
		        note  As4
		        noteL A4,5
		  ymVol 08h
		        note  A4
		  ymVol 06h
		        noteL A4,6
		repeatEnd
		repeatSection3Start
		        noteL A4,24
		        noteL B4,8
		        noteL E4,5
		  ymVol 08h
		        note  E4
		  ymVol 06h
		        noteL E4,6
		  ymVol 0Bh
		        note  Cs5
		        noteL Cs5,5
		        note  Cs5
		        note  Cs5
		  ymVol 08h
		        note  Cs5
		  ymVol 06h
		        noteL Cs5,6
		  ymVol 0Bh
		        noteL Gs4,5
		  ymVol 08h
		        note  Gs4
		  ymVol 06h
		        noteL Gs4,6
		  ymVol 0Bh
		        noteL A4,8
		        note  Gs4
		        note  A4
		        note  Cs5
		  ymSustain
		        noteL Fs5,32
		  ymVol 08h
		        noteL Fs5,6
		  ymVol 06h
		        note  Fs5
		  ymVol 04h
		  release 01h
		        note  Fs5
		  length 30
		  ymInst 27
		  ymVol 09h
		        noteL B3,16
		        note  Cs4
		        note  D4
		        noteL E4,32
		        noteL Fs4,80
		        noteL E4,16
		        note  D4
		        note  A3
		        noteL As3,26
		        noteL G4,6
		        noteL G4,32
		        noteL As3,26
		        noteL Fs4,6
		        noteL Fs4,32
		        noteL A3,26
		        noteL E4,6
		        noteL E4,48
		  ymSustain
		        noteL D4,5
		  ymVol 06h
		        note  D4
		  release 01h
		  ymVol 04h
		        noteL D4,6
		  ymSustain
		  ymVol 09h
		        noteL Cs4,5
		  ymVol 06h
		        note  Cs4
		  release 01h
		  ymVol 04h
		        noteL Cs4,6
		  ymSustain
		  ymVol 09h
		        noteL B3,5
		  ymVol 06h
		        note  B3
		  release 01h
		  ymVol 04h
		        noteL B3,6
		  ymSustain
		  ymVol 09h
		        noteL A3,5
		  ymVol 06h
		        note  A3
		  release 01h
		  ymVol 04h
		        noteL A3,6
		  length 16
		  ymInst 13
		  ymVol 0Bh
		        noteL A3,32
		        note  B3
		        noteL Cs4,16
		        note  D4
		        noteL E4,48
		        noteL D4,16
		        noteL Cs4,32
		        note  B3
		        noteL A3,16
		  ymInst 3
		  ymVol 0Ch
		        noteL A4,6
		        noteL A4,5
		        note  A4
		        noteL A4,6
		  ymVol 09h
		        noteL A4,5
		  ymVol 0Ch
		        noteL A4,6
		  ymVol 09h
		        noteL A4,5
		  ymVol 0Ch
		        note  A4
		  ymVol 09h
		        note  A4
		  ymVol 0Ch
		        noteL A4,42
		  ymVol 09h
		        noteL A4,6
		  ymInst 13
		  ymVol 0Bh
		        noteL A3,16
		        note  B3
		        note  Cs4
		        noteL D4,24
		        noteL E4,8
		        noteL D4,32
		        note  Cs4
		  ymInst 27
		  ymVol 09h
		        noteL Fs4,64
		        noteL E4,32
		        noteL D4,24
		        noteL Cs4,8
		        noteL B3,32
		  ymInst 3
		  ymVol 0Ch
		        noteL B4,24
		        noteL B4,8
		        noteL D5,6
		  ymVol 09h
		        noteL D5,5
		  ymVol 0Ch
		        note  Cs5
		        noteL B4,42
		  ymVol 09h
		        noteL B4,6
		  ymInst 20
		  ymSustain
		  ymVol 0Bh
		        noteL D4,8
		  ymVol 08h
		        note  D4
		  ymVol 06h
		        note  D4
		  release 01h
		  ymVol 04h
		        note  D4
		  ymVol 0Bh
		        noteL D4,32
		  ymSustain
		        noteL E4,8
		  ymVol 08h
		        note  E4
		  ymVol 06h
		        note  E4
		  ymVol 04h
		  release 01h
		        note  E4
		  ymVol 0Bh
		        noteL E4,32
		  ymSustain
		        noteL Fs4,8
		  ymVol 08h
		        note  Fs4
		  ymVol 06h
		        note  Fs4
		  ymVol 04h
		  release 01h
		        note  Fs4
		  ymVol 0Bh
		        noteL Fs4,16
		  ymVol 08h
		        noteL Fs4,8
		  ymVol 0Bh
		        note  Fs4
		  ymSustain
		        noteL Fs4,64
		  ymVol 08h
		        noteL Fs4,8
		  ymVol 06h
		  release 01h
		        note  Fs4
		  ymInst 56
		  ymVol 0Ch
		        noteL A3,5
		  ymVol 09h
		        note  A3
		  ymVol 07h
		        noteL A3,6
		  ymVol 0Ch
		        noteL D4,5
		  ymVol 09h
		        note  D4
		  ymVol 07h
		        noteL D4,6
		  ymVol 0Ch
		        noteL E4,5
		  ymVol 09h
		        note  E4
		  ymVol 07h
		        noteL E4,6
		  ymVol 0Ch
		        noteL B4,5
		  ymVol 09h
		        note  B4
		  ymVol 07h
		        noteL B4,6
		  ymVol 0Ch
		        noteL A4,5
		  ymVol 09h
		        note  A4
		  ymVol 07h
		        noteL A4,6
		  ymVol 0Ch
		        noteL G4,24
		        noteL B4,8
		        noteL A4,40
		  ymVol 09h
		        noteL A4,8
		  ymVol 0Ch
		        note  G4
		        note  Fs4
		        noteL E4,64
		mainLoopEnd
Music_7_Channel_3:
		  ymStereo 0C0h
		  release 01h
		  vibrato 02Ch
		  length 128
		mainLoopStart
		  ymStereo 080h
		  shifting 020h
		  length 8
		repeatStart
		  ymInst 26
		  ymVol 09h
		        noteL Fs5,5
		  ymVol 06h
		        note  Fs5
		  ymVol 04h
		        noteL Fs5,6
		  length 16
		  ymVol 09h
		        noteL Fs5,20
		  ymVol 06h
		        noteL Fs5,5
		  ymVol 09h
		        noteL Fs5,7
		countedLoopStart 1
		        noteL G5,5
		  ymVol 06h
		        note  G5
		  ymVol 04h
		        noteL G5,6
		  ymVol 09h
		countedLoopEnd
		        noteL Fs5,24
		  ymVol 06h
		        noteL Fs5,8
		countedLoopStart 1
		  ymVol 09h
		        noteL A5,5
		  ymVol 06h
		        note  A5
		  ymVol 04h
		        noteL A5,6
		countedLoopEnd
		  ymVol 09h
		        noteL G5,25
		repeatSection1Start
		        noteL E5,7
		        noteL G5,16
		        noteL Fs5,8
		        note  E5
		        noteL Fs5,32
		repeatEnd
		repeatSection2Start
		        noteL A5,7
		        noteL A5,16
		        noteL G5,6
		        noteL A5,5
		        note  G5
		        noteL F5,6
		        noteL G5,5
		        note  F5
		        noteL E5,8
		  ymStereo 0C0h
		  shifting 00h
		        noteL Fs3,5
		  ymVol 07h
		        note  Fs3
		  ymVol 05h
		        noteL Fs3,6
		repeatStart
		  ymVol 0Bh
		        noteL Fs4,6
		        noteL Fs4,5
		        note  Fs4
		        note  Fs4
		  ymVol 08h
		        note  Fs4
		  ymVol 06h
		        noteL Fs4,6
		  ymVol 0Bh
		        noteL Fs3,5
		  ymVol 08h
		        note  Fs3
		  ymVol 06h
		        noteL Fs3,6
		  ymVol 0Bh
		        note  Gs4
		        noteL Gs4,5
		        note  Gs4
		        note  Gs4
		  ymVol 08h
		        note  Gs4
		  ymVol 06h
		        noteL Gs4,6
		  ymVol 0Bh
		repeatSection1Start
		        noteL Fs4,24
		        noteL E4,8
		        noteL Fs4,5
		  ymVol 08h
		        note  Fs4
		  ymVol 06h
		        noteL Fs4,6
		repeatEnd
		repeatSection2Start
		        noteL A4,32
		        noteL Fs4,5
		  ymVol 08h
		        note  Fs4
		  ymVol 06h
		        noteL Fs4,6
		repeatEnd
		repeatSection3Start
		        noteL Fs4,24
		        noteL Fs4,8
		        noteL Cs4,5
		  ymVol 08h
		        note  Cs4
		  ymVol 06h
		        noteL Cs4,6
		  ymVol 0Bh
		        note  E4
		        noteL E4,5
		        note  E4
		countedLoopStart 1
		        noteL E4,5
		  ymVol 08h
		        note  E4
		  ymVol 06h
		        noteL E4,6
		  ymVol 0Bh
		countedLoopEnd
		countedLoopStart 1
		        noteL Fs4,5
		  ymVol 08h
		        note  Fs4
		  ymVol 06h
		        noteL Fs4,6
		  ymVol 0Bh
		countedLoopEnd
		        noteL A4,32
		  length 56
		  shifting 020h
		  ymStereo 080h
		  ymInst 27
		  ymVol 08h
		        noteL B3,16
		        note  Cs4
		        note  D4
		        noteL E4,32
		        noteL Fs4,80
		        noteL E4,16
		        note  D4
		        note  A3
		        noteL As3,26
		        noteL G4,6
		        noteL G4,32
		        noteL As3,26
		        noteL Fs4,6
		        noteL Fs4,32
		        noteL A3,26
		        noteL E4,6
		        noteL E4,48
		  ymSustain
		        noteL D4,5
		  ymVol 05h
		        note  D4
		  release 01h
		  ymVol 03h
		        noteL D4,6
		  ymSustain
		  ymVol 08h
		        noteL Cs4,5
		  ymVol 05h
		        note  Cs4
		  release 01h
		  ymVol 03h
		        noteL Cs4,6
		  ymSustain
		  ymVol 08h
		        noteL B3,5
		  ymVol 05h
		        note  B3
		  release 01h
		  ymVol 03h
		        noteL B3,6
		  ymSustain
		  ymVol 08h
		        noteL A3,5
		  ymVol 05h
		        note  A3
		  ymVol 03h
		  release 01h
		        noteL A3,6
		  length 8
		  shifting 00h
		  ymStereo 0C0h
		  ymInst 13
		  ymVol 0Ah
		        noteL Fs3,32
		        note  Gs3
		        noteL A3,16
		        note  B3
		        noteL Cs4,48
		        noteL B3,16
		        noteL A3,32
		        note  Gs3
		        noteL Fs3,16
		  ymInst 3
		  ymVol 0Bh
		        noteL Gs4,6
		        noteL Gs4,5
		        note  Gs4
		        noteL Gs4,6
		  ymVol 08h
		        noteL Gs4,5
		  ymVol 0Bh
		        noteL Fs4,6
		  ymVol 08h
		        noteL Fs4,5
		  ymVol 0Bh
		        note  E4
		  ymVol 08h
		        note  E4
		  ymVol 0Bh
		        noteL Fs4,42
		  ymVol 08h
		        noteL Fs4,6
		  ymInst 13
		  ymVol 0Ah
		        noteL Fs3,16
		        note  Gs3
		        note  A3
		        noteL B3,24
		        noteL Cs4,8
		        noteL B3,32
		        note  A3
		  ymInst 27
		  ymVol 09h
		        noteL D4,64
		        noteL Cs4,32
		        noteL B3,24
		        noteL A3,8
		        noteL G3,32
		  ymInst 3
		  ymVol 0Bh
		        noteL G4,24
		        noteL G4,8
		        noteL B4,6
		  ymVol 08h
		        noteL B4,5
		  ymVol 0Bh
		        note  A4
		        noteL G4,42
		  ymVol 08h
		        noteL G4,6
		repeatStart
		  ymInst 20
		  ymVol 0Ah
		  ymSustain
		        noteL B3,8
		  ymVol 07h
		        note  B3
		  ymVol 05h
		        note  B3
		  ymVol 03h
		  release 01h
		        note  B3
		  ymVol 0Ah
		repeatSection1Start
		        noteL B3,32
		  ymSustain
		  ymVol 0Ah
		        noteL Cs4,8
		  ymVol 07h
		        note  Cs4
		  ymVol 05h
		        note  Cs4
		  ymVol 03h
		  release 01h
		        note  Cs4
		  ymVol 0Ah
		        noteL Cs4,32
		repeatEnd
		repeatSection2Start
		        noteL B3,16
		  ymVol 07h
		        noteL B3,8
		  ymVol 0Ah
		        note  B3
		  ymSustain
		        noteL B3,64
		  ymVol 07h
		        noteL B3,8
		  ymVol 05h
		  release 01h
		        note  B3
		  ymInst 56
		  ymVol 0Bh
		        noteL G3,5
		  ymVol 08h
		        note  G3
		  ymVol 06h
		        noteL G3,6
		  ymVol 0Bh
		        noteL A3,5
		  ymVol 08h
		        note  A3
		  ymVol 06h
		        noteL A3,6
		  ymVol 0Bh
		        noteL D4,5
		  ymVol 08h
		        note  D4
		  ymVol 06h
		        noteL D4,6
		  ymVol 0Bh
		        noteL G4,5
		  ymVol 08h
		        note  G4
		  ymVol 06h
		        noteL G4,6
		  ymVol 0Bh
		        noteL D4,5
		  ymVol 08h
		        note  D4
		  ymVol 06h
		        noteL D4,6
		  ymVol 0Bh
		        noteL B3,24
		        noteL D4,8
		        noteL D4,56
		  ymVol 08h
		        noteL D4,8
		  ymVol 0Bh
		        noteL D4,32
		        note  Cs4
		mainLoopEnd
Music_7_Channel_4:
		  shifting 020h
		  release 01h
		  vibrato 02Ch
		  length 128
		mainLoopStart
		  ymStereo 040h
		repeatStart
		  ymInst 26
		  ymVol 0Bh
		  ymSustain
		        noteL D5,3
		        note  Fs5
		  release 01h
		        noteL G5,2
		        noteL A5,6
		  ymVol 08h
		        note  A5
		  ymVol 06h
		        note  A5
		  length 14
		  ymVol 0Bh
		        noteL A5,20
		  ymVol 08h
		        noteL A5,5
		  ymVol 0Bh
		  ymSustain
		        noteL A5,6
		        noteL As5,1
		  release 01h
		countedLoopStart 1
		        noteL B5,5
		  ymVol 08h
		        note  B5
		  ymVol 06h
		        noteL B5,6
		  ymVol 0Bh
		countedLoopEnd
		        noteL A5,24
		  ymSustain
		        noteL D5,3
		        note  G5
		  release 01h
		        noteL A5,2
		        noteL C6,5
		  ymVol 08h
		        note  C6
		  ymVol 06h
		        noteL C6,6
		  ymVol 0Bh
		        noteL C6,5
		  ymVol 08h
		repeatSection1Start
		        noteL C6,9
		  ymVol 0Bh
		  ymSustain
		        noteL A5,1
		        note  As5
		  release 01h
		        noteL B5,25
		  ymSustain
		        noteL G5,6
		        noteL Gs5,1
		  release 01h
		        noteL A5,56
		repeatEnd
		repeatSection2Start
		        noteL C6,10
		  ymVol 0Bh
		  ymSustain
		        noteL A5,1
		  release 01h
		        noteL B5,25
		        noteL C6,6
		  ymSustain
		        noteL Cs6,1
		        noteL D6,64
		  ymVol 08h
		        noteL D6,8
		  release 01h
		  ymVol 06h
		        note  D6
		repeatStart
		  ymStereo 080h
		  ymInst 20
		  ymVol 0Bh
		        noteL Cs3,16
		        noteL D3,5
		  ymVol 08h
		        note  D3
		  ymVol 06h
		        noteL D3,6
		  ymVol 0Bh
		        noteL A3,5
		  ymVol 08h
		        note  A3
		  ymVol 06h
		        noteL A3,6
		  ymVol 0Bh
		repeatSection1Start
		        noteL Gs3,48
		        noteL E3,5
		  ymVol 08h
		        note  E3
		  ymVol 06h
		        noteL E3,6
		  ymVol 0Bh
		        noteL Fs3,5
		  ymVol 08h
		        note  Fs3
		  ymVol 06h
		        noteL Fs3,6
		  ymVol 0Bh
		        noteL Cs4,32
		        noteL B3,5
		  ymVol 08h
		        note  B3
		  ymVol 06h
		        noteL B3,6
		  ymVol 0Bh
		        noteL Gs3,5
		  ymVol 08h
		        note  Gs3
		  ymVol 06h
		        noteL Gs3,6
		  ymVol 0Bh
		        noteL E3,5
		  ymVol 08h
		        note  E3
		  ymVol 06h
		        noteL E3,6
		  ymSustain
		  ymVol 0Bh
		        noteL Fs3,32
		  ymVol 08h
		        noteL Fs3,8
		  ymVol 06h
		  release 01h
		        note  Fs3
		repeatEnd
		repeatSection2Start
		        noteL Gs3,5
		  ymVol 08h
		        note  Gs3
		  ymVol 06h
		        noteL Gs3,6
		  ymVol 0Bh
		        noteL E3,16
		        noteL Fs3,5
		  ymVol 08h
		        note  Fs3
		  ymVol 06h
		        noteL Fs3,6
		  ymVol 0Bh
		        noteL Cs4,5
		  ymVol 08h
		        note  Cs4
		  ymVol 06h
		        noteL Cs4,6
		  ymVol 0Bh
		        noteL E4,48
		        noteL B3,5
		  ymVol 08h
		        note  B3
		  ymVol 06h
		        noteL B3,6
		  ymSustain
		  ymVol 0Bh
		        noteL A3,64
		  ymVol 08h
		        noteL A3,8
		  release 01h
		  ymVol 06h
		        note  A3
		  ymStereo 040h
		  ymInst 13
		  ymVol 0Bh
		        noteL Fs4,16
		        noteL G4,5
		  ymVol 08h
		        note  G4
		  ymVol 06h
		        noteL G4,6
		  ymVol 0Bh
		        noteL D5,5
		  ymVol 08h
		        note  D5
		  ymVol 06h
		        noteL D5,6
		  ymVol 0Bh
		        noteL Cs5,48
		        noteL B4,5
		  ymVol 08h
		        note  B4
		  ymVol 06h
		        noteL B4,6
		  ymVol 0Bh
		        noteL A4,5
		  ymVol 08h
		        note  A4
		  ymVol 06h
		        noteL A4,6
		  ymVol 0Bh
		        noteL E5,32
		        noteL D5,5
		  ymVol 08h
		        note  D5
		  ymVol 06h
		        noteL D5,6
		  ymVol 0Bh
		        noteL Cs5,32
		        noteL B4,27
		        noteL Cs5,5
		        noteL D5,48
		        noteL C5,8
		        note  As4
		        noteL D5,48
		        noteL C5,8
		        note  As4
		  ymSustain
		        noteL D5,40
		  ymVol 08h
		  release 01h
		        noteL D5,8
		  ymVol 0Bh
		        noteL D5,6
		        noteL D5,5
		        note  D5
		        note  Cs5
		  ymVol 08h
		        note  Cs5
		  ymVol 06h
		        noteL Cs5,6
		  ymVol 0Bh
		        noteL B4,5
		  ymVol 08h
		        note  B4
		  ymVol 06h
		        noteL B4,6
		  ymVol 0Bh
		        noteL A4,5
		  ymVol 08h
		        note  A4
		  ymVol 06h
		        noteL A4,6
		  ymVol 0Bh
		        noteL G4,5
		  ymVol 08h
		        note  G4
		  ymVol 06h
		        noteL G4,6
		  ymVol 0Bh
		        noteL Fs4,5
		  ymVol 08h
		        note  Fs4
		  ymVol 06h
		        noteL Fs4,6
		  ymInst 26
		  ymVol 0Bh
		        note  Cs5
		        noteL C5,5
		        note  Cs5
		        noteL D5,6
		        noteL Cs5,5
		        note  D5
		        noteL F5,6
		        noteL Fs5,5
		        note  A5
		        noteL Gs5,48
		        noteL Fs5,4
		        note  Gs5
		        note  Fs5
		        note  E5
		        noteL Fs5,6
		        noteL Gs5,5
		        note  A5
		        noteL Cs6,56
		        noteL B5,8
		        note  Gs5
		        noteL E5,4
		        note  F5
		        noteL Fs5,24
		        noteL E5,8
		        noteL D5,70
		        noteL Cs5,5
		        note  C5
		        noteL Cs5,6
		        noteL D5,5
		        note  E5
		        noteL F5,6
		        noteL Fs5,5
		        note  Gs5
		        noteL A5,6
		        noteL B5,5
		        note  C6
		        noteL Cs6,6
		        noteL D6,5
		        note  Ds6
		        noteL E6,32
		        noteL B5,16
		        noteL Fs6,6
		  ymVol 08h
		        noteL Fs6,5
		  ymVol 0Bh
		        noteL E6,6
		  ymVol 08h
		        noteL E6,5
		  ymVol 0Bh
		        note  B5
		  ymVol 08h
		        note  B5
		  ymVol 0Bh
		        noteL A5,8
		  ymVol 08h
		        note  A5
		  ymVol 0Bh
		        noteL Cs6,24
		        noteL B5,8
		        note  Cs6
		        note  D6
		        noteL Cs6,48
		        noteL D6,6
		        noteL Cs6,5
		        note  A5
		        noteL B5,6
		        noteL A5,5
		        note  Fs5
		        noteL G5,6
		        noteL Fs5,5
		        note  Cs5
		        noteL D5,6
		  ymVol 08h
		        noteL D5,5
		  ymVol 0Bh
		        note  E5
		        noteL E5,32
		        noteL E5,6
		        noteL D5,5
		        note  A4
		        noteL Fs4,6
		  ymVol 08h
		        noteL Fs4,5
		  ymVol 0Bh
		        note  G4
		        noteL G4,32
		        noteL G4,6
		        noteL Fs4,5
		        note  E4
		  ymVol 08h
		        noteL E4,8
		  ymVol 06h
		        note  E4
		  ymVol 0Bh
		        noteL D4,6
		        noteL Cs4,5
		        note  D4
		        noteL F4,6
		        noteL Fs4,5
		        note  A4
		        noteL Cs5,6
		        noteL D5,5
		        note  A5
		  ymVol 08h
		        noteL A5,8
		  ymVol 06h
		        note  A5
		  ymVol 0Bh
		        noteL E4,6
		        noteL Ds4,5
		        note  E4
		        noteL F4,6
		        noteL Fs4,5
		        note  A4
		        noteL Cs5,6
		        noteL E5,5
		        note  A5
		  ymVol 08h
		        noteL A5,8
		  ymVol 06h
		        note  A5
		  ymVol 0Bh
		        noteL B4,6
		        noteL As4,5
		        note  B4
		        noteL D5,6
		        noteL Cs5,5
		        note  D5
		        noteL F5,6
		        noteL Fs5,5
		        note  As5
		        noteL B5,6
		        noteL Cs6,5
		        note  D6
		        noteL Fs6,22
		        noteL E6,5
		        note  D6
		        noteL B5,6
		        noteL Fs5,5
		        note  D5
		        noteL A5,16
		  ymStereo 080h
		  ymInst 56
		  ymVol 0Bh
		        noteL A3,5
		  ymVol 08h
		        note  A3
		  ymVol 06h
		        noteL A3,6
		  ymVol 0Bh
		        noteL D4,5
		  ymVol 08h
		        note  D4
		  ymVol 06h
		        noteL D4,6
		  ymVol 0Bh
		        noteL E4,5
		  ymVol 08h
		        note  E4
		  ymVol 06h
		        noteL E4,6
		  ymVol 0Bh
		        noteL B4,5
		  ymVol 08h
		        note  B4
		  ymVol 06h
		        noteL B4,6
		  ymVol 0Bh
		        noteL A4,5
		  ymVol 08h
		        note  A4
		  ymVol 06h
		        noteL A4,6
		  ymVol 0Bh
		        noteL G4,24
		        noteL B4,8
		        noteL A4,40
		  ymVol 08h
		        noteL A4,8
		  ymVol 0Bh
		        note  G4
		        note  Fs4
		        noteL E4,56
		mainLoopEnd
Music_7_Channel_5:
		  ymStereo 0C0h
		        sampleL 2,8
		        sampleL 2,4
		        sampleL 3,3
		        sample  4
		        sample  4
		        sample  4
		        sampleL 2,8
		        sample  1
		        sampleL 0,24
		        sampleL 2,8
		        sampleL 2,4
		        sampleL 3,3
		        sample  4
		        sample  4
		        sample  4
		        sampleL 2,8
		        sampleL 5,32
		mainLoopStart
		repeatStart
		        sampleL 2,16
		        sampleL 3,6
		        sampleL 4,5
		        sample  4
		        sampleL 3,8
		        sample  3
		        sampleL 3,16
		        sample  2
		        sampleL 3,6
		        sampleL 4,5
		        sample  4
		        sampleL 3,16
		repeatSection1Start
		        sampleL 3,6
		        sampleL 4,5
		        sample  4
		repeatEnd
		repeatSection2Start
		        sampleL 1,16
		        sample  5
		repeatStart
		        sampleL 3,6
		        sampleL 4,5
		        sample  4
		        sampleL 3,8
		        sample  3
		        sampleL 3,16
		        sample  2
		        sampleL 3,6
		        sampleL 4,5
		        sample  4
		repeatSection1Start
		        sampleL 3,16
		        sampleL 3,6
		        sampleL 4,5
		        sample  4
		        sampleL 2,16
		repeatEnd
		repeatSection2Start
		        sampleL 2,6
		        sampleL 2,5
		        sample  2
		        sampleL 2,6
		        sampleL 2,5
		        sample  2
		countedLoopStart 2
		        sampleL 2,16
		        sampleL 3,6
		        sampleL 4,5
		        sample  4
		        sampleL 3,8
		        sample  3
		        sampleL 3,16
		        sample  2
		        sampleL 3,6
		        sampleL 4,5
		        sample  4
		        sampleL 3,16
		        sampleL 3,6
		        sampleL 4,5
		        sample  4
		countedLoopEnd
		        sampleL 2,16
		        sampleL 3,6
		        sampleL 4,5
		        sample  4
		        sampleL 3,8
		        sample  3
		        sampleL 3,16
		        sample  2
		        sampleL 3,6
		        sampleL 4,5
		        sample  4
		        sampleL 3,16
		        sample  3
		countedLoopStart 1
		        sampleL 2,16
		        sampleL 3,6
		        sampleL 4,5
		        sample  4
		        sampleL 3,8
		        sample  3
		        sampleL 3,16
		        sample  2
		        sampleL 3,6
		        sampleL 4,5
		        sample  4
		        sampleL 3,16
		        sampleL 3,6
		        sampleL 4,5
		        sample  4
		countedLoopEnd
		countedLoopStart 2
		        sampleL 5,16
		        sampleL 3,6
		        sampleL 3,5
		        sample  3
		        sampleL 2,16
		        sampleL 3,6
		        sampleL 4,5
		        sample  4
		countedLoopEnd
		        sampleL 2,6
		        sampleL 3,5
		        sample  3
		        sampleL 2,11
		        sampleL 3,5
		        sampleL 2,16
		        sample  1
		        sample  5
		countedLoopStart 2
		        sampleL 3,6
		        sampleL 4,5
		        sample  4
		        sampleL 3,8
		        sample  3
		        sampleL 3,16
		        sample  2
		        sampleL 3,6
		        sampleL 4,5
		        sample  4
		        sampleL 3,16
		        sampleL 3,6
		        sampleL 4,5
		        sample  4
		        sampleL 2,16
		countedLoopEnd
		        sampleL 3,6
		        sampleL 4,5
		        sample  4
		        sampleL 3,8
		        sample  3
		        sampleL 3,16
		        sample  2
		countedLoopStart 2
		        sampleL 3,6
		        sampleL 4,5
		        sample  4
		countedLoopEnd
		repeatStart
		        sampleL 2,16
		        sampleL 3,6
		        sampleL 4,5
		        sample  4
		        sampleL 3,8
		        sample  3
		        sampleL 3,16
		        sample  2
		        sampleL 3,6
		        sampleL 4,5
		        sample  4
		        sampleL 3,16
		repeatSection1Start
		        sampleL 3,6
		        sampleL 4,5
		        sample  4
		repeatEnd
		repeatSection2Start
		        sampleL 4,16
		countedLoopStart 2
		        sampleL 3,6
		        sampleL 3,5
		        sample  3
		        sampleL 2,6
		        sampleL 3,5
		        sample  3
		        sampleL 2,16
		        sample  0
		countedLoopEnd
		        sampleL 2,6
		        sampleL 3,5
		        sample  3
		        sampleL 2,6
		        sampleL 3,5
		        sampleL 3,4
		        sampleL 4,1
		        sampleL 2,11
		        sampleL 3,4
		        sampleL 4,1
		        sampleL 2,11
		        sampleL 3,5
		countedLoopStart 2
		        sampleL 2,16
		        sampleL 2,6
		        sampleL 3,5
		        sample  3
		        sampleL 2,16
		countedLoopEnd
		        sampleL 2,6
		        sampleL 3,5
		        sample  3
		        sampleL 2,16
		        sample  3
		        sampleL 5,32
		        sampleL 4,4
		        sample  4
		        sample  4
		        sample  4
		        sample  3
		        sample  3
		        sample  3
		        sample  3
		mainLoopEnd
Music_7_Channel_6:
		  psgInst 0
		  release 01h
		  vibrato 04Ch
		  length 128
		mainLoopStart
		repeatStart
		  psgInst 0
		  length 16
		  psgInst 125
		        psgNoteL Fs4,6
		        psgNoteL B4,5
		        psgNote  E5
		        psgNoteL Ds5,6
		        psgNoteL B4,5
		        psgNote  Ds5
		        psgNoteL Cs5,6
		        psgNoteL Fs4,5
		        psgNote  Cs5
		        psgNote  B4
		  length 11
		        psgNoteL B4,6
		        psgNoteL B4,5
		        psgNote  B4
		repeatSection1Start
		        psgNoteL B4,5
		  length 11
		        psgNoteL B4,6
		        psgNoteL B4,5
		        psgNote  B4
		repeatEnd
		repeatSection2Start
		        psgNoteL B4,32
		repeatEnd
		repeatSection3Start
		        psgNoteL B4,5
		  length 11
		        psgNoteL B4,6
		        psgNoteL B4,5
		        psgNote  B4
		  psgInst 0
		  length 16
		  psgInst 125
		        psgNoteL E4,6
		        psgNoteL A4,5
		        psgNote  D5
		        psgNoteL Cs5,6
		        psgNoteL A4,5
		        psgNote  Cs5
		        psgNoteL B4,6
		        psgNoteL E4,5
		        psgNote  B4
		        psgNote  D5
		  length 11
		        psgNoteL D5,6
		        psgNoteL D5,5
		        psgNote  D5
		        psgNoteL Cs5,32
		  psgInst 0
		  length 128
		        silence
		        silence
		        silence
		  length 16
		  psgInst 125
		        psgNoteL Cs7,6
		        psgNoteL Cs7,5
		        psgNote  Cs7
		        psgNoteL Cs7,4
		  length 12
		        psgNoteL Ds7,4
		  length 12
		        psgNoteL E7,6
		        psgNoteL E7,5
		        psgNote  E7
		        psgNoteL E7,4
		  length 12
		        psgNoteL E7,24
		        psgNoteL E7,8
		  length 16
		        psgNoteL Fs7,6
		        psgNoteL Fs7,5
		        psgNote  Fs7
		        psgNoteL Fs7,4
		  length 12
		        psgNoteL E7,4
		  length 12
		        psgNoteL Ds7,6
		        psgNoteL Ds7,5
		        psgNote  Ds7
		        psgNoteL Ds7,4
		  length 12
		        psgNoteL Ds7,24
		        psgNoteL Ds7,8
		        psgNoteL B4,6
		        psgNoteL E5,5
		        psgNote  G5
		        psgNoteL B5,6
		        psgNoteL E6,5
		        psgNote  G6
		        psgNoteL B6,6
		        psgNoteL A6,5
		        psgNote  G6
		        psgNoteL Fs6,6
		        psgNoteL E6,5
		        psgNote  B5
		        psgNoteL B4,6
		        psgNoteL Ds5,5
		        psgNote  G5
		        psgNoteL B5,6
		        psgNoteL Ds6,5
		        psgNote  G6
		        psgNoteL B6,6
		        psgNoteL A6,5
		        psgNote  G6
		        psgNoteL F6,6
		        psgNoteL Ds6,5
		        psgNote  Cs6
		        psgNoteL Fs4,6
		        psgNoteL B4,5
		        psgNote  Cs5
		        psgNoteL E5,6
		        psgNoteL Fs5,5
		        psgNote  B5
		        psgNoteL Cs6,6
		        psgNoteL B5,5
		        psgNote  Cs6
		        psgNoteL E6,6
		        psgNoteL Cs6,5
		        psgNote  E6
		        psgNoteL Fs6,6
		        psgNoteL E6,5
		        psgNote  Fs6
		        psgNoteL Cs7,6
		        psgNoteL Fs6,5
		        psgNote  E6
		        psgNoteL Fs6,6
		        psgNoteL E6,5
		        psgNote  Fs6
		        psgNoteL Fs7,16
		  length 5
		  psgInst 10
		        silence
		  psgInst 0
		  length 214
		  psgInst 125
		        psgNoteL Gs6,6
		        psgNoteL As6,5
		        psgNote  Gs6
		        psgNoteL Fs6,6
		        psgNoteL F6,5
		        psgNote  Cs6
		        psgNoteL As5,4
		        psgNote  B5
		        psgNote  Ds6
		        psgNote  F6
		        psgNoteL As6,5
		        silence
		  psgInst 8
		        silence
		  psgInst 0
		  length 97
		  length 176
		  psgInst 125
		        psgNoteL Fs7,6
		        psgNoteL Ds7,5
		        psgNote  Cs7
		        psgNoteL B6,6
		        psgNoteL As6,5
		        psgNote  Fs6
		        psgNoteL Ds6,6
		        psgNoteL Cs6,5
		        psgNote  B5
		        silence
		  psgInst 8
		        silence
		  psgInst 0
		  length 22
		  length 128
		        silence
		        silence
		  psgInst 13
		countedLoopStart 2
		        psgNoteL Cs6,5
		  length 11
		        psgNoteL Cs6,6
		        psgNoteL Cs6,5
		        psgNote  Cs6
		        psgNote  Cs6
		  length 11
		countedLoopEnd
		        psgNoteL Cs6,6
		        psgNoteL Cs6,5
		        psgNote  Cs6
		        psgNote  Cs6
		  length 11
		        psgNoteL Cs6,5
		  length 11
		        psgNoteL Cs6,32
		        psgNote  Cs6
		mainLoopEnd
Music_7_Channel_7:
		  psgInst 0
		  release 01h
		  vibrato 04Ch
		  length 128
		mainLoopStart
		repeatStart
		  shifting 010h
		  psgInst 0
		  length 21
		  psgInst 123
		        psgNoteL Fs4,6
		        psgNoteL B4,5
		        psgNote  E5
		        psgNoteL Ds5,6
		        psgNoteL B4,5
		        psgNote  Ds5
		        psgNoteL Cs5,6
		        psgNoteL Fs4,5
		  shifting 00h
		  psgInst 13
		        psgNote  E4
		  length 11
		        psgNoteL E4,6
		        psgNoteL E4,5
		        psgNote  E4
		repeatSection1Start
		        psgNoteL Fs4,5
		  length 11
		        psgNoteL Fs4,6
		        psgNoteL Fs4,5
		        psgNote  Fs4
		repeatEnd
		repeatSection2Start
		        psgNoteL Fs4,32
		repeatEnd
		repeatSection3Start
		        psgNoteL Fs4,5
		  length 11
		        psgNoteL Fs4,6
		        psgNoteL Fs4,5
		        psgNote  Fs4
		  psgInst 0
		  length 21
		  shifting 010h
		  psgInst 123
		        psgNoteL E4,6
		        psgNoteL A4,5
		        psgNote  D5
		        psgNoteL Cs5,6
		        psgNoteL A4,5
		        psgNote  Cs5
		        psgNoteL B4,6
		        psgNoteL E4,5
		  shifting 00h
		  psgInst 13
		        psgNote  Fs4
		  length 11
		        psgNoteL Fs4,6
		        psgNoteL Fs4,5
		        psgNote  Fs4
		        psgNoteL E4,32
		  psgInst 0
		  length 128
		        silence
		        silence
		        silence
		  length 16
		  psgInst 125
		        psgNoteL E6,6
		        psgNoteL E6,5
		        psgNote  E6
		        psgNoteL E6,4
		  length 12
		        psgNoteL Fs6,4
		  length 12
		        psgNoteL Gs6,6
		        psgNoteL Gs6,5
		        psgNote  Gs6
		        psgNoteL Gs6,4
		  length 12
		        psgNoteL Gs6,24
		        psgNoteL Gs6,8
		  length 16
		        psgNoteL As6,6
		        psgNoteL As6,5
		        psgNote  As6
		        psgNoteL As6,4
		  length 12
		        psgNoteL Gs6,4
		  length 12
		        psgNoteL Fs6,6
		        psgNoteL Fs6,5
		        psgNote  Fs6
		        psgNoteL Fs6,4
		  length 12
		        psgNoteL Fs6,24
		        psgNoteL Fs6,8
		  length 5
		  shifting 010h
		        psgNoteL B4,6
		        psgNoteL E5,5
		        psgNote  G5
		        psgNoteL B5,6
		        psgNoteL E6,5
		        psgNote  G6
		        psgNoteL B6,6
		        psgNoteL A6,5
		        psgNote  G6
		        psgNoteL Fs6,6
		        psgNoteL E6,5
		        psgNote  B5
		        psgNoteL B4,6
		        psgNoteL Ds5,5
		        psgNote  G5
		        psgNoteL B5,6
		        psgNoteL Ds6,5
		        psgNote  G6
		        psgNoteL B6,6
		        psgNoteL A6,5
		        psgNote  G6
		        psgNoteL F6,6
		        psgNoteL Ds6,5
		        psgNote  Cs6
		        psgNoteL Fs4,6
		        psgNoteL B4,5
		        psgNote  Cs5
		        psgNoteL E5,6
		        psgNoteL Fs5,5
		        psgNote  B5
		        psgNoteL Cs6,6
		        psgNoteL B5,5
		        psgNote  Cs6
		        psgNoteL E6,6
		        psgNoteL Cs6,5
		        psgNote  E6
		        psgNoteL Fs6,6
		        psgNoteL E6,5
		        psgNote  Fs6
		        psgNoteL Cs7,6
		        psgNoteL Fs6,5
		        psgNote  E6
		        psgNoteL Fs6,6
		        psgNoteL E6,5
		  shifting 00h
		        psgNoteL As6,16
		  length 5
		  psgInst 9
		        silence
		  psgInst 0
		  length 219
		  shifting 010h
		  psgInst 123
		        psgNoteL Gs6,6
		        psgNoteL As6,5
		        psgNote  Gs6
		        psgNoteL Fs6,6
		        psgNoteL F6,5
		        psgNote  Cs6
		        psgNoteL As5,4
		        psgNote  B5
		        psgNote  Ds6
		        psgNote  F6
		        psgNoteL As6,5
		        silence
		  psgInst 7
		        silence
		  psgInst 0
		  length 97
		  length 176
		  psgInst 123
		        psgNoteL Fs7,6
		        psgNoteL Ds7,5
		        psgNote  Cs7
		        psgNoteL B6,6
		        psgNoteL As6,5
		        psgNote  Fs6
		        psgNoteL Ds6,6
		        psgNoteL Cs6,5
		        psgNote  B5
		        silence
		  psgInst 7
		        silence
		  psgInst 0
		  length 17
		  length 128
		        silence
		        silence
		  shifting 00h
		  psgInst 13
		countedLoopStart 2
		        psgNoteL B5,5
		  length 11
		        psgNoteL B5,6
		        psgNoteL B5,5
		        psgNote  B5
		        psgNote  B5
		  length 11
		countedLoopEnd
		        psgNoteL B5,6
		        psgNoteL B5,5
		        psgNote  B5
		        psgNote  B5
		  length 11
		        psgNoteL B5,5
		  length 11
		        psgNoteL Fs5,6
		        psgNoteL Cs5,5
		        psgNote  Fs5
		        psgNoteL B5,6
		        psgNoteL Fs5,5
		        psgNote  Cs5
		        psgNoteL E5,6
		        psgNoteL Cs5,5
		        psgNote  E5
		        psgNoteL As5,6
		        psgNoteL Fs5,5
		        psgNote  E5
		mainLoopEnd
Music_7_Channel_9:
		channel_end
